<svg xmlns="http://www.w3.org/2000/svg" xmlns:xlink="http://www.w3.org/1999/xlink" width="34.713" height="34.906" viewBox="0 0 34.713 34.906"><defs><style>.a{fill:url(#a);}.b{fill:#ebf6ff;}</style><linearGradient id="a" x1="-22.119" y1="17.677" x2="-21.177" y2="17.36" gradientUnits="objectBoundingBox"><stop offset="0.046" stop-color="#839fc9"/><stop offset="1" stop-color="#385196"/></linearGradient></defs><path class="a" d="M250.233,381.242a9.675,9.675,0,0,1-16.082-4.706L230.366,361a9.674,9.674,0,0,1,12.116-11.575l15.35,4.491a9.674,9.674,0,0,1,3.966,16.28Z" transform="translate(-230.082 -349.022)"/><g transform="translate(12.431 7.602)"><path class="b" d="M274.9,374.776h1.8v-3.133a23.243,23.243,0,0,0-2.62-.139c-2.593,0-4.37,1.631-4.37,4.629v2.759h-2.862v3.5h2.862v8.811h3.508V382.4h2.746l.436-3.5h-3.183v-2.413c0-1.012.273-1.7,1.684-1.7Zm0,0" transform="translate(-266.844 -371.505)"/></g></svg>