<svg xmlns="http://www.w3.org/2000/svg" xmlns:xlink="http://www.w3.org/1999/xlink" width="34.713" height="41.749" viewBox="0 0 34.713 41.749"><defs><style>.a{fill:url(#a);}.b{fill:url(#b);}.c{fill:#fff;}</style><linearGradient id="a" x1="0.5" y1="-0.022" x2="0.5" y2="1.023" gradientUnits="objectBoundingBox"><stop offset="0" stop-color="#fbfbfc"/><stop offset="1" stop-color="#dbdde8"/></linearGradient><linearGradient id="b" x1="-22.196" y1="18.214" x2="-21.254" y2="17.897" gradientUnits="objectBoundingBox"><stop offset="0" stop-color="#fca759"/><stop offset="0.193" stop-color="#e82d56"/><stop offset="0.74" stop-color="#a22db4"/><stop offset="1" stop-color="#643dce"/></linearGradient></defs><path class="a" d="M33.711,0Z" transform="translate(-16.354)"/><path class="b" d="M447.61,381.242a9.674,9.674,0,0,1-16.082-4.706L427.742,361a9.675,9.675,0,0,1,12.117-11.575l15.35,4.491a9.674,9.674,0,0,1,3.966,16.28Z" transform="translate(-427.458 -342.179)"/><g transform="translate(8.775 15.7)"><path class="c" d="M466.8,390.982a4.143,4.143,0,0,0,2.369-2.369,5.934,5.934,0,0,0,.376-1.964c.009-.2.016-.371.022-.54v-5.749c0-.12-.009-.245-.016-.385a5.907,5.907,0,0,0-.376-1.964,4.147,4.147,0,0,0-2.369-2.369,5.934,5.934,0,0,0-1.964-.377c-.867-.041-1.142-.05-3.34-.05s-2.473.009-3.337.047a5.915,5.915,0,0,0-1.964.376,4.146,4.146,0,0,0-2.369,2.369,5.93,5.93,0,0,0-.377,1.964c-.041.867-.05,1.142-.05,3.34s.01,2.473.047,3.337a5.916,5.916,0,0,0,.376,1.964,4.148,4.148,0,0,0,2.369,2.369,5.932,5.932,0,0,0,1.964.376c.863.038,1.138.047,3.337.047s2.473-.009,3.337-.047A5.916,5.916,0,0,0,466.8,390.982Zm-5.295-1.031c-2.16,0-2.42-.009-3.27-.047a4.443,4.443,0,0,1-1.5-.278,2.671,2.671,0,0,1-1.534-1.534,4.451,4.451,0,0,1-.278-1.5c-.038-.854-.048-1.11-.048-3.271s.009-2.42.048-3.27a4.431,4.431,0,0,1,.278-1.5,2.458,2.458,0,0,1,.608-.93,2.507,2.507,0,0,1,.93-.6,4.459,4.459,0,0,1,1.5-.278c.854-.038,1.11-.048,3.27-.048s2.42.01,3.271.048a4.44,4.44,0,0,1,1.5.278,2.485,2.485,0,0,1,.93.6,2.514,2.514,0,0,1,.6.93,4.459,4.459,0,0,1,.278,1.5c.038.854.047,1.11.047,3.27s-.009,2.414-.047,3.267a4.442,4.442,0,0,1-.278,1.5,2.685,2.685,0,0,1-1.537,1.537,4.46,4.46,0,0,1-1.5.278C463.926,389.941,463.67,389.95,461.509,389.95Z" transform="translate(-453.409 -375.214)"/><path class="c" d="M469.214,386.86a4.159,4.159,0,1,0,4.159,4.159A4.16,4.16,0,0,0,469.214,386.86Zm0,6.857a2.7,2.7,0,1,1,2.7-2.7A2.7,2.7,0,0,1,469.214,393.717Z" transform="translate(-461.117 -382.922)"/><path class="c" d="M489.213,384.473a.971.971,0,1,0-.971.971A.971.971,0,0,0,489.213,384.473Z" transform="translate(-475.821 -380.7)"/></g></svg>