<svg xmlns="http://www.w3.org/2000/svg" xmlns:xlink="http://www.w3.org/1999/xlink" width="139.537" height="136.323" viewBox="0 0 139.537 136.323"><defs><style>.a{fill:url(#a);}.b{fill:#077df1;}.c{fill:#eefbff;}</style><linearGradient id="a" x1="-22.276" y1="18.768" x2="-21.334" y2="18.451" gradientUnits="objectBoundingBox"><stop offset="0.012" stop-color="#57d3ff"/><stop offset="1" stop-color="#0076f0"/></linearGradient></defs><g transform="translate(53.471 50.557)"><path class="a" d="M648.119,380.792a9.674,9.674,0,0,1-16.082-4.706l-3.785-15.539a9.674,9.674,0,0,1,12.116-11.575l15.35,4.491a9.674,9.674,0,0,1,3.966,16.28Z" transform="translate(-627.968 -348.572)"/><path class="b" d="M666.812,378.432a8.173,8.173,0,0,1-2.308.651,4.076,4.076,0,0,0,1.762-2.277,7.872,7.872,0,0,1-2.54,1,3.963,3.963,0,0,0-2.926-1.3,4.062,4.062,0,0,0-4,4.12,4.358,4.358,0,0,0,.093.939,11.238,11.238,0,0,1-8.256-4.308,4.236,4.236,0,0,0-.548,2.082,4.157,4.157,0,0,0,1.779,3.423,3.872,3.872,0,0,1-1.81-.508v.045a4.111,4.111,0,0,0,3.209,4.047,3.9,3.9,0,0,1-1.05.136,3.454,3.454,0,0,1-.758-.07,4.06,4.06,0,0,0,3.743,2.869,7.909,7.909,0,0,1-4.966,1.757,7.27,7.27,0,0,1-.959-.056,11.05,11.05,0,0,0,6.145,1.848c7.37,0,11.4-6.278,11.4-11.72,0-.182-.006-.358-.015-.533A8.115,8.115,0,0,0,666.812,378.432Z" transform="translate(-640.747 -367.057)"/><path class="c" d="M667.6,380.868a7.647,7.647,0,0,1-2.113.579,3.649,3.649,0,0,0,1.613-2.027,7.332,7.332,0,0,1-2.325.888,3.667,3.667,0,0,0-6.343,2.507,3.777,3.777,0,0,0,.085.836,10.378,10.378,0,0,1-7.558-3.835,3.668,3.668,0,0,0,1.127,4.9,3.619,3.619,0,0,1-1.656-.452v.04a3.684,3.684,0,0,0,2.938,3.6,3.665,3.665,0,0,1-.961.121,3.253,3.253,0,0,1-.694-.063,3.7,3.7,0,0,0,3.426,2.554,7.367,7.367,0,0,1-4.547,1.564,6.877,6.877,0,0,1-.877-.05,10.437,10.437,0,0,0,16.062-8.789c0-.162-.006-.319-.014-.474A7.31,7.31,0,0,0,667.6,380.868Z" transform="translate(-642.362 -368.809)"/></g></svg>