<svg xmlns="http://www.w3.org/2000/svg" xmlns:xlink="http://www.w3.org/1999/xlink" width="66.423" height="108.784" viewBox="0 0 66.423 108.784"><defs><style>.a{fill:url(#a);}.b{fill:url(#b);}.c{fill:url(#c);}.d,.e{mix-blend-mode:color-dodge;isolation:isolate;}.d{fill:url(#d);}.e{fill:url(#e);}.f{opacity:0.47;}.g,.i{fill:none;}.g{stroke:#fff;stroke-width:4px;}.h{stroke:none;}</style><linearGradient id="a" x1="0.032" y1="0.101" x2="0.816" y2="0.977" gradientUnits="objectBoundingBox"><stop offset="0.035" stop-color="#9f19ab"/><stop offset="0.164" stop-color="#ae24b0"/><stop offset="0.412" stop-color="#d643bf"/><stop offset="0.631" stop-color="#ff63ce"/><stop offset="0.874" stop-color="#dc48c1"/></linearGradient><linearGradient id="b" x1="0.834" y1="0.889" x2="0.113" y2="0.011" xlink:href="#a"/><linearGradient id="c" x1="-0.295" y1="0.788" x2="1.105" y2="0.153" gradientUnits="objectBoundingBox"><stop offset="0.035" stop-color="#9f19ab"/><stop offset="0.244" stop-color="#ae24b0"/><stop offset="0.645" stop-color="#d643bf"/><stop offset="1" stop-color="#ff63ce"/></linearGradient><radialGradient id="d" cx="0.673" cy="0.352" r="0.392" gradientTransform="translate(-0.538) scale(2.075 1)" gradientUnits="objectBoundingBox"><stop offset="0" stop-color="#fff"/><stop offset="1"/></radialGradient><radialGradient id="e" cx="0.479" cy="0.66" r="0.427" gradientTransform="translate(-0.237) scale(1.474 1)" xlink:href="#d"/></defs><g transform="translate(-1112 -309)"><g transform="translate(877.374 201.586)"><path class="a" d="M270.377,161.916c-7.738-4.467-14.01-15.286-14.01-24.165,0-3.515.995-6.182,2.663-7.866-.269.025-2.783,1.14-3.041,1.19-3.734.73-6.2,4.194-6.2,9.75,0,8.878,6.273,19.7,14.01,24.164,4.234,2.445,8.021,2.467,10.588.54.266-.2,2.769-1.5,3.008-1.739A12.075,12.075,0,0,1,270.377,161.916Z"/><path class="b" d="M271.873,111.4c-8.611-4.972-16.326-5.119-21.667-1.4l-6.187,2.888.76,3.971a27.969,27.969,0,0,0-2.083,11.172c0,12.665,6.772,32.644,13.79,49.959L263.8,216.2l8.07-4.035s29.176-24.148,29.176-50.44C301.049,143.233,287.986,120.7,271.873,111.4Zm-8.07,53.591c-7.737-4.467-14.01-15.286-14.01-24.164s6.273-12.455,14.01-7.988S277.812,148.123,277.812,157,271.54,169.456,263.8,164.989Z"/><path class="c" d="M263.8,115.433c-16.114-9.3-29.177-1.856-29.177,16.635,0,26.292,29.177,84.13,29.177,84.13s29.177-24.148,29.177-50.44C292.98,147.268,279.917,124.736,263.8,115.433Zm0,49.556c-7.737-4.467-14.01-15.286-14.01-24.164s6.273-12.455,14.01-7.988S277.812,148.123,277.812,157,271.54,169.456,263.8,164.989Z"/><path class="d" d="M265.652,114.424c-8.416-4.859-15.978-5.111-21.3-1.644,5.164-2.335,11.969-1.668,19.454,2.653,16.114,9.3,29.176,31.835,29.176,50.325,0,22.529-21.408,43.47-27.539,49.006.126.255.212.426.212.426s29.177-24.149,29.177-50.44C294.829,146.259,281.766,123.728,265.652,114.424Z"/><path class="e" d="M264.636,164.739c-7.737-4.467-14.01-15.286-14.01-24.164,0-4.347,1.512-7.406,3.957-8.884-3.029,1.2-4.957,4.47-4.957,9.384,0,8.878,6.273,19.7,14.01,24.164,3.949,2.28,7.507,2.451,10.051.9C271.248,167.114,268.091,166.734,264.636,164.739Z"/></g><g class="f" transform="translate(262.923 60.38)"><g class="g" transform="translate(863.427 308.747)"><circle class="h" cx="18.861" cy="18.861" r="18.861"/><circle class="i" cx="18.861" cy="18.861" r="16.861"/></g><line class="g" y2="17.495" transform="translate(882.289 300)"/><line class="g" y2="17.495" transform="translate(882.289 339.91)"/><line class="g" x2="15.854" transform="translate(893.223 327.609)"/><line class="g" x2="15.854" transform="translate(855.5 327.609)"/></g></g></svg>