<svg xmlns="http://www.w3.org/2000/svg" xmlns:xlink="http://www.w3.org/1999/xlink" width="193" height="529" viewBox="0 0 193 529"><defs><style>.a{fill:#fff;stroke:#707070;}.b{clip-path:url(#a);}.c{isolation:isolate;}.d{fill:url(#b);}.e{fill:url(#c);}.f{fill:url(#d);}</style><clipPath id="a"><rect class="a" width="193" height="529" transform="translate(1727 136)"/></clipPath><linearGradient id="b" x1="0.29" y1="0.983" x2="1.064" y2="-0.177" gradientUnits="objectBoundingBox"><stop offset="0" stop-color="#d500f9"/><stop offset="0.99" stop-color="#2979ff"/></linearGradient><linearGradient id="c" x1="0.197" y1="0.963" x2="0.735" y2="-0.133" xlink:href="#b"/><linearGradient id="d" x1="0.265" y1="0.854" x2="0.772" y2="0.09" gradientUnits="objectBoundingBox"><stop offset="0" stop-color="#ea80fc"/><stop offset="0.99" stop-color="#40c4ff"/></linearGradient></defs><g class="b" transform="translate(-1727 -136)"><g transform="matrix(-0.966, -0.259, 0.259, -0.966, 1855.162, 1106.084)"><g class="c" transform="translate(-27.353 574.597)"><path class="d" d="M197.759,716.618c.2-.712.421-1.423.607-2.137.224-.857.413-1.716.615-2.576.165-.694.345-1.387.5-2.083.191-.883.343-1.768.51-2.651.127-.677.274-1.349.387-2.026.157-.925.274-1.849.4-2.774.089-.637.2-1.276.276-1.913.113-.936.187-1.873.272-2.808.058-.629.135-1.258.181-1.887.073-1.016.105-2.032.145-3.048.022-.546.065-1.091.077-1.637q.051-2.342-.016-4.675c-.615-21.247-8.665-38.522-21.628-50.156l-30.817-27.662c12.961,11.634,21.011,28.91,21.628,50.158q.066,2.33.014,4.673c-.012.552-.056,1.1-.077,1.655-.042,1.01-.071,2.02-.145,3.032-.046.635-.125,1.27-.183,1.9-.085.928-.157,1.859-.27,2.788-.077.643-.187,1.284-.278,1.927-.129.921-.246,1.841-.4,2.762-.113.675-.26,1.349-.387,2.024-.167.885-.319,1.77-.51,2.651-.151.7-.333,1.4-.5,2.1-.2.855-.389,1.712-.613,2.564-.189.72-.407,1.432-.609,2.149-.234.829-.456,1.659-.71,2.484-.222.724-.476,1.442-.714,2.165-.266.81-.52,1.619-.8,2.425q-.929,2.62-1.988,5.211c-.208.508-.433,1.012-.647,1.518-.52,1.232-1.056,2.458-1.617,3.677q-.461,1.006-.944,2-.571,1.184-1.169,2.363-.542,1.071-1.109,2.135-.619,1.167-1.264,2.325c-.415.744-.833,1.484-1.262,2.221q-.533.911-1.075,1.816-.705,1.164-1.437,2.318c-.373.593-.748,1.185-1.131,1.772-.319.488-.651.968-.976,1.453-1.425,2.121-2.9,4.217-4.441,6.262-.1.131-.2.256-.3.387-1.429,1.877-2.919,3.714-4.445,5.522-.292.345-.579.7-.875,1.04q-2.325,2.7-4.792,5.282c-.329.347-.667.687-1,1.028-1.679,1.724-3.391,3.415-5.157,5.05-.065.061-.129.125-.2.187-1.883,1.736-3.828,3.4-5.8,5.026-.452.371-.9.75-1.357,1.115-.532.425-1.067.842-1.6,1.258q-1.11.86-2.236,1.7-.827.613-1.663,1.212-1.063.765-2.145,1.506t-2.151,1.453q-1.033.682-2.079,1.343-1.1.693-2.206,1.363c-.637.387-1.28.764-1.925,1.137-1.159.673-2.328,1.319-3.506,1.953-.528.284-1.054.575-1.585.851-1.679.869-3.369,1.71-5.084,2.5l-.056.028c-2.018.925-4.066,1.768-6.129,2.571-.514.2-1.032.4-1.55.593-2.077.776-4.171,1.512-6.288,2.161-1.691.516-3.369.972-5.038,1.393-.536.135-1.066.248-1.6.373-1.139.268-2.274.522-3.4.746-.613.121-1.22.228-1.829.337-1.056.186-2.105.357-3.149.506-.609.087-1.216.173-1.822.248-1.085.133-2.161.238-3.232.331-.53.046-1.064.1-1.589.137q-2.125.146-4.217.182c-.165,0-.331.016-.5.018-1.552.018-3.087-.014-4.607-.082-.466-.022-.927-.064-1.389-.091-1-.063-2-.139-2.982-.238-1.093-.111-2.169-.262-3.242-.417-.609-.089-1.224-.161-1.827-.264-1.282-.22-2.54-.486-3.788-.77-.375-.085-.762-.149-1.135-.24-.391-.1-.768-.216-1.155-.318-1.044-.274-2.081-.556-3.1-.873-.524-.165-1.034-.355-1.552-.532-.875-.3-1.75-.6-2.605-.927-.429-.167-.851-.347-1.274-.522q-1.307-.536-2.581-1.125c-.44-.2-.879-.411-1.314-.625q-1.39-.681-2.738-1.429c-.266-.147-.538-.284-.8-.437q-1.729-.988-3.383-2.082c-.236-.157-.466-.323-.7-.484q-1.313-.893-2.574-1.849c-.3-.226-.6-.452-.887-.682-1.022-.806-2.028-1.631-3-2.5L39.33,792.828q1.134,1.018,2.32,1.98c.22.179.452.343.675.518.294.232.591.458.887.682q1.262.958,2.574,1.851c.236.159.464.325.7.482.1.064.187.133.284.2,1.01.659,2.046,1.284,3.1,1.887.262.151.536.288.8.436.613.339,1.224.687,1.851,1.008.292.149.6.278.889.423.433.212.871.419,1.31.621.849.4,1.71.768,2.581,1.127.425.174.845.353,1.276.52.194.076.381.163.575.236.665.25,1.353.462,2.03.693.518.176,1.028.365,1.552.53,1.024.321,2.07.6,3.119.879.379.1.75.218,1.135.312.044.012.085.026.129.035.335.082.687.131,1.024.208,1.244.282,2.494.548,3.768.766.607.1,1.226.177,1.837.266,1.071.155,2.145.3,3.236.415.224.024.441.065.667.085.764.072,1.542.106,2.314.153.464.03.923.071,1.391.091,1.52.068,3.054.1,4.607.081.163,0,.331-.014.5-.018q2.089-.038,4.216-.181c.526-.036,1.056-.093,1.583-.139,1.075-.091,2.153-.2,3.24-.331.6-.073,1.21-.159,1.818-.246q1.569-.226,3.151-.508c.609-.107,1.216-.216,1.829-.337,1.127-.222,2.262-.476,3.4-.744.534-.125,1.066-.238,1.6-.373,1.669-.421,3.347-.879,5.036-1.395,2.119-.647,4.211-1.385,6.29-2.161.518-.193,1.034-.391,1.55-.591,2.062-.806,4.111-1.647,6.129-2.573l0,0,.052-.024c1.712-.788,3.4-1.627,5.082-2.5.536-.278,1.062-.569,1.6-.855q1.759-.946,3.494-1.946c.29-.169.589-.319.877-.49.357-.21.7-.439,1.058-.653q1.1-.667,2.193-1.358,1.054-.664,2.093-1.349,1.077-.711,2.143-1.448c.361-.248.732-.482,1.091-.736s.7-.516,1.056-.77q.836-.6,1.663-1.214,1.128-.839,2.236-1.7c.536-.417,1.071-.832,1.6-1.256.24-.192.488-.377.728-.571.214-.174.415-.369.631-.546,1.974-1.625,3.917-3.288,5.8-5.024l.044-.038c.056-.05.105-.105.161-.155,1.762-1.633,3.472-3.324,5.149-5.044.2-.206.417-.4.615-.6.133-.137.254-.286.387-.425q2.461-2.58,4.788-5.28c.113-.129.236-.252.347-.383.187-.216.353-.448.536-.667,1.526-1.8,3.012-3.639,4.439-5.514.077-.1.163-.195.238-.3.024-.03.042-.062.065-.091,1.546-2.046,3.014-4.139,4.437-6.258.153-.224.323-.439.474-.667.175-.262.337-.534.51-.8.381-.583.752-1.168,1.123-1.758q.732-1.158,1.441-2.329.545-.9,1.072-1.808c.222-.379.456-.754.673-1.135.206-.361.393-.728.593-1.091q.646-1.155,1.262-2.32.568-1.065,1.113-2.141.6-1.176,1.165-2.359c.19-.4.4-.784.583-1.178.127-.274.236-.552.363-.826.562-1.22,1.1-2.447,1.617-3.679.214-.506.439-1.01.645-1.518.7-1.726,1.371-3.463,1.988-5.209l.036-.089c.274-.78.516-1.566.774-2.347.236-.719.488-1.435.71-2.155C197.3,718.282,197.525,717.449,197.759,716.618Z" transform="translate(62.651 -541.145)"/><path class="e" d="M154.422,605.36c.381-.081.762-.157,1.145-.234,2.05-.419,4.092-.8,6.117-1.129l.163-.024c2-.318,3.976-.579,5.947-.807.357-.042.714-.088,1.071-.125q2.893-.315,5.748-.5c.375-.024.748-.043,1.121-.063,1.952-.111,3.9-.191,5.816-.214.093,0,.185,0,.276,0,1.873-.018,3.726.014,5.568.078.329.012.663.02.992.034q2.744.119,5.441.359c.484.042.968.089,1.448.137q1.173.119,2.332.258c.544.065,1.087.135,1.627.208q1.158.158,2.306.339c.526.081,1.054.165,1.577.254.788.135,1.569.282,2.349.433.488.093.978.184,1.464.284.865.181,1.722.375,2.576.575.373.085.748.165,1.117.254,1.889.46,3.748.978,5.586,1.534.274.083.548.161.819.246q2.664.827,5.25,1.794c.317.117.635.234.948.355,1.534.587,3.052,1.2,4.542,1.855.189.083.373.173.562.256q2.069.925,4.078,1.939c.274.137.55.272.822.411q2,1.03,3.937,2.143c.274.157.544.322.817.482q1.646.97,3.25,2c.276.179.556.351.831.532q1.8,1.182,3.538,2.441c.232.169.458.345.691.516q1.438,1.063,2.831,2.177c.306.244.611.486.913.734,1.075.883,2.139,1.78,3.175,2.71l.012.01,0,0,0,0-30.819-27.66c-1.04-.935-2.109-1.835-3.189-2.722-.129-.105-.25-.218-.379-.322-.173-.141-.355-.268-.528-.407q-1.4-1.116-2.832-2.177c-.234-.173-.462-.349-.7-.52q-1.738-1.259-3.536-2.441c-.1-.061-.187-.131-.282-.192-.179-.117-.367-.22-.548-.337q-1.6-1.03-3.252-2c-.274-.161-.544-.325-.818-.484q-1.941-1.113-3.939-2.143c-.1-.05-.192-.107-.29-.157-.173-.089-.353-.165-.526-.25q-2.015-1.015-4.088-1.943c-.185-.083-.367-.173-.554-.254-1.49-.655-3.006-1.268-4.538-1.853-.165-.063-.323-.139-.49-.2s-.314-.1-.468-.161q-2.584-.958-5.242-1.79c-.274-.085-.552-.165-.825-.248-1.835-.556-3.693-1.072-5.58-1.532-.044-.01-.087-.026-.131-.036-.331-.081-.673-.147-1.006-.224-.849-.2-1.7-.393-2.56-.57-.484-.1-.974-.191-1.462-.284-.782-.151-1.562-.3-2.351-.434-.524-.089-1.05-.171-1.577-.254-.766-.119-1.532-.234-2.3-.337-.542-.073-1.083-.143-1.629-.208q-1.161-.143-2.333-.258c-.325-.034-.645-.077-.972-.107-.155-.014-.313-.018-.47-.032q-2.7-.238-5.445-.357c-.329-.016-.663-.022-.992-.034-1.841-.063-3.695-.1-5.566-.077l-.278,0c-1.921.024-3.861.1-5.814.214-.375.022-.748.042-1.123.066q-2.851.187-5.744.5c-.359.039-.72.085-1.081.127-1.968.228-3.947.488-5.941.806-.054.01-.109.016-.163.026-2.024.324-4.064.71-6.111,1.127-.385.079-.77.155-1.155.236q-2.979.631-5.988,1.4c-.381.1-.764.2-1.145.3-2.093.548-4.191,1.129-6.3,1.774-2.2.673-4.377,1.4-6.548,2.167-.641.226-1.276.462-1.913.695q-2.4.878-4.784,1.825c-.631.252-1.262.5-1.891.758-2.115.871-4.222,1.774-6.306,2.729l-.034.016-.016.006c-.034.016-.065.034-.1.05-2.627,1.206-5.221,2.492-7.794,3.826-.821.427-1.631.875-2.447,1.314q-2.714,1.455-5.383,3c-.446.258-.907.49-1.349.752-.546.321-1.075.672-1.619,1q-1.7,1.027-3.381,2.091-1.613,1.021-3.209,2.071-1.664,1.1-3.3,2.23c-.558.383-1.129.744-1.683,1.135s-1.073.792-1.617,1.181q-1.286.923-2.558,1.869-1.729,1.286-3.433,2.611c-.827.643-1.655,1.284-2.474,1.941-.371.3-.752.579-1.121.881-.857.695-1.693,1.419-2.54,2.129-.629.528-1.266,1.05-1.889,1.585q-2.328,2-4.6,4.074c-.274.25-.558.49-.829.742-.036.032-.071.063-.105.1q-2.583,2.381-5.08,4.853c-.5.494-.988,1-1.484,1.5-.851.855-1.712,1.7-2.55,2.571-.345.359-.677.728-1.018,1.09-.581.613-1.155,1.232-1.728,1.851q-1.631,1.759-3.22,3.554c-.554.623-1.107,1.246-1.651,1.875-.29.333-.589.659-.877.994-.847.992-1.669,2-2.5,3.01-.419.508-.847,1.008-1.26,1.518q-2.173,2.687-4.26,5.433c-.05.065-.1.133-.145.2-.315.419-.615.845-.927,1.264q-1.7,2.28-3.334,4.594c-.49.7-.964,1.407-1.447,2.109-.6.875-1.214,1.742-1.8,2.625-.266.4-.51.808-.772,1.206-.587.9-1.161,1.806-1.734,2.713q-1.125,1.78-2.214,3.577-.836,1.384-1.647,2.782c-.343.59-.706,1.169-1.044,1.76-.314.55-.6,1.111-.9,1.665q-.991,1.777-1.943,3.57-.869,1.637-1.706,3.284-.917,1.807-1.794,3.629c-.294.613-.613,1.214-.9,1.828-.2.421-.363.847-.556,1.268-.865,1.873-1.689,3.76-2.488,5.653-.327.776-.673,1.55-.99,2.329-1.079,2.655-2.107,5.322-3.056,8.008-.018.048-.04.1-.058.145-.423,1.2-.794,2.4-1.189,3.607-.363,1.1-.748,2.194-1.089,3.3-.393,1.282-.736,2.57-1.1,3.855-.308,1.089-.641,2.175-.927,3.268-.337,1.284-.619,2.574-.925,3.861-.26,1.1-.548,2.2-.786,3.3-.278,1.29-.5,2.581-.744,3.873-.21,1.105-.448,2.208-.635,3.316-.228,1.355-.4,2.713-.591,4.07-.147,1.046-.325,2.088-.45,3.133-.179,1.48-.3,2.961-.431,4.441-.083.923-.2,1.845-.266,2.768-.117,1.641-.171,3.28-.234,4.921-.028.762-.089,1.524-.107,2.284q-.08,3.6.024,7.185c.946,32.682,13.328,59.249,33.26,77.139L36.785,868.38C16.853,850.488,4.47,823.922,3.523,791.241q-.1-3.587-.022-7.187c.018-.794.081-1.589.113-2.385.062-1.605.113-3.211.228-4.816.071-.99.194-1.98.286-2.969.129-1.415.24-2.828.411-4.24.129-1.072.31-2.143.462-3.214.189-1.329.355-2.661.579-3.99.185-1.1.423-2.2.631-3.308.246-1.293.47-2.589.748-3.881.24-1.111.528-2.218.792-3.327.3-1.28.583-2.56.917-3.836.29-1.1.625-2.2.937-3.3.361-1.278.7-2.556,1.093-3.828.339-1.1.724-2.192,1.085-3.288.413-1.256.808-2.514,1.248-3.764.95-2.685,1.978-5.352,3.058-8.006.317-.782.663-1.556.99-2.333.8-1.893,1.623-3.778,2.488-5.653q.714-1.551,1.458-3.09.878-1.821,1.794-3.631.836-1.649,1.706-3.282.952-1.8,1.947-3.58.952-1.711,1.939-3.411c.546-.935,1.093-1.865,1.653-2.792q1.089-1.8,2.216-3.578c.571-.9,1.143-1.81,1.73-2.706.843-1.29,1.706-2.568,2.578-3.839.48-.7.952-1.407,1.441-2.1q1.631-2.316,3.33-4.588c.313-.423.615-.853.933-1.274q2.152-2.849,4.405-5.629c.413-.51.839-1.01,1.258-1.518q1.664-2.018,3.373-4.006c.546-.629,1.1-1.252,1.653-1.875q1.589-1.792,3.218-3.552.86-.932,1.732-1.855,1.753-1.848,3.558-3.651c.5-.5.99-1.01,1.494-1.508q2.554-2.515,5.185-4.947c.266-.246.544-.482.812-.726q2.277-2.077,4.613-4.09c.623-.536,1.258-1.055,1.887-1.583,1.212-1.016,2.433-2.026,3.667-3.014.816-.653,1.641-1.294,2.466-1.935q1.705-1.325,3.437-2.615,1.274-.947,2.56-1.871,1.637-1.173,3.294-2.312t3.308-2.232q1.592-1.05,3.207-2.069,1.685-1.066,3.385-2.093,1.473-.89,2.962-1.75,2.673-1.551,5.393-3c.812-.436,1.619-.885,2.437-1.309,2.582-1.338,5.183-2.627,7.818-3.838.03-.014.06-.03.091-.044l.058-.026c2.076-.952,4.175-1.849,6.282-2.718.631-.26,1.268-.508,1.9-.762q2.372-.944,4.768-1.82c.643-.234,1.284-.472,1.927-.7,2.169-.762,4.347-1.494,6.544-2.165,2.109-.645,4.209-1.226,6.3-1.774.383-.1.766-.2,1.149-.3Q151.442,605.992,154.422,605.36Z" transform="translate(27.353 -574.597)"/><g transform="translate(30.818 27.655)"><path class="f" d="M125.7,595.115c78-23.849,143.278,19.175,145.5,95.9,2.222,76.74-59.44,158.572-137.442,182.421-78.018,23.853-143.3-19.172-145.518-95.912C-13.984,700.8,47.679,618.968,125.7,595.115Zm6.649,229.659c50.737-15.511,90.824-68.73,89.378-118.635-1.445-49.888-43.881-77.875-94.618-62.365S36.265,712.51,37.71,762.4c1.445,49.906,43.9,77.889,94.636,62.376" transform="translate(11.821 -588.535)"/></g></g></g></g></svg>