<svg xmlns="http://www.w3.org/2000/svg" xmlns:xlink="http://www.w3.org/1999/xlink" width="34.713" height="34.906" viewBox="0 0 34.713 34.906"><defs><style>.a{fill:url(#a);}.b{fill:#fbfbfb;}</style><linearGradient id="a" x1="-22.351" y1="19.288" x2="-21.409" y2="18.971" gradientUnits="objectBoundingBox"><stop offset="0.012" stop-color="#ff556a"/><stop offset="1" stop-color="#a00a15"/></linearGradient></defs><path class="a" d="M842.363,381.242a9.675,9.675,0,0,1-16.082-4.706L822.5,361a9.675,9.675,0,0,1,12.117-11.575l15.35,4.491a9.674,9.674,0,0,1,3.966,16.28Z" transform="translate(-822.211 -349.022)"/><g transform="translate(9.574 12.004)"><path class="b" d="M865.769,386.227a1.95,1.95,0,0,0-1.372-1.372,45.546,45.546,0,0,0-6.09-.333,47.358,47.358,0,0,0-6.09.321,1.99,1.99,0,0,0-1.372,1.385,22.029,22.029,0,0,0,0,7.488,1.95,1.95,0,0,0,1.372,1.372,45.643,45.643,0,0,0,6.09.333,47.349,47.349,0,0,0,6.09-.321,1.95,1.95,0,0,0,1.372-1.372,20.549,20.549,0,0,0,.321-3.744,19.508,19.508,0,0,0-.321-3.757Zm-9.014,6.078v-4.667l4.052,2.334Zm0,0" transform="translate(-850.524 -384.522)"/></g></svg>