<svg xmlns="http://www.w3.org/2000/svg" xmlns:xlink="http://www.w3.org/1999/xlink" width="341" height="115" viewBox="0 0 341 115"><defs><style>.a{fill:rgba(255,255,255,0.91);stroke:#fff;}.b{fill:#00579f;}.c{fill:#faa61a;}.d{fill:#ff5f00;}.e{fill:#eb001b;}.f{fill:#f79e1b;}.g{fill:#030104;}.h{clip-path:url(#a);}.i{fill:#696a6a;}.j{fill:#66686c;}.k{fill:#27803b;}.l{fill:#e9661c;}.m{clip-path:url(#b);}.n{fill:#f79c34;}.n,.o{fill-rule:evenodd;}.o{fill:#333e47;}.p{fill:#5f259f;}.q{fill:#fff;}.r{fill:#008c44;}.s{fill:#f47920;}.t{fill:#1b3281;}.u{stroke:none;}.v{fill:none;}</style><clipPath id="a"><path d="M0-76.2H84.566v42.283H0Z" transform="translate(0 76.2)"/></clipPath><clipPath id="b"><rect width="97.905" height="18.782"/></clipPath></defs><g transform="translate(-1432 -12700)"><g class="a" transform="translate(1432 12700)"><rect class="u" width="341" height="115" rx="12"/><rect class="v" x="0.5" y="0.5" width="340" height="114" rx="11.5"/></g><g transform="translate(1450.749 12728.432)"><path class="b" d="M438.429,129.764h-4.922l3.079-19.037h4.922Z" transform="translate(-412.098 -110.382)"/><path class="b" d="M579.945,105.858a12.131,12.131,0,0,0-4.415-.81c-4.861,0-8.284,2.592-8.305,6.3-.04,2.734,2.451,4.253,4.314,5.165,1.9.932,2.552,1.54,2.552,2.37-.019,1.275-1.539,1.863-2.956,1.863a9.8,9.8,0,0,1-4.619-1.013l-.648-.3-.689,4.273a14.981,14.981,0,0,0,5.49,1.013c5.165,0,8.527-2.552,8.567-6.5.02-2.167-1.3-3.828-4.132-5.185-1.722-.871-2.776-1.458-2.776-2.35.02-.81.892-1.64,2.835-1.64a8.363,8.363,0,0,1,3.667.729l.445.2.669-4.111Z" transform="translate(-535.769 -105.048)"/><path class="b" d="M798.138,123.02c.405-1.094,1.965-5.326,1.965-5.326-.02.041.4-1.114.648-1.823l.344,1.64s.932,4.557,1.135,5.509Zm6.076-12.293h-3.807a2.429,2.429,0,0,0-2.573,1.58l-7.312,17.457h5.165l1.033-2.856h6.32c.141.668.587,2.856.587,2.856h4.558l-3.971-19.037Z" transform="translate(-747.42 -110.382)"/><path class="b" d="M177.989,110.727l-4.821,12.982-.527-2.633a14.571,14.571,0,0,0-6.806-7.98l4.416,16.648h5.205l7.737-19.017Z" transform="translate(-160.691 -110.382)"/><path class="c" d="M89.166,110.727h-7.92l-.081.385c6.178,1.58,10.269,5.388,11.95,9.965l-1.722-8.749a2.037,2.037,0,0,0-2.228-1.6Z" transform="translate(-81.166 -110.382)"/></g><g transform="translate(1535.302 12723.949)"><g transform="translate(0 0)"><g transform="translate(1.868 24.322)"><path d="M2954.224,2902.978v-1.9a1.115,1.115,0,0,0-1.2-1.2,1.249,1.249,0,0,0-1.077.538,1.107,1.107,0,0,0-1.013-.538,1.023,1.023,0,0,0-.887.443v-.38h-.665v3.04h.665V2901.3c0-.538.285-.792.729-.792s.665.285.665.792v1.678h.665V2901.3a.7.7,0,0,1,.728-.792c.443,0,.665.285.665.792v1.678Zm9.849-3.04H2963v-.919h-.665v.919h-.6v.6h.6v1.394c0,.7.285,1.108,1.045,1.108a1.774,1.774,0,0,0,.823-.222l-.19-.57a1.043,1.043,0,0,1-.57.159c-.317,0-.443-.19-.443-.507v-1.362h1.077Zm5.637-.063a.892.892,0,0,0-.792.443v-.38h-.665v3.04h.665v-1.71c0-.506.222-.792.633-.792a1.853,1.853,0,0,1,.412.063l.19-.633a2.1,2.1,0,0,0-.443-.031Zm-8.519.316a2.173,2.173,0,0,0-1.235-.316c-.76,0-1.267.38-1.267.982,0,.507.38.792,1.045.886l.317.032c.348.063.538.158.538.317,0,.222-.253.38-.7.38a1.747,1.747,0,0,1-1.013-.317l-.317.507a2.24,2.24,0,0,0,1.3.38c.886,0,1.394-.412,1.394-.982,0-.539-.412-.823-1.045-.919l-.317-.031c-.285-.031-.507-.095-.507-.285,0-.222.222-.348.57-.348a2.281,2.281,0,0,1,.95.253Zm17.671-.316a.893.893,0,0,0-.792.443v-.38h-.665v3.04h.665v-1.71c0-.506.222-.792.634-.792a1.849,1.849,0,0,1,.412.063l.19-.633a2.1,2.1,0,0,0-.443-.031Zm-8.487,1.583a1.521,1.521,0,0,0,1.615,1.583,1.576,1.576,0,0,0,1.077-.348l-.316-.539a1.279,1.279,0,0,1-.792.285.9.9,0,0,1-.918-.982.934.934,0,0,1,.918-.982,1.278,1.278,0,0,1,.792.285l.316-.539a1.576,1.576,0,0,0-1.077-.348,1.521,1.521,0,0,0-1.615,1.583Zm6.144,0v-1.52h-.665v.38a1.145,1.145,0,0,0-.95-.443,1.585,1.585,0,0,0,0,3.167,1.066,1.066,0,0,0,.95-.444v.38h.665Zm-2.438,0a.92.92,0,1,1,1.836,0,.92.92,0,1,1-1.836,0Zm-7.949-1.583a1.584,1.584,0,0,0,.032,3.167,1.937,1.937,0,0,0,1.235-.412l-.317-.475a1.511,1.511,0,0,1-.886.317.854.854,0,0,1-.918-.729h2.248v-.253a1.4,1.4,0,0,0-1.393-1.615Zm0,.57a.741.741,0,0,1,.76.729h-1.583a.8.8,0,0,1,.823-.729Zm16.5,1.014v-2.724h-.665v1.583a1.145,1.145,0,0,0-.95-.443,1.585,1.585,0,0,0,0,3.167,1.067,1.067,0,0,0,.95-.444v.38h.665Zm-2.438,0a.92.92,0,1,1,1.837,0,.92.92,0,1,1-1.837,0Zm-22.232,0v-1.52h-.665v.38a1.144,1.144,0,0,0-.95-.443,1.585,1.585,0,0,0,0,3.167,1.065,1.065,0,0,0,.95-.444v.38h.665Zm-2.47,0a.92.92,0,1,1,1.837,0,.92.92,0,1,1-1.837,0Z" transform="translate(-2949.379 -2898.734)"/></g><g transform="translate(0 0)"><rect class="d" width="9.976" height="17.925" transform="translate(13.459 2.439)"/><path class="e" d="M2912.827,2250.9a11.431,11.431,0,0,1,4.338-8.962,11.4,11.4,0,1,0,0,17.925A11.383,11.383,0,0,1,2912.827,2250.9Z" transform="translate(-2898.734 -2239.502)"/><path class="f" d="M3417.6,2250.9a11.389,11.389,0,0,1-18.431,8.962,11.426,11.426,0,0,0,0-17.925,11.389,11.389,0,0,1,18.431,8.962Z" transform="translate(-3380.704 -2239.502)"/></g></g></g><g transform="translate(1595.985 12723.949)"><g transform="translate(0 0)"><path class="g" d="M37.408,7.384A3.219,3.219,0,0,1,40.623,10.6V27.866a3.219,3.219,0,0,1-3.214,3.216H6.6a3.22,3.22,0,0,1-3.216-3.216V10.6A3.219,3.219,0,0,1,6.6,7.384H37.408m0-3.384H6.6A6.6,6.6,0,0,0,0,10.6V27.866a6.6,6.6,0,0,0,6.6,6.6H37.407a6.6,6.6,0,0,0,6.6-6.6V10.6a6.6,6.6,0,0,0-6.6-6.6Z" transform="translate(0 -4)"/></g><path class="g" d="M19.111,10.233l-2.358,5.245-2.348-5.245H11.4v7.53l-3.351-7.53H5.505l-3.422,7.82H4.107l.75-1.747H8.691l.758,1.747h3.868V12.246l2.564,5.807h1.747l2.627-5.707v5.707h1.919v-7.82ZM5.582,14.617l1.146-2.734,1.192,2.734Z" transform="translate(1.443 0.317)"/><path class="g" d="M26.337,14.056l3.438-3.807H27.333l-2.2,2.427L23,10.234H15.437v7.82h7.321l2.305-2.585,2.249,2.6h2.434Zm-4.582,2.356H17.329V14.867h4.235V13.381H17.329V11.916L22,11.928l1.869,2.129Z" transform="translate(10.692 0.318)"/></g><g transform="translate(1660.155 12717.123)"><g transform="translate(0 0)"><g class="h"><g transform="translate(6.068 30.329)"><path class="i" d="M-.467,0H.075l-.5,2.1a.9.9,0,0,0,.043.7.637.637,0,0,0,.575.235,1,1,0,0,0,.685-.235,1.315,1.315,0,0,0,.38-.7l.5-2.1h.549L1.79,2.157a1.863,1.863,0,0,1-.6,1.052,1.729,1.729,0,0,1-1.126.349A1.129,1.129,0,0,1-.892,3.21,1.25,1.25,0,0,1-.984,2.157Z" transform="translate(1.05)"/></g><g transform="translate(9.352 30.192)"><path class="i" d="M0-2.89l.862-3.6L2.5-4.374c.044.06.088.124.132.192s.088.144.134.23l.575-2.4H3.85l-.862,3.6L1.315-4.912A1.93,1.93,0,0,1,1.189-5.1a1.987,1.987,0,0,1-.107-.2L.505-2.89Z" transform="translate(0 6.493)"/></g><g transform="translate(13.157 30.329)"><path class="i" d="M0-2.78.83-6.246h.549L.549-2.78Z" transform="translate(0 6.246)"/></g><g transform="translate(14.495 30.329)"><path class="i" d="M0-2.78.83-6.246H2.715L2.6-5.768H1.264L1.057-4.9H2.393l-.118.495H.939L.549-2.78Z" transform="translate(0 6.246)"/></g><g transform="translate(16.985 30.329)"><path class="i" d="M0-2.78.83-6.246h.549L.549-2.78Z" transform="translate(0 6.246)"/></g><g transform="translate(18.324 30.329)"><path class="i" d="M0-2.78.83-6.246H2.715L2.6-5.768H1.264L1.056-4.9H2.392L2.274-4.4H.938L.67-3.284H2.006l-.121.5Z" transform="translate(0 6.246)"/></g><g transform="translate(20.839 30.329)"><path class="i" d="M-.538-2.372h.462a2.494,2.494,0,0,0,.584-.052A1.1,1.1,0,0,0,.88-2.6a1.467,1.467,0,0,0,.387-.418A1.953,1.953,0,0,0,1.5-3.6a1.568,1.568,0,0,0,.043-.581A.774.774,0,0,0,1.358-4.6a.629.629,0,0,0-.3-.175,2.551,2.551,0,0,0-.612-.052h-.4Zm-.671.509.83-3.466H.361a4.457,4.457,0,0,1,1,.074A1.022,1.022,0,0,1,1.816-5a1.056,1.056,0,0,1,.3.589,2.011,2.011,0,0,1-.046.822,2.525,2.525,0,0,1-.347.818,2.077,2.077,0,0,1-.585.588,1.8,1.8,0,0,1-.564.25,4.027,4.027,0,0,1-.9.075h-.888Z" transform="translate(1.209 5.328)"/></g><g transform="translate(25.763 30.329)"><path class="i" d="M-.828-1.162h.141a1.383,1.383,0,0,0,.633-.1.53.53,0,0,0,.238-.36Q.252-1.9.116-2.014a.967.967,0,0,0-.571-.114H-.6ZM-.973-.7-1.345.855H-1.86l.83-3.466H-.2a2.429,2.429,0,0,1,.534.041.632.632,0,0,1,.271.136.587.587,0,0,1,.171.325,1.05,1.05,0,0,1-.018.451,1.4,1.4,0,0,1-.2.455,1.108,1.108,0,0,1-.327.327A1.05,1.05,0,0,1-.1-.741,2.787,2.787,0,0,1-.656-.7H-.973Z" transform="translate(1.86 2.611)"/></g><g transform="translate(27.561 30.192)"><path class="i" d="M-1.2-1.8H-.26l-.157-.791c-.007-.05-.014-.108-.021-.174S-.448-2.9-.45-2.982q-.055.114-.11.212t-.107.181ZM-.009-.437l-.17-.892H-1.517l-.606.892H-2.7l2.5-3.6L.57-.437Z" transform="translate(2.699 4.04)"/></g><g transform="translate(31.309 30.329)"><path class="i" d="M-.247-2.78.132-4.366-.555-6.246H.022L.448-5.069c.01.03.022.069.035.118s.027.1.04.159c.034-.055.07-.108.105-.156S.7-5.042.736-5.083l1-1.162H2.29L.677-4.366.3-2.78Z" transform="translate(0.555 6.246)"/></g><g transform="translate(33.367 30.182)"><path class="i" d="M-2.8-1.525q0-.04.023-.222Q-2.759-1.9-2.749-2a2.2,2.2,0,0,1-.115.237,2.791,2.791,0,0,1-.153.242L-4.344.327l-.433-1.884a2.2,2.2,0,0,1-.042-.225Q-4.832-1.892-4.837-2c-.019.073-.043.149-.072.229s-.064.163-.1.25L-5.785.187H-6.29l1.663-3.613.473,2.188c.007.035.017.092.029.173s.026.18.043.3q.084-.149.243-.379l.064-.095,1.5-2.185L-2.325.187h-.51Z" transform="translate(6.29 3.426)"/></g><g transform="translate(37.769 30.329)"><path class="i" d="M0-2.78.83-6.246H2.715L2.6-5.768H1.264L1.056-4.9H2.392L2.274-4.4H.938L.67-3.284H2.006l-.121.5Z" transform="translate(0 6.246)"/></g><g transform="translate(40.285 30.192)"><path class="i" d="M0-2.89l.862-3.6L2.5-4.374c.044.06.088.124.132.192s.088.144.134.23l.575-2.4H3.85l-.862,3.6L1.315-4.912A1.93,1.93,0,0,1,1.189-5.1a1.987,1.987,0,0,1-.107-.2L.505-2.89Z" transform="translate(0 6.493)"/></g><g transform="translate(44.44 30.329)"><path class="i" d="M-1.161-.383-1.876,2.6h-.549L-1.71-.383h-.9l.115-.478h2.34l-.114.478Z" transform="translate(2.607 0.861)"/></g><g transform="translate(46.457 30.251)"><path class="i" d="M0-2.286l.488-.208a.47.47,0,0,0,.144.354.575.575,0,0,0,.4.122.662.662,0,0,0,.422-.14.653.653,0,0,0,.234-.374q.073-.306-.364-.544l-.094-.052A1.694,1.694,0,0,1,.6-3.634.731.731,0,0,1,.55-4.187a1.188,1.188,0,0,1,.445-.687,1.276,1.276,0,0,1,.8-.263,1.03,1.03,0,0,1,.59.148.564.564,0,0,1,.247.425l-.483.227a.52.52,0,0,0-.166-.239.428.428,0,0,0-.26-.076.621.621,0,0,0-.38.118.543.543,0,0,0-.206.318q-.075.312.433.582l.061.033a1.446,1.446,0,0,1,.577.463.743.743,0,0,1,.052.565,1.359,1.359,0,0,1-.489.782A1.4,1.4,0,0,1,.88-1.5a.954.954,0,0,1-.659-.2A.726.726,0,0,1,0-2.286" transform="translate(0 5.136)"/></g><g transform="translate(50.514 30.329)"><path class="i" d="M0-2.78.83-6.246h.549L.549-2.78Z" transform="translate(0 6.246)"/></g><g transform="translate(51.852 30.192)"><path class="i" d="M0-2.89l.862-3.6L2.5-4.374c.044.06.088.124.132.192s.088.144.134.23l.575-2.4H3.85l-.862,3.6L1.315-4.912A1.931,1.931,0,0,1,1.189-5.1a2.026,2.026,0,0,1-.107-.2L.505-2.89Z" transform="translate(0 6.493)"/></g><g transform="translate(56.008 30.329)"><path class="i" d="M-1.161-.383-1.876,2.6h-.549L-1.71-.383h-.9l.115-.478h2.34l-.114.478Z" transform="translate(2.607 0.861)"/></g><g transform="translate(58.052 30.329)"><path class="i" d="M0-2.78.83-6.246H2.715L2.6-5.768H1.264L1.056-4.9H2.392L2.274-4.4H.938L.67-3.284H2.006l-.121.5Z" transform="translate(0 6.246)"/></g><g transform="translate(60.567 30.329)"><path class="i" d="M-.822-1.185h.1a1.236,1.236,0,0,0,.6-.1.561.561,0,0,0,.231-.369q.069-.286-.057-.4a.842.842,0,0,0-.54-.117h-.1Zm-.139.438L-1.333.8h-.514l.83-3.466h.766a2.182,2.182,0,0,1,.512.045.609.609,0,0,1,.282.149.6.6,0,0,1,.165.324,1.041,1.041,0,0,1-.019.435,1.27,1.27,0,0,1-.352.652,1.114,1.114,0,0,1-.647.283L.474.8H-.147L-.9-.747Z" transform="translate(1.848 2.662)"/></g><g transform="translate(63.214 30.329)"><path class="i" d="M0-2.78.83-6.246H2.715L2.6-5.768H1.264L1.057-4.9H2.393l-.118.495H.939L.549-2.78Z" transform="translate(0 6.246)"/></g><g transform="translate(65.068 30.192)"><path class="i" d="M-1.2-1.8H-.26l-.157-.791q-.011-.075-.021-.174c-.006-.066-.01-.139-.012-.219q-.055.114-.11.212t-.107.181ZM-.009-.437l-.17-.892H-1.517l-.606.892H-2.7l2.5-3.6L.57-.437Z" transform="translate(2.699 4.04)"/></g><g transform="translate(68.78 30.246)"><path class="i" d="M-2.512-.743a1.212,1.212,0,0,0-.42-.305,1.3,1.3,0,0,0-.521-.1,1.5,1.5,0,0,0-.988.364,1.719,1.719,0,0,0-.574.945,1.115,1.115,0,0,0,.117.925.866.866,0,0,0,.765.365,1.724,1.724,0,0,0,.6-.109,2.45,2.45,0,0,0,.6-.329l-.152.637a2.109,2.109,0,0,1-.54.244,2.107,2.107,0,0,1-.585.08,1.694,1.694,0,0,1-.685-.13,1.183,1.183,0,0,1-.486-.383A1.274,1.274,0,0,1-5.625.873,1.856,1.856,0,0,1-5.586.154a2.347,2.347,0,0,1,.3-.716,2.432,2.432,0,0,1,.525-.588,2.333,2.333,0,0,1,.669-.387,2.119,2.119,0,0,1,.735-.131,1.611,1.611,0,0,1,.546.089,1.45,1.45,0,0,1,.46.269Z" transform="translate(5.644 1.668)"/></g><g transform="translate(71.965 30.329)"><path class="i" d="M0-2.78.83-6.246H2.715L2.6-5.768H1.264L1.056-4.9H2.392L2.274-4.4H.938L.67-3.284H2.006l-.121.5Z" transform="translate(0 6.246)"/></g><g transform="translate(58.174 8.349)"><path class="j" d="M-3.028-15.209H-6.8l5.25-18.96H2.222Z" transform="translate(6.803 34.169)"/></g><g transform="translate(32.761 8.406)"><path class="j" d="M-21.842-.435a1.4,1.4,0,0,0-1.214-.543H-43.812L-44.84,2.735h3.777v0h15.106l-1.1,3.968H-42.163V6.693h-3.775L-49.07,18.005h3.777l2.1-7.593h16.981a2.413,2.413,0,0,0,1.5-.543,2.518,2.518,0,0,0,.925-1.342l2.1-7.594a1.542,1.542,0,0,0-.158-1.37" transform="translate(49.07 0.978)"/></g><g transform="translate(7.982 8.404)"><path class="j" d="M-18.112-14.215a1.734,1.734,0,0,1-1.671,1.27H-39.259a1.361,1.361,0,0,1-1.185-.542,1.508,1.508,0,0,1-.167-1.342l4.752-17.106h3.778l-4.245,15.279h15.113l4.245-15.279h3.777Z" transform="translate(40.691 31.936)"/></g><g transform="translate(68.451 8.384)"><path class="k" d="M-4.225,0,.554,9.5l-10.047,9.5Z" transform="translate(9.493)"/></g><g transform="translate(65.093 8.384)"><path class="l" d="M-4.231,0,.544,9.5l-10.051,9.5Z" transform="translate(9.506)"/></g></g></g></g><g class="m" transform="translate(1553.749 12775.604)"><path class="n" d="M45.667,24.319a23.7,23.7,0,0,1-13.38,4.09,24.215,24.215,0,0,1-16.345-6.235c-.338-.306-.037-.724.371-.487a32.9,32.9,0,0,0,16.355,4.34,32.537,32.537,0,0,0,12.475-2.553C45.753,23.215,46.266,23.877,45.667,24.319Z" transform="translate(-7.034 -9.627)"/><path class="n" d="M68.734,22.077c-.463-.592-3.059-.281-4.225-.141-.353.043-.408-.266-.09-.49,2.071-1.455,5.465-1.035,5.859-.547s-.1,3.894-2.045,5.517c-.3.25-.583.116-.45-.213C68.22,25.112,69.2,22.671,68.734,22.077Z" transform="translate(-28.595 -9.105)"/><path class="o" d="M64.607,2.3V.888a.349.349,0,0,1,.358-.358H71.3a.353.353,0,0,1,.366.357V2.1a1.994,1.994,0,0,1-.477.89L67.907,7.674a7.034,7.034,0,0,1,3.614.776A.646.646,0,0,1,71.857,9V10.51c0,.208-.227.448-.467.323a7.3,7.3,0,0,0-6.694.012c-.22.118-.45-.12-.45-.328V9.084a1.705,1.705,0,0,1,.236-.971l3.8-5.454h-3.31A.352.352,0,0,1,64.607,2.3Z" transform="translate(-28.612 -0.236)"/><path class="o" d="M21.408,10.983H19.481a.363.363,0,0,1-.345-.326l0-9.892A.363.363,0,0,1,19.51.41H21.3a.362.362,0,0,1,.35.332V2.033h.037a2.647,2.647,0,0,1,5.037,0,2.846,2.846,0,0,1,4.893-.749c.612.833.486,2.04.486,3.1l0,6.243a.363.363,0,0,1-.372.356H29.81a.361.361,0,0,1-.346-.355V5.384a12.6,12.6,0,0,0-.054-1.852,1,1,0,0,0-1.133-.854,1.279,1.279,0,0,0-1.152.811,5.984,5.984,0,0,0-.18,1.895v5.244a.363.363,0,0,1-.372.356H24.648a.361.361,0,0,1-.346-.355l0-5.244c0-1.1.18-2.726-1.187-2.726-1.386,0-1.331,1.581-1.331,2.726v5.244A.363.363,0,0,1,21.408,10.983Z" transform="translate(-8.522 -0.09)"/><path class="o" d="M83.992,2.22c-1.421,0-1.511,1.935-1.511,3.143s-.018,3.789,1.494,3.789c1.493,0,1.565-2.082,1.565-3.351a9.155,9.155,0,0,0-.288-2.623A1.206,1.206,0,0,0,83.992,2.22ZM83.975.2c2.86,0,4.407,2.457,4.407,5.579,0,3.017-1.709,5.412-4.407,5.412-2.807,0-4.336-2.457-4.336-5.516C79.639,2.595,81.186.2,83.975.2Z" transform="translate(-35.467 -0.09)"/><path class="o" d="M100.27,10.983H98.349A.362.362,0,0,1,98,10.628l0-9.9A.365.365,0,0,1,98.371.41h1.788a.366.366,0,0,1,.343.277V2.2h.036a2.622,2.622,0,0,1,2.626-2,2.527,2.527,0,0,1,2.249,1.166,6.294,6.294,0,0,1,.5,3.081v6.225a.365.365,0,0,1-.369.311h-1.932a.363.363,0,0,1-.343-.311V5.3c0-1.083.126-2.665-1.205-2.665a1.262,1.262,0,0,0-1.115.791,4.4,4.4,0,0,0-.306,1.874v5.326A.369.369,0,0,1,100.27,10.983Z" transform="translate(-43.644 -0.09)"/><path class="o" d="M53.174,10.883a.4.4,0,0,1-.455.045,4.7,4.7,0,0,1-1.1-1.285,3.819,3.819,0,0,1-3.178,1.4,2.736,2.736,0,0,1-2.885-3,3.274,3.274,0,0,1,2.056-3.15,13.318,13.318,0,0,1,3.624-.668v-.25A2.466,2.466,0,0,0,51,2.575a1.287,1.287,0,0,0-1.082-.5,1.468,1.468,0,0,0-1.549,1.157.409.409,0,0,1-.334.355l-1.869-.2a.341.341,0,0,1-.288-.4C46.3.746,48.3.049,50.109.03h.143a4.335,4.335,0,0,1,2.836.959c.938.876.847,2.044.847,3.317v3a2.631,2.631,0,0,0,.728,1.786.363.363,0,0,1-.006.512c-.394.33-1.093.937-1.478,1.28Zm-1.942-4.7a3.785,3.785,0,0,1-.361,2.044,1.567,1.567,0,0,1-1.334.876c-.739,0-1.171-.563-1.171-1.4,0-1.642,1.472-1.94,2.866-1.94Z" transform="translate(-20.286 -0.013)"/><path class="o" d="M7.623,10.883a.4.4,0,0,1-.455.045,4.679,4.679,0,0,1-1.1-1.285,3.82,3.82,0,0,1-3.178,1.4A2.736,2.736,0,0,1,0,8.04,3.273,3.273,0,0,1,2.056,4.89a13.318,13.318,0,0,1,3.624-.668v-.25a2.465,2.465,0,0,0-.234-1.4,1.288,1.288,0,0,0-1.082-.5A1.467,1.467,0,0,0,2.814,3.231a.408.408,0,0,1-.335.355l-1.868-.2a.34.34,0,0,1-.288-.4C.747.746,2.743.049,4.557.03H4.7A4.335,4.335,0,0,1,7.537.989c.937.876.847,2.044.847,3.317v3a2.631,2.631,0,0,0,.728,1.786.364.364,0,0,1-.006.512c-.394.33-1.094.937-1.478,1.28Zm-1.944-4.7a3.78,3.78,0,0,1-.361,2.044A1.565,1.565,0,0,1,3.984,9.1c-.739,0-1.171-.563-1.171-1.4,0-1.642,1.473-1.94,2.866-1.94Z" transform="translate(0 -0.013)"/><path class="o" d="M159.317,14.693v-.727c0-.207.1-.349.317-.337a4.53,4.53,0,0,0,1.377.031,1.6,1.6,0,0,0,1.131-1c.316-.722.525-1.3.657-1.687l-4.01-9.933c-.068-.169-.088-.481.249-.481h1.4a.437.437,0,0,1,.436.336l2.907,8.068L166.557.9a.437.437,0,0,1,.435-.336h1.322c.334,0,.316.312.249.481l-3.977,10.243c-.515,1.363-1.2,3.535-2.744,3.912a4.069,4.069,0,0,1-2.325-.111A.452.452,0,0,1,159.317,14.693Z" transform="translate(-70.698 -0.251)"/><path class="o" d="M149.719,10.289a.338.338,0,0,1-.337.336h-.988a.385.385,0,0,1-.387-.336l-.1-.673a5.775,5.775,0,0,1-1.616.957,4.064,4.064,0,0,1-3.639-.171A2.9,2.9,0,0,1,141.4,7.9a3.07,3.07,0,0,1,.78-2.133,3.951,3.951,0,0,1,3.012-1.154,9.383,9.383,0,0,1,2.632.347V3.6c0-1.377-.58-1.972-2.108-1.972a10.229,10.229,0,0,0-3.305.563.3.3,0,0,1-.316-.329V1.092a.479.479,0,0,1,.329-.419A9.964,9.964,0,0,1,145.9,0c1.743,0,3.815.393,3.815,3.074Zm-1.9-1.977V6.269a10.549,10.549,0,0,0-2.186-.257,2.529,2.529,0,0,0-1.79.572,1.689,1.689,0,0,0-.417,1.158,1.548,1.548,0,0,0,.627,1.358,2.554,2.554,0,0,0,2.046.093A4.471,4.471,0,0,0,147.819,8.312Z" transform="translate(-62.97)"/><path class="o" d="M126.406,1.666c2.193,0,2.79,1.724,2.79,3.7a4.441,4.441,0,0,1-.922,3.2,2.5,2.5,0,0,1-1.96.647,4.757,4.757,0,0,1-2.546-.963V2.6A4.537,4.537,0,0,1,126.406,1.666ZM123.433,14.8h-1.324a.337.337,0,0,1-.337-.336V.671a.337.337,0,0,1,.337-.336h1.013a.385.385,0,0,1,.386.336l.106.723A5.207,5.207,0,0,1,126.95.011c3.261,0,4.333,2.687,4.333,5.481,0,2.989-1.64,5.391-4.414,5.391a4.643,4.643,0,0,1-3.1-1.18v4.763A.337.337,0,0,1,123.433,14.8Z" transform="translate(-54.231 -0.005)"/></g><g transform="translate(1671.008 12772.884)"><g transform="translate(0 0)"><ellipse class="p" cx="10.388" cy="10.388" rx="10.388" ry="10.388" transform="translate(0 20.219) rotate(-76.714)"/><path class="p" d="M70.985,27.192V23.419c0-.929-.348-1.393-1.219-1.393a4.6,4.6,0,0,0-.987.116v5.513a.374.374,0,0,1-.348.348H67.1a.374.374,0,0,1-.348-.348V21.214a.506.506,0,0,1,.348-.464,8.328,8.328,0,0,1,2.67-.464c2.089,0,3.25,1.1,3.25,3.134v4.294a.374.374,0,0,1-.348.348h-.812A.855.855,0,0,1,70.985,27.192Zm5.223-2.263-.058.522a1.071,1.071,0,0,0,1.219,1.1,3.681,3.681,0,0,0,1.683-.464c.058,0,.116-.058.174-.058a.3.3,0,0,1,.232.116,2.313,2.313,0,0,1,.174.232,1.226,1.226,0,0,1,.232.58.805.805,0,0,1-.406.7,4.585,4.585,0,0,1-2.205.522,3.512,3.512,0,0,1-2.263-.7,2.718,2.718,0,0,1-.929-2.089V23.129c0-1.8,1.161-2.9,3.134-2.9a2.691,2.691,0,0,1,3.018,2.9v1.393a.374.374,0,0,1-.348.348H76.208Zm-.058-1.277h2.205v-.58a1.052,1.052,0,0,0-1.1-1.161,1.025,1.025,0,0,0-1.1,1.161Zm14.8,1.277-.058.522a1.071,1.071,0,0,0,1.219,1.1,3.681,3.681,0,0,0,1.683-.464c.058,0,.116-.058.174-.058a.3.3,0,0,1,.232.116,2.313,2.313,0,0,1,.174.232,1.225,1.225,0,0,1,.232.58.805.805,0,0,1-.406.7,4.585,4.585,0,0,1-2.205.522,3.512,3.512,0,0,1-2.263-.7,2.718,2.718,0,0,1-.929-2.089V23.129c0-1.8,1.161-2.9,3.134-2.9a2.691,2.691,0,0,1,3.018,2.9v1.393a.374.374,0,0,1-.348.348H90.949Zm-.058-1.277H93.1v-.58a1.052,1.052,0,0,0-1.1-1.161,1.025,1.025,0,0,0-1.1,1.161ZM56.767,28.062h.812a.374.374,0,0,0,.348-.348V23.419c0-1.973-1.045-3.134-2.786-3.134a5.059,5.059,0,0,0-1.451.232V18.37a.893.893,0,0,0-.87-.87h-.812a.374.374,0,0,0-.348.348v9.866a.374.374,0,0,0,.348.348h1.335a.374.374,0,0,0,.348-.348V22.259a2.948,2.948,0,0,1,.987-.174c.87,0,1.219.406,1.219,1.393V27.25A.931.931,0,0,0,56.767,28.062Zm8.763-4.875v2.147c0,1.8-1.219,2.9-3.25,2.9-1.973,0-3.25-1.1-3.25-2.9V23.187c0-1.8,1.219-2.9,3.25-2.9s3.25,1.1,3.25,2.9Zm-2.031,0a1.068,1.068,0,0,0-1.161-1.161,1.042,1.042,0,0,0-1.161,1.161v2.147a1.162,1.162,0,0,0,2.321,0ZM50.558,22.2a3.08,3.08,0,0,1-3.25,3.134,3.123,3.123,0,0,1-1.277-.232v2.611a.374.374,0,0,1-.348.348H44.348A.374.374,0,0,1,44,27.714V18.487a.506.506,0,0,1,.348-.464,8.328,8.328,0,0,1,2.67-.464,3.221,3.221,0,0,1,3.54,3.25Zm-2.089-1.509A1.343,1.343,0,0,0,46.96,19.3a2.112,2.112,0,0,0-.87.174V23.3a1.7,1.7,0,0,0,.929.232,1.373,1.373,0,0,0,1.509-1.393V20.692ZM88.047,22.2a3.08,3.08,0,0,1-3.25,3.134,3.123,3.123,0,0,1-1.277-.232v2.611a.374.374,0,0,1-.348.348H81.838a.374.374,0,0,1-.348-.348V18.487a.506.506,0,0,1,.348-.464,8.328,8.328,0,0,1,2.67-.464,3.221,3.221,0,0,1,3.54,3.25Zm-2.089-1.509A1.343,1.343,0,0,0,84.449,19.3a2.112,2.112,0,0,0-.87.174V23.3a1.7,1.7,0,0,0,.929.232,1.373,1.373,0,0,0,1.509-1.393V20.692Z" transform="translate(-16.342 -8.758)"/></g><path class="q" d="M18.89,9.756A.768.768,0,0,0,18.136,9H16.743L13.551,5.346A1.176,1.176,0,0,0,12.333,5l-1.1.348a.257.257,0,0,0-.116.406L14.6,9.06H9.315a.274.274,0,0,0-.29.29v.58a.768.768,0,0,0,.754.754h.812V13.47c0,2.089,1.1,3.308,2.96,3.308a4.016,4.016,0,0,0,1.625-.29v1.857a.917.917,0,0,0,.929.929h.812a.374.374,0,0,0,.348-.348v-8.3H18.6a.274.274,0,0,0,.29-.29Zm-3.714,4.991a2.766,2.766,0,0,1-1.161.232c-.929,0-1.393-.464-1.393-1.509V10.685h2.553Z" transform="translate(-1.678 0.03)"/></g><g transform="translate(1455.307 12774.697)"><g transform="translate(70.507 1.545)"><path class="r" d="M.507,0,5.021,8.961l-9.487,8.966Z" transform="translate(4.467)"/></g><g transform="translate(67.382 1.545)"><path class="s" d="M.507,0,5.014,8.961l-9.481,8.966Z" transform="translate(4.467)"/></g><path class="t" d="M0,1.654,4.5-14.558h7.194c2.248,0,3.75.356,4.514,1.089s.9,1.915.447,3.584a6.17,6.17,0,0,1-1.274,2.461,5.919,5.919,0,0,1-2.259,1.55,1.976,1.976,0,0,1,1.516,1.131,4.22,4.22,0,0,1-.074,2.469L14.018-.009l0,.061c-.158.634-.111.973.146,1l-.166.6H9.13c.016-.381.047-.722.079-1.009a4.8,4.8,0,0,1,.122-.676L9.785-1.65a2.386,2.386,0,0,0,.031-1.767c-.214-.347-.693-.518-1.45-.518H6.32l-1.56,5.59ZM7.332-7.589H9.523a3.206,3.206,0,0,0,1.683-.336A1.94,1.94,0,0,0,11.97-9.1c.158-.568.119-.964-.108-1.189a2.5,2.5,0,0,0-1.622-.34H8.176Z" transform="translate(0 14.558)"/><g transform="translate(15.676 4.249)"><path class="t" d="M1.462,0-1.855,11.963H-5.886l.5-1.753a7.87,7.87,0,0,1-2.167,1.564,5.3,5.3,0,0,1-2.3.513,3.664,3.664,0,0,1-1.7-.361A2.325,2.325,0,0,1-12.6,10.844a3.088,3.088,0,0,1-.262-1.558,17.365,17.365,0,0,1,.652-3.078L-10.5,0h4.409L-7.8,6.179A3.653,3.653,0,0,0-7.99,8.065c.127.349.467.53,1.019.53a1.853,1.853,0,0,0,1.408-.612,4.259,4.259,0,0,0,.92-1.822L-2.941,0Z" transform="translate(12.874)"/></g><g transform="translate(28.412)"><path class="t" d="M0,1.654,4.5-14.558h6.184a14.727,14.727,0,0,1,3.173.257,3.929,3.929,0,0,1,1.779.832,3.3,3.3,0,0,1,1.023,1.888,6.134,6.134,0,0,1-.232,2.66,7.663,7.663,0,0,1-2.644,4.171A7.526,7.526,0,0,1,9.092-3.31H6.2L4.823,1.654ZM7.294-7.269H8.849a4.52,4.52,0,0,0,2.126-.364,2.083,2.083,0,0,0,.859-1.287c.174-.621.129-1.056-.134-1.3a3.2,3.2,0,0,0-1.931-.364H8.218Z" transform="translate(0 14.558)"/></g><g transform="translate(42.532 3.827)"><path class="t" d="M.764,1.263.809.127A8.03,8.03,0,0,1-1.346,1.313,6.841,6.841,0,0,1-3.657,1.7,3.111,3.111,0,0,1-6.281.7a3.13,3.13,0,0,1-.24-2.808A4.41,4.41,0,0,1-4.784-4.73,10.077,10.077,0,0,1-.628-5.961c.246-.04.576-.072.99-.122C1.8-6.25,2.6-6.632,2.777-7.257A.642.642,0,0,0,2.6-8.005a1.945,1.945,0,0,0-1.14-.24,2.006,2.006,0,0,0-1.13.293,1.769,1.769,0,0,0-.68.9h-4.3A4.958,4.958,0,0,1-2.277-10.1a9.258,9.258,0,0,1,4.688-1.025,9.89,9.89,0,0,1,2.448.27,3.716,3.716,0,0,1,1.593.735,2.168,2.168,0,0,1,.742,1.3,5.1,5.1,0,0,1-.259,2.067L5.087-.082a1.328,1.328,0,0,0-.039.59.711.711,0,0,0,.243.417l-.1.338ZM1.836-4.078A16.044,16.044,0,0,1,0-3.512c-1.188.319-1.856.744-2,1.27a.811.811,0,0,0,.106.8,1.075,1.075,0,0,0,.845.283,2.661,2.661,0,0,0,1.758-.55,3.469,3.469,0,0,0,1-1.753c.04-.17.075-.293.1-.385Z" transform="translate(6.726 11.121)"/></g><g transform="translate(54.483 4.249)"><path class="t" d="M0,1.7.979-1.84H2.24a1.818,1.818,0,0,0,.988-.235,1.277,1.277,0,0,0,.494-.781,2.8,2.8,0,0,0,.1-.511,5.676,5.676,0,0,0,0-.655L3.144-14.976H7.608L7.538-7.717l3.9-7.258h4.151L8.7-3.07q-1.173,2-1.71,2.744A5.716,5.716,0,0,1,5.965.808a3.824,3.824,0,0,1-1.412.761A8.946,8.946,0,0,1,2.207,1.8c-.3,0-.651-.006-1.027-.026S.407,1.733,0,1.7" transform="translate(0 14.976)"/></g></g></g></svg>