<svg xmlns="http://www.w3.org/2000/svg" width="1559.175" height="401.216" viewBox="0 0 1559.175 401.216"><defs><style>.a{fill:none;stroke:#fff;stroke-miterlimit:10;stroke-width:5px;}</style></defs><g transform="translate(22.976 -336.834)"><g transform="translate(124.245 101.517)"><g transform="translate(1374.116 598.695)"><line class="a" x2="37.838" transform="translate(0 18.919)"/><line class="a" y2="37.838" transform="translate(18.917)"/></g><g transform="translate(-147.221 494.02)"><line class="a" x2="37.838" transform="translate(0 18.919)"/><line class="a" y2="37.838" transform="translate(18.917 0)"/></g><path class="a" d="M579.7,150.856c12.471,0,12.471,10.759,24.948,10.759s12.471-10.759,24.944-10.759,12.473,10.759,24.939,10.759,12.48-10.759,24.964-10.759c12.5,0,12.5,10.759,24.986,10.759s12.493-10.759,24.986-10.759" transform="translate(308.121 98.531)"/><path class="a" d="M493.255,437.607c12.471,0,12.471,10.757,24.948,10.757s12.471-10.757,24.944-10.757,12.473,10.757,24.939,10.757,12.48-10.757,24.964-10.757c12.5,0,12.5,10.757,24.986,10.757s12.493-10.757,24.986-10.757" transform="translate(278.568 150.332)"/><path class="a" d="M148.641,101.517c12.471,0,12.471,10.759,24.948,10.759s12.469-10.759,24.944-10.759,12.473,10.759,24.939,10.759,12.48-10.759,24.964-10.759c12.5,0,12.5,10.759,24.986,10.759s12.493-10.759,24.986-10.759" transform="translate(135.172 360.483)"/><circle class="a" cx="16.949" cy="16.949" r="16.949" transform="translate(-1 237.818)"/></g></g></svg>