<svg xmlns="http://www.w3.org/2000/svg" width="83.415" height="83.431" viewBox="0 0 83.415 83.431"><defs><style>.a{fill:#f6f7f9;}</style></defs><path class="a" d="M844.485,419.146c-.391-.091-.783-.177-1.172-.274a12.251,12.251,0,0,1-9.445-9.408,1.374,1.374,0,0,0-.637-.813,7.327,7.327,0,0,1-4.547-7.007c-.043-2.117.057-4.244-.12-6.349a19.117,19.117,0,0,0-4.9-11.041,29.314,29.314,0,1,1,47.56-33.784,28.234,28.234,0,0,1,3.61,18.341A28.937,28.937,0,0,1,868.124,384a19.494,19.494,0,0,0-4.3,7.492,35.962,35.962,0,0,0-.9,5.677c-.142,1.48-.006,2.985-.033,4.478a7.306,7.306,0,0,1-4.547,7,1.278,1.278,0,0,0-.622.736c-1.426,5.39-4.809,8.66-10.339,9.636a1.353,1.353,0,0,0-.291.126ZM858.069,394.5c.292-1.3.527-2.581.865-3.83,1.066-3.935,3.306-7.192,5.833-10.329a23.669,23.669,0,0,0,5.113-19.214,23.248,23.248,0,0,0-6.8-13.321,23.68,23.68,0,0,0-19.869-7.028c-9.222.992-16,5.822-19.695,14.28-4.074,9.326-2.622,18.147,3.88,26.024a25.779,25.779,0,0,1,5.241,9.549c.351,1.269.585,2.571.875,3.869Zm-.061,4.978H833.569c0,.751-.007,1.452,0,2.153a2.47,2.47,0,0,0,2.689,2.681c2.143.011,4.286,0,6.428,0,4.231,0,8.463.008,12.694,0a2.45,2.45,0,0,0,2.624-2.581C858.019,401,858.007,400.272,858.007,399.479Zm-5.444,9.785h-13.6a7.382,7.382,0,0,0,7.154,4.975C849.08,414.058,851.987,411.813,852.563,409.265Z" transform="translate(-804.084 -335.715)"/><path class="a" d="M1126.49,482.428a3.021,3.021,0,0,1-3.277,1.809c-1.3-.081-2.6,0-3.9-.021a2.445,2.445,0,1,1,0-4.881c1.3-.015,2.606.066,3.9-.021a3.011,3.011,0,0,1,3.275,1.811Z" transform="translate(-1043.075 -450.003)"/><path class="a" d="M764.886,407.463a5.486,5.486,0,0,1-1.4-.751c-1.186-1.072-2.306-2.221-3.412-3.378a2.438,2.438,0,1,1,3.449-3.443q1.759,1.694,3.445,3.462a2.284,2.284,0,0,1,.443,2.642A2.545,2.545,0,0,1,764.886,407.463Z" transform="translate(-758.583 -386.177)"/><path class="a" d="M1125.8,399.06a2.515,2.515,0,0,1,2.359,1.3,2.126,2.126,0,0,1-.161,2.526,56.644,56.644,0,0,1-4.084,4.076,2.4,2.4,0,0,1-3.318-3.365c1.284-1.429,2.678-2.764,4.083-4.078A2.978,2.978,0,0,1,1125.8,399.06Z" transform="translate(-1045.773 -386.135)"/><path class="a" d="M767.641,545.609a5.866,5.866,0,0,1-.783,1.41c-1.077,1.182-2.227,2.3-3.386,3.4a2.429,2.429,0,1,1-3.482-3.388c1.134-1.2,2.313-2.368,3.509-3.512a2.3,2.3,0,0,1,2.71-.447A2.574,2.574,0,0,1,767.641,545.609Z" transform="translate(-758.574 -500.564)"/><path class="a" d="M1128.511,548.465a2.525,2.525,0,0,1-1.371,2.427,2.159,2.159,0,0,1-2.521-.243c-1.356-1.247-2.675-2.544-3.912-3.908a2.4,2.4,0,0,1,3.4-3.36c1.336,1.228,2.61,2.53,3.844,3.862A3.69,3.69,0,0,1,1128.511,548.465Z" transform="translate(-1045.806 -500.554)"/><path class="a" d="M760.673,479.433c.815,0,1.63-.02,2.444,0a2.435,2.435,0,1,1,.008,4.87q-2.443.051-4.887,0a2.435,2.435,0,1,1-.008-4.87C759.043,479.412,759.858,479.433,760.673,479.433Z" transform="translate(-755.795 -450.102)"/><path class="a" d="M951.408,383.627a19.606,19.606,0,0,1,18.409,15.664,23.921,23.921,0,0,1,.381,3.557,2.447,2.447,0,1,1-4.868.165,14.539,14.539,0,0,0-6.147-11.746,14.2,14.2,0,0,0-7.716-2.729c-.352-.022-.708-.008-1.057-.05a2.437,2.437,0,0,1,.184-4.859C950.864,383.616,951.136,383.627,951.408,383.627Z" transform="translate(-908.964 -373.847)"/></svg>