<svg xmlns="http://www.w3.org/2000/svg" width="74.99" height="94.684" viewBox="0 0 74.99 94.684"><defs><style>.a{fill:#fff;}</style></defs><g transform="translate(-807.922 -348)"><path class="a" d="M846.16,348c2.416.8,4.825,1.616,7.248,2.39q10.241,3.271,20.494,6.507a3.2,3.2,0,0,1,2.553,2.493,2.891,2.891,0,0,1-2.378,3.4q-3.721.7-7.464,1.277c-.675.1-.944.313-.917,1.036.057,1.539.071,3.084-.009,4.621a3.4,3.4,0,0,1-.577,1.884,2.629,2.629,0,0,0-.566,1.854c.015,3.174-.02,6.349.021,9.523a3.9,3.9,0,0,1-2.689,4.159.948.948,0,0,0-.487.65,16.081,16.081,0,0,1-5.91,10.435,1.706,1.706,0,0,0,.176,2.456c3.735,2.447,7.447,4.932,11.234,7.295a12.777,12.777,0,0,0,3.127,1.06c2.535.757,5.109,1.406,7.254,3.089a14.135,14.135,0,0,1,5.627,11.616q.031,6.334,0,12.667a5.891,5.891,0,0,1-4.694,6.136,1.126,1.126,0,0,0-.236.135h-65.1c-.229-.079-.459-.157-.688-.236a5.712,5.712,0,0,1-4.151-4.931,23.2,23.2,0,0,1-.077-3.414,1.335,1.335,0,0,1,1.448-1.442c.8.034,1.27.55,1.3,1.487.026.831-.011,1.665.014,2.5a3.13,3.13,0,0,0,3.352,3.264c1.849.009,3.7,0,5.547-.008a2.154,2.154,0,0,0,.316-.076c0-.9,0-1.843,0-2.783,0-.955-.016-1.911.005-2.866.021-1,.578-1.628,1.393-1.63s1.365.625,1.371,1.626c.013,1.873,0,3.747,0,5.679h45.422v-4.537c0-.37-.006-.74,0-1.109.021-1.018.526-1.639,1.34-1.658.848-.019,1.415.627,1.427,1.69.018,1.51,0,3.02.005,4.53v1.075c.278.026.513.066.748.067,1.726.005,3.452.014,5.177,0a3.033,3.033,0,0,0,3.271-3.044c.043-4.806.139-9.62-.088-14.417a11,11,0,0,0-8.02-9.911c-1.5-.459-3-.918-4.522-1.3a1.848,1.848,0,0,0-1.267.158q-9.668,5.7-19.29,11.468a2.515,2.515,0,0,1-2.96,0c-6.352-3.833-12.746-7.6-19.115-11.4a1.786,1.786,0,0,0-1.635-.225c-1.311.44-2.655.782-3.98,1.181a11.425,11.425,0,0,0-8.507,11.4c-.007,1.233.018,2.466-.018,3.7a1.328,1.328,0,0,1-1.3,1.4,1.306,1.306,0,0,1-1.417-1.284c-.04-2.98-.294-5.988.772-8.872a14.03,14.03,0,0,1,9.609-8.967c1.119-.338,2.272-.578,3.362-.991a19.594,19.594,0,0,0,3.482-1.611c3.287-2.06,6.513-4.218,9.762-6.339a1.676,1.676,0,0,0,.171-2.794,16.091,16.091,0,0,1-5.667-10.078,1.276,1.276,0,0,0-.607-.855,3.72,3.72,0,0,1-2.571-3.858c-.015-3.39.01-6.78-.031-10.169a4.81,4.81,0,0,0-.462-1.311,8.45,8.45,0,0,1-.639-2.064c-.1-1.6-.011-3.2-.052-4.8-.006-.253-.254-.682-.449-.719-2.083-.4-4.178-.732-6.348-1.1v6.365c.834.552,1.8.891,2.252,1.57a4.647,4.647,0,0,1,.6,2.606c-.123,3.742.923,7.317,1.428,10.968.118.853.313,1.7.432,2.549a3.1,3.1,0,0,1-3.242,3.754q-2.912.025-5.824,0a3.121,3.121,0,0,1-3.232-3.921c.586-3.366,1.212-6.726,1.714-10.1a27.415,27.415,0,0,0,.082-3.783c.016-1.966.9-3.005,2.948-3.345,0-2.379.008-4.777-.014-7.174a1.187,1.187,0,0,0-.318-.621,2.947,2.947,0,0,1,1.465-4.913q12.744-4.078,25.5-8.124c.871-.278,1.725-.609,2.586-.915Zm-17.1,31.971c0,1.21,0,2.285,0,3.359a1.043,1.043,0,0,0,1.011,1.175c1.4.236,1.916.864,2.051,2.3a13.346,13.346,0,0,0,26.587.071c.159-1.572.6-2.012,2.158-2.434a1.34,1.34,0,0,0,.854-.863c.1-1.154.041-2.323.041-3.59-.5,0-.919,0-1.341,0a4.428,4.428,0,0,1-4.685-4.693c-.008-.821,0-1.642,0-2.453h-20.6c-.165,1.88.346,3.789-.94,5.412C832.892,379.907,831.106,380.106,829.062,379.971Zm44.629-19.918-.02-.249c-.162-.066-.32-.144-.486-.2q-13.627-4.338-27.259-8.659a1.862,1.862,0,0,0-1.055.011q-13.5,4.263-27,8.562c-.249.079-.484.2-.891.371a4.8,4.8,0,0,0,.721.276q2.912.5,5.827.975a15.867,15.867,0,0,0,3.367.457c2.116-.126,4.216-.5,6.325-.756,3.423-.412,6.843-.861,10.274-1.2,3.339-.326,6.635.262,9.932.69,1.625.211,2.227.7,2.12,1.617-.12,1.03-.895,1.329-2.587,1.115a49.052,49.052,0,0,0-6.242-.641,80.279,80.279,0,0,0-8.093.562c-3.548.371-7.085.86-10.656,1.3v5.64H862.89v-5.626c-.7-.087-1.369-.165-2.035-.254-1.155-.154-1.7-.709-1.589-1.622.1-.858.716-1.259,1.869-1.133a14.186,14.186,0,0,0,5.4.007c.709-.194,1.454-.257,2.181-.384Q871.2,360.49,873.69,360.054Zm-21.407,40.322c-7.166,2.028-7.322,1.8-13.726-.008a23.624,23.624,0,0,0,.808,7.3.843.843,0,0,0,.586.436,30.65,30.65,0,0,0,10.925,0,.852.852,0,0,0,.6-.424A23.769,23.769,0,0,0,852.283,400.376ZM850.2,417.642l13.789-8.2L855,403.576A32.208,32.208,0,0,1,850.2,417.642Zm-14.369-14.059-8.969,5.866,13.8,8.2A32.182,32.182,0,0,1,835.829,403.584Zm-20.637-25.617c-.051.081-.1.127-.11.18q-.821,4.674-1.635,9.349c-.106.608.277.638.721.636,1.784-.007,3.568-.029,5.351.01.719.015.833-.29.717-.9-.2-1.026-.357-2.058-.535-3.087-.355-2.054-.712-4.107-1.073-6.19Zm30.143,41.626c2.008-2.9,4.831-7.2,4.868-8.365h-9.886ZM829.11,377.2a5.208,5.208,0,0,0,1.779-.043c.533-.215,1.232-.7,1.326-1.181a16.414,16.414,0,0,0,.062-3.158H829.11Zm32.588.014v-4.367h-3.189c0,.752,0,1.426,0,2.1,0,.215-.005.431.01.645a1.616,1.616,0,0,0,1.567,1.614C860.6,377.242,861.12,377.21,861.7,377.21ZM815.33,375.1h3.016v-2.454H815.33Z"/></g></svg>