<svg xmlns="http://www.w3.org/2000/svg" xmlns:xlink="http://www.w3.org/1999/xlink" width="343.017" height="332.94" viewBox="0 0 343.017 332.94"><defs><style>.a{isolation:isolate;}.b{fill:url(#a);}.c{fill:url(#d);}</style><linearGradient id="a" y1="0.5" x2="1" y2="0.5" gradientUnits="objectBoundingBox"><stop offset="0" stop-color="#d500f9"/><stop offset="0.99" stop-color="#2979ff"/></linearGradient><linearGradient id="d" y1="0.5" x2="1" y2="0.5" gradientUnits="objectBoundingBox"><stop offset="0" stop-color="#ea80fc"/><stop offset="0.99" stop-color="#40c4ff"/></linearGradient></defs><g class="a"><g transform="translate(188.971 97.757)"><path class="b" d="M17.883,541.451l-57.821.484L-74.894,380.541l57.821-.484Z" transform="translate(74.894 -380.057)"/></g><g transform="translate(0 0.001)"><path class="b" d="M-110.346,569.336l-57.821.484L45.04,332.291l57.821-.484Z" transform="translate(168.167 -331.806)"/></g><g transform="translate(0 237.53)"><path class="b" d="M174.849,543.973l-57.821.484-285.2-94.926,57.821-.484Z" transform="translate(168.167 -449.047)"/></g><g transform="translate(57.82)"><path class="c" d="M73.581,331.806l71.988,332.455-285.2-94.924ZM-54.145,544.869,84.3,590.956,49.344,429.563-54.145,544.869" transform="translate(139.628 -331.806)"/></g></g></svg>