<svg xmlns="http://www.w3.org/2000/svg" xmlns:xlink="http://www.w3.org/1999/xlink" width="630" height="729" viewBox="0 0 630 729"><defs><style>.a{fill:#fff;stroke:#707070;}.b{clip-path:url(#a);}.c{isolation:isolate;}.d{fill:url(#b);}.e{fill:url(#c);}.f{fill:url(#d);}</style><clipPath id="a"><rect class="a" width="630" height="729" transform="translate(0 90)"/></clipPath><linearGradient id="b" x1="0.29" y1="0.983" x2="1.064" y2="-0.177" gradientUnits="objectBoundingBox"><stop offset="0" stop-color="#d500f9"/><stop offset="0.99" stop-color="#2979ff"/></linearGradient><linearGradient id="c" x1="0.197" y1="0.963" x2="0.735" y2="-0.133" xlink:href="#b"/><linearGradient id="d" x1="0.265" y1="0.854" x2="0.772" y2="0.09" gradientUnits="objectBoundingBox"><stop offset="0" stop-color="#ea80fc"/><stop offset="0.99" stop-color="#40c4ff"/></linearGradient></defs><g class="b" transform="translate(0 -90)"><g transform="matrix(-0.966, -0.259, 0.259, -0.966, 241.454, 766.049)"><g class="c" transform="translate(0)"><path class="d" d="M296.855,169.459c.317-1.117.66-2.232.952-3.352.352-1.345.647-2.692.965-4.04.258-1.089.542-2.176.778-3.268.3-1.385.538-2.773.8-4.158.2-1.061.43-2.116.607-3.178.246-1.45.429-2.9.632-4.351.14-1,.311-2,.433-3,.177-1.469.293-2.938.426-4.4.09-.987.212-1.973.283-2.96.115-1.594.165-3.187.227-4.781.034-.856.1-1.712.121-2.568q.079-3.674-.025-7.333c-.965-33.328-13.592-60.426-33.926-78.674L220.79,0c20.331,18.248,32.958,45.349,33.926,78.677q.1,3.656.022,7.33c-.019.865-.087,1.731-.121,2.6-.065,1.584-.112,3.169-.227,4.756-.072,1-.2,1.992-.286,2.988-.134,1.456-.246,2.916-.423,4.373-.121,1.008-.293,2.014-.436,3.022-.2,1.444-.386,2.888-.629,4.333-.177,1.058-.408,2.117-.607,3.175-.261,1.388-.5,2.776-.8,4.158-.237,1.1-.523,2.191-.781,3.287-.314,1.341-.61,2.686-.962,4.021-.3,1.13-.638,2.247-.956,3.371-.367,1.3-.716,2.6-1.114,3.9-.349,1.136-.747,2.263-1.121,3.4-.417,1.27-.815,2.54-1.261,3.8q-1.457,4.109-3.119,8.173c-.327.8-.679,1.588-1.015,2.381-.815,1.933-1.656,3.856-2.537,5.767q-.724,1.578-1.482,3.144-.9,1.858-1.833,3.707-.85,1.681-1.74,3.349-.971,1.83-1.983,3.648c-.651,1.167-1.307,2.328-1.98,3.483q-.836,1.428-1.687,2.848-1.106,1.826-2.253,3.635c-.585.931-1.173,1.858-1.774,2.779-.5.766-1.021,1.519-1.531,2.279-2.235,3.327-4.541,6.614-6.966,9.823-.156.206-.317.4-.473.607-2.241,2.944-4.578,5.827-6.972,8.662-.458.542-.909,1.093-1.373,1.631q-3.646,4.234-7.517,8.285c-.517.545-1.046,1.077-1.569,1.612-2.633,2.7-5.319,5.357-8.089,7.921-.1.1-.2.2-.308.293-2.954,2.724-6,5.335-9.1,7.884-.71.582-1.413,1.176-2.129,1.749-.834.666-1.674,1.32-2.515,1.974q-1.741,1.349-3.508,2.67-1.3.962-2.608,1.9-1.667,1.2-3.365,2.362-1.676,1.158-3.374,2.278-1.62,1.069-3.262,2.107-1.718,1.088-3.461,2.138c-1,.607-2.008,1.2-3.019,1.784-1.818,1.055-3.651,2.07-5.5,3.063-.828.445-1.653.9-2.487,1.335-2.633,1.363-5.285,2.683-7.974,3.915l-.087.044c-3.165,1.45-6.377,2.773-9.614,4.034-.806.318-1.618.626-2.431.931-3.259,1.217-6.542,2.372-9.863,3.389-2.652.809-5.285,1.525-7.9,2.185-.84.211-1.671.389-2.509.585-1.787.42-3.567.819-5.335,1.17-.962.19-1.914.358-2.87.529q-2.484.439-4.939.794c-.956.137-1.908.271-2.857.389-1.7.208-3.389.373-5.07.52-.831.072-1.668.159-2.493.215q-3.333.228-6.614.286c-.258,0-.52.025-.778.028-2.434.028-4.843-.022-7.227-.128-.731-.034-1.454-.1-2.179-.143-1.572-.1-3.131-.218-4.678-.373-1.715-.174-3.4-.411-5.086-.654-.956-.14-1.92-.252-2.867-.414-2.011-.345-3.984-.762-5.942-1.208-.588-.134-1.2-.233-1.78-.376-.613-.149-1.2-.339-1.811-.5-1.637-.43-3.265-.872-4.865-1.37-.822-.258-1.622-.557-2.434-.834-1.373-.467-2.745-.934-4.087-1.453-.672-.262-1.335-.545-2-.819q-2.05-.84-4.049-1.765c-.691-.32-1.379-.644-2.06-.98q-2.18-1.069-4.3-2.241c-.417-.23-.843-.445-1.257-.685q-2.713-1.55-5.307-3.265c-.37-.246-.731-.507-1.1-.759q-2.059-1.4-4.037-2.9c-.467-.355-.934-.709-1.391-1.071-1.6-1.264-3.181-2.559-4.7-3.922L48.343,289q1.779,1.6,3.638,3.106c.345.28.71.538,1.058.812.461.364.928.719,1.391,1.071q1.98,1.5,4.037,2.9c.37.249.728.511,1.1.757.149.1.293.208.445.308,1.584,1.033,3.209,2.014,4.862,2.96.411.236.84.451,1.257.685.962.532,1.92,1.077,2.9,1.581.458.234.934.436,1.394.663.679.333,1.366.657,2.054.974,1.332.62,2.683,1.2,4.049,1.768.666.274,1.326.554,2,.815.305.118.6.255.9.37,1.043.392,2.123.725,3.184,1.086.812.277,1.612.573,2.434.831,1.606.5,3.246.946,4.893,1.379.594.156,1.177.342,1.78.489.068.019.134.041.2.056.526.128,1.077.206,1.606.327,1.952.442,3.912.859,5.911,1.2.952.162,1.924.277,2.882.417,1.681.243,3.365.476,5.076.651.352.037.691.1,1.046.133,1.2.112,2.418.165,3.629.24.728.047,1.447.112,2.182.143,2.384.106,4.79.159,7.227.128.255,0,.52-.022.778-.028q3.277-.061,6.614-.283c.825-.056,1.656-.146,2.484-.218,1.687-.143,3.377-.308,5.083-.52.946-.115,1.9-.249,2.851-.386q2.46-.355,4.943-.8c.956-.168,1.908-.339,2.87-.529,1.768-.349,3.548-.747,5.332-1.167.837-.2,1.671-.374,2.512-.585,2.618-.66,5.251-1.379,7.9-2.188,3.324-1.014,6.6-2.172,9.867-3.389q1.218-.453,2.431-.928c3.234-1.264,6.449-2.583,9.614-4.037l.006,0,.081-.037c2.686-1.236,5.338-2.552,7.971-3.915.84-.436,1.665-.893,2.5-1.342q2.759-1.485,5.481-3.053c.454-.265.924-.5,1.376-.769.56-.33,1.1-.688,1.659-1.024q1.732-1.046,3.439-2.129,1.653-1.041,3.284-2.117,1.69-1.116,3.361-2.272c.566-.389,1.148-.757,1.712-1.155s1.1-.809,1.656-1.208q1.312-.943,2.608-1.9,1.769-1.316,3.508-2.67c.84-.654,1.681-1.3,2.512-1.97.377-.3.766-.591,1.142-.9.336-.274.651-.579.99-.856,3.1-2.549,6.144-5.157,9.1-7.881l.068-.059c.087-.078.165-.165.252-.243,2.764-2.562,5.447-5.213,8.077-7.912.314-.324.654-.62.965-.946.209-.215.4-.448.607-.666q3.861-4.048,7.51-8.282c.177-.2.37-.4.545-.6.293-.339.554-.7.84-1.046,2.394-2.829,4.725-5.708,6.963-8.65.121-.159.255-.305.374-.464.037-.047.065-.1.1-.143,2.425-3.209,4.728-6.493,6.959-9.817.24-.352.507-.688.744-1.046.274-.411.529-.838.8-1.251.6-.915,1.18-1.833,1.762-2.758q1.148-1.816,2.26-3.654.854-1.41,1.681-2.835c.349-.595.716-1.183,1.055-1.78.324-.566.616-1.142.931-1.712q1.013-1.811,1.979-3.638.892-1.672,1.746-3.359.934-1.844,1.827-3.7c.3-.62.623-1.229.915-1.849.2-.43.37-.865.57-1.295.881-1.914,1.721-3.838,2.537-5.771.336-.794.688-1.584,1.012-2.381,1.1-2.708,2.151-5.431,3.119-8.17l.056-.14c.43-1.223.809-2.456,1.214-3.682.37-1.127.766-2.251,1.114-3.38C296.139,172.07,296.488,170.763,296.855,169.459Z" transform="translate(111.625 105.788)"/><path class="e" d="M285.133,48.254c.6-.128,1.2-.246,1.8-.367,3.215-.657,6.418-1.26,9.6-1.771l.255-.038c3.131-.5,6.237-.909,9.328-1.267.56-.065,1.12-.137,1.681-.2q4.538-.495,9.017-.784c.588-.037,1.173-.068,1.759-.1,3.063-.174,6.11-.3,9.123-.336.146,0,.289,0,.433,0,2.938-.028,5.845.022,8.734.121.517.019,1.04.031,1.556.053q4.3.187,8.534.563c.759.065,1.519.14,2.272.215q1.84.187,3.657.4c.853.1,1.706.212,2.552.327q1.816.247,3.617.532c.825.128,1.653.258,2.474.4,1.236.212,2.462.442,3.685.679.766.146,1.534.289,2.3.445,1.357.283,2.7.588,4.04.9.585.134,1.173.258,1.752.4,2.963.722,5.879,1.534,8.762,2.406.43.131.859.252,1.285.386q4.179,1.3,8.236,2.814c.5.184,1,.367,1.488.557,2.406.921,4.787,1.883,7.124,2.91.3.131.585.271.881.4q3.245,1.452,6.4,3.041c.43.215.862.427,1.289.644q3.133,1.615,6.175,3.361c.43.246.853.5,1.282.757q2.582,1.522,5.1,3.137c.433.28.871.551,1.3.834q2.82,1.853,5.55,3.828c.364.265.719.542,1.083.809q2.255,1.667,4.441,3.414c.479.383.959.763,1.432,1.152,1.687,1.385,3.355,2.792,4.98,4.252l.019.016-.006-.006.006,0L391.772,39.763c-1.631-1.466-3.309-2.879-5-4.27-.2-.165-.392-.342-.594-.5-.271-.221-.557-.42-.828-.638q-2.19-1.751-4.442-3.414c-.367-.271-.725-.548-1.092-.815q-2.727-1.975-5.546-3.828c-.149-.1-.293-.205-.442-.3-.28-.184-.576-.346-.859-.529q-2.512-1.615-5.1-3.137c-.43-.252-.853-.51-1.282-.759q-3.044-1.746-6.178-3.362c-.156-.078-.3-.168-.454-.246-.271-.14-.554-.258-.825-.392q-3.161-1.592-6.412-3.047c-.289-.131-.576-.271-.868-.4-2.337-1.027-4.715-1.989-7.118-2.907-.258-.1-.507-.218-.769-.314-.24-.09-.492-.162-.735-.252q-4.052-1.5-8.223-2.807c-.43-.134-.865-.258-1.295-.389-2.879-.872-5.792-1.681-8.752-2.4-.068-.016-.137-.04-.205-.056-.52-.128-1.055-.23-1.578-.352-1.332-.308-2.667-.616-4.015-.893-.759-.159-1.528-.3-2.294-.445-1.226-.237-2.45-.47-3.688-.682-.822-.14-1.646-.268-2.474-.4-1.2-.187-2.4-.367-3.614-.529-.85-.115-1.7-.224-2.555-.327q-1.821-.224-3.66-.4c-.51-.053-1.012-.121-1.525-.168-.243-.022-.492-.028-.738-.05q-4.23-.374-8.541-.56c-.517-.025-1.04-.034-1.556-.053-2.888-.1-5.8-.149-8.73-.121l-.436,0c-3.013.037-6.057.162-9.12.336-.588.034-1.173.066-1.762.1q-4.473.294-9.011.781c-.563.062-1.13.134-1.7.2-3.088.358-6.191.766-9.319,1.264-.084.016-.171.025-.255.041-3.175.507-6.374,1.114-9.586,1.768-.6.124-1.208.243-1.811.37q-4.673.99-9.393,2.191c-.6.153-1.2.315-1.8.47-3.284.859-6.574,1.771-9.885,2.782-3.445,1.055-6.866,2.2-10.271,3.4-1.005.355-2,.725-3,1.089q-3.772,1.377-7.5,2.863c-.99.4-1.98.781-2.966,1.189-3.318,1.366-6.623,2.783-9.891,4.28l-.053.025-.025.009c-.053.025-.1.053-.156.078-4.121,1.892-8.189,3.909-12.226,6-1.289.669-2.558,1.373-3.838,2.061q-4.258,2.283-8.444,4.7c-.7.4-1.422.769-2.116,1.18-.856.5-1.687,1.055-2.54,1.569q-2.666,1.611-5.3,3.281-2.53,1.6-5.033,3.249-2.61,1.718-5.182,3.5c-.875.6-1.771,1.167-2.639,1.78-.853.6-1.684,1.242-2.537,1.852q-2.017,1.447-4.012,2.932-2.713,2.017-5.385,4.1c-1.3,1.008-2.6,2.014-3.881,3.044-.582.467-1.18.909-1.759,1.382-1.345,1.089-2.655,2.225-3.984,3.34-.987.828-1.986,1.646-2.963,2.487q-3.651,3.138-7.212,6.39c-.43.392-.875.769-1.3,1.164-.056.05-.112.1-.165.149q-4.052,3.735-7.968,7.613c-.787.775-1.55,1.569-2.328,2.35-1.335,1.341-2.686,2.67-4,4.033-.542.564-1.061,1.142-1.6,1.709-.912.962-1.811,1.933-2.711,2.9q-2.558,2.759-5.052,5.574c-.868.977-1.737,1.954-2.59,2.941-.454.523-.924,1.034-1.376,1.559-1.329,1.556-2.618,3.144-3.915,4.722-.657.8-1.329,1.581-1.976,2.381q-3.408,4.216-6.682,8.522c-.078.1-.149.209-.227.311-.495.657-.965,1.326-1.454,1.982q-2.661,3.576-5.229,7.205c-.769,1.1-1.513,2.207-2.269,3.309-.94,1.373-1.9,2.733-2.823,4.118-.417.626-.8,1.267-1.211,1.892-.921,1.413-1.821,2.832-2.72,4.255q-1.765,2.792-3.474,5.612-1.312,2.171-2.583,4.364c-.538.925-1.108,1.833-1.637,2.761-.492.862-.937,1.743-1.419,2.611q-1.555,2.788-3.047,5.6-1.363,2.568-2.677,5.151-1.438,2.834-2.814,5.693c-.461.962-.962,1.9-1.416,2.867-.308.66-.57,1.329-.871,1.989-1.357,2.938-2.649,5.9-3.9,8.867-.514,1.217-1.055,2.431-1.553,3.654-1.693,4.165-3.305,8.348-4.793,12.562-.028.075-.062.152-.09.227-.663,1.88-1.245,3.772-1.864,5.659-.57,1.724-1.173,3.442-1.709,5.173-.616,2.011-1.155,4.031-1.727,6.047-.482,1.709-1.005,3.411-1.454,5.126-.529,2.014-.971,4.037-1.45,6.057-.408,1.727-.859,3.452-1.233,5.182-.436,2.023-.784,4.049-1.167,6.076-.33,1.734-.7,3.464-1,5.2-.358,2.126-.626,4.255-.928,6.384-.23,1.64-.51,3.274-.707,4.914-.28,2.322-.464,4.644-.675,6.966C.877,270.97.7,272.418.59,273.865c-.184,2.574-.268,5.145-.367,7.719-.044,1.2-.14,2.39-.168,3.583q-.126,5.644.037,11.27C1.577,347.7,21,389.375,52.264,417.437l48.343,43.391c-31.265-28.065-50.69-69.738-52.174-121q-.159-5.626-.034-11.273c.028-1.245.128-2.493.177-3.741.1-2.518.177-5.036.358-7.554.112-1.553.305-3.106.448-4.656.2-2.219.377-4.435.644-6.651.2-1.681.486-3.361.725-5.042.3-2.085.557-4.174.909-6.259.289-1.731.663-3.458.99-5.189.386-2.029.738-4.062,1.173-6.088.377-1.743.828-3.48,1.242-5.22.473-2.008.915-4.015,1.438-6.017.454-1.73.98-3.449,1.469-5.173.566-2,1.1-4.009,1.715-6,.532-1.724,1.136-3.439,1.7-5.157.647-1.97,1.267-3.943,1.958-5.9,1.491-4.211,3.1-8.394,4.8-12.559.5-1.226,1.04-2.44,1.553-3.66,1.254-2.969,2.546-5.926,3.9-8.867q1.12-2.432,2.288-4.846,1.377-2.857,2.814-5.7,1.312-2.586,2.677-5.148,1.494-2.82,3.053-5.615,1.494-2.685,3.041-5.35c.856-1.466,1.715-2.926,2.593-4.379q1.709-2.819,3.477-5.612c.9-1.419,1.793-2.839,2.714-4.245,1.323-2.023,2.677-4.028,4.043-6.023.753-1.1,1.494-2.207,2.26-3.3q2.558-3.632,5.223-7.2c.492-.663.965-1.338,1.463-2q3.375-4.468,6.91-8.83c.647-.8,1.317-1.584,1.973-2.381q2.61-3.165,5.291-6.284c.856-.987,1.724-1.964,2.593-2.941q2.493-2.811,5.048-5.571c.9-.974,1.8-1.945,2.717-2.91q2.75-2.9,5.581-5.727c.781-.787,1.553-1.584,2.344-2.366q4.006-3.945,8.133-7.759c.417-.386.853-.756,1.273-1.139q3.572-3.259,7.236-6.415c.977-.84,1.973-1.656,2.96-2.484,1.9-1.594,3.816-3.178,5.752-4.728,1.279-1.024,2.574-2.029,3.869-3.035q2.675-2.078,5.391-4.1,2-1.485,4.015-2.935,2.568-1.84,5.167-3.626,2.582-1.774,5.188-3.5,2.5-1.648,5.03-3.246,2.643-1.672,5.31-3.284,2.311-1.4,4.647-2.745,4.193-2.432,8.46-4.709c1.273-.685,2.54-1.388,3.822-2.054,4.049-2.1,8.13-4.121,12.263-6.02.047-.022.093-.047.143-.068l.09-.041c3.256-1.494,6.549-2.9,9.854-4.264.99-.408,1.989-.8,2.982-1.2q3.721-1.48,7.479-2.854c1.008-.367,2.014-.741,3.022-1.1,3.4-1.2,6.819-2.344,10.265-3.4,3.309-1.012,6.6-1.924,9.879-2.783.6-.159,1.2-.32,1.8-.473Q280.458,49.245,285.133,48.254Z"/><g transform="translate(48.341 43.379)"><path class="f" d="M215.711,10.322C338.062-27.087,440.456,40.4,443.942,160.751c3.486,120.375-93.237,248.736-215.592,286.145C105.971,484.311,3.577,416.824.091,296.449-3.392,176.1,93.332,47.737,215.711,10.322Zm10.43,360.244c79.586-24.33,142.467-107.81,140.2-186.092-2.266-78.254-68.832-122.155-148.418-97.825S75.429,194.469,77.694,272.722C79.96,351,146.558,394.9,226.141,370.566"/></g></g></g></g></svg>