<svg xmlns="http://www.w3.org/2000/svg" width="366.649" height="299.016" viewBox="0 0 366.649 299.016"><defs><style>.a{opacity:0.065;}.b{fill:#fff;}</style></defs><g class="a" transform="translate(-768 -383.419)"><path class="b" d="M768,578.04c.946-6.941,1.536-13.951,2.893-20.809q17.293-87.387,95.232-130.671c3.66-2.022,6.864-1.282,8.355,1.681s.291,5.884-3.431,7.849a173.193,173.193,0,0,0-35.118,24.5c-.877.789-1.718,1.617-2.459,2.316L856.85,486.2c7.738-5.482,15.308-11.481,23.476-16.5a130.126,130.126,0,0,1,61.48-19.162c3.115-.18,4.307-.977,4.226-4.342-.235-9.758-.083-19.525-.083-29.95-6.4.593-12.507.614-18.37,1.818-11.176,2.3-22.231,5.2-33.3,7.995-3.8.959-6.46.392-7.8-2.214-1.611-3.125-.053-6.381,3.814-7.786a169.155,169.155,0,0,1,45.667-9.75c41.925-3.044,80.714,6.644,116.038,29.517,7.378,4.777,14.227,10.37,21.554,15.76l9.884-7.388c-7.613-5.725-14.673-11.552-22.235-16.632-32.115-21.571-67.654-32.484-106.291-33.423-1.194-.029-2.391.007-3.578-.088-3.21-.255-5.216-2.254-5.277-5.185a5.147,5.147,0,0,1,5.391-5.443c6.079.052,12.182.184,18.23.75q66.641,6.24,117.62,49.682c1.446,1.236,2.864,2.5,4.544,3.972,2.872-2.14,5.709-4.254,8.547-6.367.765-.57,1.5-1.182,2.3-1.7,2.588-1.661,5.35-2.281,7.981-.346,1.84,1.353,1.626,5.629-.316,8.255-5.175,7-10.452,13.929-15.645,20.919-2.051,2.76-5.466,5.578-5.527,8.428-.055,2.576,3.6,5.242,5.645,7.851,22.263,28.42,35.062,60.662,38.992,96.492.245,2.23.553,4.453.832,6.68v12.89c-1.919,2.608-4.49,3.474-7.708,3.447-13.245-.109-26.492-.034-39.739-.051-6.079-.008-7.388-1.562-7.85-7.537-.595-7.712-1.635-15.391-2.489-23.083-.079-.71-.234-1.414-.3-2.125-.32-3.547,1.229-5.935,4.165-6.456,3.116-.554,5.719,1.194,6.36,4.791,1,5.629,1.714,11.309,2.489,16.976.288,2.108.411,4.239.624,6.516h33.651c-1.861-40.553-15.759-76.141-42.079-107.574-7.06,9.406-13.9,18.512-20.18,26.882,5.77,10.367,11.261,20.217,16.723,30.083a19.78,19.78,0,0,1,1.26,2.957c1.054,2.966.079,5.845-2.462,7-2.844,1.287-5.213.372-6.816-2.119-1.15-1.787-1.8-3.883-2.841-5.753-4.139-7.464-8.34-14.892-12.821-22.873-7.406,9.865-14.184,18.791-20.772,27.853-.573.788-.3,2.7.258,3.722a97.349,97.349,0,0,1,11.546,43.132c1.713,43.955-31.492,86.264-74.453,94.742a65.223,65.223,0,0,1-7.087.948c-3.433.292-5.859-1.456-6.341-4.387-.515-3.135,1.325-5.678,4.9-6.222a86.322,86.322,0,0,0,40.36-17.149c3.015-2.318,4.8-4.711,4.158-8.631a30.315,30.315,0,0,1-.042-4.648c-.041-6.456-2.278-9.617-8.391-11.734-7.541-2.612-15.069-5.271-22.673-7.685a6.232,6.232,0,0,0-4.472.505c-13.5,7.722-26.9,7.76-40.446.115A6.728,6.728,0,0,0,926.4,622c-7.611,2.393-15.138,5.057-22.677,7.674-5.891,2.045-8.189,5.294-8.246,11.484-.1,10.764-.117,10.789,8.907,16.9a81.379,81.379,0,0,0,32.915,13.2q1.412.229,2.814.528c3.457.737,5.335,3.28,4.728,6.379-.588,3-3.319,4.638-6.859,4.115-15.515-2.29-29.829-7.78-42.16-17.455-31.23-24.5-44.881-56.629-36.48-95.63,8.337-38.7,33.382-63.025,71.9-72.349,22.366-5.414,44.1-1.993,64.446,8.922,2.67,1.432,4.333,1.174,6.585-.57,8.286-6.415,16.717-12.644,25.342-19.128a120.6,120.6,0,0,0-36.652-18.911c-70.563-22.127-147.759,21.765-164.509,93.762-2.01,8.641-2.361,17.689-3.189,26.575-.453,4.867-1.919,6.787-6.748,6.808-13.962.06-27.929.17-41.885-.131-2.235-.049-4.426-2.114-6.637-3.246Zm213,34.144c7.532,2.575,14.724,5.025,21.91,7.493,6.584,2.262,11.316,6.491,13.675,13.132.654,1.841,1.048,3.774,1.592,5.774,22.959-28.62,25.247-79.084-11.554-111.855-35.747-31.832-89.437-27.7-119.645,8.824-29.445,35.6-20.9,81.95-2.288,102.871,1.39-10.5,7.514-16.615,17.393-19.585,6.475-1.947,12.814-4.346,18.767-6.39-1.162-4.576-3.069-8.794-3.167-13.054-.38-16.333-.589-32.693-.063-49.016.4-12.325,10.8-21.975,23.141-22.557,5.834-.275,11.689-.159,17.534-.138,16.76.058,26.968,10.231,27.036,26.972.049,11.812-.051,23.625.033,35.437C985.421,597.656,985.287,605.146,981,612.184ZM779.231,583.359h33.324a138.552,138.552,0,0,1,36.479-88.387c-8.061-8.053-15.875-15.859-23.7-23.677C800.32,493.25,775.154,554.121,779.231,583.359Zm285.156-124.892C1033.031,432,997.549,418.106,956.943,416.41v33.726a140.025,140.025,0,0,1,79.715,29.175Zm-136.258,117.3c0,7.513-.256,14.428.059,21.319.488,10.68,8.2,18.734,18.785,20.144,11.908,1.585,23.355-4.316,26.383-14.308,2.655-8.764.83-17.85,1.213-27.225-9.4,1.083-17.387-.159-21.985-9.52C946.182,574.043,938.075,576.847,928.129,575.763Zm99.321-45.424,50.808-67.756-.628-.6-67.69,50.829ZM928.482,564.9c5.2.958,9.944.045,13.9-3.651a92.562,92.562,0,0,0,6.467-6.662c3.329-3.809,7.16-3.58,9.834.787,1.43,2.337,2.624,4.831,4.172,7.082.747,1.086,1.988,2.372,3.145,2.527a66.264,66.264,0,0,0,8.6.118c0-4.093.016-7.666-.01-11.239a26.131,26.131,0,0,0-.216-3.21c-.84-6.4-5.923-11.7-12.29-12.009-7.14-.345-14.32-.314-21.463-.01-5.8.247-11.279,4.886-11.995,10.572C927.974,554.327,928.482,559.593,928.482,564.9Z" transform="translate(0 0)"/><path class="b" d="M1149.389,645.856c-1.89,2.93-4.666,3.649-7.987,3.532-4.612-.162-9.234-.041-14.238-.041,0,5.3.02,10.27-.007,15.238-.023,4.4-2.076,6.981-5.451,6.937-3.36-.045-5.264-2.571-5.279-7.066-.017-4.867,0-9.733,0-15.109-4.358,0-8.476,0-12.6,0-1.429,0-2.869.081-4.286-.06-3.36-.333-5.412-2.545-5.313-5.572s2.259-5.034,5.706-5.082c5.337-.075,10.677-.02,16.488-.02,0-5.38-.02-10.459.006-15.538.022-4.335,1.827-6.613,5.216-6.68,3.521-.07,5.486,2.315,5.512,6.782.029,4.986.007,9.972.007,15.431,5.225,0,10.193.156,15.146-.055,3.229-.138,5.528.944,7.079,3.726Z" transform="translate(-14.74 -10.527)"/><path class="b" d="M768,643.323c1.548-2.781,3.851-3.761,7.069-3.729,13.926.138,27.853.042,41.78.071,3.983.008,6.263,1.948,6.311,5.2a5.179,5.179,0,0,1-5.407,5.449c-14.758.117-29.52.171-44.274-.1-1.847-.034-3.654-2.151-5.48-3.3Z" transform="translate(0 -11.575)"/></g></svg>