<svg xmlns="http://www.w3.org/2000/svg" xmlns:xlink="http://www.w3.org/1999/xlink" width="266.325" height="258.502" viewBox="0 0 266.325 258.502"><defs><style>.a,.d{isolation:isolate;}.b{fill:url(#a);}.c{fill:url(#d);}.d{opacity:0.74;mix-blend-mode:multiply;}</style><linearGradient id="a" y1="0.5" x2="1" y2="0.5" gradientUnits="objectBoundingBox"><stop offset="0" stop-color="#d500f9"/><stop offset="0.99" stop-color="#2979ff"/></linearGradient><linearGradient id="d" y1="0.5" x2="1" y2="0.5" gradientUnits="objectBoundingBox"><stop offset="0" stop-color="#ea80fc"/><stop offset="0.99" stop-color="#40c4ff"/></linearGradient></defs><g transform="translate(168.167 -331.806)"><g transform="translate(-168.167 331.806)"><g class="a"><g transform="translate(146.721 75.901)"><path class="b" d="M-2.86,505.367l-44.893.376-27.141-125.31L-30,380.057Z" transform="translate(74.894 -380.057)"/></g><g transform="translate(0 0.001)"><path class="b" d="M-123.274,516.229l-44.893.376L-2.628,332.182l44.893-.376Z" transform="translate(168.167 -331.806)"/></g><g transform="translate(0 184.423)"><path class="b" d="M98.158,522.749l-44.893.376-221.432-73.7,44.893-.376Z" transform="translate(168.167 -449.047)"/></g><g transform="translate(44.893)"><path class="c" d="M25.912,331.806,81.8,589.931l-221.433-73.7ZM-73.257,497.232,34.235,533.016,7.094,407.706l-80.351,89.526" transform="translate(139.628 -331.806)"/></g></g></g><g class="d" transform="translate(-168.167 516.229)"><path class="b" d="M98.158,522.749l-44.893.376-221.432-73.7,44.893-.376Z" transform="translate(168.167 -449.047)"/></g></g></svg>