<svg xmlns="http://www.w3.org/2000/svg" width="256.605" height="257.393" viewBox="0 0 256.605 257.393"><defs><style>.a{fill:#fff;opacity:0.06;}</style></defs><path class="a" d="M1575.6,695.4H1330.23c-4.355-2-6.028-5.456-5.549-10.129.127-1.244,0-2.513.049-3.768.585-13.743,5.893-25.3,16.227-34.413,2.839-2.5,6.065-4.564,9.119-6.832-7.1-8.511-9.656-18.123-6.467-28.837,3.206-10.774,10.717-17.435,21.315-20.744,0-2.536,0-4.879,0-7.222.03-14.158,9.669-23.777,23.869-23.787q26.9-.019,53.8,0h2.664V543.574h-2.809c-9.8,0-19.607.027-29.411-.014-4.294-.018-7.6-2.882-7.838-6.928-.823-13.84,2.314-26.55,11.875-36.953,3.915-4.26,8.712-7.71,13.191-11.6.051.066-.242-.33-.552-.711-11.227-13.862-8.732-33.617,5.96-43.723,3.87-2.662,8.786-3.8,13.222-5.64h8.045a15.1,15.1,0,0,0,1.62.519,30.2,30.2,0,0,1,24.452,31.4,29.71,29.71,0,0,1-7.651,18.391c3.626,2.829,7.453,5.313,10.678,8.422,10.851,10.457,15.229,23.491,14.67,38.4-.2,5.379-3.065,8.43-8.416,8.441q-14.452.029-28.906.005h-2.772v16.087h2.876c18.1,0,36.195-.032,54.292.012,12.045.03,21.44,8.145,22.912,20.008.448,3.616.07,7.334.07,10.956,10.853,3.406,18.25,10.074,21.449,20.774,3.223,10.784.581,20.442-6.549,28.98a5.486,5.486,0,0,0,.658.567c16.923,10.04,24.981,24.95,24.886,44.562C1581.184,690.125,1579.813,693.432,1575.6,695.4Zm-64.406-54.877c-7.316-8.771-9.876-18.38-6.691-29.09,3.2-10.771,10.7-17.441,21.319-20.751,0-2.514.006-4.856,0-7.2-.017-5.84-2.941-8.734-8.847-8.735q-26.886-.007-53.772,0h-2.67v15.9c21.179,5.9,30.271,31.636,14.612,49.927a49.542,49.542,0,0,1,18.028,16.475A49.5,49.5,0,0,1,1511.192,640.519Zm-80.5.015c-15.6-18.055-6.707-44.04,14.535-49.881V575.031c-.215-.136-.283-.216-.35-.216-19.264-.023-38.526-.086-57.789-.016a7.2,7.2,0,0,0-6.994,6.685c-.214,3.063-.044,6.152-.044,9.214,10.721,3.368,18.095,10.058,21.28,20.752,3.208,10.772.558,20.427-6.673,29.076a50,50,0,0,1,18.063,16.536A49.445,49.445,0,0,1,1430.689,640.534Zm-10.26-112.251h64.984a32.6,32.6,0,0,0-64.984,0Zm-15.459,151.923c-1.66-17.971-16.753-31.12-34.524-29.971-19.751,1.276-30.25,18.062-30.313,29.971Zm80.4-.027c-.924-16.516-15.484-29.982-32.327-30.026-16.985-.044-31.612,13.372-32.6,30.026Zm80.48.021a32.675,32.675,0,0,0-33.952-30.025c-16.094.517-30.809,14.752-30.919,30.025Zm-97.862-212.066A15.076,15.076,0,1,0,1453,483.24,15.113,15.113,0,0,0,1467.989,468.134Zm-80.448,151.942a15.077,15.077,0,1,0-15.107,14.985A15.116,15.116,0,0,0,1387.541,620.076Zm65.409-15.163a15.074,15.074,0,1,0,15.039,15.046A15.1,15.1,0,0,0,1452.95,604.914Zm80.35,0a15.074,15.074,0,1,0,15.137,14.948A15.1,15.1,0,0,0,1533.3,604.914Z" transform="translate(-1324.602 -438.003)"/></svg>