<svg xmlns="http://www.w3.org/2000/svg" width="258.615" height="270.879" viewBox="0 0 258.615 270.879"><defs><style>.a{fill:#fff;opacity:0.06;}</style></defs><path class="a" d="M1492.121,733.879H1389.989c.446-.751.857-1.525,1.344-2.247q9.536-14.128,19.082-28.249c.484-.718,1.194-1.515,1.206-2.284.1-6.317.055-12.635.055-19.253H1370.03V616.389h41.708c.491-8.229-3.732-14.952-5.266-22.563-7.36,2.448-14.327,4.611-21.181,7.087-8.418,3.042-15.731,1.726-21.978-4.817-.1-.1-.321-.078-.509-.119-6.188,6.539-13.476,8.026-21.924,4.993-6.932-2.489-13.966-4.7-21.169-7.1-1.274,4-2.372,7.795-3.691,11.507a34.527,34.527,0,0,0-1.817,11.9c.106,25.913.165,51.826.01,77.738a19.108,19.108,0,0,0,3.658,11.926c6.274,8.816,12.121,17.937,18.14,26.935H1233.879c-.062-.609-.178-1.219-.179-1.829q-.014-41.654,0-83.308c0-.753.125-1.506.183-2.156h7.828v79.228h36.162v-3.219q0-43.373.028-86.747c0-1.084.044-2.5.684-3.193,3.169-3.406,6.546-6.618,9.785-9.835l5.938,5.677c-2.315,2.166-4.451,4.266-6.7,6.233a5.246,5.246,0,0,0-1.82,4.383q.08,41.918.037,83.837v2.863H1321c-.586-.953-1.005-1.693-1.479-2.4-3.888-5.773-7.865-11.489-11.626-17.343a9.5,9.5,0,0,1-1.484-4.827q-.159-42.183-.06-84.366c.006-2.407-.579-3.478-3.015-4.221-17.849-5.444-35.64-11.08-53.453-16.644-2.633-.823-5.286-1.585-8.238-2.468v11.489q0,15.472-.016,30.944c0,1.041.461,2.479-1.432,2.482-2.087,0-4.173,0-6.293,0-.1-.872-.207-1.39-.207-1.907q-.014-23.935.013-47.869a9.779,9.779,0,0,1,.467-2.846c4.631-14.872,9.095-29.8,14-44.58,5-15.069,15.529-24.47,30.983-28.071,4.033-.94,8.279-.961,12.547-1.417-.23-.49-.476-1.037-.741-1.574a32.357,32.357,0,0,1,10.154-41.182c4.438-3.238,9.538-4.783,14.777-6.019h7.938a11.615,11.615,0,0,0,1.492.473c15.352,2.718,26.78,15.842,27.073,31.107a32.483,32.483,0,0,1-25.828,32.65c-1.687.365-3.4.59-5.188.893l4.581,7.635-7.111,3.386c-.318-.459-.485-.664-.615-.891-7.53-13.25-19.07-19.579-34.067-17.885-14.676,1.658-24.346,10.307-28.84,24.454-4.077,12.834-8.041,25.7-12.046,38.559-.2.64-.312,1.307-.5,2.109l64.823,20.257c1.541-4.937,3-9.6,4.507-14.445-5.437-1.9-10.682-3.67-15.874-5.578-8.789-3.229-13.94-9.5-15.482-18.757-1.17-7.025,2.139-13.011,4.19-19.572l7.465,2.659c-1.066,3.106-2.071,5.915-3,8.749-2.765,8.478,1.215,16.577,9.63,19.493s16.828,5.741,25.243,8.606l8.768,2.989c1.836-6.789,3.573-13.213,5.359-19.817l-16.822-5.679V545.969l7.8-1.843c.234,4.536.571,8.634.589,12.733.007,1.512.3,2.171,1.784,2.6,3.128.9,6.248,1.878,9.268,3.083,7.507,2.993,16.1,3.605,22.03,10.265,3.09-3.692,7.049-5.431,11.331-6.763,6.553-2.037,13.014-4.364,19.55-6.456,1.612-.516,2.128-1.182,2.017-2.966a41.36,41.36,0,0,1,7.36-26.476c.417-.613.8-1.251,1.31-2.061-1.24-.19-2.191-.348-3.146-.48a32.424,32.424,0,0,1-15.211-57.845c4.732-3.651,10.164-5.49,15.873-6.759h7.938a10.729,10.729,0,0,0,1.477.484,32.485,32.485,0,0,1,23.685,46.253c-.354.731-.708,1.462-1.16,2.4,1.67,0,2.9-.037,4.13,0,16.885.583,29.581,8.231,37.137,23.295,3.274,6.527,5.006,13.827,7.5,20.942l-7.771,2.434c-1.753-5.506-3.311-10.818-5.131-16.039a34.082,34.082,0,0,0-35.869-22.56,33.615,33.615,0,0,0-29.814,29.391c-.54,4.731.1,9.6.214,14.768l-16.925,5.7,5.374,19.756c.9-.244,1.493-.371,2.065-.566,10.408-3.564,20.825-7.106,31.217-10.717,9.553-3.32,13.3-11.181,10-20.772-.875-2.542-1.717-5.094-2.619-7.774l7.48-2.584c1.294,3.871,2.759,7.471,3.655,11.207a22.245,22.245,0,0,1,.492,7.841c-1.279,10-7.058,16.409-16.486,19.676-4.893,1.7-9.785,3.393-14.871,5.157l4.521,14.463,64.948-20.311-5.825-18.953,7.531-2.305c2.2,6.972,4.367,13.66,6.378,20.4a20.272,20.272,0,0,1,.847,5.693q.067,70.222.027,140.445C1492.3,731.777,1492.184,732.828,1492.121,733.879ZM1431.681,628.5l6.061-5.892c2.83,2.9,5.586,5.863,8.495,8.662a5.807,5.807,0,0,1,1.934,4.613q-.1,43.368-.044,86.736v3.124h36V593.607c-.756.217-1.257.351-1.751.505-20.163,6.3-40.312,12.642-60.506,18.84-2.071.636-2.187,1.74-2.187,3.452q.021,42.573-.087,85.148a8.7,8.7,0,0,1-1.342,4.351c-2.624,4.174-5.469,8.21-8.231,12.3-1.654,2.448-3.314,4.891-5.1,7.531h35.057a4.086,4.086,0,0,0,.171-.712q.022-43.5-.02-87a4.338,4.338,0,0,0-1.242-2.7C1436.606,633,1434.175,630.84,1431.681,628.5ZM1340.96,483.358c-4.354,8.178-10.76,13.916-19.612,16.72-8.832,2.8-17.335,1.655-25.578-2.559-.026,9.117,7.161,18.214,16.6,21.293a24.439,24.439,0,0,0,27.293-8.817C1345.5,502.052,1346.1,490.584,1340.96,483.358Zm89.291,14.243c-18.205,9.153-37.118,1.52-45.269-14.1-4.96,6.612-4.512,18.2,1.007,26.04a24.573,24.573,0,0,0,27.36,9.383C1422.836,515.98,1430.155,506.843,1430.251,497.6Zm-18.675,149.534V624.576h-33.516c-1.548,10.068,6.376,20.948,16.9,22.427C1400.295,647.753,1405.824,647.135,1411.576,647.135Zm0,8.329c-12.093.435-24.2,1.088-33.671-9.124v27.422h33.671Zm-100.66-161.81c10.675-.02,19.912-6.3,23.537-15.32.585-1.455.505-2.292-.9-3.265-12.594-8.728-31.161-2.921-36.5,11.435a2.117,2.117,0,0,0,1,3.006A25.078,25.078,0,0,0,1310.916,493.653Zm95.286-22.7a25.388,25.388,0,0,0-13.919,4.245,2.032,2.032,0,0,0-.851,2.835c5.242,14.333,23.8,20.185,36.466,11.513,1.388-.95,1.537-1.754.951-3.225A24.716,24.716,0,0,0,1406.2,470.954Zm-65.589,121.509c2.168.664,4.133,1.414,6.165,1.855a10.172,10.172,0,0,0,11.3-5.772c1.946-4.292.815-9.73-3.113-12.268-2.628-1.7-5.774-2.592-8.888-3.933C1344.167,579.377,1342.425,585.795,1340.614,592.462Zm39.428-19.627c-7.808,1.487-11.769,4.373-12.783,9.178a10.318,10.318,0,0,0,4.126,10.678c3.8,2.659,9.125,2.426,13.895-.671C1383.539,585.643,1381.788,579.229,1380.042,572.836Z" transform="translate(-1233.693 -463)"/></svg>