<svg xmlns="http://www.w3.org/2000/svg" width="267.524" height="267.614" viewBox="0 0 267.524 267.614"><defs><style>.a{opacity:0.06;}.b{fill:#fff;}</style></defs><g class="a" transform="translate(-359.673 -449.8)"><path class="b" d="M538.187,516.591c0-8.452,0-16.443,0-24.434,0-5.686,1.067-6.742,6.861-6.8.552-.005,1.1,0,2.06,0,0-4.061-.01-8.019,0-11.976.015-4.388,1.47-5.858,5.835-5.867,6.86-.013,13.72,0,20.886,0V449.8H582.7V467.51h18.319c8.031,0,8.543.507,8.543,8.469v9.379c1.362,0,2.453-.015,3.543,0,3.784.061,5.327,1.638,5.376,5.5.016,1.3,0,2.6,0,3.9v97.483h-8.9V494.414h-62.28V650.278h26.508V632.8h8.866v17.425h26.8v-48.7h8.864v48.859h8.9v8.988h-7.626c-4.461,0-8.924.1-13.379-.049a4.093,4.093,0,0,0-3.858,2.027q-29.216,40.272-77.514,52.28c-52.218,12.931-108.549-7.967-139.817-51.85a5.035,5.035,0,0,0-4.747-2.462c-6.757.15-13.518.054-20.419.054v-8.816h8.778v-3.263c0-8.923.053-17.846-.033-26.768a5.894,5.894,0,0,1,3.127-5.718q10.33-6.057,20.539-12.318a5.38,5.38,0,0,1,6.229-.027c4.719,2.914,9.507,5.718,14.746,8.852,0-5.8.163-11.142-.061-16.467a8.377,8.377,0,0,1,3.419-7.4c9.478-7.929,18.8-16.041,28.186-24.084,3.388-2.9,4.884-2.926,8.219-.073q9.849,8.427,19.684,16.871c.829.709,1.685,1.386,2.842,2.334.068-1.134.156-1.916.158-2.7.01-7.25-.142-14.5.109-21.745a8.716,8.716,0,0,1,2.225-5.339q16.77-17.134,33.9-33.916a8.327,8.327,0,0,1,5.116-2.1C524.014,516.451,530.964,516.591,538.187,516.591ZM538,650.314v-124.8c-6.122,0-12.058-.093-17.987.074a6.161,6.161,0,0,0-3.81,1.583c-10,9.84-19.863,19.816-29.841,29.676a5.567,5.567,0,0,0-1.733,4.4q.065,43.067.03,86.134v2.934h22.338V632.8h8.959v17.51Zm-89.022-78.757c-8.468,7.26-16.681,14.363-24.984,21.36a4.651,4.651,0,0,0-1.826,4.012c.062,16.908.036,33.815.043,50.724,0,.889.079,1.779.121,2.662h22.2V632.8h8.956v17.484h21.981a2.834,2.834,0,0,0,.219-.666q.029-26.894,0-53.787a3.146,3.146,0,0,0-.928-2.129C466.276,586.347,457.734,579.057,448.975,571.557Zm-5.095,87.956c4.723,7.457,9.077,14.421,13.58,21.289.4.614,1.76.842,2.675.843q33.436.068,66.872-.039a4.556,4.556,0,0,0,3.308-1.711c3.914-6.079,7.622-12.292,11.374-18.475a13.616,13.616,0,0,0,.793-1.907Zm-30.6-9.126c0-9.309.032-18.39-.064-27.468a3.07,3.07,0,0,0-1.426-2.044c-4.888-3.031-9.8-6.025-14.813-8.848a3.828,3.828,0,0,0-3.2.079q-7.386,4.182-14.549,8.749a3.924,3.924,0,0,0-1.562,2.776c-.143,5.848-.072,11.7-.072,17.555v9.049h13.47V632.78h8.955v17.607ZM592.8,659.373c-13.345,0-26.063-.028-38.781.074-.719.005-1.683.935-2.1,1.678-2.1,3.716-3.981,7.551-6.074,11.269-1.707,3.032-3.605,5.957-5.631,9.277,10.264,0,20.082.009,29.9-.025a2.629,2.629,0,0,0,1.493-.59A123.879,123.879,0,0,0,592.8,659.373Zm-146.247,22.3c-3.957-7.238-7.678-14.174-11.585-21a3.871,3.871,0,0,0-2.921-1.248c-11.7-.085-23.408-.057-35.112-.05-.688,0-1.375.073-2.474.135a122.2,122.2,0,0,0,21.066,21.519,3.05,3.05,0,0,0,1.762.621C427.024,681.688,436.754,681.678,446.557,681.678Zm19.157,9.058-.436.761c5.353,5.136,10.673,10.308,16.1,15.369a4.842,4.842,0,0,0,2.983,1.127c6.121.1,12.248.128,18.367-.01a5.618,5.618,0,0,0,3.418-1.427c4.655-4.4,9.18-8.938,13.73-13.45.662-.657,1.214-1.425,2.008-2.369Zm134.728-205.5v-8.586H556.178v8.586Zm-43.5,205.377c-7.469,0-14.938-.007-22.408.02a1.8,1.8,0,0,0-1.232.459c-3.981,4.589-7.922,9.213-12.258,14.28A109.921,109.921,0,0,0,556.943,690.611ZM466.1,705.343c-4.253-4.965-8.136-9.523-12.064-14.041a2.124,2.124,0,0,0-1.415-.662c-7.462-.041-14.925-.029-22.388-.029A109.385,109.385,0,0,0,466.1,705.343Z" transform="translate(-0.057 0)"/><path class="b" d="M431.262,504.71,410.217,524.3l-6.069-6.5c3.159-2.956,6.2-5.8,9.239-8.645q6.621-6.187,13.246-12.37c3.514-3.288,4.976-3.366,8.6-.357q9.759,8.1,19.5,16.23c.844.7,1.713,1.374,2.709,2.172l33.76-37.53c-2.937-1.965-5.613-3.8-8.335-5.562-1.768-1.146-2.984-2.593-2.659-4.8.34-2.317,1.954-3.337,4.107-3.976,14.139-4.2,28.25-8.492,42.38-12.719,4.793-1.434,7.36.773,6.85,5.778q-2.148,21.072-4.288,42.144c-.485,4.774-3.765,6.362-7.816,3.74-3.1-2.006-6.152-4.088-9.37-6.231-4.671,5.049-9.21,9.944-13.738,14.852q-18.057,19.569-36.107,39.146c-3.113,3.375-4.954,3.482-8.513.517-7.423-6.182-14.848-12.361-22.446-18.686-3.656,3.39-7.26,6.716-10.846,10.062q-26.089,24.351-52.164,48.719c-1.636,1.529-3.309,2.793-5.694,1.823-2.478-1.007-2.906-3.069-2.889-5.475.053-8.086-.061-16.175.092-24.26a6.893,6.893,0,0,1,1.583-4.494c11.641-11.081,23.428-22.007,35.44-33.222l6.063,6.474c-1.71,1.631-3.288,3.163-4.9,4.664-9.171,8.562-18.322,17.146-27.555,25.641a5.115,5.115,0,0,0-1.821,4.334c.118,3.712.036,7.431.036,11.809,1.061-.931,1.78-1.529,2.463-2.165q27.726-25.87,55.443-51.748c3.716-3.47,5.064-3.517,9.03-.213q9.853,8.207,19.7,16.422c.7.586,1.442,1.132,2.237,1.754,9.325-10.1,18.53-20.064,27.731-30.032q10.968-11.883,21.931-23.772c2.755-2.981,4.35-3.183,7.731-1.006,1.917,1.235,3.82,2.492,6.161,4.021,1.037-10.344,2.022-20.18,3.054-30.481l-29,8.671c1.947,1.353,3.444,2.353,4.9,3.411,2.891,2.1,3.316,4.711.96,7.343q-19.715,22.016-39.539,43.937c-2.246,2.483-4.441,2.412-7.306.032C446.537,517.449,438.979,511.14,431.262,504.71Z" transform="translate(0 0)"/><path class="b" d="M632.69,612V633.86h-8.68V612Z" transform="translate(-67.85 -41.634)"/><path class="b" d="M648.026,611.855h8.582v21.959h-8.582Z" transform="translate(-74.014 -41.596)"/><path class="b" d="M671.907,591.816V569.9h8.68v21.921Z" transform="translate(-80.144 -30.826)"/><path class="b" d="M624.021,653.874H632.6v21.958h-8.582Z" transform="translate(-67.853 -52.382)"/><path class="b" d="M656.548,675.951h-8.6V653.992h8.6Z" transform="translate(-73.994 -52.412)"/><path class="b" d="M671.913,675.941V653.954h8.659v21.987Z" transform="translate(-80.146 -52.402)"/><path class="b" d="M648.07,569.815h8.516v22.041H648.07Z" transform="translate(-74.026 -30.805)"/><path class="b" d="M623.994,569.743h8.523v22.048h-8.523Z" transform="translate(-67.846 -30.787)"/><path class="b" d="M672.029,527.821h8.585V549.78h-8.585Z" transform="translate(-80.175 -20.026)"/><path class="b" d="M647.923,549.878V527.914h8.637v21.964Z" transform="translate(-73.988 -20.05)"/><path class="b" d="M632.527,549.9h-8.553V527.838h8.553Z" transform="translate(-67.841 -20.031)"/><path class="b" d="M671.952,633.9v-21.93h8.6V633.9Z" transform="translate(-80.156 -41.627)"/><path class="b" d="M576.019,611.846h8.568V633.9h-8.568Z" transform="translate(-55.531 -41.594)"/><path class="b" d="M540.053,611.771h8.482v22.058h-8.482Z" transform="translate(-46.3 -41.575)"/><path class="b" d="M539.945,653.883h8.568v21.994h-8.568Z" transform="translate(-46.272 -52.384)"/><path class="b" d="M584.523,675.971H575.95V654.012h8.573Z" transform="translate(-55.514 -52.417)"/><path class="b" d="M584.509,591.927h-8.53V569.871h8.53Z" transform="translate(-55.521 -30.82)"/><path class="b" d="M455.957,653.78h8.523v22.048h-8.523Z" transform="translate(-24.714 -52.357)"/><path class="b" d="M491.992,653.873h8.581v21.959h-8.581Z" transform="translate(-33.963 -52.381)"/></g></svg>