<svg xmlns="http://www.w3.org/2000/svg" width="268.952" height="268.844" viewBox="0 0 268.952 268.844"><defs><style>.a{opacity:0.06;}.b{fill:#fff;}</style></defs><g class="a" transform="translate(-841.349 -257.699)"><path class="b" d="M1109.8,455.156c-1.769-8.955-6.043-16.435-13.655-21.567-3.76-2.535-8.067-4.261-12.3-6.444,3.326-4.878,3.672-10.767,3.327-16.781-.776-13.553-12.382-23.144-25.714-20.7-4.206.772-8.106,3.212-12.121,4.878-11.807-33.636-43.379-52.37-72.874-51.868-36.4.619-60.667,19.366-74.537,52.571-.346-.251-.78-.537-1.184-.86-7.06-5.659-14.9-6.906-23.1-3.242-8.63,3.858-12.8,10.961-13.155,20.384-.217,5.689.419,11.16,3.7,16.168-1.013.335-1.742.6-2.483.82-9.764,2.953-16.7,9.141-21.135,18.282-3.925,8.083-3.293,16.691-2.98,25.234.09,2.474,1.826,4.131,4.442,4.425a40.874,40.874,0,0,0,4.444.207c7.525.018,15.051.063,22.575-.019,3.83-.042,6.225-2.261,6.142-5.379-.081-3.081-2.351-5.01-6.118-5.084-3.062-.06-6.125-.014-9.188-.014H851.947c0-2.138-.08-3.962.013-5.778.579-11.256,8.326-21.244,18.7-22.2,9.7-.891,19.535-.19,28.824-.19L909.9,462.823c-.31.272-1.073.867-1.752,1.545q-28.039,28.018-56.055,56.059a43.091,43.091,0,0,0-3.164,3.5,19.675,19.675,0,0,0-.034,24.07c3.233,4.158,7.659,6.17,12.481,7.627h5.777c6.093-1.279,10.57-5.016,14.8-9.34,9.182-9.383,18.54-18.594,27.812-27.889a16.109,16.109,0,0,0,2.2-2.588,5.1,5.1,0,0,0-7.073-7.024A16.6,16.6,0,0,0,902.313,511q-14.968,14.926-29.912,29.874a26.561,26.561,0,0,1-2.5,2.317,9.066,9.066,0,0,1-14.37-5.051c-.945-3.814.476-6.808,3.13-9.458q28.33-28.3,56.632-56.627c.426-.426.9-.8,1.375-1.227,21.357,22.712,47.252,32.188,77.689,24.707,30.516-7.5,49.07-28.014,57.529-58.014,8.4,0,16.712-.049,25.02.038a20.664,20.664,0,0,1,5.42.833c12.259,3.523,19.078,14.442,17.2,27.773h-3.031c-15.054,0-30.109-.023-45.163.02-3.761.01-6.036,2.013-6.106,5.094-.07,3.012,2.271,5.151,5.9,5.38.436.028.875.011,1.312.011,16.892,0,33.786-.029,50.678.026,3.253.011,5.824-.869,7.194-4.049V456.894C1110.132,456.315,1109.918,455.745,1109.8,455.156Zm-215.942-30.8c-6.85,5.6-17.331,1.732-18.649-7.011a27.286,27.286,0,0,1,.067-8.361,11.391,11.391,0,0,1,12.171-9.3,11.592,11.592,0,0,1,10.669,11.03c.045.872.006,1.749.006,2.679C898.446,417.683,897.356,421.5,893.859,424.355Zm82,63.083a67.34,67.34,0,0,1-67.219-67.092c-.069-36.971,30.569-67.595,67.344-67.311,37.125.287,67.149,30.408,67.087,67.3A67.339,67.339,0,0,1,975.862,487.438ZM1076.7,413.314q.027,10.441-7.879,13.069a11.43,11.43,0,0,1-14.959-8.764,25.851,25.851,0,0,1,.067-8.861,11.3,11.3,0,0,1,12.334-9.058,11.592,11.592,0,0,1,10.433,11.253C1076.725,411.738,1076.7,412.527,1076.7,413.314Z" transform="translate(0 -29.081)"/><path class="b" d="M1043.4,285.988c2.9-.109,4.928-2.311,5.015-5.614.075-2.876.016-5.755.017-8.632,0-2.791.057-5.582-.014-8.371-.083-3.31-2.078-5.521-4.971-5.666a5.238,5.238,0,0,0-5.424,5.228q-.283,8.884-.009,17.784A5.255,5.255,0,0,0,1043.4,285.988Z" transform="translate(-67.267 0)"/><path class="b" d="M987.728,305.522c2.974,2.445,7.615-.381,7.719-4.678a5.659,5.659,0,0,0-.854-2.283c-3.61-3.772-7.218-7.565-11.086-11.062-1.751-1.583-4.511-1.013-6.208.618s-2.389,4.452-.839,6.181A105.178,105.178,0,0,0,987.728,305.522Z" transform="translate(-45.949 -9.878)"/><path class="b" d="M1090.661,306.66c1.437-.472,2.483-.509,3.044-1.05,3.822-3.68,7.692-7.333,11.226-11.28,1.556-1.737.842-4.552-.864-6.175-1.757-1.671-4.617-2.12-6.447-.456-3.671,3.338-7.167,6.885-10.549,10.518a4.08,4.08,0,0,0-.247,5.34C1087.845,304.9,1089.5,305.754,1090.661,306.66Z" transform="translate(-83.717 -9.91)"/><path class="b" d="M1038.072,316.312a5.407,5.407,0,0,0,5.125,5.3,5.212,5.212,0,0,0,.2-10.422A5.435,5.435,0,0,0,1038.072,316.312Z" transform="translate(-67.331 -18.309)"/><path class="b" d="M960.785,572.551a5.26,5.26,0,0,0-5.185,5.184,5.146,5.146,0,0,0,5.157,5.164A5.3,5.3,0,0,0,966,577.762,5.406,5.406,0,0,0,960.785,572.551Z" transform="translate(-39.104 -107.763)"/><path class="b" d="M1016.408,374.4c-31.006-.121-56.588,25.36-56.771,56.546a56.71,56.71,0,0,0,113.418.388C1073.24,400.213,1047.678,374.521,1016.408,374.4Zm-28.559,92.778c6.335-10.749,15.619-16.736,28.183-16.852,12.8-.119,22.258,5.9,28.791,16.757C1030.293,480.16,1003.976,481.086,987.849,467.178Zm26.529-27.716c-5.794-.994-9.081-5.633-9.078-13.017,0-7.085,3.4-11.852,9.1-12.757a11.045,11.045,0,0,1,12.974,10.687c.029.784,0,1.571,0,2.188C1028.135,435.586,1021.093,440.613,1014.378,439.462Zm38.268,20.038a45.479,45.479,0,0,0-20.009-16.564c.558-.841.986-1.557,1.483-2.221,5.556-7.436,5.89-25.2-4.507-33.166-12.586-9.645-31.8-2.625-34.352,13.051-1.285,7.9-.786,15.58,4.623,21.891-3.789,2.465-7.682,4.527-11,7.284s-6.046,6.206-9.021,9.341c-12.7-15-14.356-41.863,3.543-60.345,16.712-17.255,45.273-18.473,63.035-2.609C1065.145,412.867,1067.993,440.815,1052.645,459.5Z" transform="translate(-40.485 -39.942)"/></g></svg>