<svg xmlns="http://www.w3.org/2000/svg" xmlns:xlink="http://www.w3.org/1999/xlink" width="243.536" height="94.744" viewBox="0 0 243.536 94.744"><defs><style>.a{fill:url(#a);}.b{fill:url(#b);}.c{fill:url(#c);}.d{fill:url(#d);}.e{fill:#ebebeb;}.f,.i,.j{fill:#fff;}.g{fill:url(#e);}.h{fill:url(#f);}.i{font-size:17px;letter-spacing:0.2em;}.i,.k{font-family:SegoeUI, Segoe UI;}.j{font-size:6px;font-family:ArialMT, Arial;}</style><linearGradient id="a" x1="-0.281" y1="0.471" x2="0.928" y2="0.516" gradientUnits="objectBoundingBox"><stop offset="0" stop-color="#2dd9ff" stop-opacity="0"/><stop offset="0.094" stop-color="#2bcffe" stop-opacity="0.11"/><stop offset="0.431" stop-color="#24b1fc" stop-opacity="0.486"/><stop offset="0.704" stop-color="#1f9afa" stop-opacity="0.765"/><stop offset="0.9" stop-color="#1c8cf9" stop-opacity="0.933"/><stop offset="1" stop-color="#1b87f9"/></linearGradient><linearGradient id="b" x1="-0.229" y1="-0.075" x2="1.866" y2="1.576" gradientUnits="objectBoundingBox"><stop offset="0" stop-color="#2dd9ff"/><stop offset="1" stop-color="#1b87f9"/></linearGradient><linearGradient id="c" x1="-0.899" y1="-0.196" x2="1.269" y2="0.883" xlink:href="#b"/><linearGradient id="d" x1="0.444" y1="0" x2="0.582" y2="1.237" xlink:href="#b"/><linearGradient id="e" x1="-0.178" y1="0.054" x2="4.805" y2="3.331" xlink:href="#b"/><linearGradient id="f" x1="0.082" y1="0.225" x2="0.918" y2="0.775" xlink:href="#b"/></defs><g transform="translate(-213.941 -199.414)"><rect class="a" width="193.071" height="17.682" rx="3.487" transform="translate(264.407 276.476)"/><rect class="b" width="40.536" height="33.836" transform="translate(227.574 221.347)"/><g transform="translate(258.489 221.346)"><path class="c" d="M308.4,283.183a9.615,9.615,0,0,1-8.215-4.6l-19.931-32.569a9.621,9.621,0,0,1,16.412-10.044l19.93,32.569a9.623,9.623,0,0,1-8.2,14.644Z" transform="translate(-278.84 -231.367)"/><path class="d" d="M288.461,304.178a9.621,9.621,0,0,1-9.621-9.621v-53.57a9.621,9.621,0,0,1,19.242,0v53.57A9.621,9.621,0,0,1,288.461,304.178Z" transform="translate(-278.84 -231.366)"/></g><g transform="translate(213.941 221.346)"><path class="e" d="M223.554,283.18a9.623,9.623,0,0,1-8.2-14.644l19.931-32.569A9.621,9.621,0,0,1,251.7,246.011L231.769,278.58A9.616,9.616,0,0,1,223.554,283.18Z" transform="translate(-213.941 -231.366)"/><path class="e" d="M272.51,283.183a9.616,9.616,0,0,1-8.215-4.6l-19.93-32.569a9.62,9.62,0,1,1,16.412-10.044l19.931,32.569a9.623,9.623,0,0,1-8.2,14.644Z" transform="translate(-223.038 -231.367)"/><path class="f" d="M252.57,304.178a9.621,9.621,0,0,1-9.621-9.621v-53.57a9.621,9.621,0,0,1,19.242,0v53.57A9.621,9.621,0,0,1,252.57,304.178Z" transform="translate(-223.038 -231.366)"/></g><circle class="g" cx="8.522" cy="8.522" r="8.522" transform="translate(219.052 221.347)"/><circle class="f" cx="9.381" cy="9.381" r="9.381" transform="translate(234.103 199.414)"/><circle class="h" cx="9.381" cy="9.381" r="9.381" transform="translate(258.729 199.414)"/><g transform="translate(310.812 221.259)"><text class="i" transform="translate(0 49.26)"><tspan x="0" y="0">Essential Kit</tspan></text><g transform="translate(1.653)"><path class="f" d="M357.476,252.312q0-1.046,1.126-1.047h.948a.891.891,0,0,1,1.008,1.008V253.5a3.275,3.275,0,0,0,1.412,2.726,5.616,5.616,0,0,0,3.486,1.067h3.258a6.219,6.219,0,0,0,3.644-.988,3.183,3.183,0,0,0,1.412-2.765v-1.758a2.087,2.087,0,0,0-.849-1.55,9.208,9.208,0,0,0-2.2-1.363q-1.353-.622-2.992-1.273t-3.278-1.442a23.374,23.374,0,0,1-2.993-1.708,7.852,7.852,0,0,1-2.2-2.222,5.1,5.1,0,0,1-.849-2.844v-2.587a5.029,5.029,0,0,1,1.886-3.9,6.954,6.954,0,0,1,4.749-1.649h3.674a7.8,7.8,0,0,1,5.234,1.748,5.336,5.336,0,0,1,2.054,4.2v1.54q0,1.166-1.086,1.165h-.81q-1.125,0-1.126-1.007v-1.126a3.339,3.339,0,0,0-1.3-2.715,4.979,4.979,0,0,0-3.239-1.057h-2.942a4.345,4.345,0,0,0-2.864.948,2.992,2.992,0,0,0-1.145,2.41v1.836a2.8,2.8,0,0,0,.849,1.936,8.231,8.231,0,0,0,2.192,1.62q1.343.71,2.982,1.392t3.278,1.412a28.619,28.619,0,0,1,2.982,1.531,7.665,7.665,0,0,1,2.192,1.906,3.819,3.819,0,0,1,.849,2.37v2.745a5.156,5.156,0,0,1-2.163,4.3,8.981,8.981,0,0,1-5.6,1.649h-3.773a8.5,8.5,0,0,1-5.609-1.817,5.5,5.5,0,0,1-2.192-4.365Z" transform="translate(-357.476 -231.239)"/><path class="f" d="M402.8,237.768a.925.925,0,0,1,1.047,1.047v.494a.925.925,0,0,1-1.047,1.047H399.48v13.43a3.347,3.347,0,0,0,.928,2.321,4.548,4.548,0,0,0,2.468,1.353,1.649,1.649,0,0,1,.652.365.71.71,0,0,1,.218.385q.02.178.02.672v.237a1.023,1.023,0,0,1-.286.77.837.837,0,0,1-.761.2,6.893,6.893,0,0,1-4.563-1.877,6.225,6.225,0,0,1-1.6-4.542V240.355H394.7a.925.925,0,0,1-1.047-1.047v-.494a.925.925,0,0,1,1.047-1.047h1.916l.632-5.254a1.083,1.083,0,0,1,1.185-.987h.079q.968,0,.968,1.027v5.214Z" transform="translate(-368.821 -231.329)"/><path class="f" d="M427.953,240.245a6.058,6.058,0,0,1,4.493,1.807,5.792,5.792,0,0,1,1.787,4.2V261.5a1.266,1.266,0,0,1-.247.82.872.872,0,0,1-.721.306h-.218a1.03,1.03,0,0,1-1.086-.81l-.158-1.817a8.907,8.907,0,0,1-2.706,2.1,6.752,6.752,0,0,1-3.042.76h-2.508a5.46,5.46,0,0,1-3.99-1.551,4.963,4.963,0,0,1-1.579-3.663v-2.389a4.042,4.042,0,0,1,.938-2.617,6.4,6.4,0,0,1,2.341-1.8,11.094,11.094,0,0,1,3.1-.879l6.952-.929v-2.587a3.359,3.359,0,0,0-1.126-2.538,3.67,3.67,0,0,0-2.587-1.056h-2.015a4.28,4.28,0,0,0-2.32.691,2.223,2.223,0,0,0-1.175,1.718c0,.013-.007.145-.02.395a.834.834,0,0,1-.1.454,1.206,1.206,0,0,1-.366.5,1.112,1.112,0,0,1-.642.148H419.8q-.77,0-.77-.514v-.691a4.866,4.866,0,0,1,1.777-3.714,6.4,6.4,0,0,1,4.444-1.6Zm-1.777,19.986a5.9,5.9,0,0,0,2.833-.74,6.7,6.7,0,0,0,2.3-2.044v-5.984l-6.577,1.046a6.037,6.037,0,0,0-2.715,1.077,2.4,2.4,0,0,0-1.1,1.965v1.7a2.828,2.828,0,0,0,.9,2.113,2.976,2.976,0,0,0,2.143.868Z" transform="translate(-376.449 -234.063)"/><path class="f" d="M464.754,240.446a.686.686,0,0,1,.563.257.974.974,0,0,1,.208.632v.928a.779.779,0,0,1-.811.81h-1.422a5.541,5.541,0,0,0-3.071,1.027,7.548,7.548,0,0,0-2.5,2.8V261.6a.969.969,0,0,1-1.106,1.086h-.751a.969.969,0,0,1-1.106-1.086V241.533q0-.968,1.008-.968h.138a1.071,1.071,0,0,1,1.126.889l.237,2.666a8.849,8.849,0,0,1,2.884-2.7,6.893,6.893,0,0,1,3.476-.977Z" transform="translate(-387.983 -234.126)"/><path class="f" d="M484.863,237.768a.925.925,0,0,1,1.047,1.047v.494a.925.925,0,0,1-1.047,1.047h-3.318v13.43a3.345,3.345,0,0,0,.929,2.321,4.546,4.546,0,0,0,2.468,1.353,1.659,1.659,0,0,1,.652.365.708.708,0,0,1,.217.385q.02.178.02.672v.237a1.021,1.021,0,0,1-.286.77.837.837,0,0,1-.761.2,6.89,6.89,0,0,1-4.562-1.877,6.225,6.225,0,0,1-1.6-4.542V240.355h-1.857a.925.925,0,0,1-1.047-1.047v-.494a.925.925,0,0,1,1.047-1.047h1.916l.632-5.254a1.084,1.084,0,0,1,1.185-.987h.079q.967,0,.967,1.027v5.214Z" transform="translate(-394.555 -231.329)"/><path class="f" d="M516.987,241.567v11.8a3.785,3.785,0,0,1-1.2,2.882,4.189,4.189,0,0,1-2.967,1.124h-4.76a4.088,4.088,0,0,1-2.932-1.134,3.8,3.8,0,0,1-1.194-2.872v-20.7a1,1,0,0,0-1.129-1.144h-.809a1.01,1.01,0,0,0-1.144,1.144v21.271a5.668,5.668,0,0,0,2.013,4.365,7.29,7.29,0,0,0,5.079,1.818h5.214a6.988,6.988,0,0,0,4.955-1.818,5.749,5.749,0,0,0,1.958-4.365V241.567l-1.533-1.074Z" transform="translate(-402.436 -231.329)"/><path class="f" d="M545.584,258.762q0,1.126-1.087,1.126h-.849a1,1,0,0,1-1.126-1.126v-26.05a1.039,1.039,0,0,1,1.165-1.185h9.539a7.916,7.916,0,0,1,5.234,1.708,5.227,5.227,0,0,1,2.054,4.158v5.866a5.77,5.77,0,0,1-1.965,4.3,6.85,6.85,0,0,1-4.908,1.866h-8.058Zm11.89-20.8a3.168,3.168,0,0,0-1.284-2.646,5.158,5.158,0,0,0-3.239-.988h-7.367v12.324h7.722a4.145,4.145,0,0,0,2.952-1.145,3.707,3.707,0,0,0,1.215-2.8Z" transform="translate(-415.504 -231.329)"/><path class="f" d="M524.943,231.431l-3.867,9.989,3.8-2.624,3.673,2.624Z" transform="translate(-408.778 -231.299)"/></g></g><text class="j" transform="translate(324.773 287.734)"><tspan x="0" y="0">Limitless Documentation, </tspan><tspan class="k" y="0">On the GO!!!</tspan></text></g></svg>