<svg xmlns="http://www.w3.org/2000/svg" xmlns:xlink="http://www.w3.org/1999/xlink" width="470" height="819" viewBox="0 0 470 819"><defs><style>.a{fill:#fff;stroke:#707070;}.b{clip-path:url(#a);}.c{isolation:isolate;}.d{fill:url(#b);}.e{fill:url(#c);}.f{fill:url(#d);}</style><clipPath id="a"><rect class="a" width="470" height="819" transform="translate(0 669)"/></clipPath><linearGradient id="b" x1="0.29" y1="0.983" x2="1.064" y2="-0.177" gradientUnits="objectBoundingBox"><stop offset="0" stop-color="#d500f9"/><stop offset="0.99" stop-color="#2979ff"/></linearGradient><linearGradient id="c" x1="0.197" y1="0.963" x2="0.735" y2="-0.133" xlink:href="#b"/><linearGradient id="d" x1="0.265" y1="0.854" x2="0.772" y2="0.09" gradientUnits="objectBoundingBox"><stop offset="0" stop-color="#ea80fc"/><stop offset="0.99" stop-color="#40c4ff"/></linearGradient></defs><g class="b" transform="translate(0 -669)"><g transform="matrix(-0.966, -0.259, 0.259, -0.966, 60.299, 1908.939)"><g class="c" transform="translate(-27.353 574.597)"><path class="d" d="M316.819,784.582c.33-1.16.685-2.318.989-3.482.365-1.4.672-2.8,1-4.2.268-1.131.563-2.26.808-3.394.31-1.439.559-2.88.831-4.319.207-1.1.446-2.2.63-3.3.255-1.506.446-3.013.656-4.519.145-1.038.323-2.078.449-3.116.184-1.526.3-3.052.443-4.574.094-1.025.22-2.049.294-3.074.12-1.655.171-3.31.236-4.965.036-.889.107-1.778.126-2.667q.082-3.816-.026-7.616c-1-34.614-14.117-62.757-35.235-81.709l-50.2-45.065c21.115,18.952,34.23,47.1,35.235,81.713q.107,3.8.023,7.612c-.019.9-.091,1.8-.126,2.7-.068,1.646-.116,3.291-.236,4.94-.074,1.034-.2,2.069-.3,3.1-.139,1.513-.255,3.029-.44,4.542-.126,1.047-.3,2.091-.453,3.139-.21,1.5-.4,3-.653,4.5-.184,1.1-.423,2.2-.63,3.3-.272,1.442-.52,2.883-.831,4.319-.246,1.141-.543,2.276-.811,3.414-.326,1.393-.634,2.789-1,4.176-.307,1.173-.663,2.334-.992,3.5-.381,1.351-.743,2.7-1.157,4.047-.362,1.18-.776,2.35-1.164,3.526-.433,1.319-.847,2.638-1.309,3.95q-1.513,4.267-3.239,8.489c-.339.828-.7,1.649-1.054,2.473-.847,2.007-1.72,4.005-2.635,5.99q-.752,1.639-1.539,3.265-.931,1.93-1.9,3.85-.882,1.745-1.807,3.478-1.009,1.9-2.059,3.788c-.676,1.212-1.358,2.418-2.056,3.617q-.868,1.484-1.752,2.958-1.149,1.9-2.34,3.776c-.608.966-1.219,1.93-1.843,2.887-.52.8-1.06,1.578-1.59,2.366-2.321,3.455-4.716,6.869-7.234,10.2-.162.214-.33.417-.491.63-2.327,3.058-4.755,6.051-7.241,9-.475.563-.944,1.135-1.426,1.694q-3.787,4.4-7.807,8.6c-.537.566-1.086,1.118-1.629,1.675-2.735,2.809-5.524,5.563-8.4,8.227-.107.1-.21.2-.32.3-3.068,2.829-6.236,5.541-9.452,8.188-.737.6-1.468,1.222-2.211,1.817-.866.692-1.739,1.371-2.612,2.05q-1.809,1.4-3.643,2.773-1.348,1-2.709,1.975-1.731,1.246-3.494,2.453-1.741,1.2-3.5,2.366-1.683,1.11-3.388,2.188-1.784,1.13-3.595,2.221c-1.038.631-2.085,1.245-3.136,1.852-1.888,1.1-3.792,2.15-5.712,3.181-.86.462-1.716.937-2.583,1.387-2.735,1.416-5.489,2.786-8.282,4.066l-.091.045c-3.287,1.506-6.623,2.88-9.985,4.189-.837.33-1.681.65-2.525.967-3.384,1.264-6.795,2.463-10.244,3.52-2.754.841-5.489,1.584-8.207,2.269-.873.22-1.736.4-2.605.608-1.855.436-3.7.85-5.541,1.215-1,.2-1.988.372-2.98.55q-2.58.456-5.13.824c-.992.142-1.982.281-2.967.4-1.768.216-3.52.388-5.266.54-.863.074-1.733.165-2.589.223q-3.462.237-6.869.3c-.268,0-.54.026-.808.029-2.528.029-5.03-.023-7.506-.133-.76-.036-1.51-.1-2.263-.149-1.632-.1-3.252-.226-4.859-.388-1.781-.181-3.533-.427-5.282-.679-.992-.145-1.994-.262-2.977-.43-2.088-.359-4.138-.792-6.171-1.254-.611-.139-1.241-.242-1.849-.391-.637-.155-1.251-.352-1.881-.517-1.7-.446-3.391-.905-5.052-1.422-.853-.268-1.684-.578-2.528-.866-1.426-.485-2.851-.97-4.244-1.51-.7-.272-1.387-.566-2.075-.85q-2.129-.872-4.206-1.833c-.718-.333-1.432-.669-2.14-1.018q-2.264-1.11-4.461-2.327c-.433-.239-.876-.462-1.306-.711q-2.817-1.61-5.512-3.391c-.385-.255-.76-.527-1.141-.789q-2.138-1.455-4.193-3.013c-.485-.368-.97-.737-1.445-1.112-1.665-1.313-3.3-2.657-4.881-4.073l50.208,45.065q1.847,1.658,3.779,3.226c.359.291.737.559,1.1.844.478.378.963.747,1.445,1.112q2.056,1.561,4.193,3.016c.385.259.756.53,1.144.786.155.1.3.216.462.32,1.645,1.073,3.333,2.091,5.049,3.074.427.246.873.469,1.306.711,1,.553,1.994,1.118,3.016,1.642.475.243.97.453,1.448.689.7.346,1.419.682,2.133,1.012,1.384.643,2.786,1.251,4.206,1.836.692.284,1.377.575,2.079.847.317.123.621.265.937.385,1.083.407,2.2.753,3.307,1.128.844.288,1.674.595,2.528.863,1.668.524,3.372.983,5.082,1.432.617.161,1.222.356,1.849.508.071.019.139.042.21.058.546.132,1.118.213,1.668.339,2.027.459,4.063.892,6.139,1.248.989.168,2,.288,2.993.433,1.746.252,3.494.494,5.272.676.365.039.718.107,1.086.139,1.245.116,2.512.172,3.769.249.756.049,1.5.116,2.266.149,2.476.11,4.975.165,7.506.133.265,0,.54-.023.808-.029q3.4-.063,6.869-.294c.857-.058,1.72-.152,2.58-.226,1.752-.149,3.507-.32,5.279-.54.983-.12,1.972-.259,2.961-.4q2.555-.368,5.133-.827c.992-.175,1.982-.353,2.98-.55,1.836-.362,3.685-.776,5.537-1.212.87-.2,1.736-.388,2.609-.608,2.719-.685,5.453-1.432,8.2-2.273,3.452-1.054,6.859-2.256,10.247-3.52q1.266-.471,2.525-.963c3.359-1.313,6.7-2.683,9.985-4.193l.006,0,.084-.039c2.79-1.283,5.544-2.651,8.279-4.067.873-.453,1.729-.928,2.6-1.393q2.866-1.542,5.693-3.171c.472-.275.96-.52,1.429-.8.582-.343,1.144-.715,1.723-1.064q1.8-1.086,3.572-2.211,1.716-1.082,3.41-2.2,1.755-1.159,3.491-2.36c.588-.4,1.193-.786,1.778-1.2s1.144-.84,1.72-1.254q1.363-.979,2.709-1.978,1.838-1.367,3.643-2.773c.873-.679,1.746-1.355,2.609-2.046.391-.314.8-.614,1.186-.931.349-.284.676-.6,1.028-.889,3.216-2.647,6.381-5.356,9.449-8.185l.071-.061c.091-.081.171-.172.262-.252,2.87-2.66,5.657-5.414,8.388-8.217.327-.336.679-.643,1-.983.217-.223.414-.466.63-.692q4.01-4.2,7.8-8.6c.184-.21.385-.411.566-.624.3-.352.575-.73.873-1.086,2.486-2.938,4.907-5.929,7.231-8.983.126-.165.265-.317.388-.482.039-.048.068-.1.107-.149,2.518-3.333,4.91-6.743,7.228-10.2.249-.366.527-.715.773-1.086.284-.427.549-.87.831-1.3.621-.95,1.225-1.9,1.83-2.864q1.193-1.886,2.347-3.795.887-1.464,1.746-2.945c.362-.618.743-1.228,1.1-1.849.336-.588.64-1.186.967-1.778q1.052-1.881,2.056-3.779.926-1.736,1.813-3.488.97-1.915,1.9-3.843c.31-.643.647-1.277.95-1.92.207-.446.385-.9.592-1.345.915-1.988,1.788-3.986,2.634-5.993.349-.824.714-1.645,1.051-2.473,1.144-2.812,2.234-5.641,3.239-8.485l.058-.146c.446-1.27.84-2.55,1.261-3.824.385-1.17.8-2.337,1.157-3.51C316.075,787.294,316.438,785.937,316.819,784.582Z" transform="translate(107.42 -498.716)"/><path class="e" d="M268.78,624.713c.621-.133,1.241-.255,1.865-.382,3.339-.682,6.666-1.309,9.966-1.839l.265-.039c3.252-.517,6.478-.944,9.688-1.316.582-.068,1.164-.142,1.746-.2q4.713-.514,9.365-.815c.611-.039,1.219-.071,1.826-.1,3.181-.181,6.346-.31,9.475-.349.152,0,.3,0,.449,0,3.052-.029,6.071.023,9.071.126.537.019,1.08.032,1.616.055q4.471.194,8.864.585c.789.068,1.577.146,2.36.223q1.91.194,3.8.42c.886.107,1.771.22,2.651.339q1.886.257,3.756.553c.857.133,1.716.268,2.57.414,1.283.22,2.557.459,3.827.7.8.152,1.594.3,2.386.462,1.409.294,2.806.611,4.2.937.608.139,1.219.268,1.82.414,3.077.75,6.106,1.594,9.1,2.5.446.136.892.262,1.335.4q4.34,1.348,8.553,2.922c.517.191,1.034.381,1.545.578,2.5.957,4.972,1.956,7.4,3.022.307.136.608.281.915.417q3.37,1.508,6.643,3.158c.446.223.9.443,1.338.669q3.254,1.678,6.413,3.491c.446.256.886.524,1.332.786q2.681,1.581,5.295,3.258c.449.291.905.572,1.354.866q2.929,1.925,5.764,3.976c.378.275.747.563,1.125.841q2.342,1.731,4.613,3.546c.5.4,1,.792,1.487,1.2,1.752,1.439,3.485,2.9,5.172,4.416l.019.016-.006-.007.006,0-50.208-45.062c-1.694-1.522-3.436-2.99-5.195-4.435-.21-.171-.407-.356-.617-.524-.281-.229-.579-.436-.86-.663q-2.274-1.819-4.613-3.546c-.381-.281-.753-.569-1.135-.847q-2.832-2.051-5.76-3.976c-.155-.1-.3-.213-.459-.314-.291-.191-.6-.359-.892-.55q-2.609-1.678-5.3-3.258c-.446-.262-.886-.53-1.332-.789q-3.161-1.814-6.417-3.491c-.162-.081-.314-.174-.472-.255-.281-.145-.575-.268-.857-.407q-3.283-1.653-6.659-3.165c-.3-.136-.6-.281-.9-.414-2.428-1.067-4.9-2.066-7.393-3.019-.268-.1-.527-.226-.8-.327-.249-.094-.511-.168-.763-.262q-4.209-1.561-8.54-2.916c-.446-.139-.9-.268-1.345-.4-2.99-.905-6.016-1.746-9.09-2.5-.071-.016-.142-.042-.213-.058-.54-.133-1.1-.239-1.639-.365-1.384-.32-2.77-.64-4.17-.928-.789-.165-1.587-.31-2.382-.462-1.274-.246-2.544-.488-3.831-.708-.853-.146-1.71-.278-2.57-.414-1.248-.194-2.5-.381-3.753-.549-.882-.12-1.765-.233-2.654-.339q-1.891-.233-3.8-.42c-.53-.055-1.051-.126-1.584-.175-.252-.023-.511-.029-.766-.052q-4.393-.388-8.87-.582c-.537-.026-1.08-.036-1.616-.055-3-.1-6.019-.155-9.067-.126-.152,0-.3,0-.453,0-3.129.039-6.291.168-9.471.349-.611.036-1.219.068-1.83.107q-4.645.305-9.358.812c-.585.064-1.173.139-1.762.207-3.207.372-6.43.8-9.678,1.313-.087.016-.178.026-.265.042-3.3.527-6.62,1.157-9.956,1.836-.627.129-1.254.252-1.881.385q-4.854,1.028-9.756,2.276c-.621.158-1.245.327-1.865.488-3.41.892-6.827,1.839-10.267,2.89-3.578,1.1-7.131,2.289-10.667,3.53-1.044.369-2.079.753-3.116,1.131q-3.918,1.43-7.794,2.974c-1.028.411-2.056.812-3.081,1.235-3.446,1.419-6.879,2.89-10.273,4.445l-.055.026-.026.01c-.055.026-.107.055-.162.081-4.28,1.965-8.5,4.06-12.7,6.232-1.338.7-2.657,1.426-3.986,2.14q-4.422,2.371-8.77,4.884c-.727.42-1.477.8-2.2,1.225-.889.524-1.752,1.1-2.638,1.629q-2.769,1.673-5.508,3.407-2.628,1.663-5.227,3.375-2.711,1.785-5.382,3.633c-.908.624-1.839,1.212-2.741,1.849-.886.624-1.749,1.29-2.635,1.923q-2.095,1.5-4.167,3.045-2.817,2.095-5.592,4.254c-1.348,1.047-2.7,2.092-4.031,3.161-.6.485-1.225.944-1.826,1.435-1.4,1.131-2.757,2.311-4.138,3.468-1.025.86-2.062,1.71-3.077,2.583q-3.792,3.259-7.49,6.637c-.446.407-.908.8-1.351,1.209-.058.052-.116.1-.171.155q-4.209,3.879-8.275,7.907c-.818.8-1.61,1.629-2.418,2.441-1.387,1.393-2.79,2.773-4.154,4.189-.562.585-1.1,1.186-1.658,1.775-.947,1-1.881,2.008-2.816,3.016q-2.657,2.866-5.246,5.79c-.9,1.015-1.8,2.03-2.689,3.055-.472.543-.96,1.073-1.429,1.62-1.38,1.616-2.719,3.265-4.067,4.9-.682.828-1.38,1.642-2.053,2.473q-3.54,4.379-6.94,8.851c-.081.107-.155.217-.236.323-.514.682-1,1.377-1.51,2.059q-2.764,3.714-5.431,7.483c-.8,1.138-1.571,2.292-2.357,3.436-.976,1.426-1.978,2.838-2.932,4.277-.433.65-.831,1.316-1.257,1.966-.957,1.467-1.891,2.941-2.825,4.419q-1.833,2.9-3.608,5.828-1.363,2.255-2.683,4.532c-.559.96-1.151,1.9-1.7,2.867-.511.9-.973,1.81-1.474,2.712q-1.615,2.9-3.165,5.815-1.416,2.667-2.78,5.35-1.493,2.943-2.922,5.912c-.478,1-1,1.978-1.471,2.977-.32.685-.592,1.38-.905,2.066-1.409,3.051-2.751,6.126-4.054,9.21-.533,1.264-1.1,2.525-1.613,3.8-1.759,4.325-3.433,8.67-4.978,13.047-.029.078-.065.158-.094.236-.689,1.953-1.293,3.918-1.936,5.877-.592,1.791-1.219,3.575-1.775,5.372-.64,2.088-1.2,4.186-1.794,6.281-.5,1.775-1.044,3.543-1.51,5.324-.55,2.091-1.009,4.193-1.506,6.291-.423,1.794-.892,3.585-1.28,5.382-.453,2.1-.815,4.206-1.212,6.31-.343,1.8-.731,3.6-1.034,5.4-.372,2.208-.65,4.419-.963,6.63-.239,1.7-.53,3.4-.734,5.1-.291,2.411-.482,4.823-.7,7.234-.136,1.5-.323,3.006-.433,4.509-.191,2.674-.278,5.343-.381,8.017-.045,1.241-.145,2.483-.175,3.721q-.131,5.862.039,11.7c1.542,53.243,21.713,96.524,54.184,125.669L77.135,1053.2c-32.471-29.148-52.645-72.429-54.187-125.669q-.165-5.843-.036-11.708c.029-1.293.133-2.59.184-3.886.1-2.615.184-5.23.372-7.845.116-1.613.317-3.226.465-4.836.21-2.3.391-4.607.669-6.908.21-1.746.5-3.491.753-5.237.307-2.166.579-4.335.944-6.5.3-1.8.689-3.591,1.028-5.389.4-2.108.766-4.218,1.219-6.323.391-1.811.86-3.614,1.29-5.421.491-2.085.95-4.17,1.493-6.249.472-1.8,1.018-3.582,1.526-5.372.588-2.082,1.144-4.164,1.781-6.236.553-1.791,1.18-3.572,1.768-5.356.672-2.046,1.316-4.1,2.033-6.132,1.548-4.374,3.223-8.718,4.981-13.043.517-1.273,1.08-2.535,1.613-3.8,1.3-3.084,2.644-6.155,4.054-9.21q1.164-2.526,2.376-5.033,1.43-2.967,2.922-5.916,1.363-2.686,2.78-5.347,1.552-2.928,3.171-5.831,1.552-2.788,3.158-5.557c.889-1.522,1.781-3.039,2.693-4.548q1.775-2.928,3.611-5.828c.931-1.474,1.862-2.948,2.819-4.409,1.374-2.1,2.78-4.183,4.2-6.255.782-1.141,1.552-2.292,2.347-3.423q2.657-3.772,5.424-7.474c.511-.689,1-1.39,1.519-2.075q3.506-4.641,7.176-9.171c.672-.831,1.367-1.645,2.049-2.473q2.711-3.287,5.5-6.526c.889-1.025,1.791-2.04,2.693-3.055q2.589-2.919,5.243-5.786,1.4-1.517,2.822-3.022,2.856-3.011,5.8-5.948c.811-.818,1.613-1.645,2.434-2.457q4.16-4.1,8.447-8.059c.433-.4.886-.785,1.322-1.183q3.709-3.384,7.516-6.662c1.015-.873,2.049-1.719,3.074-2.579,1.975-1.655,3.963-3.3,5.974-4.91,1.329-1.063,2.673-2.108,4.018-3.152q2.778-2.158,5.6-4.26,2.075-1.542,4.17-3.048,2.667-1.911,5.366-3.766,2.681-1.843,5.389-3.637,2.594-1.711,5.224-3.371,2.744-1.736,5.515-3.41,2.4-1.45,4.826-2.851,4.354-2.526,8.786-4.891c1.322-.711,2.638-1.442,3.97-2.133,4.206-2.179,8.443-4.28,12.736-6.252.048-.023.1-.049.149-.071l.094-.042c3.381-1.552,6.8-3.013,10.234-4.429,1.028-.423,2.066-.828,3.1-1.241q3.865-1.537,7.768-2.964c1.047-.381,2.091-.769,3.139-1.138,3.533-1.241,7.083-2.434,10.661-3.527,3.436-1.051,6.856-2,10.26-2.89.624-.165,1.248-.333,1.872-.491Q263.925,625.743,268.78,624.713Z" transform="translate(27.353 -574.597)"/><g transform="translate(50.206 45.053)"><path class="f" d="M212.212,599.255C339.283,560.4,445.628,630.494,449.248,755.488c3.62,125.019-96.834,258.333-223.909,297.185-127.1,38.859-233.445-31.233-237.066-156.252C-15.344,771.43,85.111,638.113,212.212,599.255ZM223.044,973.4C305.7,948.128,371.008,861.428,368.651,780.126c-2.353-81.273-71.488-126.868-154.144-101.6S66.517,790.506,68.871,871.779c2.353,81.3,71.52,126.891,154.173,101.619" transform="translate(11.821 -588.535)"/></g></g></g></g></svg>