<svg xmlns="http://www.w3.org/2000/svg" width="42.592" height="47.645" viewBox="0 0 42.592 47.645"><defs><style>.a{fill:#fff;}</style></defs><g transform="translate(-731.013 -284.096)"><path class="a" d="M741.468,322.575a18.03,18.03,0,0,1,5.269-31.8,15.816,15.816,0,0,1,5.2-.865q0,1,0,2c0,.262-.032.539.255.695s.53-.013.762-.172q2.508-1.715,5.017-3.429c.689-.472.685-.763-.007-1.237l-5.354-3.668h-.372a.807.807,0,0,0-.306.725c.017.678.009,1.357.011,2.035a2.273,2.273,0,0,1-.23.03,21.378,21.378,0,0,0-20.658,20.12,20.128,20.128,0,0,0,2.926,11.729,20.8,20.8,0,0,0,5.952,6.442,1.509,1.509,0,0,0,2.411-.942A1.65,1.65,0,0,0,741.468,322.575Z"/><path class="a" d="M916.3,355.183a20.386,20.386,0,0,0-4.144-3.848,1.508,1.508,0,0,0-2.375,1.43,1.74,1.74,0,0,0,.835,1.17,17.582,17.582,0,0,1,7.41,13.276A17.367,17.367,0,0,1,912,381.977a17.931,17.931,0,0,1-11.795,4.672c0-.682-.012-1.364-.008-2.045,0-.274-.007-.539-.29-.679-.261-.129-.474,0-.685.149q-2.586,1.774-5.174,3.545c-.539.37-.538.7,0,1.071,1.251.86,2.51,1.706,3.755,2.574a14.112,14.112,0,0,1,1.646,1.181h.465a1.009,1.009,0,0,0,.287-.786c-.022-.663,0-1.328,0-1.992a19.746,19.746,0,0,0,7.334-1.476c8.339-3.588,13.021-9.881,13.531-18.99A19.98,19.98,0,0,0,916.3,355.183Z" transform="translate(-147.49 -60.704)"/><path class="a" d="M856.11,483.446a3.313,3.313,0,0,0,2.219-.928c2.31-1.924,4.633-3.833,6.948-5.751,1.36-1.127,2.721-2.253,4.072-3.392a2.274,2.274,0,0,0,.816-2.373,2.4,2.4,0,0,0-3.947-1.282q-4.689,3.887-9.369,7.785c-.334.279-.5.3-.769-.081-.657-.939-1.351-1.854-2.057-2.758a2.392,2.392,0,0,0-3.846,2.844c1.185,1.629,2.4,3.237,3.629,4.834A2.81,2.81,0,0,0,856.11,483.446Z" transform="translate(-107.656 -167.793)"/></g></svg>