<svg xmlns="http://www.w3.org/2000/svg" width="42.592" height="42.591" viewBox="0 0 42.592 42.591"><defs><style>.a{fill:#fff;}</style></defs><g transform="translate(-755.776 -335.785)"><path class="a" d="M888.46,469.968a10.051,10.051,0,0,1-.974-.61c-1.868-1.48-3.721-2.98-5.593-4.456a1.225,1.225,0,0,0-.7-.247c-5.877-.013-11.755-.007-17.632-.012a5.228,5.228,0,0,1-5.3-4.158,11.367,11.367,0,0,1-.129-2.685,1.266,1.266,0,0,1,1.359-1.136,1.323,1.323,0,0,1,1.263,1.255c.022.4.006.8.008,1.206a2.685,2.685,0,0,0,2.868,2.857q9,0,18.006-.007a2.375,2.375,0,0,1,1.6.566c1.254,1.028,2.528,2.03,3.8,3.042.093.074.193.141.353.259v-.462q0-10.874,0-21.749a2.686,2.686,0,0,0-2.7-2.945,1.331,1.331,0,1,1,.146-2.657,5.346,5.346,0,0,1,5.131,4.389,1.953,1.953,0,0,0,.085.266V468.97a1.923,1.923,0,0,1-1,1Z" transform="translate(-91.672 -91.592)"/><path class="a" d="M1155.019,736.017a1.923,1.923,0,0,0,1-1v1Z" transform="translate(-357.65 -357.642)"/><path class="a" d="M755.778,354.206c0-4.338-.007-8.676,0-13.014a5.282,5.282,0,0,1,4.164-5.264,5.723,5.723,0,0,1,1.276-.136q11.85-.012,23.7,0a5.317,5.317,0,0,1,5.461,5.467q.009,7.837,0,15.675a5.32,5.32,0,0,1-5.5,5.474q-9.438.006-18.876,0a1.067,1.067,0,0,0-.749.259q-3.421,2.875-6.862,5.726a4.629,4.629,0,0,1-.667.491,1.278,1.278,0,0,1-1.872-.752,2.456,2.456,0,0,1-.077-.7Q755.775,360.817,755.778,354.206Zm2.662,10.668c.177-.142.274-.218.37-.3,1.7-1.419,3.414-2.831,5.106-4.263a2.321,2.321,0,0,1,1.589-.579q9.626.019,19.253.007a2.705,2.705,0,0,0,2.963-2.971q0-7.672,0-15.344a2.71,2.71,0,0,0-3-2.98H761.439a2.715,2.715,0,0,0-3,3.018q0,11.435,0,22.87Z"/><path class="a" d="M841.751,415.1c-2.633,0-5.266.005-7.9,0a1.325,1.325,0,0,1-1.325-1.8,1.291,1.291,0,0,1,1.134-.849,3.753,3.753,0,0,1,.415-.008q7.671,0,15.341,0a2.96,2.96,0,0,1,.579.031,1.325,1.325,0,0,1-.262,2.624c-1.5.014-2.993.005-4.49.006Z" transform="translate(-68.669 -68.665)"/><path class="a" d="M839.162,463.526c1.746,0,3.492-.009,5.238,0a1.32,1.32,0,0,1,1.259,1.871,1.347,1.347,0,0,1-1.346.789q-4.261-.007-8.522,0c-.637,0-1.275.006-1.912,0a1.331,1.331,0,1,1,0-2.657C835.642,463.52,837.4,463.525,839.162,463.526Z" transform="translate(-68.711 -114.43)"/></g></svg>