<svg xmlns="http://www.w3.org/2000/svg" width="43.592" height="43.592" viewBox="0 0 43.592 43.592"><defs><style>.a{fill:#fff;stroke:#fff;}</style></defs><g transform="translate(-767.5 -347.5)"><path class="a" d="M768,371.5a16.793,16.793,0,0,1,.454-2.013,9.31,9.31,0,0,1,7.709-6.49l.487-.082c0-.166,0-.329,0-.493a2.121,2.121,0,0,1,3.248-1.894c1.883,1.059,3.749,2.148,5.622,3.224.24.138.482.274.72.414a2.13,2.13,0,0,1-.006,3.829c-1.9,1.114-3.807,2.213-5.712,3.319-.228.132-.452.27-.685.392a2.129,2.129,0,0,1-3.174-1.823c-.007-.151,0-.3,0-.595a9.5,9.5,0,0,0-1.122.633,2.959,2.959,0,0,0-1.193,2.452q-.012,8.443,0,16.886a2.589,2.589,0,0,0,2.754,2.648c2.994.009,5.989,0,8.983,0a3.182,3.182,0,1,1,.049,6.358c-3.036.012-6.072,0-9.108.006a9.012,9.012,0,0,1-3.443-.419,18.359,18.359,0,0,1-2.314-1.192.629.629,0,1,1,.712-1.01,7.25,7.25,0,0,0,4.524,1.376c3.2-.019,6.405,0,9.607-.007a1.932,1.932,0,0,0,2.05-1.674,1.909,1.909,0,0,0-1.49-2.133,4.009,4.009,0,0,0-.744-.056c-2.939,0-5.878,0-8.817-.005a3.843,3.843,0,0,1-3.91-3.017,4.262,4.262,0,0,1-.1-.948q-.009-8.36,0-16.719a4.329,4.329,0,0,1,3.762-4.427c.789-.126,1.042.09,1.044.893,0,.291-.008.583.005.873a.872.872,0,0,0,1.344.786q3.245-1.857,6.467-3.755a.858.858,0,0,0-.006-1.531q-3.232-1.88-6.486-3.721a.865.865,0,0,0-1.331.8c-.008.319,0,.638,0,.957,0,.587-.2.8-.794.824a7.548,7.548,0,0,0-3.458.93,7.916,7.916,0,0,0-4.382,7.187c-.056,5.961-.017,11.922-.015,17.884a6.749,6.749,0,0,0,.99,3.556c.036.059.073.118.1.18a.632.632,0,0,1-.18.878.617.617,0,0,1-.89-.249,8.021,8.021,0,0,1-1.192-3.206c-.018-.121-.054-.239-.081-.359Z" transform="translate(0 -10.859)"/><path class="a" d="M987.558,627.874a8.224,8.224,0,0,1-.942-.3,3.833,3.833,0,0,1-2.431-3.688c-.024-1.677-.028-3.355,0-5.032a3.879,3.879,0,0,1,4.062-3.968q5.22-.01,10.439,0a3.866,3.866,0,0,1,4.031,3.234.385.385,0,0,0,.063.1v6.322c-.031.088-.068.173-.09.263a3.764,3.764,0,0,1-1.859,2.521,10.157,10.157,0,0,1-1.461.544Zm5.949-11.74c-1.76,0-3.519,0-5.279,0a2.639,2.639,0,0,0-2.8,2.744q-.027,2.494,0,4.988a2.649,2.649,0,0,0,2.789,2.758q5.258.006,10.516,0a2.655,2.655,0,0,0,2.8-2.792q.006-2.432,0-4.863a2.653,2.653,0,0,0-2.83-2.835C996.972,616.131,995.24,616.134,993.508,616.134Z" transform="translate(-192.19 -237.282)"/><path class="a" d="M972.661,348c.26.082.524.154.78.248a3.851,3.851,0,0,1,2.544,3.56c.019,1.788.023,3.576,0,5.364a3.869,3.869,0,0,1-3.79,3.81c-.54.014-1.081.012-1.621,0a.6.6,0,0,1-.677-.619.618.618,0,0,1,.683-.622c.526-.012,1.054.005,1.58-.008a2.622,2.622,0,0,0,2.581-2.617q.022-2.619,0-5.239a2.616,2.616,0,0,0-2.618-2.625q-5.426-.021-10.852,0a2.574,2.574,0,0,0-2.6,2.5q-.069,2.721,0,5.446a2.569,2.569,0,0,0,2.614,2.529c2.148.017,4.3,0,6.445.008a1.593,1.593,0,0,1,.49.054.56.56,0,0,1,.4.646.574.574,0,0,1-.542.538,2.625,2.625,0,0,1-.332.008q-3.118,0-6.237,0A3.892,3.892,0,0,1,957.4,356.9c-.008-1.58,0-3.16,0-4.74a3.885,3.885,0,0,1,3.257-4.1.43.43,0,0,0,.105-.06Z" transform="translate(-168.391 0)"/><path class="a" d="M885.4,481.465q2.62,0,5.241,0a3.9,3.9,0,0,1,4.043,4.036q.013,2.454,0,4.908a3.905,3.905,0,0,1-4.041,4.038q-5.261.005-10.523,0a3.907,3.907,0,0,1-4.043-4.037q-.012-2.454,0-4.908a3.9,3.9,0,0,1,4.042-4.037Q882.756,481.461,885.4,481.465Zm-.014,1.248c-1.774,0-3.547,0-5.321,0a2.649,2.649,0,0,0-2.74,2.721c-.012,1.69-.015,3.381,0,5.071a2.646,2.646,0,0,0,2.726,2.692q5.321.007,10.642,0a2.647,2.647,0,0,0,2.74-2.722q.021-2.515,0-5.03a2.652,2.652,0,0,0-2.77-2.734Q888.022,482.709,885.383,482.713Z" transform="translate(-96.081 -118.661)"/></g></svg>