<svg xmlns="http://www.w3.org/2000/svg" width="42.592" height="45.887" viewBox="0 0 42.592 45.887"><defs><style>.a{fill:#fff;}</style></defs><g transform="translate(-755.776 -335.68)"><path class="a" d="M784.893,381.567H759.106a7.535,7.535,0,0,1-1.175-.408,4.086,4.086,0,0,1-2.152-3.919q0-13.08,0-26.159c0-3.733-.008-7.466,0-11.2a3.891,3.891,0,0,1,3.828-4.193q10.623-.024,21.247,0A3.4,3.4,0,0,1,783.4,336.7c1.178,1.221,2.321,2.482,3.494,3.708a4.711,4.711,0,0,1,1.329,3.442c-.019,3.255-.006,6.51-.006,9.765v.451l.11.034c.09-.113.174-.233.271-.338,1.1-1.185,2.182-2.379,3.292-3.548a3.529,3.529,0,0,1,5.749.438,8.868,8.868,0,0,1,.725,1.875v.9a5.718,5.718,0,0,1-1.746,3.109c-2.72,2.9-5.41,5.823-8.12,8.731a.982.982,0,0,0-.288.738q.015,5.665.006,11.329a3.983,3.983,0,0,1-1.557,3.426A9.356,9.356,0,0,1,784.893,381.567Zm-6.654-43.2H759.8c-1.064,0-1.525.492-1.525,1.627q0,18.635,0,37.269c0,1.108.467,1.61,1.5,1.61h24.449c1.034,0,1.5-.5,1.5-1.607q0-4.256,0-8.511c0-.126-.01-.252-.015-.362a7.284,7.284,0,0,1-.834.435c-1.611.59-3.231,1.153-4.841,1.746a1.269,1.269,0,0,1-1.506-.247,1.517,1.517,0,0,1-.24-1.619c.547-1.721,1.059-3.454,1.617-5.17a2.849,2.849,0,0,1,.576-1.008c1.64-1.8,3.3-3.581,4.964-5.357a.98.98,0,0,0,.286-.74c-.01-3.165-.006-6.331-.006-9.5v-.5h-.505c-1.857,0-3.714,0-5.572,0-.916,0-1.407-.535-1.409-1.527q0-2.643,0-5.286Zm14.144,18.856-1.678-1.805-5.914,6.345,1.676,1.809Zm-11.632-13.512h4.959a1.425,1.425,0,0,0-.377-1.17q-1.742-1.887-3.5-3.76a1.118,1.118,0,0,0-1.086-.383Zm13.5,11.518c.424-.447.879-.884,1.287-1.367a1.375,1.375,0,0,0-.044-1.85,1.151,1.151,0,0,0-1.688-.039c-.457.448-.873.946-1.283,1.4ZM781.4,367.165l.076.09c1.042-.594,2.4-.487,3.138-1.6l-1.773-1.905a3.015,3.015,0,0,0-.6.765C781.92,365.382,781.675,366.28,781.4,367.165Z" transform="translate(0)"/><path class="a" d="M813.769,458.013q-4.335,0-8.669,0a1.263,1.263,0,0,1-1.309-1.673,1.227,1.227,0,0,1,1.1-.843,3.94,3.94,0,0,1,.421-.007h17c1.009,0,1.6.466,1.595,1.264s-.587,1.261-1.6,1.261Z" transform="translate(-42.883 -106.311)"/><path class="a" d="M811.279,503.4c2.076,0,4.152-.007,6.228,0a1.264,1.264,0,1,1-.019,2.522q-1.873,0-3.745,0-4.335,0-8.669,0a1.267,1.267,0,0,1-1.288-1.721,1.292,1.292,0,0,1,1.307-.8Q808.186,503.4,811.279,503.4Z" transform="translate(-42.865 -148.827)"/><path class="a" d="M811.231,553.836h-6.186a1.265,1.265,0,0,1-1.242-.774,1.231,1.231,0,0,1,.257-1.364,1.447,1.447,0,0,1,1.115-.391q4.545.008,9.09,0c1.052,0,2.1,0,3.156,0a1.272,1.272,0,1,1,0,2.524Q814.324,553.84,811.231,553.836Z" transform="translate(-42.87 -191.34)"/><path class="a" d="M811.282,599.234c2.076,0,4.152-.007,6.228,0a1.264,1.264,0,1,1-.024,2.522q-2.041,0-4.082,0c-2.777,0-5.555,0-8.332,0a1.267,1.267,0,0,1-1.285-1.724,1.293,1.293,0,0,1,1.309-.8Q808.188,599.23,811.282,599.234Z" transform="translate(-42.864 -233.865)"/><path class="a" d="M904.6,675.241c-1.206,0-2.413,0-3.619,0a1.271,1.271,0,1,1,0-2.524q3.619,0,7.238,0a1.271,1.271,0,1,1,0,2.524C907.014,675.244,905.808,675.241,904.6,675.241Z" transform="translate(-128.854 -298.726)"/></g></svg>