<svg xmlns="http://www.w3.org/2000/svg" xmlns:xlink="http://www.w3.org/1999/xlink" width="50.715" height="50.997" viewBox="0 0 50.715 50.997"><defs><style>.a{fill:url(#a);}.b{fill:#ebf6ff;}</style><linearGradient id="a" x1="-22.119" y1="17.677" x2="-21.177" y2="17.36" gradientUnits="objectBoundingBox"><stop offset="0.046" stop-color="#839fc9"/><stop offset="1" stop-color="#385196"/></linearGradient></defs><g transform="translate(-10.139 -9.998)"><path class="a" d="M259.523,396.1a14.134,14.134,0,0,1-23.5-6.875l-5.53-22.7a14.134,14.134,0,0,1,17.7-16.911l22.426,6.562a14.134,14.134,0,0,1,5.794,23.786Z" transform="translate(-219.943 -339.024)"/><g transform="translate(28.3 21.105)"><path class="b" d="M278.609,376.285h2.628v-4.577a33.958,33.958,0,0,0-3.828-.2c-3.789,0-6.384,2.383-6.384,6.763V382.3h-4.181v5.116h4.181v12.873h5.126V387.417h4.012l.637-5.116h-4.65v-3.525c0-1.479.4-2.491,2.46-2.491Zm0,0" transform="translate(-266.844 -371.505)"/></g></g></svg>