<svg xmlns="http://www.w3.org/2000/svg" xmlns:xlink="http://www.w3.org/1999/xlink" width="50.715" height="60.995" viewBox="0 0 50.715 60.995"><defs><style>.a{fill:url(#a);}.b{fill:url(#b);}.c{fill:#fff;}</style><linearGradient id="a" x1="0.5" y1="-0.022" x2="0.5" y2="1.023" gradientUnits="objectBoundingBox"><stop offset="0" stop-color="#fbfbfc"/><stop offset="1" stop-color="#dbdde8"/></linearGradient><linearGradient id="b" x1="-22.196" y1="18.214" x2="-21.254" y2="17.897" gradientUnits="objectBoundingBox"><stop offset="0" stop-color="#fca759"/><stop offset="0.193" stop-color="#e82d56"/><stop offset="0.74" stop-color="#a22db4"/><stop offset="1" stop-color="#643dce"/></linearGradient></defs><g transform="translate(-10.139)"><path class="a" d="M35.5,0Z" transform="translate(0)"/><path class="b" d="M456.9,396.1a14.134,14.134,0,0,1-23.5-6.875l-5.53-22.7a14.135,14.135,0,0,1,17.7-16.911L468,356.17a14.134,14.134,0,0,1,5.794,23.786Z" transform="translate(-417.319 -339.024)"/><g transform="translate(22.959 22.937)"><path class="c" d="M472.979,398.25a6.052,6.052,0,0,0,3.462-3.462,8.667,8.667,0,0,0,.55-2.87c.013-.294.023-.542.032-.789v-8.4c-.006-.175-.014-.358-.023-.563a8.632,8.632,0,0,0-.55-2.87,6.058,6.058,0,0,0-3.461-3.461,8.671,8.671,0,0,0-2.87-.55c-1.266-.06-1.668-.074-4.88-.074s-3.614.014-4.875.069a8.642,8.642,0,0,0-2.87.55,6.058,6.058,0,0,0-3.461,3.462,8.664,8.664,0,0,0-.55,2.869c-.06,1.267-.074,1.668-.074,4.88s.014,3.614.069,4.875a8.643,8.643,0,0,0,.55,2.87,6.06,6.06,0,0,0,3.462,3.462,8.667,8.667,0,0,0,2.87.55c1.261.055,1.663.069,4.875.069s3.613-.014,4.875-.069A8.643,8.643,0,0,0,472.979,398.25Zm-7.736-1.507c-3.156,0-3.535-.014-4.778-.069a6.49,6.49,0,0,1-2.2-.407,3.9,3.9,0,0,1-2.241-2.241,6.505,6.505,0,0,1-.406-2.195c-.056-1.248-.07-1.622-.07-4.779s.014-3.535.07-4.778a6.477,6.477,0,0,1,.406-2.195,3.591,3.591,0,0,1,.888-1.359,3.662,3.662,0,0,1,1.359-.883,6.514,6.514,0,0,1,2.195-.407c1.248-.055,1.622-.07,4.778-.07s3.535.014,4.779.07a6.486,6.486,0,0,1,2.195.407,3.631,3.631,0,0,1,1.359.883,3.674,3.674,0,0,1,.883,1.359,6.515,6.515,0,0,1,.407,2.195c.055,1.248.069,1.622.069,4.778s-.014,3.526-.069,4.774a6.489,6.489,0,0,1-.407,2.2,3.923,3.923,0,0,1-2.246,2.246,6.515,6.515,0,0,1-2.2.407C468.774,396.73,468.4,396.744,465.244,396.744Z" transform="translate(-453.409 -375.214)"/><path class="c" d="M471.132,386.86a6.077,6.077,0,1,0,6.076,6.077A6.078,6.078,0,0,0,471.132,386.86Zm0,10.019a3.942,3.942,0,1,1,3.942-3.942A3.943,3.943,0,0,1,471.132,396.879Z" transform="translate(-459.302 -381.107)"/><path class="c" d="M490.109,384.92a1.419,1.419,0,1,0-1.419,1.419A1.418,1.418,0,0,0,490.109,384.92Z" transform="translate(-470.543 -379.408)"/></g></g></svg>