<svg xmlns="http://www.w3.org/2000/svg" xmlns:xlink="http://www.w3.org/1999/xlink" width="82.91" height="82.91" viewBox="0 0 82.91 82.91"><defs><style>.a{fill:url(#a);}.b{fill:#2176cc;}.c{fill:#f8f8f8;}</style><linearGradient id="a" x1="-21.651" y1="14.434" x2="-20.71" y2="14.117" gradientUnits="objectBoundingBox"><stop offset="0" stop-color="#7bc3ff"/><stop offset="1" stop-color="#2176cc"/></linearGradient></defs><g transform="translate(-411.54 -532.298)"><path class="a" d="M457.1,595.421a14.2,14.2,0,0,1-23.6-6.9l-5.554-22.8a14.2,14.2,0,0,1,17.779-16.984l22.523,6.59a14.2,14.2,0,0,1,5.819,23.89Z"/><g transform="translate(441.54 562.298)"><path class="b" d="M481.578,606.635a.449.449,0,0,1-.449-.449v-7.155c0-1.95-.142-3.442-1.924-3.442-1.645,0-2.286.93-2.286,3.319v7.276a.449.449,0,0,1-.45.45h-4.558a.449.449,0,0,1-.449-.45V591.49a.449.449,0,0,1,.449-.449h4.378a.449.449,0,0,1,.449.449v.748a5.469,5.469,0,0,1,3.932-1.566c5.213,0,5.916,3.761,5.916,7.441v8.072a.449.449,0,0,1-.367.442.474.474,0,0,1-.088.008Z" transform="translate(-463.676 -583.726)"/><path class="b" d="M486.587,606.643h.006v-8.073c0-3.949-.85-6.991-5.467-6.991a4.794,4.794,0,0,0-4.317,2.373h-.064v-2h-4.378v14.7h4.558v-7.277c0-1.916.363-3.768,2.736-3.768,2.338,0,2.373,2.187,2.373,3.891v7.155Zm0,0" transform="translate(-464.132 -584.182)"/><rect class="b" width="5.462" height="15.594" rx="0.906" transform="translate(0.363 7.316)"/><rect class="b" width="4.564" height="14.695" transform="translate(0.813 7.765)"/><path class="b" d="M458.863,582.881a3.1,3.1,0,1,1,3.093-3.117A3.108,3.108,0,0,1,458.863,582.881Z" transform="translate(-455.77 -576.672)"/><path class="b" d="M459.319,577.578a2.655,2.655,0,1,0,2.643,2.643,2.644,2.644,0,0,0-2.643-2.643Zm0,0" transform="translate(-456.226 -577.128)"/></g><g transform="translate(442.428 563.186)"><path class="c" d="M486.279,606.368h.005v-7.751c0-3.792-.817-6.713-5.249-6.713a4.6,4.6,0,0,0-4.145,2.278h-.062v-1.924h-4.2v14.109H477v-6.986c0-1.84.349-3.618,2.627-3.618,2.245,0,2.278,2.1,2.278,3.737v6.869Zm0,0" transform="translate(-465.15 -585.235)"/><rect class="c" width="4.382" height="14.11" transform="translate(0.349 7.024)"/><path class="c" d="M460.1,578.462A2.55,2.55,0,1,0,462.635,581a2.539,2.539,0,0,0-2.537-2.538Zm0,0" transform="translate(-457.559 -578.462)"/></g></g></svg>