<svg xmlns="http://www.w3.org/2000/svg" xmlns:xlink="http://www.w3.org/1999/xlink" width="148.544" height="143.848" viewBox="0 0 148.544 143.848"><defs><style>.a{fill:url(#a);}.b{fill:#077df1;}.c{fill:#eefbff;}</style><linearGradient id="a" x1="-22.276" y1="18.768" x2="-21.334" y2="18.451" gradientUnits="objectBoundingBox"><stop offset="0.012" stop-color="#57d3ff"/><stop offset="1" stop-color="#0076f0"/></linearGradient></defs><g transform="translate(38.775 36.428)"><path class="a" d="M657.409,395.646a14.134,14.134,0,0,1-23.5-6.875l-5.53-22.7a14.134,14.134,0,0,1,17.7-16.911l22.426,6.562a14.134,14.134,0,0,1,5.794,23.786Z" transform="translate(-616.281 -338.797)"/><path class="b" d="M675.819,379.323a11.94,11.94,0,0,1-3.372.95,5.956,5.956,0,0,0,2.574-3.326,11.5,11.5,0,0,1-3.711,1.457,5.789,5.789,0,0,0-4.275-1.9,5.935,5.935,0,0,0-5.848,6.019,6.367,6.367,0,0,0,.135,1.372,16.418,16.418,0,0,1-12.061-6.294,6.19,6.19,0,0,0-.8,3.042,6.073,6.073,0,0,0,2.6,5,5.658,5.658,0,0,1-2.644-.742v.066a6.006,6.006,0,0,0,4.688,5.913,5.69,5.69,0,0,1-1.534.2,5.048,5.048,0,0,1-1.108-.1,5.931,5.931,0,0,0,5.468,4.192,11.555,11.555,0,0,1-7.256,2.566,10.623,10.623,0,0,1-1.4-.083,16.145,16.145,0,0,0,8.977,2.7c10.768,0,16.655-9.172,16.655-17.123,0-.266-.009-.523-.021-.778A11.857,11.857,0,0,0,675.819,379.323Z" transform="translate(-626.05 -352.928)"/><path class="c" d="M675.848,381.662a11.172,11.172,0,0,1-3.087.846,5.331,5.331,0,0,0,2.357-2.961,10.71,10.71,0,0,1-3.4,1.3,5.357,5.357,0,0,0-9.267,3.663,5.527,5.527,0,0,0,.124,1.222,15.162,15.162,0,0,1-11.042-5.6,5.358,5.358,0,0,0,1.646,7.16,5.288,5.288,0,0,1-2.42-.66v.059a5.382,5.382,0,0,0,4.292,5.264,5.352,5.352,0,0,1-1.4.176,4.751,4.751,0,0,1-1.014-.091,5.407,5.407,0,0,0,5.006,3.732A10.763,10.763,0,0,1,651,398.05a10.045,10.045,0,0,1-1.282-.074,15.249,15.249,0,0,0,23.467-12.841c0-.237-.008-.465-.02-.693A10.682,10.682,0,0,0,675.848,381.662Z" transform="translate(-627.285 -354.268)"/></g></svg>