<svg xmlns="http://www.w3.org/2000/svg" xmlns:xlink="http://www.w3.org/1999/xlink" width="50.715" height="50.997" viewBox="0 0 50.715 50.997"><defs><style>.a{fill:url(#a);}.b{fill:#fbfbfb;}</style><linearGradient id="a" x1="-22.351" y1="19.288" x2="-21.409" y2="18.971" gradientUnits="objectBoundingBox"><stop offset="0.012" stop-color="#ff556a"/><stop offset="1" stop-color="#a00a15"/></linearGradient></defs><g transform="translate(-10.139 -9.998)"><path class="a" d="M851.653,396.1a14.134,14.134,0,0,1-23.5-6.875l-5.53-22.7a14.135,14.135,0,0,1,17.7-16.911l22.426,6.562a14.134,14.134,0,0,1,5.794,23.786Z" transform="translate(-812.072 -339.024)"/><g transform="translate(24.126 27.535)"><path class="b" d="M872.8,387.013a2.849,2.849,0,0,0-2-2c-1.779-.487-8.9-.487-8.9-.487s-7.118,0-8.9.468a2.908,2.908,0,0,0-2,2.023,32.178,32.178,0,0,0,0,10.94,2.849,2.849,0,0,0,2,2c1.8.487,8.9.487,8.9.487s7.118,0,8.9-.468a2.848,2.848,0,0,0,2-2,30.022,30.022,0,0,0,.468-5.47,28.5,28.5,0,0,0-.468-5.489Zm-13.169,8.879v-6.819l5.919,3.41Zm0,0" transform="translate(-850.524 -384.522)"/></g></g></svg>