<svg xmlns="http://www.w3.org/2000/svg" xmlns:xlink="http://www.w3.org/1999/xlink" width="1738" height="745.828" viewBox="0 0 1738 745.828"><defs><style>.a{fill:url(#a);}.b{opacity:0.807;mix-blend-mode:soft-light;isolation:isolate;}.c,.d,.e,.f,.g{fill:none;stroke:#fff;stroke-miterlimit:10;stroke-width:4px;}.c,.d{stroke-linecap:round;}.d,.g{opacity:0.3;}.e{opacity:0.5;}.f{opacity:0.15;}</style><linearGradient id="a" x1="0.045" y1="0.027" x2="0.943" y2="0.946" gradientUnits="objectBoundingBox"><stop offset="0" stop-color="#6eb2fe"/><stop offset="1" stop-color="#a423fb"/></linearGradient></defs><g transform="translate(1989 8697.828)"><path class="a" d="M97,0H1641a97,97,0,0,1,97,97V646a97,97,0,0,1-97,97H97A97,97,0,0,1,0,646V97A97,97,0,0,1,97,0Z" transform="translate(-1989 -8695)"/><g class="b" transform="translate(-3010.287 -11350)"><g transform="translate(1082 2655)"><line class="c" x1="98.167" y2="98.167" transform="translate(485.258 77.546)"/><line class="d" x1="52.497" y2="52.497" transform="translate(699.25 246.441)"/><line class="d" x1="32.756" y2="32.756" transform="translate(691.042 478.718)"/><line class="d" x1="137.326" y2="136.496" transform="translate(1202.337 157.662)"/><line class="c" x1="49.327" y2="49.327" transform="translate(266.843 525.681)"/><line class="c" x1="98.167" y2="98.167" transform="translate(293.687 0)"/><line class="c" x1="98.167" y2="98.167" transform="translate(0 174.527)"/><line class="c" x1="98.167" y2="98.167" transform="translate(81.337 589.057)"/><line class="c" x1="98.167" y2="98.167" transform="translate(921.91 208.48)"/><line class="c" x1="98.167" y2="98.167" transform="translate(1482.622 48.842)"/><line class="c" x1="98.167" y2="98.167" transform="translate(1047.748 589.057)"/><line class="c" x1="98.167" y2="98.167" transform="translate(1518.407 471.622)"/><line class="c" x1="98.167" y2="98.167" transform="translate(961.505 55.433)"/><line class="c" x1="98.167" y2="98.167" transform="translate(1290.874 359.114)"/><line class="c" x1="98.167" y2="98.167" transform="translate(367.974 543.776)"/><circle class="e" cx="27.16" cy="27.16" r="27.16" transform="translate(289.001 341.469)"/><circle class="e" cx="27.16" cy="27.16" r="27.16" transform="translate(1243.947 565.33)"/><circle class="e" cx="27.16" cy="27.16" r="27.16" transform="translate(1262.241 38.706)"/><path class="e" d="M563.994,430.937a8.352,8.352,0,1,1-8.351-8.352A8.351,8.351,0,0,1,563.994,430.937Z" transform="translate(52.23 201.796)"/><path class="e" d="M563.994,430.937a8.352,8.352,0,1,1-8.351-8.352A8.351,8.351,0,0,1,563.994,430.937Z" transform="translate(962.355 219.228)"/><path class="e" d="M563.994,430.937a8.352,8.352,0,1,1-8.351-8.352A8.351,8.351,0,0,1,563.994,430.937Z" transform="translate(978.869 -173.446)"/><circle class="e" cx="8.352" cy="8.352" r="8.352" transform="translate(930.586 432.097)"/><path class="f" d="M691.152,220.12a5.182,5.182,0,1,1-5.182-5.182A5.181,5.181,0,0,1,691.152,220.12Z" transform="translate(134.53 73.785)"/><path class="g" d="M569.735,317.844a5.182,5.182,0,1,1-5.182-5.182A5.183,5.183,0,0,1,569.735,317.844Z" transform="translate(59.678 134.031)"/><circle class="e" cx="8.352" cy="8.352" r="8.352" transform="translate(113.722 423.956)"/><path class="e" d="M432.932,123.014a8.352,8.352,0,1,1-8.351-8.351A8.351,8.351,0,0,1,432.932,123.014Z" transform="translate(-28.567 11.967)"/></g></g></g></svg>