<svg xmlns="http://www.w3.org/2000/svg" width="133.968" height="171.593" viewBox="0 0 133.968 171.593"><defs><style>.a{fill:#676795;}</style></defs><path class="a" d="M898.206,348h16.76c.3.129.583.282.887.384a9.136,9.136,0,0,1,6.566,8.754c.086,4.687.066,9.378-.019,14.065a12.334,12.334,0,0,1-4.834,9.71,5.651,5.651,0,0,0-2.243,4.775c.044,8.094.017,16.188.021,24.282,0,.537.048,1.075.079,1.719,5.114,0,10.076,0,15.038,0,8.278.006,13.6,5.323,13.6,13.63q.014,31.4,0,62.8c0,8.384-5.328,13.682-13.727,13.685q-19.1.006-38.189,0h-2.1c.741,3.829,1.436,7.42,2.145,11.086h3.972c1.284,0,2.569-.034,3.852.011,2.66.093,4.325,2.526,3.148,4.726a9.637,9.637,0,0,1-1.946,1.966h-48.27c-1.985-1.4-2.641-2.666-2.186-4.225.515-1.76,1.782-2.476,4.393-2.478,2.229,0,4.458,0,6.826,0,.706-3.695,1.4-7.313,2.12-11.086h-2.091q-19.1,0-38.208,0c-8.389,0-13.694-5.312-13.7-13.726q-.011-31.331,0-62.663c0-8.423,5.3-13.718,13.689-13.725,3.678,0,7.356,0,11.234,0,0-2.353-.076-4.578.015-6.8.257-6.275-2.325-10.753-7.94-13.733a19.138,19.138,0,0,1-10.222-13.613,42.181,42.181,0,0,1-.461-11.147c.579-7.386,4.341-13.029,10.647-16.883a7.2,7.2,0,0,1,11.128,5.653c.239,2.444.46,4.89.721,7.332a11.843,11.843,0,0,0,11.71,10.933c6.131.038,10.994-4.4,11.783-10.8.328-2.658.524-5.334.893-7.987a7.041,7.041,0,0,1,10.585-5.314,25.562,25.562,0,0,1,5.8,4.725c5.671,6.178,6.195,13.794,5.22,21.559-.908,7.24-4.932,12.557-11.367,15.995-3.436,1.836-6.053,4.512-6.679,8.332-.623,3.8-.477,7.73-.671,11.679H897.57a7.973,7.973,0,0,0,.139-1.029q.01-12.733.005-25.467A4.9,4.9,0,0,0,895.7,381.1a13.168,13.168,0,0,1-5.116-10.635c-.051-4.3-.027-8.6,0-12.9a8.383,8.383,0,0,1,2.663-6.64A31.841,31.841,0,0,1,898.206,348Zm-31.838,70.444c0,.828,0,1.49,0,2.152,0,13.573.075,27.147-.034,40.718a15.586,15.586,0,0,1-19.9,14.757c-7.017-1.977-11.38-8.008-11.4-15.875q-.039-19.773-.008-39.545c0-.711,0-1.422,0-2.059a2.623,2.623,0,0,0-.527-.177q-5.363-.017-10.726-.022c-4.668,0-6.967,2.31-6.968,7.016q-.005,25.889,0,51.778v1.779H937.265c.037-.4.094-.719.094-1.041q.006-26.643-.012-53.286c-.007-3.793-2.569-6.227-6.386-6.242-4.749-.019-9.5-.008-14.246,0a12.219,12.219,0,0,0-1.241.122v3.688c5.717.909,8.2,3.8,8.2,9.439q0,13.406-.012,26.811a24.482,24.482,0,0,1-.277,3.664c-1.364,8.811-9.126,14.82-18.373,14.259a16.916,16.916,0,0,1-15.509-16.3c-.14-9.94-.1-19.885.02-29.825a9.456,9.456,0,0,1,1.487-4.5c1.421-2.345,3.813-3.316,6.559-3.5v-3.807ZM831.392,354.8a15.248,15.248,0,0,0-7.626,8.776c-1.191,3.407-1.055,6.941-.734,10.444a13.767,13.767,0,0,0,7.5,11.4c7.784,4.19,11.281,10.657,11.234,19.41-.1,18.15-.031,36.3-.026,54.452,0,.892,0,1.79.084,2.677a8.938,8.938,0,0,0,17.826-1.186c.025-18.765.058-37.53-.008-56.295-.03-8.566,3.515-14.884,11.094-18.966,4.124-2.222,6.888-5.687,7.42-10.345a36.141,36.141,0,0,0-.227-10.306c-.785-4.4-3.548-7.686-7.78-9.977-.162.79-.325,1.358-.388,1.936-.255,2.33-.465,4.666-.716,7a18.41,18.41,0,0,1-20.771,16.113c-9.05-1.3-15.354-8.156-16.1-17.453C831.982,360.046,831.684,357.626,831.392,354.8ZM817.009,485.8c-1.055,6.16,1.807,9.4,7.627,9.375q52.871-.212,105.744-.02c4.367.011,8.195-2.855,6.683-9.355Zm99.953-40.232h0q0-7.035,0-14.07c0-2.171-.278-2.466-2.378-2.47q-8.041-.016-16.083,0c-2.128,0-2.355.248-2.356,2.468q-.006,13.652.009,27.3a12.837,12.837,0,0,0,.245,2.823,10.4,10.4,0,0,0,20.545-2.152C917.016,454.834,916.962,450.2,916.962,445.565Zm-8.324-23.338v-2.046c0-11.5.02-22.991-.011-34.487a11.649,11.649,0,0,1,4.522-9.784,6.474,6.474,0,0,0,2.6-5.364c0-4.241.022-8.482-.008-12.723-.015-2.226-.941-3.107-3.193-3.116q-6.028-.023-12.056,0c-2.229.009-3.188.927-3.206,3.141-.033,4.185-.023,8.371,0,12.556a6.351,6.351,0,0,0,2.406,5.3c3.492,2.67,4.784,6.22,4.756,10.52-.076,11.327-.025,22.656-.025,33.984v2.021Zm-23.316,90.585c-.664-3.514-1.269-6.849-1.959-10.168a1.331,1.331,0,0,0-.979-.8q-5.261-.089-10.524,0a1.343,1.343,0,0,0-1.032.735c-.7,3.369-1.317,6.756-1.975,10.237Z" transform="translate(-810.104 -348)"/><path class="a" d="M900.071,557.651c0,3.125.021,6.25-.007,9.375-.02,2.219-1.306,3.672-3.218,3.732-1.976.062-3.447-1.425-3.461-3.693q-.058-9.542,0-19.083a3.3,3.3,0,0,1,3.339-3.612c2.044-.012,3.319,1.383,3.339,3.741C900.092,551.29,900.072,554.471,900.071,557.651Z" transform="translate(-856.155 -456.62)"/><path class="a" d="M900.1,517.763a3.321,3.321,0,0,1-3.362,3.25,3.358,3.358,0,0,1-3.288-3.35,3.325,3.325,0,1,1,6.65.1Z" transform="translate(-856.209 -440.026)"/><path class="a" d="M1018.447,552.7c0-3.014-.02-6.028.007-9.041.019-2.231,1.3-3.645,3.251-3.683,2-.039,3.422,1.432,3.434,3.7q.046,9.041,0,18.082a3.391,3.391,0,0,1-3.453,3.694c-1.936-.054-3.213-1.49-3.231-3.713C1018.429,558.727,1018.447,555.713,1018.447,552.7Z" transform="translate(-925.344 -454.19)"/></svg>