<svg xmlns="http://www.w3.org/2000/svg" width="154.301" height="145.279" viewBox="0 0 154.301 145.279"><defs><style>.a{fill:#676795;}</style></defs><g transform="translate(-768 -359.231)"><path class="a" d="M768,370.988c.227-.815.421-1.642.686-2.445a13.591,13.591,0,0,1,13.222-9.3q30.279-.022,60.557-.006,16.57,0,33.14,0c8.714,0,14.444,5.716,14.447,14.415q.009,24.63,0,49.26v2.04c1.019-.486,1.892-.926,2.785-1.322a4.474,4.474,0,0,1,6.541,4.143q.043,31.484,0,62.969c0,3.828-3.45,5.756-7.032,3.985q-16.113-7.966-32.207-15.97c-.577-.286-1.157-.565-1.922-.939-.65,3.59-1.277,7.015-1.889,10.444-.723,4.048-1.42,8.1-2.151,12.148a4.532,4.532,0,0,1-4.787,4.08q-8.813.037-17.625,0c-3.181-.019-5.123-2.482-4.584-5.662q1.733-10.236,3.44-20.477c.057-.342.061-.694.087-1.01-.1-.108-.147-.213-.226-.244-5.812-2.282-7.939-5.409-7.939-11.686V458.99H782.965c-8.074,0-12.643-3.512-14.778-11.351a2.588,2.588,0,0,0-.187-.4Zm54.648,78.961c1.681-5.946,5.376-8.738,11.38-8.739,7.381,0,14.762.013,22.142-.022a5.08,5.08,0,0,0,2.145-.482c7.157-3.508,14.283-7.081,21.445-10.578a1.935,1.935,0,0,0,1.277-2.042q-.051-27.264-.026-54.528c0-3.528-1.747-5.281-5.259-5.281q-46.693,0-93.387,0c-3.609,0-5.323,1.729-5.323,5.366q0,35.473,0,70.947c0,3.631,1.719,5.358,5.333,5.359q19.356,0,38.711,0Zm67.646-14.88c-.34.119-.533.165-.7.25-8.578,4.253-17.149,8.523-25.745,12.741a1.5,1.5,0,0,0-.926,1.633c.023,6.376.035,12.752-.011,19.128a1.711,1.711,0,0,0,1.142,1.807c8.325,4.087,16.627,8.221,24.938,12.337.391.194.8.344,1.307.557Zm-36.519,33.265V450.252c-6.883,0-13.65,0-20.418,0-1.263,0-1.773.707-1.771,1.917.01,4.715-.006,9.429.01,14.144.005,1.549.5,2.006,2.119,2.013,3.21.013,6.42,0,9.629,0Zm-13.845,9.1c-1.005,6.039-1.989,11.952-2.979,17.9h8.941c.556-3.07,1.1-6.025,1.624-8.983s1.029-5.9,1.555-8.921Z"/><path class="a" d="M1131.358,649.893c-2.1,3.54-3.795,4.055-7.691,2.339-1.144-.5-2.31-.964-3.435-1.506a4.515,4.515,0,1,1,3.662-8.253,27.27,27.27,0,0,1,4.641,2.092,17.218,17.218,0,0,1,2.822,2.916Z" transform="translate(-209.057 -169.203)"/><path class="a" d="M1131.375,552.417c-1.917,3.651-5.641,4.375-9.081,5.331-1.948.542-3.927-1.1-4.56-3.1a4.33,4.33,0,0,1,2-5.174,45.288,45.288,0,0,1,5.909-2.571c2.246-.788,4.071.292,5.731,3.1Z" transform="translate(-209.074 -112.112)"/><path class="a" d="M1131.369,602.685c-1.2,2.6-3.258,3.591-6.057,3.332-1.143-.106-2.307.025-3.457-.034a4.505,4.505,0,0,1,0-9.005c1.7-.07,3.408-.045,5.112-.007,2.236.05,3.457,1.5,4.4,3.3Z" transform="translate(-209.068 -142.188)"/><path class="a" d="M863.613,449.825c0-5.722-.01-11.444,0-17.165.01-4.657,3.186-6.653,7.326-4.588q17.362,8.661,34.715,17.338c1.856.924,3.113,2.2,3.121,4.372s-1.222,3.473-3.082,4.4q-17.436,8.68-34.85,17.4c-3.97,1.979-7.209-.016-7.227-4.445C863.6,461.369,863.613,455.6,863.613,449.825Zm30.58-.02L872.75,439.078v21.453Z" transform="translate(-57.189 -40.692)"/></g></svg>