<svg xmlns="http://www.w3.org/2000/svg" width="179" height="144.387" viewBox="0 0 179 144.387"><defs><style>.a{fill:#676795;}</style></defs><g transform="translate(-773.912 -389.88)"><path class="a" d="M817.22,465.04h-2.887v2.194q0,25.625,0,51.25c0,3.423-.812,4.225-4.259,4.227-2.341,0-4.681,0-7.289,0,0,2.636.008,5.195,0,7.754-.01,2.83-.963,3.791-3.786,3.794q-10.644.012-21.289,0c-2.829,0-3.786-.96-3.789-3.787q-.011-10.647,0-21.294c0-2.833.956-3.786,3.785-3.789q10.645-.011,21.29,0c2.828,0,3.78.96,3.79,3.787.01,2.515,0,5.03,0,7.652h5.689v-51.74h-5.689c0,2.577.01,5.143,0,7.709-.012,2.717-.987,3.706-3.688,3.71q-10.735.016-21.47,0c-2.716,0-3.7-.984-3.706-3.689q-.014-10.737,0-21.474c0-2.72.979-3.7,3.687-3.705q10.735-.015,21.47,0c2.716,0,3.693.983,3.706,3.689.013,2.524,0,5.048,0,7.715h5.654V407.308h-5.654c0,2.464,0,4.962,0,7.46-.006,3.081-.9,3.988-3.953,3.99q-10.555.007-21.109,0c-2.84,0-3.8-.954-3.8-3.772q-.012-10.737,0-21.475c0-2.6,1.007-3.617,3.588-3.621q10.825-.019,21.65,0c2.6,0,3.606,1.01,3.623,3.59s0,5.153,0,7.956h7.086c3.717,0,4.461.731,4.461,4.383q0,25.535,0,51.069V459.1h2.89c0-.854-.029-1.731.006-2.6a2.879,2.879,0,0,1,2.682-3.067c1.84-.282,3.686-.571,5.54-.72a2.149,2.149,0,0,0,2.166-1.675,62.088,62.088,0,0,1,2.76-6.637,1.742,1.742,0,0,0-.192-2.222c-1.232-1.476-2.382-3.023-3.521-4.573-1.211-1.649-1.158-2.895.257-4.343q3.782-3.872,7.654-7.656c1.463-1.432,2.692-1.5,4.34-.3,1.553,1.134,3.089,2.3,4.575,3.517a1.755,1.755,0,0,0,2.222.234,67.381,67.381,0,0,1,6.8-2.819,1.961,1.961,0,0,0,1.505-1.916c.187-1.913.456-3.82.741-5.721a2.838,2.838,0,0,1,3.04-2.705q5.592-.066,11.185,0c1.846.021,2.819.966,3.092,2.852.267,1.843.57,3.687.712,5.542a2.038,2.038,0,0,0,1.664,1.976,68.44,68.44,0,0,1,6.631,2.772,1.744,1.744,0,0,0,2.223-.191c1.477-1.23,3.021-2.383,4.572-3.521,1.65-1.212,2.888-1.162,4.342.255q3.876,3.778,7.657,7.653c1.433,1.468,1.5,2.691.3,4.344-1.132,1.555-2.3,3.09-3.516,4.577a1.753,1.753,0,0,0-.234,2.221,65.058,65.058,0,0,1,2.835,6.8,1.936,1.936,0,0,0,1.9,1.509c1.733.161,3.46.408,5.183.666,2.525.378,3.238,1.239,3.257,3.839,0,.592,0,1.184,0,1.889h2.887v-2.156q0-25.626,0-51.25c0-3.434.8-4.228,4.248-4.233q3.338,0,6.676-.014a5.445,5.445,0,0,0,.623-.113c0-2.44,0-4.938,0-7.436.005-3.084.894-3.984,3.952-3.986q10.554-.007,21.109,0c2.838,0,3.8.956,3.8,3.772q.012,10.647,0,21.294c0,2.836-.96,3.8-3.775,3.8q-10.645.012-21.29,0c-2.837,0-3.79-.956-3.8-3.777-.009-2.516,0-5.032,0-7.659h-5.685v51.733h5.685c0-2.565-.008-5.13,0-7.7.011-2.724.981-3.717,3.672-3.72q10.825-.015,21.65,0c2.486,0,3.532,1.032,3.538,3.491q.025,10.917,0,21.835c0,2.487-1.035,3.532-3.494,3.538q-10.915.025-21.831,0c-2.488-.005-3.514-1.032-3.534-3.5-.021-2.585,0-5.17,0-7.9h-5.651v51.727h5.65c0-2.452,0-4.949,0-7.446.005-3.094.891-4,3.937-4q10.554-.007,21.109,0c2.847,0,3.817.953,3.82,3.757q.012,10.737,0,21.474c0,2.606-1.01,3.632-3.578,3.637q-10.825.021-21.65,0c-2.608,0-3.616-1.006-3.633-3.58s0-5.155,0-7.967c-.87,0-1.628,0-2.385,0-10.068.018-9.167.86-9.164-9.245q.007-23.189,0-46.378v-2.035H909.6c0,.842.014,1.716,0,2.59a2.885,2.885,0,0,1-2.678,3.081c-1.9.295-3.807.548-5.719.74a1.944,1.944,0,0,0-1.929,1.474c-.841,2.368-1.956,4.638-2.843,6.992a2.333,2.333,0,0,0,.163,1.85c1.067,1.595,2.317,3.066,3.462,4.611,1.357,1.831,1.3,3.027-.267,4.629q-3.663,3.736-7.4,7.4c-1.634,1.6-2.8,1.67-4.618.323-1.546-1.145-3.02-2.392-4.614-3.463a2.331,2.331,0,0,0-1.849-.205c-2.409.911-4.79,1.906-7.12,3a2.607,2.607,0,0,0-1.293,1.582c-.386,1.879-.535,3.806-.807,5.709-.282,1.969-1.265,2.876-3.242,2.894q-5.412.051-10.825,0a2.924,2.924,0,0,1-3.273-2.86c-.268-1.844-.536-3.689-.722-5.542a1.965,1.965,0,0,0-1.476-1.939c-2.365-.848-4.639-1.949-6.994-2.831a2.334,2.334,0,0,0-1.85.169c-1.643,1.105-3.16,2.4-4.761,3.567-1.655,1.21-2.9,1.154-4.344-.261q-3.872-3.783-7.655-7.656c-1.429-1.463-1.5-2.7-.293-4.342,1.137-1.551,2.3-3.091,3.519-4.574a1.75,1.75,0,0,0,.227-2.221,65.427,65.427,0,0,1-2.832-6.8,1.938,1.938,0,0,0-1.9-1.506c-1.673-.159-3.337-.425-5-.662-2.714-.385-3.415-1.177-3.435-3.847C817.216,466.366,817.22,465.774,817.22,465.04Zm42.938,37.353h6.512c.276-2.12.546-4.143.8-6.169.218-1.754,1.184-2.608,2.893-3.21a105.481,105.481,0,0,0,10.08-4.216c1.55-.733,2.79-.841,4.147.242,1.635,1.306,3.328,2.541,5.02,3.825l4.57-4.635c-1.168-1.53-2.31-3.139-3.571-4.649-1.3-1.552-1.247-2.93-.32-4.755a82.961,82.961,0,0,0,4.028-9.583c.814-2.271,1.27-2.87,3.736-3.176,1.892-.235,3.78-.5,5.693-.757V458.82c-2.092-.273-4.112-.544-6.134-.8a3.668,3.668,0,0,1-3.253-2.848,101.912,101.912,0,0,0-4.2-10.087c-.776-1.625-.846-2.9.288-4.3,1.308-1.617,2.531-3.3,3.558-4.654l-4.509-4.779c-1.537,1.175-3.146,2.335-4.675,3.593-1.509,1.242-2.86,1.138-4.608.269a76.142,76.142,0,0,0-9.756-4.061c-1.892-.631-2.819-1.608-3.027-3.5-.217-1.962-.5-3.915-.769-5.934h-6.49c-.27,2.063-.549,4.076-.793,6.092-.22,1.824-1.19,2.719-2.983,3.335a92.294,92.294,0,0,0-9.914,4.148c-1.607.771-2.89.907-4.305-.234-1.624-1.308-3.315-2.532-4.818-3.672l-4.63,4.617c1.168,1.532,2.364,3.183,3.649,4.764,1.2,1.471,1.03,2.791.214,4.459a80.12,80.12,0,0,0-4.071,9.754c-.628,1.878-1.565,2.847-3.463,3.069-2,.233-4,.541-5.926.807V465.3c2.086.281,4.048.566,6.015.8,1.817.221,2.741,1.158,3.351,2.964a75.168,75.168,0,0,0,4.054,9.761c.922,1.829.957,3.211-.328,4.759-1.256,1.514-2.4,3.118-3.553,4.625l4.567,4.653c1.639-1.251,3.289-2.446,4.864-3.732,1.463-1.2,2.78-1.068,4.456-.247a77.149,77.149,0,0,0,9.75,4.076c1.972.65,2.91,1.664,3.112,3.627C859.608,498.5,859.9,500.4,860.157,502.394Zm-63.224-106.6h-17.1v17.1h17.1Zm150.124-.038H929.918v17.111h17.139Zm-150.171,74.9v-17.1h-17.1v17.1Zm150.177-17.106H929.9V470.63h17.162ZM796.931,511.289h-17.1v17.1h17.1Zm132.99-.094v17.165H946.99V511.2Z" transform="translate(0 0)"/><path class="a" d="M931.991,485.933a25.986,25.986,0,1,1-26.04,25.834A26.029,26.029,0,0,1,931.991,485.933Zm-.09,46.194a20.207,20.207,0,1,0-20.172-20.24A20.264,20.264,0,0,0,931.9,532.127Z" transform="translate(-68.521 -49.846)"/></g></svg>