<svg xmlns="http://www.w3.org/2000/svg" width="163.968" height="143.401" viewBox="0 0 163.968 143.401"><defs><style>.a{fill:#676795;}</style></defs><g transform="translate(-150.575 -315.488)"><path class="a" d="M150.575,374.687V353.869c.117-.286.255-.567.35-.861a11.252,11.252,0,0,1,7.734-7.652,4.739,4.739,0,0,0,2.147-1.421q9.583-11.9,19.057-23.882a11.344,11.344,0,0,1,9.4-4.564q43.282.012,86.563,0A11.427,11.427,0,0,1,285.259,320c6.265,7.826,12.6,15.593,18.875,23.415a6.273,6.273,0,0,0,3.146,2.2,10.242,10.242,0,0,1,6.665,6.628c.2.541.4,1.081.6,1.621v20.818c-.106.353-.242.7-.312,1.058a18.556,18.556,0,0,1-7.875,12.156,2.318,2.318,0,0,0-1.166,2.2c.055,5.336.031,10.673.023,16.01,0,2.55-1.261,4.113-3.258,4.09-1.955-.023-3.136-1.515-3.143-4-.008-2.935,0-5.871,0-8.806v-6.335a19.026,19.026,0,0,1-10.659-1.306,19.6,19.6,0,0,1-8.321-6.779c-4.032,5.375-9.223,8.323-15.806,8.321S252.293,388.3,248.32,383c-3.984,5.292-9.153,8.278-15.732,8.294-6.633.016-11.826-3.025-15.794-8.276-7.94,10.839-23.269,11.221-31.544.041-4.742,6.244-11.015,8.984-18.821,8.083v61.209h10.1v-1.993q0-22.255,0-44.51c0-3.172,1.065-4.247,4.21-4.248q13.048-.005,26.1,0c3.318,0,4.311.982,4.311,4.273q0,22.335,0,44.67v1.816H298.81v-1.807c0-5.07-.02-10.14.013-15.21a3.125,3.125,0,0,1,3.7-3.344c1.655.245,2.672,1.565,2.681,3.62.022,5.016.005,10.033.012,15.05,0,.562.052,1.123.085,1.787,1.818,0,3.471.089,5.11-.023a3.819,3.819,0,0,1,4.129,2.323v1.922c-1.04,1.744-2.6,2.212-4.575,2.211q-77.408-.052-154.815,0c-1.976,0-3.536-.466-4.577-2.211v-1.922a3.842,3.842,0,0,1,4.125-2.324c1.681.112,3.375.023,5.1.023.044-.568.1-.933.1-1.3q.006-30.626.024-61.252a2.046,2.046,0,0,0-1.059-1.919,18.72,18.72,0,0,1-7.552-10.385C151.02,376.646,150.818,375.661,150.575,374.687Zm32.449,33.4v44.264H204.65V408.084Zm61.515-63.2a3.518,3.518,0,0,0,.028-.549c-.912-7.082-1.846-14.162-2.724-21.248-.121-.976-.533-1.209-1.441-1.2-5.279.033-10.56.059-15.839-.015-1.249-.018-1.5.509-1.609,1.569-.348,3.339-.786,6.668-1.179,10-.446,3.788-.882,7.577-1.331,11.444Zm29.758.011c-.323-.655-.556-1.173-.827-1.67-3.234-5.946-6.645-11.8-9.635-17.87-1.345-2.726-2.91-3.811-5.944-3.522-3.159.3-6.37.067-9.771.067l2.995,23Zm-83.6-.028h23.282l2.73-22.967c-4.127,0-8.011.049-11.893-.03a2.264,2.264,0,0,0-2.353,1.39c-3.649,6.754-7.369,13.47-11.061,20.2C191.176,343.87,190.982,344.3,190.7,344.867ZM213.546,369.7H188.468c-.331,9.128,4.891,15.311,12.739,15.216C207.488,384.841,214.524,379.75,213.546,369.7Zm63.023-.006H251.555c-.452,5.771,1.152,10.514,6.244,13.485a11.818,11.818,0,0,0,13.149-.366C275.646,379.75,277.012,375.131,276.57,369.7Zm-56.456-.048c-.567,5.9,1.126,10.669,6.324,13.619a11.788,11.788,0,0,0,13.155-.562c4.582-3.1,5.967-7.657,5.4-13.057Zm87.947,0H283.155c-.562,5.4.806,9.955,5.393,13.056a11.71,11.71,0,0,0,13.146.532C306.837,380.273,308.6,375.537,308.061,369.65Zm-126.155.022H157.05c-.522,5.768,1.167,10.459,6.207,13.463a11.588,11.588,0,0,0,13.116-.354C181.013,379.693,182.589,375.177,181.906,369.672Zm6.493-6.652h25.137V351.5H188.4Zm63.187.031h24.933V351.482H251.586Zm-31.463-11.566v11.546h24.886V351.486Zm88.015,11.591c0-2.2,0-4.319,0-6.44-.006-3.686-1.553-5.241-5.267-5.247q-9.046-.017-18.091,0h-1.626v11.69Zm-126.266-11.69h-5.454c-4.8,0-9.6-.02-14.407.009-2.472.015-4.43,1.16-4.607,3.13-.254,2.825-.065,5.691-.065,8.512h24.533Zm87.475-29.48a5.43,5.43,0,0,0,.248.773c3.884,7.157,7.756,14.321,11.7,21.444a2.186,2.186,0,0,0,1.636.82c4.261.068,8.525.041,12.787.03a11.7,11.7,0,0,0,1.325-.17c-5.884-7.271-11.571-14.385-17.394-21.385a5.126,5.126,0,0,0-3.21-1.447C274.173,321.752,271.869,321.907,269.347,321.907ZM168.225,344.981c4.8,0,9.165-.033,13.53.023a2.155,2.155,0,0,0,2.236-1.309c3.645-6.749,7.369-13.455,11.061-20.178.246-.448.443-.924.772-1.618-2.323,0-4.434.027-6.542-.008a5.132,5.132,0,0,0-4.4,2.135c-3.682,4.7-7.432,9.348-11.152,14.019C171.98,340.242,170.238,342.444,168.225,344.981Z" transform="translate(0 0)"/><path class="a" d="M340.789,554.663c2.926.573,4.121,1.686,3.981,3.606-.148,2.029-1.583,2.991-4.465,2.992q-11.843,0-23.685-.007c-2,0-3.3-1.082-3.489-2.793a3.147,3.147,0,0,1,2.537-3.532c.406-.089.829-.1,1.373-.162v-3.206c0-5.815-.01-11.631.006-17.446.006-2.469,1.151-3.656,3.61-3.67q8.242-.046,16.484,0c2.551.013,3.636,1.162,3.642,3.786.014,6.242,0,12.484,0,18.726C340.789,553.534,340.789,554.113,340.789,554.663Zm-17.227-17.754v17.827h10.7V536.909Z" transform="translate(-93.132 -123.158)"/><path class="a" d="M409.879,554.707V553q0-9.363,0-18.726c0-2.7,1.085-3.824,3.755-3.835q8.081-.035,16.163,0c2.738.011,3.817,1.145,3.821,3.948q.011,9.283,0,18.566v1.773a15.23,15.23,0,0,1,1.638.28,3.1,3.1,0,0,1,2.278,3.41,3.056,3.056,0,0,1-2.97,2.816c-1.757.078-3.52.026-5.28.026q-9.522,0-19.044,0c-2.751,0-4.169-.966-4.34-2.949C405.737,556.354,407.005,555.164,409.879,554.707Zm17.24.091v-17.84H416.389V554.8Z" transform="translate(-146.296 -123.16)"/><path class="a" d="M500.857,554.422a3.146,3.146,0,1,1,.087,6.288,3.145,3.145,0,0,1-.087-6.288Z" transform="translate(-198.949 -136.909)"/><path class="a" d="M237.648,583.825a3.137,3.137,0,0,1-3.132-3.3,3.217,3.217,0,0,1,3.327-2.962,3.083,3.083,0,0,1,3.044,3.2A3.187,3.187,0,0,1,237.648,583.825Z" transform="translate(-48.097 -150.17)"/></g></svg>