<svg xmlns="http://www.w3.org/2000/svg" width="144.387" height="144.388" viewBox="0 0 144.387 144.388"><defs><style>.a{fill:#676795;}</style></defs><g transform="translate(-768 -348)"><path class="a" d="M835.964,348h8.46a9.632,9.632,0,0,0,1.227.243,65.19,65.19,0,0,1,21.283,4.942c24.353,10.447,39.24,28.65,44.339,54.721.52,2.657.75,5.37,1.115,8.057v8.46a9.63,9.63,0,0,0-.239,1.216,67.924,67.924,0,0,1-8.24,28.434c-11.231,20.333-28.287,32.785-51.138,37.175-2.754.529-5.563.766-8.347,1.139h-8.46a7.543,7.543,0,0,0-1.089-.231,66.594,66.594,0,0,1-25.3-6.615c-22.143-10.915-35.694-28.509-40.432-52.784-.536-2.747-.766-5.554-1.139-8.333v-8.46a9.631,9.631,0,0,0,.239-1.216,67.922,67.922,0,0,1,8.24-28.434c11.231-20.333,28.287-32.785,51.138-37.175C830.37,348.61,833.18,348.373,835.964,348Zm4.172,139.581a67.387,67.387,0,1,0-67.329-67.366A67.536,67.536,0,0,0,840.136,487.581Z"/><path class="a" d="M978.652,501.335c.383-8.82.643-15.158.952-21.493a1.886,1.886,0,0,0-.978-1.929,12.6,12.6,0,0,1-5.567-9.353c-.848-6.23.682-12.068,2.9-17.726,1.72-4.388,5.309-6.658,10.023-6.673,4.637-.015,8.206,2.146,10.024,6.447a36.737,36.737,0,0,1,3.257,14.742c-.056,5.3-1.415,9.933-6.251,12.929a1.691,1.691,0,0,0-.478,1.305c.306,7.652.652,15.3.991,22.952.225,5.069.522,10.136.658,15.207a7.814,7.814,0,0,1-6.8,8.059,8.052,8.052,0,0,1-8.921-5.072,12.494,12.494,0,0,1-.478-4.42C978.181,510.488,978.5,504.67,978.652,501.335Zm4.975-3.821h.011c-.3,6.569-.625,13.137-.908,19.707-.1,2.422,1.143,3.812,3.314,3.817s3.425-1.4,3.336-3.8c-.1-2.629-.253-5.255-.373-7.882q-.728-15.907-1.447-31.814a2.655,2.655,0,0,1,1.573-2.742,13.391,13.391,0,0,0,2.18-1.268c2.557-1.919,3-4.743,3.131-7.66.2-4.654-1.162-9.011-2.787-13.266a6.13,6.13,0,0,0-11.214-.019c-1.616,4.258-2.958,8.611-2.8,13.266.133,3.964,1.272,7.3,5.3,8.953a2.619,2.619,0,0,1,1.595,2.857Q984.076,487.589,983.626,497.513Z" transform="translate(-127.807 -60.004)"/><path class="a" d="M892.264,496.469c-.336-6.663-.643-13.327-1.031-19.987a4.267,4.267,0,0,1,1.381-3.646c1.608-1.513,3.1-3.152,4.712-4.656a3.291,3.291,0,0,0,1.142-2.686c-.058-6.155-.064-12.312.015-18.466a3.846,3.846,0,0,1,.969-2.465,2.2,2.2,0,0,1,3.6,1.1,3.978,3.978,0,0,1,.182,1.244c.011,6.861.047,13.722-.041,20.581a4.379,4.379,0,0,1-1.085,2.6c-1.62,1.823-3.469,3.442-5.12,5.24a3.171,3.171,0,0,0-.807,2.053c.6,13.094,1.27,26.184,1.924,39.276.171,3.419-1.014,6.214-4.019,7.973a7.652,7.652,0,0,1-8.644-.3c-2.737-1.851-3.718-4.577-3.553-7.814.664-13,1.295-26,1.974-38.991a2.7,2.7,0,0,0-.915-2.339c-1.744-1.642-3.479-3.307-5.064-5.1a4.39,4.39,0,0,1-1.086-2.6c-.088-6.859-.058-13.72-.042-20.581,0-1.777.97-2.9,2.4-2.907s2.392,1.107,2.4,2.883c.014,6.25.031,12.5-.02,18.749a3.017,3.017,0,0,0,1.041,2.444c1.675,1.578,3.245,3.267,4.911,4.857a4.054,4.054,0,0,1,1.285,3.4q-1.075,20.267-2.081,40.538c-.108,2.147.829,3.524,2.607,3.942a3.1,3.1,0,0,0,3.6-1.754,6.67,6.67,0,0,0,.34-2.6c-.3-6.664-.654-13.326-.99-19.989Z" transform="translate(-67.855 -59.888)"/><path class="a" d="M1057.727,488.241c.036,11.271-4.471,22.811-13.7,32.487-1.229,1.289-2.635,1.512-3.713.573-1.147-1-1.137-2.424.193-3.824a42.908,42.908,0,0,0,9.888-15.9c4.27-12.678,3.127-24.88-3.58-36.484-1.146-1.983-2.6-3.788-3.934-5.662a2.5,2.5,0,0,1-.15-3.239c.988-1.29,2.716-1.213,3.871.19a48.13,48.13,0,0,1,7.082,11.466C1056.219,473.685,1057.568,479.792,1057.727,488.241Z" transform="translate(-169.404 -66.939)"/><path class="a" d="M832.073,490.329a47.515,47.515,0,0,1,8.966-26.97,2.433,2.433,0,0,1,3.525-.872c1.147.791,1.369,2.205.395,3.612a42.171,42.171,0,0,0-6.682,14.34c-3.459,14.7-.433,27.907,9.394,39.469.608.716,1.285,1.376,1.862,2.115a2.367,2.367,0,0,1-.209,3.4,2.291,2.291,0,0,1-3.4-.306,74.391,74.391,0,0,1-5.6-6.87C834.786,510.1,832.1,501.037,832.073,490.329Z" transform="translate(-39.981 -71.164)"/><path class="a" d="M929.5,411.293c3.611.521,7.231.988,10.829,1.587a2.314,2.314,0,0,1,2.054,2.834,2.408,2.408,0,0,1-3.139,1.8,44.187,44.187,0,0,0-19.117-.126c-1.917.417-3.784,1.063-5.669,1.62-1.774.525-3.04.074-3.519-1.278-.519-1.465.187-2.634,1.98-3.281A57.254,57.254,0,0,1,929.5,411.293Z" transform="translate(-89.089 -39.494)"/><path class="a" d="M896.061,456.326c0-3.193-.013-6.386.007-9.579a2.048,2.048,0,0,1,1.714-2.256,3.6,3.6,0,0,1,2.377.7,2.675,2.675,0,0,1,.668,1.906q.072,9.227.016,18.454c-.009,1.727-.957,2.737-2.376,2.753-1.5.017-2.4-.994-2.414-2.824-.027-3.052-.007-6.1-.007-9.157Z" transform="translate(-79.895 -60.2)"/><path class="a" d="M919.937,456.1c0,3.005.016,6.01-.006,9.016-.014,1.877-.842,2.877-2.329,2.907s-2.455-1-2.464-2.8q-.046-9.156,0-18.313c.015-2.3,1.91-3.552,3.632-2.509a2.649,2.649,0,0,1,1.169,2.547C919.931,450,919.937,453.047,919.937,456.1Z" transform="translate(-91.797 -59.919)"/><path class="a" d="M947.18,654.818c1.637-.094,3.231-.2,4.826-.273,1.727-.079,2.814.727,2.935,2.136a2.385,2.385,0,0,1-2.531,2.605c-3.513.114-7.035.117-10.548-.006a2.342,2.342,0,0,1-2.427-2.679c.151-1.357,1.19-2.123,2.86-2.054C943.939,654.616,945.579,654.728,947.18,654.818Z" transform="translate(-106.963 -191.278)"/></g></svg>