<svg xmlns="http://www.w3.org/2000/svg" width="154.718" height="154.678" viewBox="0 0 154.718 154.678"><defs><style>.a{fill:#676795;}</style></defs><g transform="translate(-755.728 -335.836)"><path class="a" d="M757.87,490.514c-1.688-.941-2.146-2.4-2.142-4.279q.062-32.7.027-65.4c0-3.176.981-4.2,4.116-4.189,7.651.016,15.308-.109,22.952.142,5.295.174,8.971,4.246,9.218,9.533.023.494.048.987.078,1.575h4.324v-25.6c-2.971,0-5.924,0-8.878,0a8.389,8.389,0,0,1-2.7-.073,5.54,5.54,0,0,1-2.572-1.759,2.579,2.579,0,0,1,.441-3.2c.289-.347.621-.66.941-.979q12.663-12.65,25.327-25.3c1.934-1.932,3.714-2.228,5.1-.857,1.411,1.391,1.136,3.161-.8,5.1q-9.83,9.822-19.663,19.64c-.376.375-.727.775-1.294,1.383,3.6,0,6.9.041,10.2-.045.485-.013,1.014-.569,1.422-.975q19.2-19.142,38.375-38.308c2.505-2.5,3.722-2.509,6.2-.039q18.969,18.946,37.911,37.919a4.457,4.457,0,0,0,3.678,1.487c2.694-.117,5.4-.033,7.942-.033L845.045,343a8.167,8.167,0,0,1-.951,1.455q-6.114,6.169-12.281,12.283a7.645,7.645,0,0,1-1.626,1.33,2.95,2.95,0,0,1-3.942-4.024,7.252,7.252,0,0,1,1.235-1.51Q835,345,842.546,337.482c2.216-2.209,3.622-2.2,5.872.05q29.446,29.4,58.888,58.808c.214.213.43.424.637.644a3.051,3.051,0,0,1-2.258,5.3q-4.683,0-9.365,0h-1.77V450.27a11.785,11.785,0,0,1,15.535,7.844c.095.333.24.652.361.978v3.022a12.835,12.835,0,0,1-4.553,7.386c-5.113,4.076-10.176,8.215-15.256,12.331a37.446,37.446,0,0,1-14.081,7.3c-2.169.574-4.4.932-6.6,1.388H819.2c-.329-.092-.654-.205-.988-.274-2.793-.57-5.626-.99-8.374-1.726-5.548-1.486-10.31-4.614-15.143-7.57-.795-.486-1.607-.945-2.632-1.545a10.741,10.741,0,0,1-2.483,7.738,12.579,12.579,0,0,1-5.73,3.377Zm34.28-56.477c-.046.454-.083.651-.083.849,0,12.133-.017,24.266.038,36.4a2.289,2.289,0,0,0,1,1.586c3.274,2.067,6.6,4.052,9.922,6.045a37.9,37.9,0,0,0,19.793,5.552q21.824.019,43.648,0a27.56,27.56,0,0,0,12.033-2.424,46.786,46.786,0,0,0,8.135-4.822c5.325-4.052,10.434-8.387,15.646-12.588a4.672,4.672,0,0,0,2.028-4.726,5.344,5.344,0,0,0-3.832-4.1,5.682,5.682,0,0,0-5.508,1.164c-5.3,4.006-10.628,7.972-15.916,11.993a9.141,9.141,0,0,1-5.748,1.908c-11.73-.014-23.461.055-35.19-.062a14.762,14.762,0,0,1-6.585-1.265c-4.51-2.4-8.784-5.259-13.064-8.068a2.722,2.722,0,0,1-.611-3.792,2.967,2.967,0,0,1,3.847-1.052,9.381,9.381,0,0,1,1.308.741c2.7,1.75,5.416,3.484,8.091,5.275a12.807,12.807,0,0,0,7.392,2.189c11.428-.038,22.856-.015,34.284-.017,2.4,0,3.466-1.1,3.417-3.5-.052-2.589-1.55-4.046-4.2-4.049-7.451-.007-14.9-.052-22.353.017a13.668,13.668,0,0,1-10.4-4.3c-4.819-4.934-9.764-9.744-14.574-14.687a13.672,13.672,0,0,0-10.4-4.294c-6.8.053-13.593.014-20.389.014Zm73.264,17.2c2.513,0,4.822-.032,7.131.007a9.208,9.208,0,0,1,8.895,6.053c.235.545.414,1.113.665,1.8,1.776-1.333,3.418-2.651,5.154-3.833a2.485,2.485,0,0,0,1.156-2.369q-.051-24.468-.023-48.935v-1.747c-2.364.473-3.764-.726-5.177-2.144q-18.233-18.292-36.533-36.516c-.384-.383-.79-.745-1.385-1.3-.4.49-.713.948-1.1,1.334q-18.1,18.1-36.206,36.2c-1.49,1.494-2.922,2.94-5.315,2.48v25.73c3.5,0,6.918-.1,10.326.032a44.988,44.988,0,0,1,7.467.8,29.789,29.789,0,0,1,5.064,2.047v-1.682q0-9.968,0-19.937c0-3.306.929-4.244,4.2-4.245q15.708,0,31.415,0c3.288,0,4.261.96,4.262,4.211q0,20.012,0,40.024ZM761.872,484.471h1.6q8.833,0,17.665,0c3.429,0,4.875-1.42,4.876-4.8q0-26.121,0-52.242c0-3.263-1.422-4.725-4.641-4.733q-9.059-.024-18.118,0c-.439,0-.877.056-1.384.09Zm97.437-73.342h-27.67c-.024.307-.06.547-.06.787,0,7.951-.022,15.9.033,23.853a2.908,2.908,0,0,0,.841,1.779c3.3,3.391,6.781,6.611,9.946,10.119a9.946,9.946,0,0,0,8.782,3.612c2.679-.22,5.391-.043,8.128-.043Z" transform="translate(0)"/><path class="a" d="M921.658,407.956a3.105,3.105,0,0,1-2.873-3.118,3,3,0,1,1,2.873,3.118Z" transform="translate(-101.354 -41.125)"/><path class="a" d="M973.489,441.046a11.756,11.756,0,1,1-11.708,11.718A11.837,11.837,0,0,1,973.489,441.046ZM967.824,452.7a5.73,5.73,0,1,0,5.832-5.615A5.682,5.682,0,0,0,967.824,452.7Z" transform="translate(-128.082 -65.398)"/><path class="a" d="M1071.967,580.443c0-3.017-.025-6.033.009-9.049.023-2.042,1.153-3.318,2.887-3.379a2.936,2.936,0,0,1,3.123,3.13q.07,9.426,0,18.852a3.008,3.008,0,0,1-3.022,3.118,3.04,3.04,0,0,1-2.973-3.171c-.058-3.166-.016-6.334-.016-9.5Z" transform="translate(-196.567 -144.32)"/><path class="a" d="M1074.984,537.634a2.958,2.958,0,1,1-2.942,3.011A3.013,3.013,0,0,1,1074.984,537.634Z" transform="translate(-196.619 -125.437)"/><path class="a" d="M801.851,688.625a3.083,3.083,0,0,1-3.035,2.944,3,3,0,1,1,.1-5.994A3.083,3.083,0,0,1,801.851,688.625Z" transform="translate(-24.949 -217.397)"/><path class="a" d="M972.52,582.451a3.042,3.042,0,0,1-2.977,3,2.992,2.992,0,0,1-3-2.959,3.061,3.061,0,0,1,2.955-3.029A3.125,3.125,0,0,1,972.52,582.451Z" transform="translate(-131.045 -151.438)"/></g></svg>