<svg xmlns="http://www.w3.org/2000/svg" width="138.342" height="143.402" viewBox="0 0 138.342 143.402"><defs><style>.a{fill:#676795;}</style></defs><g transform="translate(-712.885 -284)"><path class="a" d="M785.75,284c1.818.793,3.626,1.613,5.462,2.36a4.09,4.09,0,0,0,1.5.175q19.953.013,39.906.008c2.856,0,3.792.927,3.8,3.758,0,3.453.012,6.907,0,10.36-.01,2.348-1.07,3.4-3.43,3.431-1.769.02-3.539,0-5.512,0v1.564c0,4.62.045,9.241-.032,13.86a9.331,9.331,0,0,1-.71,3.355c-1.381,3.31-2.919,6.554-4.342,9.847a5.851,5.851,0,0,0-.463,2.14c-.055,2.519-.009,5.04-.026,7.559-.013,1.939-1.109,3.176-2.772,3.186a2.717,2.717,0,0,1-2.78-3.153c.865-6.576-1.2-12.38-4.384-17.928a12.272,12.272,0,0,1-1.536-6.693c.123-4.243.035-8.492.031-12.739,0-.272-.035-.543-.066-1h-1.678c-4.574,0-9.148.022-13.722-.017a2.935,2.935,0,0,0-2.452.967,20.879,20.879,0,0,1-2.4,1.9,22.948,22.948,0,0,0-3.144,2.663q-17.136,20.066-34.168,40.221a3.8,3.8,0,0,0-.839,2.1,19.26,19.26,0,0,1-4.332,11.154,2.607,2.607,0,0,0-.468,1.871c2.776,14.747,5.626,29.48,8.393,44.229a27,27,0,0,1,.181,4.739c.024,3.22-.065,6.442.036,9.659a3.817,3.817,0,0,1-1.979,3.823H714.878a3.761,3.761,0,0,1-1.991-3.806c.094-4.2.023-8.4.039-12.595a13.376,13.376,0,0,1,.175-2.083c2.348-14.489,4.719-28.975,7.022-43.471a2.987,2.987,0,0,0-.62-2.091c-4.6-5.638-5.907-11.916-3.331-18.722,2.552-6.743,7.659-10.579,14.731-11.876a3.817,3.817,0,0,0,1.91-.915q19.313-19.085,38.555-38.242a5.035,5.035,0,0,0,1.02-1.617,12.4,12.4,0,0,1,8.953-7.708,7.253,7.253,0,0,0,.768-.277Zm-49.3,85.6v1.371q0,5.67,0,11.341c0,2.3-1,3.605-2.762,3.63-1.8.024-2.836-1.318-2.839-3.7q0-2.52,0-5.04v-7.582l-5.438-1.6-6.377,39.247h30.514L742,367.767Zm35.933-68.912L740.019,333.8a18.624,18.624,0,0,1,10.512,10.03l30.23-35.579A12.9,12.9,0,0,1,772.381,300.684ZM733.457,338.25a12.908,12.908,0,1,0,12.893,12.776A12.939,12.939,0,0,0,733.457,338.25Zm-14.842,74.8v8.65h31.476v-8.65ZM830.747,292.2H795.812c.173,2.066.341,4.089.518,6.2h34.416Zm-40.123,4.077a6.69,6.69,0,1,0-6.632,6.757A6.772,6.772,0,0,0,790.624,296.275Zm25.438,7.9v1.569c0,3.678.223,7.373-.063,11.029-.283,3.617,1.636,6.318,3.041,9.641.684-1.526,1.157-2.783,1.793-3.95a9.591,9.591,0,0,0,1.058-4.957c-.074-3.956-.023-7.914-.023-11.871v-1.462Z" transform="translate(0)"/><path class="a" d="M987.871,608.253c-1.791-.871-2.135-2.324-1.916-4.188q2.61-22.16,5.131-44.33c.011-.092,0-.185,0-.5H985.7c-.98,0-1.96.012-2.94,0-1.919-.03-3.143-1.144-3.126-2.824s1.244-2.763,3.185-2.769c4.947-.015,9.895-.005,14.842-.005h1.707V552.07c0-4.48-.008-8.96,0-13.44.006-2.3,1.03-3.386,3.31-3.4q8.751-.044,17.5,0c2.294.012,3.28,1.072,3.285,3.4.01,4.433,0,8.867,0,13.3v1.7h1.584c5.041,0,10.082-.02,15.122.01,2.277.014,3.668,1.917,2.851,3.842a2.764,2.764,0,0,1-2.772,1.75q-3.5-.005-7,0h-1.526c.367,3.3.708,6.435,1.068,9.573q1.77,15.427,3.552,30.852c.182,1.575.324,3.156.561,4.723a3.249,3.249,0,0,1-1.977,3.867Zm43.186-5.654-4.984-43.278H996.786c-1.663,14.452-3.318,28.83-4.98,43.278Zm-26.039-49.052h12.761V540.925h-12.761Z" transform="translate(-192.036 -180.851)"/><path class="a" d="M782.644,675.793a2.785,2.785,0,1,1-2.8-2.732A2.822,2.822,0,0,1,782.644,675.793Z" transform="translate(-46.21 -280.092)"/><path class="a" d="M772.82,501.648a8.608,8.608,0,1,1-8.547-8.672A8.611,8.611,0,0,1,772.82,501.648Zm-8.6,2.93a2.948,2.948,0,0,0,3-2.992,3,3,0,1,0-6,0A2.95,2.95,0,0,0,764.216,504.578Z" transform="translate(-30.754 -150.445)"/></g></svg>