<svg xmlns="http://www.w3.org/2000/svg" width="150" height="150" viewBox="0 0 150 150"><defs><style>.a{fill:#676795;}</style></defs><g transform="translate(-704 -284)"><path class="a" d="M704,579.786a3.454,3.454,0,0,1,3.279-1.432c6.1.046,12.2.02,18.306.02h1.825c0-2.375-.031-4.651.006-6.926a19.381,19.381,0,0,1,4.745-12.46,20.144,20.144,0,0,1,9.271-6.146c1.744-.583,3.474-1.207,5.37-1.868a14.356,14.356,0,0,1-5.068-8.015,26.344,26.344,0,0,1,.131-11.9,14.6,14.6,0,0,1,28.644,3.479,50.646,50.646,0,0,1-.149,7.163,14.371,14.371,0,0,1-5.289,9.259c2.157.764,4.155,1.431,6.124,2.177a19.336,19.336,0,0,1,12.569,13.8,37.382,37.382,0,0,1,.716,6.809c.1,1.455.019,2.922.019,4.5a11.37,11.37,0,0,0,1.169.125c4.687.008,9.374.032,14.059-.028a2.529,2.529,0,0,0,1.712-.755,20.553,20.553,0,0,1,9.326-6.318c1.784-.6,3.555-1.245,5.869-2.059a9.717,9.717,0,0,1-1.379-.9,13.663,13.663,0,0,1-4.366-9.613,40.2,40.2,0,0,1,.353-8.452,14.546,14.546,0,0,1,28.737,2.072,43.9,43.9,0,0,1-.181,8.176c-.449,3.5-2.376,6.338-5.2,8.814,1.678.6,3.155,1.155,4.654,1.645,8.155,2.67,13.115,8.118,14.549,16.655a1.428,1.428,0,0,0,.2.382v13.184H704Zm94.285,3.166H708.52v13.7h88.349C796.981,592,796.434,587.383,798.285,582.952Zm2.807,13.676h48.452c0-2.516.152-4.916-.03-7.291-.425-5.536-2.929-10.073-7.93-12.506-5.124-2.493-10.419-4.916-16.432-4.372-1.594.144-3.286-.179-4.787.239a90.47,90.47,0,0,0-9.242,3.2,14.27,14.27,0,0,0-9.245,10.718C801.225,589.825,801.335,593.188,801.092,596.628ZM767,556.437c-.3.484-.557.891-.8,1.311q-3.869,6.714-7.732,13.43c-.584,1.014-1.08,2.145-2.509,2.157s-1.957-1.073-2.543-2.1c-1.109-1.948-2.241-3.883-3.361-5.824-1.726-2.991-3.451-5.982-5.159-8.946-6.66,1.6-11.309,5.737-12.55,11.786-.664,3.238-.5,6.646-.717,10.03h48.259C780.947,567.576,778.5,559.62,767,556.437Zm-.763-19.138-.123-.01c0-.829.017-1.658,0-2.486a10.162,10.162,0,0,0-9.763-9.93,10.021,10.021,0,0,0-10.486,8.944,35.419,35.419,0,0,0,.013,7,10.139,10.139,0,0,0,19.939.976A36.955,36.955,0,0,0,766.235,537.3Zm48.941,18.3.11.006c0,.878-.027,1.756,0,2.633A10.183,10.183,0,0,0,824.456,568a9.964,9.964,0,0,0,10.755-7.532,31.432,31.432,0,0,0,.373-7.409,10.144,10.144,0,0,0-20.069-1.818A31.485,31.485,0,0,0,815.176,555.6Zm-52.326-.919a36.816,36.816,0,0,0-13.818.062l6.894,11.951Z" transform="translate(0 -167.173)"/><path class="a" d="M704,312.418c.776-.812,1.53-1.664,2.849-1.233a2.271,2.271,0,0,1,1.577,2.5q-.022,7.175,0,14.35c.009,6.381,4.047,10.41,10.434,10.421,1.659,0,3.321.049,4.978-.016a3.542,3.542,0,0,1,2.849,1.175c3.285,3.341,6.619,6.635,9.936,9.944a3.7,3.7,0,0,0,.376.262,10.931,10.931,0,0,0,.124-1.124c.01-2.44,0-4.881.008-7.322.009-2.178.727-2.914,2.881-2.917q10.4-.012,20.793,0h1.787v-1.662q0-11.055,0-22.111c.013-8.655,5.937-14.622,14.6-14.691,4-.032,8-.006,12.007-.006h1.556c1.332-5.613-3.054-11.194-8.946-11.545-.535-.032-1.073-.023-1.61-.023q-30.458,0-60.916,0c-6.991,0-10.856,3.875-10.858,10.875,0,.976-.035,1.954.008,2.928.057,1.273-.193,2.4-1.546,2.821s-2.224-.321-2.883-1.413v-7.617c.105-.311.237-.616.313-.934a12.937,12.937,0,0,1,5.52-8.312A44.156,44.156,0,0,1,716.012,284h67.383c1.958.815,4.093,1.359,5.837,2.5a13.38,13.38,0,0,1,6.168,11.2c.029.679,0,1.36,0,2.2.6.029,1.111.074,1.626.075,3.173.007,6.346-.014,9.518.012,1.769.015,2.674.8,2.662,2.22-.012,1.394-.954,2.211-2.694,2.214-9.664.014-19.329-.013-28.994.03a13.625,13.625,0,0,0-4.027.533A9.386,9.386,0,0,0,767.021,314q-.06,15.375,0,30.751a9.485,9.485,0,0,0,9.548,9.616c5.71.073,11.422.043,17.132,0a4.159,4.159,0,0,1,3.238,1.349c2.964,3.041,5.99,6.021,9,9.021.33.329.682.635,1.21,1.125.042-.71.091-1.171.094-1.633.008-2.05,0-4.1,0-6.15,0-3.175.508-3.693,3.625-3.693h20.208c2.831,0,5.662.017,8.493,0,5.939-.045,9.995-4.107,10.007-10.069q.031-14.936,0-29.872c-.014-5.873-4.056-9.954-9.929-9.993-7.077-.047-14.155-.008-21.233-.021a5.855,5.855,0,0,1-1.729-.193,1.977,1.977,0,0,1-1.431-2.267,1.952,1.952,0,0,1,1.728-1.893,9.562,9.562,0,0,1,1.6-.084q10.031-.007,20.061,0c8.3,0,13.188,3.839,15.191,11.906.021.086.109.156.166.233V346.7c-.34,1.109-.606,2.247-1.032,3.321-2.171,5.47-7.2,8.786-13.446,8.81-8.641.033-17.282.008-25.923.009H811.71v1.75c0,3.271-.009,6.542,0,9.813.005,1.262-.036,2.491-1.442,3.067-1.354.555-2.2-.289-3.049-1.141-4.171-4.183-8.326-8.383-12.555-12.506a3.64,3.64,0,0,0-2.266-.94c-4.88-.084-9.768-.191-14.644-.011a14.228,14.228,0,0,1-15.176-15.037,8.264,8.264,0,0,0-.038-.838H741.55c0,3.647.011,7.247-.006,10.847-.006,1.335.353,2.873-1.26,3.591-1.667.741-2.6-.517-3.6-1.519-3.931-3.94-7.892-7.85-11.784-11.828a3.688,3.688,0,0,0-2.92-1.244,31.015,31.015,0,0,1-6.987-.378c-5.7-1.291-9.205-5.005-10.676-10.651-.083-.317-.209-.623-.316-.934Z"/></g></svg>