<svg xmlns="http://www.w3.org/2000/svg" width="149.065" height="150.094" viewBox="0 0 149.065 150.094"><defs><style>.a{fill:#676795;}</style></defs><g transform="translate(-757.129 -335.712)"><path class="a" d="M886.813,485.805h-4.4v-4.267H880.33q-44.688,0-89.377-.033c-4.286-.009-8.65.73-12.913-.961v5.261h-4.4c0-4.3-.026-8.6,0-12.9a8.334,8.334,0,0,1,3.824-7.341,26.732,26.732,0,0,1,4.319-1.864c-1.047-7.608-.135-15.4-.58-23.3-.4.229-.644.373-.891.511a10.573,10.573,0,0,1-10.888.118c-4.025-2.229-5.715-5.839-5.722-10.324q-.02-12.53,0-25.061v-1.546c-4.888-1.3-6.551-3.156-6.557-7.381q-.03-21.4,0-42.794c.007-4.4,2.39-6.847,6.764-7.233a2.188,2.188,0,0,0,1.525-.949c3.548-6.772,9.186-10.019,16.747-10.025q32.175-.025,64.349,0c7.563.006,13.193,3.271,16.745,10.034a2.182,2.182,0,0,0,1.534.926c1.5.13,3.028-.007,4.54.068,4.036.2,6.622,2.853,6.628,6.88q.036,21.69,0,43.38c-.007,4.141-2.718,6.841-6.886,6.958-1.367.039-2.741.079-4.1-.015a1.687,1.687,0,0,0-1.886,1.169,14.577,14.577,0,0,1-5.905,6.725c-2.338,1.337-4.906,2.272-7.5,3.442v5.157c7.886,0,15.654-.019,23.421.006,7.006.023,11.635,4.677,11.667,11.693.016,3.566,0,7.132,0,10.7v3.46c2.42,0,4.658-.032,6.9.012a24.765,24.765,0,0,1,3.939.285,13.255,13.255,0,0,1,10.532,11.656c.448,6.307-3.01,11.761-8.777,13.689a1.85,1.85,0,0,0-1.484,1.824,8.465,8.465,0,0,1-6.21,7.359c-.877.251-1.793.361-2.87.57Zm-81.24-104.47v-1.649q0-12.529,0-25.058a13.9,13.9,0,0,0-5.092-11.341,12.557,12.557,0,0,0-7.235-2.965c.385.42.54.594.7.762a16.823,16.823,0,0,1,4.947,11.86q.056,22.419,0,44.839a16.926,16.926,0,0,1-4.967,11.857,9.438,9.438,0,0,0-.6.794,4.618,4.618,0,0,0,.573.091q21.251,0,42.5-.01a13.249,13.249,0,0,0,8.181-2.738,13.9,13.9,0,0,0,5.563-11.7c.018-8.352.005-16.705.005-25.058v-1.639h4.326c0,9.719.137,19.34-.061,28.954a16.4,16.4,0,0,1-5.234,11.3,11.358,11.358,0,0,0-.717.931c1.16-.268,2.032-.391,2.853-.67,5.974-2.03,9.274-6.76,9.286-13.417q.038-21.1-.011-42.2a15.847,15.847,0,0,0-.446-4.055c-1.719-6.364-6.665-10.084-13.372-10.1q-20.811-.033-41.623-.007H803.78c.283.351.38.5.5.617a18.713,18.713,0,0,1,5.7,14.247c-.053,8.254-.014,16.51-.014,24.764v1.586Zm74.81,64.973c0-4.875.012-9.554,0-14.232-.015-4.5-2.706-7.214-7.208-7.216q-44.18-.017-88.36,0c-.351,0-.7.074-1.218.133,1.862,2.576,2.175,5.337,2.137,8.227-.066,4.932-.02,9.865-.015,14.8,0,.458.047.915.09,1.688,3.792-3.388,8.169-3.417,12.607-3.412q39.931.049,79.861.016ZM804.526,468.33H806.5q42.641,0,85.281,0c.829,0,1.662-.031,2.486-.114a8.749,8.749,0,0,0,7.494-7.662c.463-5.756-3.462-9.833-9.563-9.837q-43.153-.022-86.307,0c-.4,0-.81.06-1.3.1C809.025,456.9,808.414,463.053,804.526,468.33Zm-34.45-121.6c3.72,0,7.229-.04,10.737.01,4.444.064,7.129,2.733,7.137,7.157q.041,21.468,0,42.937c-.01,4.392-2.778,7.094-7.184,7.139-3.176.032-6.352,0-9.527.012a9.94,9.94,0,0,0-1.063.114l-.22.369a33.77,33.77,0,0,0,3.737,3.589,12.422,12.422,0,0,0,13.173,1.2c5.054-2.39,7.615-6.587,7.633-12.176.046-14.508.074-29.016-.009-43.524-.043-7.42-5.058-12.677-12.447-13.382A12.807,12.807,0,0,0,770.076,346.73Zm.156,52.844q4.893,0,9.793,0c2.92,0,3.536-.613,3.536-3.518q0-20.737-.007-41.475a3.9,3.9,0,0,0-.218-1.857c-.355-.6-1.042-1.411-1.609-1.429-3.839-.125-7.684-.066-11.495-.066Zm-2.082,23.116c3-2.218,6.2-2.258,9.452-2.254q32.892.041,65.783.014h1.7v-5.507h-1.826q-23,0-46,0c-5.469,0-10.94.028-16.408-.041A16.962,16.962,0,0,1,769,409.909a8.5,8.5,0,0,0-.853-.62Zm22.189,54.449h1.639q46.959,0,93.918,0a13.35,13.35,0,0,0,2.19-.12,4.031,4.031,0,0,0,3.33-4.355H791.4Zm74.6-77.565c1.117,0,2.179,0,3.242,0,2.772,0,3.4-.613,3.4-3.322q0-20.884,0-41.769c0-.488.139-1.074-.078-1.442-.39-.663-.942-1.618-1.532-1.7a36.351,36.351,0,0,0-5.03-.081ZM803.3,459.545a8.822,8.822,0,0,0-8.716-8.814,8.944,8.944,0,0,0-8.857,8.87,8.841,8.841,0,0,0,8.84,8.7A8.749,8.749,0,0,0,803.3,459.545Zm-37.362-84.21q0-10.4-.008-20.795a6.924,6.924,0,0,0-.2-1.879,2.127,2.127,0,0,0-4.114.291,9.711,9.711,0,0,0-.073,1.606q0,20.795,0,41.589c0,2.3.652,3.337,2.111,3.387,1.507.052,2.283-1.1,2.284-3.406Q765.945,385.732,765.943,375.335Zm15.352,56.109a6.616,6.616,0,0,0-6.631-6.578,6.589,6.589,0,0,0,.058,13.178A6.55,6.55,0,0,0,781.295,431.445Zm.952,45.656a4.367,4.367,0,1,0-4.2-4.542A4.364,4.364,0,0,0,782.247,477.1Z"/><path class="a" d="M1015.047,403.513v4.16h-4.266v-4.16Z" transform="translate(-160.542 -42.913)"/><path class="a" d="M893.544,476.709H889.3v-4.217h4.243Z" transform="translate(-83.655 -86.571)"/><path class="a" d="M889.865,589.273v4.217H859.189v-4.217Z" transform="translate(-64.596 -160.485)"/><path class="a" d="M968.246,593.51H955.2v-4.216h13.045Z" transform="translate(-125.365 -160.498)"/><path class="a" d="M1006.892,593.479h-3.655V589.21h3.655Z" transform="translate(-155.768 -160.445)"/><path class="a" d="M950.613,661.231v4.224h-37.22v-4.224Z" transform="translate(-98.903 -206.028)"/><path class="a" d="M1027.343,661.234H1038.1v4.226h-10.756Z" transform="translate(-171.025 -206.03)"/><path class="a" d="M1073.393,665.5h-4.236v-4.214h4.236Z" transform="translate(-197.49 -206.063)"/><path class="a" d="M809.674,415.492v4.155h-4.261v-4.155Z" transform="translate(-30.56 -50.494)"/><path class="a" d="M809.619,443.656h-4.162v-4.211h4.162Z" transform="translate(-30.588 -65.655)"/><path class="a" d="M809.586,463.494v4.188h-4.24v-4.188Z" transform="translate(-30.518 -80.876)"/><path class="a" d="M805.427,487.409h4.188V491.6h-4.188Z" transform="translate(-30.569 -96.012)"/><path class="a" d="M805.46,391.45h4.207v4.2H805.46Z" transform="translate(-30.59 -35.278)"/><path class="a" d="M853.328,667.293h4.242v4.218h-4.242Z" transform="translate(-60.887 -209.865)"/><path class="a" d="M803.519,590.778v4.2H799.29v-4.2Z" transform="translate(-26.685 -161.437)"/></g></svg>