<svg xmlns="http://www.w3.org/2000/svg" width="150" height="149.999" viewBox="0 0 150 149.999"><defs><style>.a{fill:#676795;}</style></defs><g transform="translate(-768 -348)"><path class="a" d="M918,425.343v2.637c-.105.313-.229.621-.312.939-1.338,5.085-4.44,8.546-9.558,9.89a12.4,12.4,0,0,1-13.146-3.934c-3.049-3.434-4.305-7.324-2.49-12,3.032-7.81,5.776-15.731,8.639-23.607.163-.447.3-.9.474-1.417H885.238v48.281c2.628,0,5.158-.055,7.684.011a11.968,11.968,0,0,1,11.434,11.667c.008,1.563-.715,2.415-2.251,2.466-1.8.06-3.612.052-5.416,0a2,2,0,0,1-2.209-2.159,2.055,2.055,0,0,1,2.209-2.194c.914-.054,1.835-.01,2.783-.01A6.934,6.934,0,0,0,893,450.561q-14.274-.111-28.551,0a6.85,6.85,0,0,0-6.436,5.349h1.752q12.153,0,24.306,0c2.056,0,2.966.675,2.991,2.171.025,1.522-.867,2.206-2.911,2.22-1.1.007-2.191,0-3.356,0,0,5.034.037,9.815-.036,14.594a3.7,3.7,0,0,1-.806,2.367c-6.9,6.952-13.88,13.834-20.837,20.734H788.508c-3.746-1.315-4.278-4.374-3.919-7.814-2.562-.18-4.989.373-6.875-1.59-1.845-1.92-1.325-4.341-1.518-6.72-.546,0-.978-.038-1.4.006-3.165.332-5.493-.814-6.794-3.8V351.809A7.1,7.1,0,0,1,771.809,348h88.476c3.972,1.374,4.2,4.658,3.942,8.2,2.411.169,4.795-.32,6.685,1.457s1.6,4.142,1.656,6.466h1.776c4.7,0,6.448,1.746,6.448,6.445q0,4.809,0,9.611c7.358,1.523,11.717,5.9,13.326,13.194q4.734,0,9.488,0c2.26,0,2.773.362,3.549,2.494,1.868,5.129,3.714,10.264,5.6,15.387C914.483,415.959,916.25,420.648,918,425.343Zm-62.18-27.52c.215.636.359,1.093.523,1.543q4.547,12.5,9.082,25.011a6.543,6.543,0,0,1,.42,2.268c-.109,6.595-5.386,11.977-12.3,12.6a13.164,13.164,0,0,1-13.737-10.312,7.748,7.748,0,0,1-.063-3.871c3.513-9.974,7.175-19.9,10.784-29.835a2.67,2.67,0,0,1,2.82-1.862c2.832.014,5.664,0,8.5,0h1.5c1.577-7.33,5.982-11.611,13.052-13.182,0-3.353-.07-6.575.032-9.793.046-1.479-.409-1.912-1.9-1.91q-41.891.06-83.782,0c-1.443,0-1.825.469-1.823,1.847q.042,60.712-.006,121.425c0,1.513.5,1.875,1.945,1.873q31.785-.063,63.568-.029h1.685v-1.767c0-4.3-.008-8.593,0-12.889.01-3.781,1.99-5.74,5.807-5.752,3.222-.01,6.445,0,9.667,0h4.691V460.3h-1.7q-9.227,0-18.455,0c-2.554,0-3.294-.87-2.985-3.441a11.936,11.936,0,0,1,12.038-10.735c2.329-.018,4.658,0,7.023,0v-48.3Zm-71.266,87.659V483.5q0-56.609,0-113.218c0-4.29,1.873-6.154,6.153-6.154h77.264c.527-3.327.411-3.473-2.6-3.473H783.206c-.391,0-.782.022-1.171,0-1-.066-1.411.386-1.392,1.387.036,1.9.01,3.808.01,5.712,0,5.371.009,10.741-.008,16.111,0,1.543-.786,2.419-2.1,2.465-1.448.051-2.283-.924-2.286-2.757q-.016-10.472,0-20.944c0-4.529,1.853-6.364,6.425-6.364h77.043c.053-.394.108-.627.111-.86.053-3.646.038-2.993-2.8-2.995q-41.23-.019-82.46-.007c-2.181,0-2.182,0-2.182,2.143q0,60.417,0,120.834a3.012,3.012,0,0,0,.037,1.158c.168.37.539.858.873.9a23.486,23.486,0,0,0,2.952.043v-2.09q0-39.4,0-78.8a9.469,9.469,0,0,1,.071-1.751,1.99,1.99,0,0,1,2.314-1.743,1.9,1.9,0,0,1,1.981,1.927c.039.534.025,1.073.025,1.61q0,42.915.014,85.829c0,3.527-.829,3.361,3.532,3.228C784.239,485.684,784.28,485.64,784.553,485.483Zm96.085-39.46V397.9h-3.8v48.118Zm-27.8-43.4-.352.042-7.674,21.127h15.728Zm59.806,21.21-7.884-21.668-7.874,21.668ZM889.4,393.316c-.547-4.878-5.5-8.858-10.855-8.777-5.23.079-10.162,4.2-10.484,8.777Zm-45.182,35.019a8.751,8.751,0,0,0,8.721,6.57c3.988-.18,7.459-2.964,8.126-6.57Zm52.147-.028a8.6,8.6,0,0,0,8.61,6.6c4.022-.144,7.737-3.145,8.139-6.6ZM860.518,489.8l12.475-12.187c-3.947,0-7.782-.024-11.614.048-.294.005-.817.684-.823,1.057C860.494,482.47,860.518,486.226,860.518,489.8Z" transform="translate(0 0)"/><path class="a" d="M874.446,453.4q-8.709,0-17.418-.008c-.629,0-1.451.115-1.841-.221a3.922,3.922,0,0,1-1.351-2.152,1.744,1.744,0,0,1,1.6-1.943,7.987,7.987,0,0,1,1.313-.069q17.784-.005,35.569,0a7.341,7.341,0,0,1,1.312.071,1.732,1.732,0,0,1,1.581,1.952,3.971,3.971,0,0,1-1.357,2.143c-.391.335-1.213.215-1.842.217Q883.228,453.407,874.446,453.4Z" transform="translate(-52.296 -61.548)"/><path class="a" d="M874.286,627.849c-5.952,0-11.9.011-17.856-.006-1.705-.005-2.562-.853-2.457-2.348a1.926,1.926,0,0,1,1.784-1.978,9.622,9.622,0,0,1,1.313-.058q17.271-.016,34.542-.027c.293,0,.586-.012.878.009a2.168,2.168,0,0,1,2.282,2.307,2.08,2.08,0,0,1-2.336,2.065c-4.488.027-8.977.012-13.466.013h-4.683Z" transform="translate(-52.384 -167.84)"/><path class="a" d="M873.992,667.161c5.857,0,11.715-.04,17.571.046a3.371,3.371,0,0,1,2.351,1.03,2.072,2.072,0,0,1-1.55,3.268,6.966,6.966,0,0,1-1.022.048q-17.279.019-34.559.029c-1.926,0-2.8-.692-2.825-2.179-.025-1.389.757-2.185,2.315-2.2,3.807-.031,7.615-.013,11.422-.014h6.3Z" transform="translate(-52.38 -194.483)"/><path class="a" d="M871.146,492.612q7.249,0,14.5,0c1.8,0,2.683.7,2.731,2.112.05,1.47-.892,2.273-2.75,2.275q-14.645.02-29.289.014c-1.892,0-2.958-1.1-2.615-2.654a2.164,2.164,0,0,1,2.489-1.744c4.979.028,9.958.011,14.937.011Z" transform="translate(-52.197 -88.122)"/><path class="a" d="M868.789,584.22c-4.145,0-8.289.007-12.434,0-1.752,0-2.683-.772-2.686-2.169s.938-2.213,2.674-2.216q12.507-.023,25.015-.013c1.652,0,2.477.769,2.485,2.2.007,1.454-.782,2.174-2.473,2.179-4.194.014-8.387,0-12.581,0Z" transform="translate(-52.205 -141.263)"/><path class="a" d="M868.437,540.632q-6.005,0-12.01,0c-1.83,0-2.805-.819-2.755-2.267.048-1.393.974-2.12,2.752-2.122q12.156-.013,24.313-.01c1.748,0,2.663.765,2.671,2.189s-.909,2.195-2.669,2.2c-4.1.011-8.2,0-12.3,0Z" transform="translate(-52.205 -114.702)"/></g></svg>