<svg xmlns="http://www.w3.org/2000/svg" width="167" height="128.58" viewBox="0 0 167 128.58"><defs><style>.a{fill:#676795;}</style></defs><path class="a" d="M1291,690.543v-9.786a5.419,5.419,0,0,0,.645.075q16.214.006,32.429,0a8.763,8.763,0,0,0,1.156-.163c0-3.076-.056-6.058.027-9.036.034-1.217-.272-1.715-1.545-2.1-16.506-4.984-27.085-15.782-31.5-32.5-.535-2.027-.816-4.121-1.215-6.183v-7.829c.429-2.226.785-4.469,1.3-6.676,4.249-18.246,20.872-32.474,39.511-33.425,8.618-.44,17.271-.183,25.909-.241.629,0,1.259,0,1.953,0V571.682h-8.119v-9.638h45.906v9.663h-8.217v10.969h2.039c7.444,0,14.887-.027,22.331.005a44.129,44.129,0,0,1,42.872,32.878c.689,2.545,1.019,5.187,1.515,7.785v7.5a6.863,6.863,0,0,0-.3,1.062,43.421,43.421,0,0,1-11.079,24.517,43.983,43.983,0,0,1-21.63,13.252c-.461.125-1.157.631-1.166.976-.088,3.348-.053,6.7-.053,10.185h1.968c5.7,0,11.407.01,17.111,0,5.05-.012,10.1-.051,15.149-.078v9.786c-.595.027-1.19.078-1.785.078q-81.714.005-163.429,0C1292.19,690.621,1291.595,690.57,1291,690.543Zm88.276-98.081V571.81h-9.75v20.7h-13.093v68.754h1.7q27.558,0,55.117-.016a42.287,42.287,0,0,0,5.521-.362c19.573-2.615,33.071-22.183,28.614-41.433-3.731-16.114-17.387-26.931-34.129-26.986-10.6-.034-21.2-.006-31.8-.007Zm-54.1,1.634c-12.16,3.264-25.258,16.11-24.339,34.705.7,14.184,12.791,29.465,24.339,30.776Zm31.235,86.629h57.49v-9.52h-57.49Zm-21.27-49.095v9.746h11.3V631.63Zm-.039-29.646h11.344v-9.428H1335.1Zm0,19.654h11.333v-9.666H1335.1Zm.014,29.737v9.749h11.325v-9.749Zm11.364,19.792H1335.1V680.7h11.374Z" transform="translate(-1291 -562.044)"/></svg>