<svg xmlns="http://www.w3.org/2000/svg" width="183.191" height="158.479" viewBox="0 0 183.191 158.479"><defs><style>.a{fill:#676795;}</style></defs><g transform="translate(-804 -404.949)"><path class="a" d="M804,451.967a65.106,65.106,0,0,1,1.808-7.057c3.475-9.283,10.593-14.356,20.137-15.012,10.8-.743,21.679-.362,32.524-.468.767-.008,1.534,0,2.5,0,.037-.792.088-1.477.1-2.162.048-4.17-.127-8.356.179-12.507a10.3,10.3,0,0,1,10.3-9.707c15.259-.139,30.519-.089,45.78-.1,1.011,0,2.028.018,3.032.118a10.564,10.564,0,0,1,9.616,9.854c.2,3.984.116,7.983.155,11.975.008.771,0,1.542,0,2.582h2.191c9.3,0,18.6-.03,27.9.011,5.178.023,10.2.82,14.812,3.386,7.995,4.452,11.45,11.6,12.086,20.4.073,1.009.075,2.025.075,3.038q.005,40.144.009,80.288c0,5.513-.826,10.831-3.819,15.571-4.331,6.859-10.87,10.115-18.723,10.977a68.944,68.944,0,0,1-7.5.262q-62.682.022-125.363,0a32.947,32.947,0,0,1-13.124-2.192c-8.287-3.527-12.867-9.882-14.277-18.667-.083-.513-.254-1.012-.385-1.517ZM895.52,555.85q31.922,0,63.845,0c1.371,0,2.749.019,4.11-.117,6.889-.69,12.487-3.45,14.823-10.415a28.287,28.287,0,0,0,1.306-8.768c.1-26.7.057-53.407.053-80.11,0-1.012-.005-2.03-.091-3.037-.579-6.777-3.231-12.323-9.994-14.733a28.8,28.8,0,0,0-9.436-1.584q-64.56-.151-129.12-.053a31.28,31.28,0,0,0-4.809.342c-6.326.989-11.319,3.949-13.359,10.315a29.506,29.506,0,0,0-1.267,8.779c-.093,26.643-.061,53.287-.039,79.931a33.715,33.715,0,0,0,.376,5.339c1.077,6.65,4.643,11.318,11.292,13.079a32.445,32.445,0,0,0,8.108,1C852.718,555.885,874.119,555.85,895.52,555.85Zm27.105-126.494c0-4.038.007-8.013,0-11.988-.009-4.237-.91-5.14-5.136-5.141q-21.887-.005-43.774,0c-.477,0-.954,0-1.429.026-2.38.14-3.5,1.169-3.606,3.536-.1,2.258-.05,4.524-.057,6.787-.006,2.237,0,4.475,0,6.781Z" transform="translate(0)"/><path class="a" d="M916.34,548.722H903.656c-.835,0-1.67.017-2.5-.005-3.352-.09-5.683-2.261-5.715-5.589q-.106-11.087,0-22.176c.032-3.36,2.291-5.515,5.708-5.565,4.351-.064,8.7-.019,13.057-.021h2.137v-2.113c0-4.232-.039-8.466.014-12.7.05-3.984,2.3-6.2,6.256-6.208q10.463-.032,20.927,0c3.943.011,6.19,2.235,6.238,6.224.051,4.232.012,8.465.013,12.7V515.4H952.6c4.173,0,8.348-.038,12.52.023a5.3,5.3,0,0,1,5.551,5.34q.128,11.265,0,22.532c-.037,3.206-2.412,5.371-5.694,5.406-4.352.047-8.705.014-13.057.015h-2.081c-.037.774-.092,1.407-.094,2.04-.008,4.232.038,8.466-.018,12.7-.054,4.077-2.29,6.268-6.381,6.285q-10.285.044-20.57,0c-4.184-.017-6.4-2.231-6.428-6.427C916.313,558.552,916.34,553.785,916.34,548.722Zm7.543-46.794v2.094c0,4.707.016,9.415-.006,14.123-.017,3.4-1.394,4.771-4.772,4.784-3.993.016-7.986,0-11.979,0h-4.048V541.2c5.494,0,10.851-.013,16.207,0,3.2.011,4.566,1.362,4.589,4.579.034,4.707.009,9.415.009,14.123v2.186h18.359v-2.044c0-4.707-.018-9.415.007-14.123.018-3.41,1.364-4.716,4.807-4.723,4.709-.01,9.417,0,14.125,0h1.863V522.9c-5.381,0-10.619.009-15.857,0-3.63-.008-4.98-1.332-5-4.936-.022-4.708,0-9.415-.011-14.123,0-.623-.074-1.245-.117-1.91Z" transform="translate(-37.469 -36.648)"/></g></svg>