<svg xmlns="http://www.w3.org/2000/svg" width="178.483" height="160.45" viewBox="0 0 178.483 160.45"><defs><style>.a{fill:#676795;}</style></defs><path class="a" d="M802,484.324c.853-2.5,1.4-5.16,2.622-7.464,2.522-4.761,6.732-7.54,11.891-8.943,9.735-2.649,19.473-5.289,29.186-8.014a5.044,5.044,0,0,0,2.45-1.675c6.29-8.127,12.355-16.432,18.8-24.43a21.5,21.5,0,0,1,16.756-8.01c5.282-.149,10.57-.047,15.856-.056h2.1v-2q0-9.933,0-19.866c0-3.2,1.789-5.287,4.492-5.3s4.554,2.1,4.565,5.251c.014,4.224,0,8.447,0,12.853h11.983c.813,0,1.627-.013,2.44,0,3.182.059,4.833,1.543,5.162,4.681.254,2.424.519,4.851.669,7.283a2.22,2.22,0,0,0,1.659,2.264c2.924,1.1,5.757,2.439,8.673,3.562a2.341,2.341,0,0,0,1.922-.285c1.991-1.5,3.867-3.157,5.805-4.731,2.683-2.179,4.875-2.068,7.363.423q5.419,5.424,10.779,10.907c2.5,2.546,2.565,4.713.263,7.517-1.8,2.2-3.624,4.377-5.248,6.337,1.449,3.593,2.77,6.992,4.22,10.334a2.353,2.353,0,0,0,1.591,1.15c2.528.346,5.08.522,7.623.762,3.187.3,4.812,2.024,4.828,5.227q.041,8.015,0,16.031c-.019,3.174-1.7,4.939-4.853,5.237-2.543.24-5.094.422-7.624.758a2.173,2.173,0,0,0-1.433,1.087c-1.349,2.947-2.543,5.965-3.885,8.916a1.739,1.739,0,0,0,.262,2.172c1.637,1.885,3.22,3.817,4.788,5.761,2.147,2.662,2.079,4.847-.283,7.244q-5.5,5.585-11.082,11.1c-2.4,2.369-4.625,2.463-7.245.341-1.986-1.608-3.9-3.3-5.928-4.858a2.135,2.135,0,0,0-1.766-.227c-2.968,1.149-5.863,2.49-8.844,3.6A2.094,2.094,0,0,0,931,531.39c-.169,2.49-.426,4.974-.684,7.457-.325,3.121-2,4.687-5.143,4.719-4.182.041-8.364.01-12.546.011H910.73c0,3.561.149,6.98-.075,10.373a7.094,7.094,0,0,1-1.625,3.826,3.652,3.652,0,0,1-4.483.822,4.425,4.425,0,0,1-2.866-4.2c-.025-4.182-.013-8.364-.014-12.546,0-8.245,0-16.49,0-24.955-.627-.033-1.179-.086-1.73-.087-9.816-.005-19.633.023-29.449-.036a1.824,1.824,0,0,0-2.055,1.518,23.623,23.623,0,0,1-44.744-.1c-.321-.939-.624-1.477-1.764-1.4a18.853,18.853,0,0,1-19.681-15.8,2.783,2.783,0,0,0-.245-.627Zm99.6-49.509c-5.472,0-10.755.067-16.036-.018a15.221,15.221,0,0,0-13.135,6.54c-5.964,7.94-12.059,15.781-18.03,23.715a8.574,8.574,0,0,1-4.922,3.28c-10.2,2.717-20.373,5.524-30.552,8.313-5.13,1.405-7.847,4.89-7.878,10.1q-.031,5.4,0,10.805c.049,6.593,4.74,10.725,11.543,10.027a24.166,24.166,0,0,1,7.841-14.64A23.244,23.244,0,0,1,846,486.947a22.71,22.71,0,0,1,13.712,4.339,23.724,23.724,0,0,1,9.891,16.3h32Zm69.747,40.73c-2.688-.271-5.329-.565-7.975-.8a5.055,5.055,0,0,1-4.921-4.342,42.077,42.077,0,0,0-5.272-12.622c-1.873-3.048-1.718-4.436.574-7.213,1.577-1.909,3.149-3.823,4.518-5.486l-6.346-6.261c.094-.056-.014-.008-.1.064-1.611,1.331-3.217,2.67-4.83,4-3.329,2.744-4.323,2.645-8.116.743a95.259,95.259,0,0,0-11.495-4.835c-3.85-1.333-4.753-2.152-5.095-6.2-.189-2.243-.435-4.482-.659-6.756H910.832v25.432a29.5,29.5,0,0,1,35.451,26.53A28.265,28.265,0,0,1,939,499.476c-7.574,8.344-17.107,11.253-28.173,9.3v25.615h10.657a2.062,2.062,0,0,0,.2-.506c.242-2.425.428-4.856.716-7.276.374-3.139,1.331-4.238,4.4-5.023a44,44,0,0,0,12.311-5.128c3.358-2.067,4.6-1.932,7.646.57,1.824,1.5,3.655,2.987,5.318,4.345l6.372-6.389c-1.6-1.944-3.3-4.007-5-6.059a4.8,4.8,0,0,1-.455-6.1,47.951,47.951,0,0,0,5.763-13.547c.713-2.71,2.045-3.671,4.833-3.938,2.577-.246,5.152-.521,7.747-.786ZM910.731,499.2c.407.156.67.284.948.359a20.242,20.242,0,1,0,.594-39.161c-1.122.287-1.637.685-1.577,1.963.12,2.547.035,5.1.035,7.657Zm-50.08,11.5a14.587,14.587,0,1,0-14.625,14.6A14.614,14.614,0,0,0,860.651,510.7Z" transform="translate(-802 -398.563)"/></svg>