<svg xmlns="http://www.w3.org/2000/svg" width="158.183" height="158.096" viewBox="0 0 158.183 158.096"><defs><style>.a{fill:#676795;}</style></defs><path class="a" d="M1401.606,548.864c0,6.528,0,12.845,0,19.161,0,3.122-.69,3.8-3.855,3.8H1288.086c-3.139,0-3.819-.683-3.819-3.835q0-8.609,0-17.218v-1.909h-1.815c-5.154,0-10.307.009-15.462,0-2.2-.006-3.122-.91-3.125-3.085-.01-11.213-.091-22.428.035-33.64.063-5.592,2.943-9.535,8.082-11.715q10.474-4.444,21.014-8.732a2.17,2.17,0,0,0,1.535-2.159,7.653,7.653,0,0,0-3.641-8.006c-4.766-3.325-7.34-8.415-8.63-14.081-6.029-1.461-8.413-3.758-8.334-8.021.074-3.961,2.623-6.646,7.389-7.631-1.065-2.15-2.017-4.314-3.171-6.364a16.076,16.076,0,0,1,9.257-23.58c1.442-.411,2.645-1.718,3.913-2.671a25.753,25.753,0,0,1,15.984-5.443,18.944,18.944,0,0,1,6.58.917c4.829,1.868,9.848,3.611,14.153,6.391,7.58,4.894,10.046,12.389,8.7,21.078h11.22a7.339,7.339,0,0,0-.108-.942,16.023,16.023,0,0,1,10.521-19.168,17.206,17.206,0,0,0,4.238-2.735,25.9,25.9,0,0,1,16.113-5.54,19.047,19.047,0,0,1,6.581.914c4.786,1.834,9.692,3.625,14.043,6.268,8.209,4.986,11.3,15.5,7.789,24.5-.827,2.12-1.761,4.2-2.7,6.412a8.176,8.176,0,0,1,6.023,3.25,7.61,7.61,0,0,1,1.406,5.111c-.258,3.986-2.966,6.389-8.221,7.186a23.228,23.228,0,0,1-4.973,10.485,53.9,53.9,0,0,1-6.213,5.652,2.231,2.231,0,0,0-1.071,2.056,37.771,37.771,0,0,1,0,4.3,1.432,1.432,0,0,0,1.091,1.623c6.868,2.824,13.708,5.715,20.569,8.557,6.261,2.594,8.97,6.608,8.971,13.391q0,15.943,0,31.886c0,2.729-.793,3.534-3.481,3.536C1412.96,548.867,1407.388,548.864,1401.606,548.864Zm-33.644-53.587a26.014,26.014,0,0,1-11.547,16.559,1.614,1.614,0,0,0-.691,1.085c-.069,1.957-.032,3.919-.032,5.885.508.157.91.292,1.317.406,11.751,3.278,23.515,6.51,35.248,9.851a12.171,12.171,0,0,1,9.1,10.045,39.714,39.714,0,0,1,.373,4.536h15.183v-1.7q0-14.271,0-28.541c0-4.582-1.486-6.818-5.689-8.575-7.537-3.15-15.06-6.335-22.621-9.424a3.254,3.254,0,0,1-2.327-3.5q.126-4.221,0-8.449c-.052-1.66.737-2.531,2.038-3.443a37.871,37.871,0,0,0,6.195-5.15,17.829,17.829,0,0,0,4.312-9.766c.341-2.347,1.115-2.966,3.489-2.978.638,0,1.278.034,1.912-.018a2.532,2.532,0,0,0,.027-5.062c-.846-.064-1.7.011-2.549-.034a2.414,2.414,0,0,1-2.593-2.608,20.9,20.9,0,0,1,.882-5.078c.64-2.013,1.683-3.9,2.43-5.879a15.349,15.349,0,0,0-7.426-19.247c-2.836-1.438-5.739-2.772-8.7-3.928a20.079,20.079,0,0,0-17.8,1.263c-3.726,2.077-6.932,4.906-10.936,6.692-3.861,1.723-5.408,5.613-5.02,9.891.351,3.862,1.842,7.038,6.051,8.16a7.941,7.941,0,0,1,2.584,1.214c2.3,1.677,4.91,3.133,6.7,5.263,5.334,6.343,6.369,13.577,3.324,21.327-.763,1.94-1.626,3.839-2.508,5.909,1.011,0,1.753-.02,2.494,0a7.647,7.647,0,0,1,.08,15.288C1370.2,495.311,1369.142,495.277,1367.962,495.277Zm-37.78,23.585c0-1.9-.053-3.651.022-5.4a2.211,2.211,0,0,0-1.043-1.914c-2.406-2.138-5.068-4.141-6.919-6.71-2-2.779-3.207-6.133-4.682-9.079-2.186-.558-4.724-.811-6.875-1.859-2.431-1.184-3.472-3.645-3.449-6.4.039-4.617,3-6.957,9.781-7.65-1.291-2.609-2.6-5.141-3.807-7.717a15.841,15.841,0,0,1,9.216-21.942,9.888,9.888,0,0,0,2.219-1.179c1.67-1.13,3.319-2.294,4.928-3.508a3.711,3.711,0,0,0,1.167-1.421,15.388,15.388,0,0,0-7.4-20.013c-2.656-1.327-5.367-2.555-8.11-3.691a20.664,20.664,0,0,0-12.492-1.065c-4.254.905-7.63,3.337-10.972,5.9a9.135,9.135,0,0,1-2.743,1.524,10.8,10.8,0,0,0-6.782,15.409c1.142,2.395,2.286,4.795,3.584,7.106a9.032,9.032,0,0,1,.981,5.225,2.52,2.52,0,0,1-2.561,2.516c-.848.051-1.7-.025-2.549.031a2.537,2.537,0,1,0,.048,5.073c.635.042,1.275.009,1.912.013,2.265.015,3.042.654,3.395,2.907a19.922,19.922,0,0,0,10.561,15.066,3.463,3.463,0,0,1,1.982,3.473c-.073,2.655-.019,5.314-.02,7.971s-.25,3.026-2.7,4.045q-11.164,4.646-22.329,9.291c-4.039,1.684-5.581,3.991-5.583,8.327q-.006,14.429,0,28.858v1.612h15.305c0-.669,0-1.243,0-1.818.027-6.434,3.6-11.2,9.745-12.938,5.155-1.454,10.324-2.86,15.485-4.294C1316.342,522.715,1323.187,520.808,1330.182,518.861Zm66.208,47.783a3.6,3.6,0,0,0,.1-.558c0-8.345.043-16.69-.018-25.035a7.467,7.467,0,0,0-5.774-7.159c-11.851-3.319-23.715-6.591-35.561-9.926a1.924,1.924,0,0,0-2.2.633c-2.4,2.482-4.87,4.9-7.315,7.341-2.181,2.177-3.167,2.189-5.305.054-2.444-2.441-4.917-4.855-7.308-7.347a2.049,2.049,0,0,0-2.343-.653c-11.693,3.292-23.4,6.53-35.1,9.8-4.175,1.167-6.2,3.83-6.2,8.119q-.011,11.4,0,22.8v1.906h15.375V546.4h5.071v20.2h66.345V546.424h5.07v20.22Zm-70.4-92.872c-1.99,3.708-4.141,7.174-3.5,11.57a39.124,39.124,0,0,1,.045,5.1,20.487,20.487,0,0,0,18.4,20.069,20.159,20.159,0,0,0,21.712-15.5c.778-3.631.356-7.5.737-11.24.4-3.95-2.063-6.716-3.462-10.009C1348.551,482.068,1337.342,482.075,1325.993,473.772Zm-5.984.431c.848-1.7,1.552-3.117,2.26-4.531,1.423-2.845,2.689-3.156,5.206-1.289,1.322.981,2.61,2.013,3.981,2.92a20.174,20.174,0,0,0,17.186,2.741c3.857-1.054,6.865-3.5,9.968-5.818,2.2-1.64,3.593-1.312,4.816,1.1.724,1.432,1.444,2.867,2.233,4.433,3.782-7.11,2.256-15.625-4-19.914-5.067-3.474-10.653-6.221-16.93-6.885a19.728,19.728,0,0,0-12.36,2.882c6.9,3.938,8.822,5.567,9.919,8.433l-3.977,2.651c-.6-.793-1.1-1.546-1.7-2.211-3.167-3.536-7.1-5.037-11.745-3.878-4.357,1.089-7,4.053-7.937,8.443C1316.071,467.31,1318.029,470.587,1320.009,474.2Zm22.9,53.194c2.5-2.5,4.843-4.813,7.15-7.158a1.81,1.81,0,0,0,.507-1.084c.058-1.477.024-2.959.024-4.621a26.3,26.3,0,0,1-15.3.013c0,1.526-.039,2.849.02,4.168a2.35,2.35,0,0,0,.439,1.43C1338.055,522.553,1340.428,524.9,1342.906,527.4Zm-25.55-42.28c-1.741.05-3.641-.621-4.613,1.29a3.155,3.155,0,0,0,.112,2.625c1.042,1.717,2.849,1.069,4.5,1.109Zm51.2.068V490.1c3.514.25,4.989-.507,4.975-2.488S1372,484.866,1368.557,485.184Z" transform="translate(-1263.83 -413.731)"/></svg>