<svg xmlns="http://www.w3.org/2000/svg" width="144.536" height="148.519" viewBox="0 0 144.536 148.519"><defs><style>.a{fill:#676795;}</style></defs><g transform="translate(-773.183 -348)"><path class="a" d="M907.669,348a54.135,54.135,0,0,1,6.429,1.627c8.942,3.423,14.313,10.284,16.955,19.138,3.867,12.965,1.092,24.62-8.5,34.294-12.42,12.53-25.023,24.878-37.557,37.3a31.927,31.927,0,0,1-2.592,2.318,3.8,3.8,0,0,1-5.168.073,22.072,22.072,0,0,1-2.287-2q-12.42-12.291-24.82-24.6c-.275-.272-.563-.533-.813-.826a2.2,2.2,0,0,1-.065-3.016,2.065,2.065,0,0,1,3.1-.047c1.247,1.141,2.443,2.342,3.619,3.557,1.409,1.455,2.775,2.952,4.039,4.3l8.426-8.252c-2.208-2.523-4.54-5.036-6.7-7.691-2.713-3.338-4.794-7.005-5.225-11.422a15.893,15.893,0,0,1,2.061-9.767,62.511,62.511,0,0,1,6.3-8.98c2.611-3.042,6.347-4.3,10.238-4.943,5.221-.868,10.361-.543,15.131,1.857a16.1,16.1,0,0,1,5.215,4.006,50.623,50.623,0,0,1,5.878,8.9,15.512,15.512,0,0,1-.709,16.044c-2.408,3.752-5.507,7.061-8.313,10.556-.418.521-.921.974-1.375,1.448l8.283,8.175c.215-.192.542-.456.839-.751,6.591-6.534,13.2-13.046,19.76-19.615a29.406,29.406,0,0,0,1.417-39.9c-6.319-7.257-14.323-8.813-23.315-6.411a32.794,32.794,0,0,0-14.064,8.053c-3.911,3.669-4.266,3.642-8.177,0-5.5-5.129-11.9-8.455-19.475-9-9.771-.705-16.664,3.947-21.3,12.222a29.4,29.4,0,0,0,5.017,35.249c1.817,1.806,3.643,3.6,5.444,5.425,1.092,1.1,1.193,2.425.308,3.329a2.24,2.24,0,0,1-3.332-.237c-2.748-2.786-5.673-5.433-8.145-8.448-11.123-13.572-9.337-34.74,3.757-45.97a24.513,24.513,0,0,1,12.78-5.713,6.985,6.985,0,0,0,.949-.27h5.8a3.022,3.022,0,0,0,.657.241,34.826,34.826,0,0,1,16.932,7c1.614,1.212,3.113,2.578,4.764,3.957.551-.5,1.112-1.023,1.678-1.537a36.841,36.841,0,0,1,15.713-8.63c1.624-.419,3.287-.693,4.932-1.033Zm-44.09,34.777c-2.8,4.557-3.959,9.028-1.549,13.606a37.02,37.02,0,0,0,5.731,8.114c7.031,7.443,14.3,14.657,21.466,21.975a21.334,21.334,0,0,1,1.48,1.872l5.268-5.364a10.7,10.7,0,0,1-1.049-.844q-12.022-12.161-24.019-24.347c-3.431-3.5-6.131-7.458-6.93-12.447C863.858,384.608,863.749,383.872,863.579,382.777Zm16.04,17.767c3.871-2.62,9.989-10.1,10.72-13.065-5.038-4.041-17.094-3.959-21.244.185C871.324,392.941,875.811,396.384,879.62,400.543Zm-11.692-17.787c11.905-3.552,12.893-3.551,23.722.051,0-1.526-.081-2.966.025-4.391a2.557,2.557,0,0,0-1.314-2.514,17.369,17.369,0,0,0-8.714-2.807c-4.529-.319-8.874.293-12.679,3.017a2.359,2.359,0,0,0-.993,1.44C867.849,379.23,867.927,380.923,867.927,382.756Zm27.911.116a21.261,21.261,0,0,1-5.981,13.551q-2.793,3.033-5.7,5.955a6.866,6.866,0,0,1-1.53.924l5.443,5.233c3.141-3.289,6.519-6.606,8.843-10.788A13.163,13.163,0,0,0,895.839,382.872Zm-16.093,56.51,7.53-8.246-7.512-7.579-7.524,7.476Zm-7.976-23.92-7.753,7.659,4.6,4.753,7.96-7.965Z" transform="translate(-32.924)"/><path class="a" d="M825.37,658.977c-2.116-1.089-2.621-2.882-2.608-5.154.072-12.034.032-24.07.034-36.1,0-3.515,1.28-4.789,4.82-4.79q21.9,0,43.794.007c.573,0,1.325-.1,1.679.214a3.966,3.966,0,0,1,1.413,2.087,1.8,1.8,0,0,1-1.712,1.979,11.533,11.533,0,0,1-1.736.062q-21.027,0-42.054,0h-1.773V654.5h100.45V617.279h-1.742q-20.23,0-40.459,0a13.575,13.575,0,0,1-1.593-.042,2,2,0,0,1-1.906-2.014,1.958,1.958,0,0,1,1.569-2.146,6.169,6.169,0,0,1,1.577-.143q21.172-.01,42.344,0c3.325,0,4.644,1.334,4.645,4.665,0,12.132-.037,24.263.035,36.395.013,2.246-.584,3.939-2.63,4.987Z" transform="translate(-30.403 -162.459)"/><path class="a" d="M804.841,529.082a9.9,9.9,0,0,1-3.009,6.4q-5.1,5.147-10.285,10.213c-1.785,1.749-3.222,1.754-5.023-.007-3.489-3.412-7-6.809-10.374-10.328a10.2,10.2,0,0,1-2.544-10.2c1.73-6.513,8.438-9.036,14.243-5.35a1.87,1.87,0,0,0,2.385,0c3.106-1.958,6.4-2.414,9.746-.625C802.946,520.774,804.842,524.319,804.841,529.082ZM789.075,542.4c2.005-2.118,3.749-3.99,5.527-5.829,1.445-1.494,3-2.883,4.367-4.446a7.09,7.09,0,0,0,1.359-2.672,6.067,6.067,0,0,0-2.088-6.234c-1.58-1.128-3.893-.961-5.974.432-3.2,2.14-3.182,2.113-6.544-.044-1.693-1.086-3.559-1.706-5.464-.621a5.5,5.5,0,0,0-2.695,4.989,5.852,5.852,0,0,0,1.678,4.345C782.394,535.588,785.58,538.824,789.075,542.4Z" transform="translate(0 -104.292)"/><path class="a" d="M1073.953,518.18a11.233,11.233,0,0,1,5.993,1.894,1.69,1.69,0,0,0,1.461.051c4.815-2.91,9.522-2.533,12.6,1.076a10.462,10.462,0,0,1-.057,13.813c-3.533,3.833-7.329,7.427-11.077,11.057-1.448,1.4-2.909,1.381-4.368-.037-3.707-3.6-7.449-7.18-10.974-10.957a10.491,10.491,0,0,1-.262-13.7A8.33,8.33,0,0,1,1073.953,518.18Zm6.513,23.972a4.709,4.709,0,0,0,.55-.331q3.2-3.158,6.392-6.324c1.131-1.125,2.323-2.2,3.35-3.414a6.235,6.235,0,0,0-.206-8.223c-1.724-1.82-4.431-1.772-6.967.126-2.853,2.134-2.853,2.134-5.84-.076-3.623-2.68-7.649-1.264-8.41,2.993a5.945,5.945,0,0,0,1.495,5.389C1074,535.606,1077.241,538.859,1080.466,542.152Z" transform="translate(-178.861 -104.36)"/><path class="a" d="M878.157,656.477c0-3.416,0-6.438,0-9.46,0-1.063-.075-2.131.009-3.187a2.076,2.076,0,0,1,2.194-2.042,2.006,2.006,0,0,1,2.088,2.125q.156,9.421.221,18.844a2.408,2.408,0,0,1-1.8,2.521,2.457,2.457,0,0,1-2.825-1.264q-3.91-5.663-7.818-11.328c-.3-.429-.605-.847-1.086-1.517-.045.676-.094,1.076-.1,1.477-.006,3.382,0,6.765-.007,10.147-.006,1.772-.863,2.83-2.226,2.8-1.325-.027-2.117-1.027-2.119-2.735-.008-6.089.012-12.177-.015-18.266-.006-1.218.237-2.268,1.5-2.67,1.323-.422,2.163.323,2.879,1.375,2.664,3.911,5.367,7.8,8.056,11.692C877.381,655.38,877.658,655.766,878.157,656.477Z" transform="translate(-56.109 -180.16)"/><path class="a" d="M1025.866,653.724a11.9,11.9,0,1,1-11.775-11.969A11.935,11.935,0,0,1,1025.866,653.724Zm-11.857-7.618a7.554,7.554,0,0,0-7.6,7.514,7.552,7.552,0,1,0,15.1.06A7.477,7.477,0,0,0,1014.01,646.106Z" transform="translate(-140.356 -180.14)"/><path class="a" d="M948.926,655.7c-1.174,0-2.237.04-3.3-.01a2.111,2.111,0,0,1-2.148-2.089,2.083,2.083,0,0,1,2.044-2.2c2.027-.083,4.063-.089,6.088.007,1.29.061,1.976,1,2.015,2.386.175,6.266-4.032,11.219-9.912,11.67a11.986,11.986,0,0,1-12.4-9.933,11.48,11.48,0,0,1,4.856-11.66c3.864-2.762,8.062-2.939,12.349-.908a7.025,7.025,0,0,1,.876.509c1.255.834,1.613,1.984.97,3.081a2.155,2.155,0,0,1-3.158.659,8.139,8.139,0,0,0-5.134-1.145,7.543,7.543,0,1,0,2.533,14.859C946.927,660.371,948.53,658.488,948.926,655.7Z" transform="translate(-96.879 -180.044)"/></g></svg>