<svg xmlns="http://www.w3.org/2000/svg" width="145.808" height="158.096" viewBox="0 0 145.808 158.096"><defs><style>.a{fill:#676795;}</style></defs><path class="a" d="M1073.053,420.264a20.664,20.664,0,0,1,2.711,3.023c4.651,7.783,8.151,16.03,9.48,25.067,1.816,12.351-.984,23.275-10.145,32.192a2.493,2.493,0,0,0-.785,1.536c-.055,5.967-.035,11.935-.035,18.356,1.7-2.264,3.471-3.749,3.931-6.587,1.786-11.013,8.146-18.871,17.82-24.154,7.158-3.909,14.92-5.76,22.979-6.5,1.944-.18,3.9-.3,5.854-.3a3.909,3.909,0,0,1,4.049,4.925,42.388,42.388,0,0,1-10.626,20.727c-1.278,1.348-2.741,1.425-3.742.265-.844-.977-.723-2.252.4-3.443a37.682,37.682,0,0,0,8.024-13.4c.184-.511.321-1.04.609-1.986a262.509,262.509,0,0,0-37.5,25.393l.114.535c3.083-.244,6.233-.176,9.233-.812a96.894,96.894,0,0,0,10.713-3.273c1.62-.546,2.839-.362,3.458.875.659,1.317.122,2.545-1.5,3.341a45.942,45.942,0,0,1-21.251,4.341c-1.8-.026-3.594-.206-5.393-.261a1.559,1.559,0,0,0-1.063.366,20.415,20.415,0,0,0-5.492,10,2.278,2.278,0,0,0-.005.526c3.22.509,6.379.882,9.482,1.522a56.292,56.292,0,0,1,23.994,11.429c2.814,2.247,5.654,4.463,8.432,6.754a1.732,1.732,0,0,0,2.165.183,15.551,15.551,0,0,1,4.881-1.626,7.439,7.439,0,0,1,7.477,5.318,8.14,8.14,0,0,1-2.7,9.14c-8.582,5.944-17.135,11.935-25.851,17.677a17.026,17.026,0,0,1-7.137,2.618c-12.566,1.46-25.159,2.7-37.758,3.851a17.877,17.877,0,0,1-6.52-.741c-6.254-1.846-12.443-3.917-18.631-5.979a5.155,5.155,0,0,0-5.8,1.224,11.439,11.439,0,0,1-.923.821c-1.466,1.2-2.611,2.175-1.888,4.633.8,2.718-.742,5.1-3.246,6.567-2.337,1.369-4.731,2.639-7.1,3.953h-2.779c-2.523-.76-4.06-2.522-5.34-4.769-6.053-10.629-12.21-21.2-18.325-31.792-2.508-4.345-1.565-7.88,2.752-10.385,1.022-.594,2.08-1.134,3.061-1.788,3.263-2.174,6.474-2.5,9.613.2,5.219-2.924,10.4-5.761,15.522-8.71,7.546-4.346,15.408-5.419,23.727-2.59a2.2,2.2,0,0,0,1.575-.039,58.574,58.574,0,0,1,25.268-7.254,4.764,4.764,0,0,0,.814-.3c-.842-2.032-1.571-4.087-2.527-6.031-1.63-3.319-3.741-5.181-8.1-4.721a40.622,40.622,0,0,1-24.277-4.9c-11-6.084-17.086-15.7-19.523-27.817a3.748,3.748,0,0,1,3.663-4.54c14.225.291,27.617,3.139,38.26,13.515a31.714,31.714,0,0,1,9.165,18.943,5.079,5.079,0,0,0,.878,1.857,11.051,11.051,0,0,0,1.12,1.271c.361.411.709.833,1.336,1.572V498.4c0-5.3.03-10.6-.037-15.9a3.092,3.092,0,0,0-.827-1.979c-9.2-8.977-11.949-19.96-10.088-32.353,1.356-9.028,4.867-17.269,9.55-25.033a19.122,19.122,0,0,1,2.647-2.878Zm-51.93,141.063c.995-.879,1.853-1.6,2.669-2.364a9.583,9.583,0,0,1,10.259-2.229c6.146,2.024,12.3,4.043,18.494,5.9a14.737,14.737,0,0,0,5.444.6c11.674-1.079,23.332-2.33,35-3.468a16.887,16.887,0,0,0,8.349-2.83c6.865-4.809,13.793-9.527,20.7-14.281,1.27-.875,2.578-1.7,3.8-2.636a3.524,3.524,0,0,0,.691-4.722,3.039,3.039,0,0,0-4.316-.941c-5.453,2.88-10.92,5.731-16.354,8.647A35.936,35.936,0,0,1,1091,547.217c-8.674.564-17.346,1.168-26.019,1.747-1.652.11-2.733-.743-2.8-2.166-.073-1.448.813-2.325,2.539-2.443,4.619-.316,9.239-.609,13.858-.917,3.067-.2,6.134-.419,9.165-.627a6.367,6.367,0,0,0-5.264-7.374c-4.124-.578-8.253-1.187-12.4-1.507a38.6,38.6,0,0,1-17.588-5.51,70.116,70.116,0,0,0-12.62-5.619c-6.3-2.293-12.461-1.4-18.291,1.8-4.684,2.574-9.334,5.211-14,7.822-.753.421-1.5.858-2.359,1.353.928,1.613,1.805,3.115,2.661,4.63.941,1.665.716,3.041-.587,3.738-1.241.664-2.494.162-3.411-1.406-1.349-2.307-2.652-4.642-4.02-6.937a2.019,2.019,0,0,0-3.119-.877q-2.505,1.362-4.944,2.846a2.01,2.01,0,0,0-.8,3.133q9.659,16.769,19.36,33.513c.829,1.43,1.76,1.65,3.227.84,1.53-.844,3.042-1.722,4.544-2.613,1.666-.989,1.909-1.873.951-3.55-2.013-3.526-4.052-7.037-6.079-10.556-1.1-1.915-2.236-3.814-3.293-5.754a2.3,2.3,0,1,1,3.938-2.368c.261.38.475.794.706,1.194Zm92.091-27.416c-22.234-21.18-46.15-21.552-64.214-12.843,3.133,1.765,6.24,3.677,9.5,5.289a22.317,22.317,0,0,0,6.345,2.187c5.888.907,11.824,1.5,17.74,2.224a11.132,11.132,0,0,1,9.663,8.492c.261,1.013.351,2.071.526,3.151C1100.508,541.635,1106.523,537.069,1113.214,533.911Zm-54.9-38.36a262.075,262.075,0,0,0-37.542-25.467C1023.378,485.256,1042.512,498.252,1058.318,495.55Zm11.206-21.1v-43.68a44.61,44.61,0,0,0-3.119,6.56c-3.035,8.006-4.684,16.2-2.913,24.766A27.529,27.529,0,0,0,1069.524,474.455Zm4.856-43.652v43.763c.847-1.172,1.5-2,2.077-2.888a29.788,29.788,0,0,0,4.665-17.27C1080.933,445.964,1078.264,438.222,1074.38,430.8Zm9.291,60.362a315.862,315.862,0,0,1,33.321-22.921,11.62,11.62,0,0,0-2.334.2c-7.884,1.374-15.365,3.763-21.737,8.834A26.115,26.115,0,0,0,1083.671,491.165Zm-56.448-22.91a294.086,294.086,0,0,1,33.559,23.3A26.784,26.784,0,0,0,1054,479.776C1046.627,472.382,1037.226,469.637,1027.222,468.255Z" transform="translate(-985.948 -420.264)"/></svg>