<svg xmlns="http://www.w3.org/2000/svg" width="153.308" height="153.308" viewBox="0 0 153.308 153.308"><defs><style>.a{fill:#676795;}</style></defs><path class="a" d="M225,521.337c1.328-3.057,3.693-3.987,6.944-3.943,10.227.137,20.456.035,30.684.075a1.807,1.807,0,0,0,1.926-1.187c6.688-13.755,13.5-27.449,20.041-41.275.927-1.962.549-4.542.8-7.1h-4.772c-1.5,0-2.994.01-4.491,0-1.953-.017-2.921-.752-2.943-2.207s.946-2.258,2.869-2.275c2.445-.021,4.889-.006,7.334-.007h1.69v-22.6c-.879.418-1.674.787-2.463,1.172q-15.177,7.406-30.352,14.819c-2.887,1.411-3.81,3.1-3.516,6.538.5.024,1.027.07,1.553.071q6.661.009,13.322.006a12.93,12.93,0,0,1,1.494.057,2.194,2.194,0,0,1,.05,4.358,22.937,22.937,0,0,1-2.839.071c-4.487.006-8.975,0-13.57,0v4.383c1.741.318,4.357-.474,4.3,2.408-.055,2.741-2.536,2.045-4.327,2.247V481.3c.721.033,1.452.04,2.178.106a2.218,2.218,0,0,1,2.221,2.171,2.13,2.13,0,0,1-2.138,2.24q-4.562.116-9.128.009a2.152,2.152,0,0,1-2.182-2.206,2.2,2.2,0,0,1,2.18-2.205c.686-.059,1.382-.01,2.185-.01v-4.426c-1.744-.285-4.328.472-4.294-2.395.033-2.751,2.546-2.014,4.406-2.29,0-2.968.109-5.9-.024-8.817-.24-5.314,2.047-8.818,6.874-11.105,10.939-5.183,21.763-10.609,32.663-15.877a2.174,2.174,0,0,0,1.513-2.486,33.976,33.976,0,0,1-.026-3.536H248.729v4.39c.758,0,1.491-.052,2.215.011a2.244,2.244,0,0,1,2.195,2.218,2.192,2.192,0,0,1-2.309,2.225q-4.414.067-8.831,0a2.2,2.2,0,0,1-2.313-2.222,2.24,2.24,0,0,1,2.189-2.222c.691-.063,1.392-.011,2.29-.011,0-2.059-.027-4.038.008-6.017a49.144,49.144,0,0,1,.25-6.411,8.9,8.9,0,0,1,5.1-6.794c3.958-2,7.954-3.92,11.945-5.852,1.447-.7,2.737-.345,3.331.845.611,1.224.137,2.436-1.335,3.167-3.837,1.905-7.7,3.758-11.538,5.664-2.611,1.3-3.556,3.244-3.106,6.323h36.249V403.367c-.409.168-.809.308-1.188.491-3.362,1.63-6.716,3.276-10.08,4.9-1.675.808-2.958.514-3.581-.779s-.053-2.427,1.665-3.269c4.206-2.06,8.432-4.079,12.607-6.2a4,4,0,0,0,1.691-1.7c2.07-4.311,4.043-8.669,6.042-13.014.181-.393.321-.8.555-1.4H281.584c-4.136,0-4.136,0-3.791,4.5.7,0,1.429-.039,2.15.009a2.246,2.246,0,0,1,2.237,2.166,2.2,2.2,0,0,1-2.257,2.288q-4.489.075-8.98,0a2.188,2.188,0,0,1-2.215-2.177,2.251,2.251,0,0,1,2.277-2.278c.683-.042,1.37-.007,2.25-.007-.287-3.747-.305-7.32,3.845-8.988h49.106c4.152,1.668,4.131,5.242,3.846,9,.93,0,1.67-.054,2.4.012a2.233,2.233,0,0,1,2.13,2.269,2.187,2.187,0,0,1-2.216,2.174q-4.49.074-8.981,0a2.2,2.2,0,0,1-2.254-2.136,2.242,2.242,0,0,1,2.237-2.317c.72-.052,1.446-.009,2.149-.009.336-4.5.336-4.5-3.795-4.5h-11.21c.269.643.442,1.094.643,1.532,1.956,4.255,3.881,8.525,5.91,12.745a4.179,4.179,0,0,0,1.768,1.825q16.955,8.366,33.973,16.606c4.331,2.093,6.461,5.409,6.35,10.228-.071,3.129-.013,6.261-.013,9.537.894,0,1.638-.063,2.367.014a2.219,2.219,0,0,1,2.109,2.294,2.169,2.169,0,0,1-2.243,2.136q-4.49.071-8.981,0a2.162,2.162,0,0,1-2.224-2.151,2.226,2.226,0,0,1,2.123-2.279c.728-.074,1.47-.014,2.253-.014v-4.51c-4.136,0-8.169.011-12.2-.006-1.7-.007-2.639-.784-2.683-2.143-.046-1.439.921-2.318,2.671-2.334,2.844-.026,5.688-.008,8.533-.008h3.661c.351-3.411-.6-5.193-3.452-6.587q-15.779-7.711-31.567-15.4c-.386-.188-.79-.34-1.294-.555v22.543h1.666c3.643,0,7.285-.01,10.928.005,1.742.008,2.8.863,2.826,2.22s-1.015,2.252-2.754,2.26c-3.692.017-7.385.006-11.077.006h-1.662a11.48,11.48,0,0,1-.014,1.874c-.5,2.665.683,3.942,3.119,5.085,10.687,5.017,21.249,10.3,31.863,15.475a9.911,9.911,0,0,1,6.036,9.658c-.012,1.447,0,2.894,0,4.341v5.531c1.906.21,4.386-.46,4.406,2.285.021,2.855-2.583,2.066-4.341,2.391V481.4c.738,0,1.428-.04,2.111.008a2.228,2.228,0,0,1,2.3,2.247,2.166,2.166,0,0,1-2.21,2.181q-4.488.1-8.98,0a2.165,2.165,0,0,1-2.258-2.283,2.232,2.232,0,0,1,2.248-2.147c.721-.063,1.446-.078,2.14-.113V477c-3.561-.386-4.472-.826-4.365-2.326.207-2.885,2.639-2.058,4.337-2.383v-4.269H317.887c.275,2.485-.063,5.1.888,7.113,6.517,13.781,13.313,27.43,19.98,41.141a1.806,1.806,0,0,0,1.924,1.19c10.229-.04,20.459.061,30.686-.074,3.248-.043,5.617.882,6.943,3.943v5.989a7.522,7.522,0,0,1-3.893,3.893H228.893A7.5,7.5,0,0,1,225,527.325Zm109.352-3.894-19-38.817L304.693,490.4c2.8,3.1,5.55,6.12,8.275,9.162,1.108,1.237,1.135,2.516.141,3.444-1.015.947-2.276.838-3.407-.387-2.132-2.308-4.224-4.652-6.334-6.979-.554-.611-1.115-1.216-1.723-1.88l-21.348,23.6h42.715c-.742-.829-1.325-1.485-1.912-2.136-1.371-1.517-2.78-3-4.1-4.559a2.132,2.132,0,0,1,.092-3.1,2.2,2.2,0,0,1,3.1.013,8.817,8.817,0,0,1,.722.757c2.514,2.769,5.014,5.551,7.554,8.3a2.3,2.3,0,0,0,1.325.771C331.22,517.505,332.662,517.442,334.352,517.442Zm-32.692,9.284h69.9a9.089,9.089,0,0,0,1.344-.026c.267-.04.719-.237.728-.385a15.314,15.314,0,0,0-.012-3.831c-.062-.316-1.446-.526-2.223-.526q-69.679-.037-139.359-.022c-2.552,0-2.552,0-2.551,2.624,0,2.165,0,2.167,2.114,2.167Zm52.847-63.413c.453-3.091-.513-5.045-3.242-6.385q-15.615-7.663-31.251-15.284c-.566-.277-1.141-.535-1.815-.85v22.518ZM268.96,517.444a33.1,33.1,0,0,1,3.471.024,3.169,3.169,0,0,0,2.927-1.319c6.159-6.872,12.371-13.7,18.563-20.538,1.562-1.726,3.112-3.463,4.692-5.224l-10.659-11.762Zm43.2-120.113a1.422,1.422,0,0,0,0-.415c-2.112-4.611-4.211-9.228-6.38-13.812a1.68,1.68,0,0,0-1.261-.671c-1.79-.075-3.588.033-5.376-.057a1.694,1.694,0,0,0-1.9,1.194c-1.78,4-3.643,7.958-5.472,11.934-.261.568-.5,1.147-.79,1.827Zm1.446,33.13H289.769v4.293h23.839Zm-.031,37.565H289.736v4.314h23.842Zm-11.923,19.029,9.059-10.015h-18.12Zm-8.313-85.113,8.318,8.289,8.288-8.289Zm-3.611,20.093,8.212-8.205-8.212-8.194Zm23.843-16.3-8.222,8.187,8.222,8.2Zm-11.7,11.9-8.153,8.137H310Zm-.294,29.925,8.127-8.109H293.468ZM293.337,463.3h16.607l-8.277-8.34Zm4.727-11.713-8.281-8.353v16.631Zm7.354-.328,8.14,8.138V443.142Z" transform="translate(-225 -377.91)"/></svg>