<svg xmlns="http://www.w3.org/2000/svg" width="152.84" height="153.308" viewBox="0 0 152.84 153.308"><defs><style>.a{fill:#676795;}</style></defs><g transform="translate(-2039.939 -341.395)"><path class="a" d="M2039.939,494.7v-5.072h27.725c-.683-1.618-1.253-3.1-1.946-4.513a1.509,1.509,0,0,0-1.127-.586c-1.5-.07-3,0-4.494-.04a7.422,7.422,0,0,1-7.505-7.4c-.106-5.7-.06-11.4.01-17.1a6.517,6.517,0,0,1,.745-2.859c6.026-11.382,12.145-22.715,18.144-34.11,1.78-3.381,4.34-5,8.176-4.871,3.637.127,7.282.028,11.115.028v-5.014h5.079v43.1h5.167V454.5c0-16.847.106-33.7-.064-50.54-.051-5.057,3.321-8.9,8.787-8.837,16.329.18,32.662.064,48.993.065,5.453,0,8.541,3.082,8.542,8.538q.005,25.345,0,50.691v1.929c.532.089,1.008.165,1.483.248a7.089,7.089,0,0,1,6.022,6.54c.154,4.893.177,9.8-.007,14.69-.142,3.765-3.427,6.592-7.378,6.661-3.491.061-6.983.013-10.323.013l-2.169,4.977H2180v-1.6q0-51.141.026-102.282a2.446,2.446,0,0,0-1.4-2.464q-30.569-17.559-61.087-35.21a2.1,2.1,0,0,0-2.436-.015q-30.581,17.689-61.213,35.29a2.306,2.306,0,0,0-1.36,2.328q.063,28.12.029,56.24v1.847h-5.1v-1.429q0-29.92-.022-59.839a2.105,2.105,0,0,1,1.2-2.12q33.261-19.186,66.478-38.45a2.079,2.079,0,0,1,2.41.015q32.895,19.072,65.84,38.055a3.113,3.113,0,0,1,1.771,3.161q-.066,52.266-.034,104.531v2.029h7.682V494.7Zm91.864-15.343c1.769-6.031,5.624-9.661,11.2-10.088,7.384-.566,11.717,3.415,13.954,10.132,3.261,0,6.455.008,9.648,0,2.432-.008,3.186-.771,3.195-3.253q.021-5.547,0-11.093c0-2.885-.636-3.517-3.529-3.517q-53.467,0-106.932,0c-.534,0-1.067.047-1.677.075,0,5.193-.03,10.237.018,15.28a2.287,2.287,0,0,0,2.3,2.467c1.834.085,3.676.021,5.473.021,2.321-6.552,6.206-9.964,11.8-10.158,7.137-.247,11.26,3.67,13.4,10.135Zm-41.083-23.032V423.284c-3.855,0-7.6.061-11.338-.027a3.514,3.514,0,0,0-3.566,2.13q-7.774,14.859-15.631,29.674c-.2.372-.339.772-.554,1.266Zm15.486-20.41h25.288V420.771h-25.288Zm30.616-15.181V435.91h25.246V420.736Zm-.015,20.446v15.092h25.28V441.183Zm-5.277,15.127v-15.1h-25.284v15.1Zm-25.384-40.815h25.337V400.3c-7.762,0-15.4-.027-23.032.025a2.2,2.2,0,0,0-2.28,2.324C2106.1,406.885,2106.145,411.126,2106.145,415.494Zm56.045.017c0-4.108.01-8.049,0-11.99-.008-2.35-.91-3.234-3.274-3.236q-10.336-.008-20.672,0H2136.8v15.227ZM2131.708,484.5h-24c-5.288,0-10.576-.012-15.865.02-.481,0-1.236.145-1.392.458-.724,1.448-1.281,2.979-1.906,4.5H2133.9Zm5.007-2.7a7.638,7.638,0,1,0,7.682-7.5A7.487,7.487,0,0,0,2136.715,481.805Zm-66.263.1a7.474,7.474,0,0,0,7.5,7.692,7.647,7.647,0,1,0,.23-15.292A7.452,7.452,0,0,0,2070.451,481.9Z" transform="translate(0)"/><path class="a" d="M2261.343,419.946h-30.352c-.037-.438-.105-.866-.106-1.294-.007-6.445.012-12.89-.025-19.334a1.887,1.887,0,0,1,1.043-1.9q6.642-3.905,13.214-7.931a1.656,1.656,0,0,1,2.006-.053c4.421,2.713,8.893,5.344,13.311,8.06a2.133,2.133,0,0,1,.985,1.433c.063,6.794.041,13.589.034,20.383A4.225,4.225,0,0,1,2261.343,419.946Zm-4.981-5.056c0-4.477.009-8.813-.019-13.148a1.169,1.169,0,0,0-.444-.855c-2.312-1.431-4.652-2.817-7.1-4.283V414.89ZM2243.5,396.6c-2.453,1.474-4.763,2.823-7.016,4.261a1.73,1.73,0,0,0-.48,1.269c-.043,2.647-.022,5.295-.022,7.942v4.757h7.518Z" transform="translate(-129.853 -32.459)"/><path class="a" d="M2280.943,610.587h-9.956v-4.873h9.956Z" transform="translate(-157.145 -179.774)"/><path class="a" d="M2376.539,605.613V610.5h-10.024v-4.884Z" transform="translate(-222.117 -179.705)"/><path class="a" d="M2376.516,674.347h-9.968v-4.9h9.968Z" transform="translate(-222.139 -223.119)"/><path class="a" d="M2270.87,674.306v-4.9h10.04v4.9Z" transform="translate(-157.065 -223.093)"/><path class="a" d="M2280.919,546.742h-10v-4.907h10Z" transform="translate(-157.101 -136.328)"/><path class="a" d="M2376.541,541.818v4.87h-10.01v-4.87Z" transform="translate(-222.127 -136.316)"/><path class="a" d="M2358.747,773.064h4.9v4.907h-4.9Z" transform="translate(-216.834 -293.595)"/><path class="a" d="M2156.457,773.087v4.92h-4.942v-4.92Z" transform="translate(-75.887 -293.611)"/></g></svg>