<svg xmlns="http://www.w3.org/2000/svg" width="167.495" height="158.479" viewBox="0 0 167.495 158.479"><defs><style>.a{fill:#676795;}</style></defs><g transform="translate(-755.876 -347.013)"><path class="a" d="M1128.941,384.935a16.689,16.689,0,0,1-2.793,2.6c-5.318,3.068-10.708,6.011-16.075,8.992a9.938,9.938,0,0,1-1.459.719,3.22,3.22,0,0,1-3.965-1.366,3.006,3.006,0,0,1,.92-4.183c6.262-3.6,12.566-7.133,18.935-10.538,1.708-.913,3.155-.021,4.437,2.144Z" transform="translate(-205.571 -19.941)"/><path class="a" d="M822.071,462.8c1.245,2.161,2.437,4.22,3.619,6.283,1.65,2.879,1.253,4.388-1.587,6.04-2.444,1.422-4.892,2.84-7.489,4.346.309.563.58,1.071.864,1.571,3.146,5.539,6.507,10.969,9.383,16.644A12.947,12.947,0,0,1,804.545,510.6c-2.269-3.318-4.169-6.891-6.2-10.373-3.4-5.837-6.76-11.693-10.141-17.539-.3-.512-.611-1.013-.741-1.229a76.6,76.6,0,0,1-9.052,1.09,22.584,22.584,0,0,1-21.582-16.2c-2.865-9.877.816-20.42,9.444-25.709,9.005-5.52,18.256-10.638,27.372-15.978a8.819,8.819,0,0,0,2.424-2.1q20.74-26.333,41.4-52.732c2.609-3.344,5.688-5.385,10.039-4.776a9.776,9.776,0,0,1,7.336,5.166c3.614,6.277,7.287,12.521,10.822,18.843a2.633,2.633,0,0,0,2.942,1.572c3.311-.292,6.638-.4,9.952-.66a3.988,3.988,0,0,1,4.132,2.279c1.89,3.373,3.814,6.729,5.8,10.047a3.962,3.962,0,0,1-.169,4.708c-1.908,2.787-3.675,5.672-5.632,8.423a2.364,2.364,0,0,0-.044,3.02c3.38,5.72,6.743,11.452,9.965,17.262a9.8,9.8,0,0,1-6.571,14.518c-3.906.737-7.812,1.47-11.713,2.233q-25.327,4.95-50.649,9.92C823.211,462.484,822.752,462.627,822.071,462.8Zm53.574-17.266-37.753-65.391a4.334,4.334,0,0,0-.48.425q-17.776,22.638-35.509,45.309a2,2,0,0,0-.069,1.8c5.345,9.367,10.761,18.694,16.126,28.05a1.392,1.392,0,0,0,1.8.788c10.413-2.078,20.838-4.091,31.259-6.132C859.142,448.791,867.26,447.186,875.645,445.535Zm-79.575-14.66c-1.841,1.06-3.5,2-5.142,2.96-7.1,4.129-14.311,8.092-21.277,12.442a15.956,15.956,0,0,0-6.5,18.345,16.363,16.363,0,0,0,24.023,9.139c7.768-4.393,15.465-8.912,23.193-13.377.656-.379,1.3-.769,2.049-1.21Zm50.1-59.417c-1.863,0-2.841,1.25-3.543,2.589-.251.479.207,1.47.563,2.1,2.161,3.846,4.385,7.656,6.59,11.477q15.928,27.6,31.864,55.185c.264.458.54,1.077.962,1.248,2.061.835,4.974-1.355,4.749-3.6a6.353,6.353,0,0,0-.928-2.395q-12.837-22.3-25.716-44.585-5.677-9.835-11.345-19.675C848.617,372.516,847.722,371.492,846.165,371.459Zm-53.13,106.5c5.51,9.545,10.886,18.883,16.29,28.2a6.542,6.542,0,1,0,11.265-6.646c-2.81-4.913-5.651-9.808-8.482-14.709-2.555-4.423-5.113-8.845-7.739-13.388Zm77.3-80.893,7.786,13.471c1.342-2.024,2.541-3.766,3.646-5.565a1.541,1.541,0,0,0-.076-1.29q-1.723-3.146-3.583-6.215c-.217-.359-.708-.8-1.062-.788C874.93,396.732,872.822,396.907,870.331,397.066Zm-54.64,67.8-5.648,3.286,3.273,5.643,5.652-3.264Z" transform="translate(0 -10.589)"/><path class="a" d="M1111.247,456.337c.811.216,2.119.566,3.427.913,2.991.8,5.994,1.547,8.968,2.4,2.083.6,3.062,2.236,2.576,4.059a3.245,3.245,0,0,1-4.243,2.22c-4-1.019-7.989-2.07-11.963-3.179-2.055-.573-3.079-2.117-2.731-3.839C1107.616,457.261,1108.95,456.255,1111.247,456.337Z" transform="translate(-207.361 -64.521)"/><path class="a" d="M1062.268,362.25c.133-.52.378-1.518.642-2.511.88-3.3,1.732-6.617,2.662-9.906.6-2.115,2.211-3.164,3.972-2.719,1.9.478,2.853,2.16,2.3,4.343-1.026,4.051-2.1,8.092-3.248,12.108a3.143,3.143,0,0,1-3.81,2.488C1063.2,365.747,1062.215,364.462,1062.268,362.25Z" transform="translate(-180.832)"/><path class="a" d="M799.532,604.961c-4.166-.178-6.9-1.6-8.816-4.5a3.251,3.251,0,0,1,.636-4.643c1.412-1.044,3.161-.769,4.5.708,2.038,2.242,3.02,2.4,5.662.883,1.465-.84,2.9-1.726,4.394-2.517,1.906-1.013,3.795-.57,4.721,1.028.94,1.622.414,3.478-1.444,4.6a68.216,68.216,0,0,1-6.135,3.405A19.4,19.4,0,0,1,799.532,604.961Z" transform="translate(-20.157 -145.977)"/><path class="a" d="M859.743,581.635a3.235,3.235,0,1,1-3.176-3.236A3.192,3.192,0,0,1,859.743,581.635Z" transform="translate(-57.485 -136.564)"/></g></svg>