<svg xmlns="http://www.w3.org/2000/svg" width="177.838" height="171.592" viewBox="0 0 177.838 171.592"><defs><style>.a{fill:#676795;}</style></defs><g transform="translate(-803.758 -388.526)"><path class="a" d="M996.142,433.69a22.262,22.262,0,0,1-2.675,2.093c-3.419,1.943-6.917,3.746-10.327,5.7a5.664,5.664,0,0,0-2.005,2c-2.069,3.613-4.01,7.3-6.024,10.943-1.422,2.575-3,2.8-5.052.751-1.312-1.309-2.59-2.652-3.935-3.926a3.241,3.241,0,0,1-.968-3.747c.767-2.24,1.426-4.52,2.061-6.8.137-.491.2-1.293-.078-1.565-3.348-3.258-6.766-6.443-10.312-9.784-1.5,2.7-2.959,5.178-4.234,7.75-.224.453.163,1.407.543,1.93a61.733,61.733,0,0,1,9.826,20.164c4.936,18.144,2.6,35.345-7.266,51.356a61.928,61.928,0,0,1-31.458,25.9,60.7,60.7,0,0,1-34.3,3.057c-23.263-4.778-39.687-18.234-48.122-40.389-7.448-19.562-5.36-38.713,5.84-56.516,10.144-16.125,24.914-25.739,43.627-28.89,15.713-2.646,30.486.437,44.075,8.872,1.029.639,2.049,1.294,3.292,2.08.956-3.122,1.909-6.105,2.741-9.122.1-.374-.346-1.025-.705-1.382q-5.228-5.2-10.534-10.33a4.707,4.707,0,0,0-1.5-.792c-1.12-.462-2.3-.806-3.379-1.339a2.421,2.421,0,0,1-1.3-3.077,2.465,2.465,0,0,1,2.77-1.87c.513.041,1.021.15,1.425.212a32.155,32.155,0,0,1,2.618-4.653c3.871-4.831,10.108-5.053,14.378-.607,2.768,2.881,5.546,5.757,8.182,8.757a2.79,2.79,0,0,0,3.443.876c8.553-2.667,17.15-5.19,25.7-7.871a4.039,4.039,0,0,1,4.787,1.239c1.5,1.686,3.179,3.206,4.765,4.813,2.079,2.1,1.87,3.807-.705,5.25Q981.263,410.41,971.167,416c-.6.335-1.194.691-2.014,1.168.729.779,1.375,1.476,2.027,2.166,2.385,2.527,4.794,5.03,7.143,7.59a1.811,1.811,0,0,0,2.246.62c2.179-.767,4.427-1.334,6.626-2.044a3.338,3.338,0,0,1,3.913.971c1.64,1.862,3.352,3.66,5.033,5.485Zm-81.506,99.765c0-2.545-.2-4.984.038-7.379.676-6.758,4.431-12,8.995-16.623s9.592-8.727,14.162-13.317c4.531-4.55,7.8-9.857,8.4-16.522.295-3.286.764-6.726,3.381-9.067a67.678,67.678,0,0,1,7.777-5.73c1.028-.683,1.5-1.209,1.065-2.445-1.055-3-1.79-6.127-3.087-9.008-1.641-3.645-3.711-7.1-5.769-10.958-1.914,3.448-3.516,6.394-5.178,9.306-1.267,2.218-2.949,2.435-4.763.671s-3.592-3.62-5.47-5.34a3.6,3.6,0,0,1-1.017-4.215c1.194-3.683,2.214-7.424,3.416-11.1.412-1.265.422-2.091-.894-2.817-3.287-1.812-6.385-4.016-9.788-5.558-3.8-1.724-7.859-2.893-11.8-4.3l-.273.547c.3.475.6.948.9,1.427,2.919,4.737,3.812,9.721,2,15.107a29.926,29.926,0,0,1-7.791,12.166c-6.732,6.442-13.769,12.565-20.538,18.969a40.708,40.708,0,0,0-5.744,6.9c-1.593,2.378-1.118,4.543.933,6.579a11.817,11.817,0,0,0,2.6,2.005c2.434,1.328,5.009,2.409,7.392,3.816a49.251,49.251,0,0,1,7.738,5.192c3.508,3.106,2.476,7.352-1.907,8.958-6.29,2.3-12.716,2.274-19.16.9-7.733-1.643-14.2-5.756-20.161-10.75-3.728-3.124-7.352-6.373-11.113-9.454-1.527-1.251-3.144-2.534-5.323-2.643C843.872,512.905,877.546,542.051,914.637,533.456Zm-71.078-60.214a15.791,15.791,0,0,1,8.651,3.98c3.816,3.2,7.561,6.476,11.395,9.651,6.618,5.481,13.823,9.727,22.686,10.211a25.33,25.33,0,0,0,11.469-1.531,13.939,13.939,0,0,0-2-1.677c-3.558-1.92-7.223-3.651-10.708-5.693a28.07,28.07,0,0,1-6.223-4.623c-3.486-3.669-3.5-8.376-.156-13.2a40.692,40.692,0,0,1,5.638-6.562c6.769-6.317,13.74-12.418,20.519-18.725a24.822,24.822,0,0,0,6.282-9.465c2.662-7-1.231-13.071-5.568-16.984a1.96,1.96,0,0,0-1.136-.275,56.02,56.02,0,0,0-20.2,2.593,58.212,58.212,0,0,0-40.639,52.3Zm145.628-40.955a1.86,1.86,0,0,0-2.626-1.06c-2.123.752-4.325,1.277-6.458,2a3.545,3.545,0,0,1-4.18-1.113c-4.027-4.4-8.135-8.726-12.2-13.088-2.217-2.376-1.982-3.845.873-5.418q9.5-5.235,19.008-10.453c.946-.52,1.889-1.046,2.848-1.577-2.257-2.993-2.257-2.99-5.426-2.034-8.357,2.521-16.731,4.988-25.061,7.6a4.025,4.025,0,0,1-4.748-1.314c-3.229-3.559-6.574-7.014-9.907-10.478a3.916,3.916,0,0,0-4.721-1.027c-3.159,1.448-3.833,4.961-1.341,7.359,3.38,3.253,6.755,6.517,10.272,9.617,1.705,1.5,1.947,3.01,1.3,5.078-2.6,8.273-5.083,16.581-7.606,24.877-.9,2.969-.673,3.523,2.172,5.178q6.137-10.977,12.273-21.951c1.362-2.434,2.916-2.686,4.981-.757,4.485,4.192,8.927,8.43,13.428,12.6a3.323,3.323,0,0,1,1.014,3.75c-.7,2.264-1.307,4.56-2.081,6.8a1.764,1.764,0,0,0,1.1,2.529c1.688-3.123,3.249-6.223,5.028-9.193a8.587,8.587,0,0,1,2.821-2.84C982.952,435.56,986.1,433.966,989.186,432.286ZM959.6,469.508c-4.615,2.312-7.872,5.4-8.215,10.824A26.11,26.11,0,0,1,944.2,496.7c-4.119,4.439-8.593,8.559-13.041,12.68-3.975,3.683-7.73,7.52-9.941,12.545a16.655,16.655,0,0,0-1.194,10.108C949.185,522.44,963.274,493.394,959.6,469.508Z" transform="translate(-14.546)"/><path class="a" d="M1087.976,545.541c.142-2.061.2-3.507.353-4.941a2.48,2.48,0,0,1,2.7-2.37,2.433,2.433,0,0,1,2.588,2.464c-.005,2.768-.125,5.542-.352,8.3a2.457,2.457,0,0,1-2.761,2.3,2.515,2.515,0,0,1-2.51-2.562C1087.921,547.467,1087.976,546.193,1087.976,545.541Z" transform="translate(-122.783 -64.677)"/><path class="a" d="M915.887,682.9c-2.218-.587-5.087-1.218-7.861-2.137a2.294,2.294,0,0,1-1.362-3.143,2.421,2.421,0,0,1,2.954-1.782c2.594.52,5.171,1.132,7.748,1.739a2.53,2.53,0,0,1,2.089,2.931C919.342,681.936,918.134,682.865,915.887,682.9Z" transform="translate(-44.382 -124.098)"/><path class="a" d="M927.5,397.066c2.489-.065,3.657.76,3.9,2.23a2.713,2.713,0,0,1-2.526,3.115c-2.439.428-4.9.768-7.36,1.029a2.522,2.522,0,0,1-2.983-2.212,2.584,2.584,0,0,1,2.164-3.049C923.181,397.693,925.7,397.355,927.5,397.066Z" transform="translate(-49.572 -3.688)"/><path class="a" d="M804.779,516.869c.331-1.827.722-4.4,1.281-6.93a2.648,2.648,0,0,1,3.26-2.1,2.732,2.732,0,0,1,1.982,3.206c-.385,2.393-.8,4.784-1.259,7.163-.354,1.82-1.569,2.734-3.142,2.485C805.487,520.466,804.706,519.346,804.779,516.869Z" transform="translate(-0.439 -51.511)"/><path class="a" d="M958.725,396.428c1.8.215,3.93.432,6.044.734a2.8,2.8,0,0,1,2.668,3.034,2.872,2.872,0,0,1-3.285,2.413q-3.451-.284-6.883-.8c-1.99-.295-2.927-1.453-2.7-3.108.209-1.551,1.327-2.32,3.314-2.278C958.052,396.431,958.225,396.428,958.725,396.428Z" transform="translate(-65.139 -3.413)"/><path class="a" d="M887.407,413.479a11.475,11.475,0,0,1-2.218-2.249,2.114,2.114,0,0,1,.956-2.98c2.579-1.248,5.233-2.362,7.923-3.348a2.307,2.307,0,0,1,2.91,1.281c.6,1.147.587,2.538-.5,3.115C893.656,410.8,890.672,412,887.407,413.479Z" transform="translate(-35.06 -7.011)"/><path class="a" d="M1022.889,662.549a7.135,7.135,0,0,1-1.523,1.709c-1.934,1.258-3.961,2.38-5.992,3.481a2.731,2.731,0,0,1-3.821-.793,2.636,2.636,0,0,1,1.1-3.845,68.065,68.065,0,0,1,6.474-3.671C1021.1,658.495,1023.01,659.876,1022.889,662.549Z" transform="translate(-89.582 -116.913)"/><path class="a" d="M809.626,552.292c0,.927.03,1.45-.006,1.967a2.445,2.445,0,0,1-2.294,2.426,2.385,2.385,0,0,1-2.872-1.944,70.133,70.133,0,0,1-.695-8.286,2.63,2.63,0,0,1,5.206-.312C809.29,548.313,809.442,550.509,809.626,552.292Z" transform="translate(0 -67.175)"/><path class="a" d="M948.754,680.915c1.1,0,2.2-.032,3.3.008a2.618,2.618,0,0,1,2.76,2.531,2.428,2.428,0,0,1-2.32,2.744,75.842,75.842,0,0,1-7.976.206,2.647,2.647,0,0,1-.1-5.265c1.432-.135,2.887-.029,4.332-.029Z" transform="translate(-59.766 -126.316)"/><path class="a" d="M812.738,579.175c.4.389,1.462,1,1.861,1.906a65.61,65.61,0,0,1,2.414,6.863,2.686,2.686,0,0,1-1.566,3.425,2.615,2.615,0,0,1-3.453-1.494c-.948-2.417-1.806-4.881-2.522-7.376C808.961,580.726,810.224,579.228,812.738,579.175Z" transform="translate(-2.42 -82.366)"/><path class="a" d="M856.481,647.273c.034,2.355-2.223,3.876-3.84,2.67a57.335,57.335,0,0,1-6.526-5.867,2.6,2.6,0,0,1,3.511-3.707c2.178,1.782,4.235,3.717,6.283,5.652A3.152,3.152,0,0,1,856.481,647.273Z" transform="translate(-18.041 -108.582)"/><path class="a" d="M1051.555,638.944a10.945,10.945,0,0,1-1.219,2.2c-1.633,1.711-3.32,3.377-5.063,4.975a2.72,2.72,0,0,1-3.894.05c-1.115-1.128-1.066-2.689.223-4a57.047,57.047,0,0,1,4.995-4.788,3.723,3.723,0,0,1,2.945-.579C1050.333,637.036,1050.864,638.161,1051.555,638.944Z" transform="translate(-102.317 -107.221)"/><path class="a" d="M837.417,444.978c2.3.019,3.751,2.256,2.62,3.943a64.833,64.833,0,0,1-5.142,6.488,2.33,2.33,0,0,1-3.3.223c-1.16-.84-1.66-2.128-.816-3.329,1.616-2.3,3.42-4.476,5.229-6.633C836.368,445.24,837.1,445.123,837.417,444.978Z" transform="translate(-11.492 -24.389)"/><path class="a" d="M883.524,670.881a22.036,22.036,0,0,1-2.166-.808q-2.765-1.43-5.49-2.938c-1.833-1.015-2.41-2.493-1.6-3.964.772-1.406,2.318-1.775,4.071-.868,2.1,1.086,4.177,2.213,6.221,3.4a2.318,2.318,0,0,1,1.065,3.132C885.2,669.685,884.2,670.252,883.524,670.881Z" transform="translate(-30.307 -118.066)"/><path class="a" d="M833.25,620.96c-.465.546-.968,1.666-1.749,1.915a3.283,3.283,0,0,1-2.9-.494,55.3,55.3,0,0,1-4.674-7.019,2.3,2.3,0,0,1,1.055-3.129,2.23,2.23,0,0,1,3.145.293c1.719,2.3,3.226,4.751,4.8,7.155A5.7,5.7,0,0,1,833.25,620.96Z" transform="translate(-8.59 -96.431)"/><path class="a" d="M816.781,486.79c-2.295.074-3.769-1.689-3.128-3.411a75.472,75.472,0,0,1,3.225-7.284,2.458,2.458,0,0,1,3.413-1.159,2.6,2.6,0,0,1,1.363,3.5c-.942,2.3-1.927,4.591-3.088,6.784C818.162,485.988,817.184,486.452,816.781,486.79Z" transform="translate(-4.21 -37.216)"/><path class="a" d="M1082.9,586.624a2.576,2.576,0,0,1-2.555-3.161c.65-2.507,1.423-4.987,2.283-7.43a2.55,2.55,0,0,1,3.381-1.588,2.645,2.645,0,0,1,1.69,3.2q-.985,3.581-2.193,7.1A2.5,2.5,0,0,1,1082.9,586.624Z" transform="translate(-119.461 -80.251)"/><path class="a" d="M857.248,431.271c-.5-.409-1.519-.865-1.838-1.618a2.981,2.981,0,0,1,.186-2.667,64.391,64.391,0,0,1,6.948-5.353,2.267,2.267,0,0,1,3.07.794c.793,1.019.983,2.341.031,3.157-2.263,1.938-4.719,3.652-7.117,5.431C858.322,431.169,857.976,431.134,857.248,431.271Z" transform="translate(-22.221 -14.161)"/><path class="a" d="M1073.668,609.708a16.547,16.547,0,0,1-.838,2.166q-1.661,2.83-3.423,5.6c-1.016,1.594-2.629,2.046-3.97,1.187s-1.624-2.353-.684-3.95c1.168-1.984,2.381-3.943,3.609-5.892a2.457,2.457,0,0,1,3.248-1.2C1072.467,608.038,1073.037,609.041,1073.668,609.708Z" transform="translate(-112.521 -94.552)"/><path class="a" d="M1090.875,512.331c-.065,1.823-.775,2.827-2.2,3.087a2.418,2.418,0,0,1-2.986-1.77,75.978,75.978,0,0,1-1.663-7.781,2.413,2.413,0,0,1,2.078-2.778,2.372,2.372,0,0,1,3.026,1.671C1089.864,507.363,1090.359,510.033,1090.875,512.331Z" transform="translate(-121.071 -49.458)"/><path class="a" d="M987.86,673.9c.575.585,1.591,1.223,2,2.134a2.177,2.177,0,0,1-1.268,3.029,69.407,69.407,0,0,1-8.162,2.25,2.62,2.62,0,0,1-1.278-4.972C981.831,675.451,984.588,674.8,987.86,673.9Z" transform="translate(-75.127 -123.292)"/></g></svg>