<svg xmlns="http://www.w3.org/2000/svg" width="162.057" height="171.593" viewBox="0 0 162.057 171.593"><defs><style>.a{fill:#676795;}</style></defs><g transform="translate(-767.13 -335.734)"><path class="a" d="M867.593,507.327c-1.57-.684-3.395-1.066-4.647-2.126a21.87,21.87,0,0,1-4.322-5.17c-.645-1.042-1.1-1.494-2.337-1.491q-28.65.062-57.3.029-13.236,0-26.472,0c-3.758,0-5.384-1.631-5.384-5.406q0-75.98,0-151.96c0-3.886,1.572-5.439,5.487-5.439q53.446,0,106.892-.028a6.732,6.732,0,0,1,5.311,2.271c4.223,4.537,8.567,8.962,12.771,13.516a4.614,4.614,0,0,1,1.145,2.8c.1,6.2.074,12.4.052,18.6-.006,1.759-.942,2.788-2.411,2.829-1.527.043-2.576-1.018-2.594-2.852-.047-4.747-.017-9.494-.018-14.241v-2.432h-5.861c-1.676,0-3.351.018-5.027-.006a4.292,4.292,0,0,1-4.543-4.494c-.038-3.566-.009-7.134-.009-10.813H772.295V493.4H857.54c0-1.63,0-3.281,0-4.931,0-1.508-.031-3.016.01-4.523.048-1.736.992-2.775,2.459-2.8,1.532-.026,2.534,1.05,2.551,2.872.032,3.518,0,7.037.013,10.555.019,4.887,2.818,7.718,7.683,7.722q23.037.018,46.074,0c4.967,0,7.795-2.807,7.807-7.787.024-9.438.008-18.876.008-28.315q0-21.445,0-42.891c0-5.715-2.676-8.367-8.439-8.368q-22.367,0-44.734,0c-5.766,0-8.4,2.632-8.4,8.381q0,20.189,0,40.378c0,.5.023,1.007-.015,1.507a2.554,2.554,0,0,1-2.53,2.585,2.5,2.5,0,0,1-2.464-2.645c-.057-3.294-.02-6.589-.022-9.885,0-.6,0-1.205,0-2.021h-2.1q-11.9,0-23.791,0c-.558,0-1.118,0-1.672-.052a2.472,2.472,0,0,1,.013-4.944,18.72,18.72,0,0,1,2.008-.05c8.429,0,16.859,0,25.413,0v-7.724h-1.993q-11.9,0-23.791,0c-.613,0-1.229-.013-1.838-.073a2.256,2.256,0,0,1-2.221-2.3,2.281,2.281,0,0,1,2.117-2.557,12.419,12.419,0,0,1,1.833-.112q11.9-.011,23.791-.005h2.113v-7.72h-1.856q-11.98,0-23.959,0a18.292,18.292,0,0,1-1.839-.065,2.436,2.436,0,0,1-.225-4.817,11.073,11.073,0,0,1,1.994-.151q11.979-.014,23.958-.006h1.612l2.149-7.718h-1.467q-13.152,0-26.3,0a14.516,14.516,0,0,1-1.839-.071,2.232,2.232,0,0,1-2.078-2.249,2.2,2.2,0,0,1,1.771-2.491,10.3,10.3,0,0,1,2.32-.206q29.906-.016,59.812-.008h2.292v-7.854c0-3.351-.025-6.7.011-10.053.021-1.971,1-3.062,2.588-3.028,1.529.032,2.38,1.076,2.426,2.98.009.391,0,.782,0,1.173v16.7c.741.034,1.335.083,1.929.084,5.138.006,10.276-.016,15.414.008,8.017.037,13.038,5.076,13.042,13.118q.019,33.341,0,66.682A63.163,63.163,0,0,1,929,496.4c-.6,5.56-3.931,9.253-9.374,10.643a7.151,7.151,0,0,0-.766.287Zm15.855-162.38v6.085h6.016Z"/><path class="a" d="M1030.079,561.047q-11.05,0-22.1,0c-3.467,0-5.109-1.63-5.124-5.113q-.031-7.031,0-14.063c.02-3.391,1.644-4.975,5.058-4.976q22.267-.01,44.534,0c3.3,0,4.917,1.614,4.926,4.911q.021,7.2,0,14.4c-.012,3.154-1.7,4.834-4.861,4.84Q1041.3,561.063,1030.079,561.047Zm22.17-5.11V542.027h-44.206v13.911Z" transform="translate(-136.786 -116.734)"/><path class="a" d="M1013.505,618.767c0-2.063-.031-4.127.008-6.189a4.226,4.226,0,0,1,4.374-4.469q6.272-.079,12.546,0a4.186,4.186,0,0,1,4.386,4.293q.127,6.354.008,12.712a4.2,4.2,0,0,1-4.468,4.378q-6.189.057-12.379,0a4.228,4.228,0,0,1-4.469-4.536C1013.477,622.894,1013.5,620.831,1013.505,618.767Zm16.2,5.62V613.234h-11.083v11.153Z" transform="translate(-142.97 -158.042)"/><path class="a" d="M1013.505,680.243c0-2.119-.039-4.239.012-6.357a4.188,4.188,0,0,1,4.35-4.311q6.272-.075,12.546,0a4.162,4.162,0,0,1,4.4,4.266q.127,6.438,0,12.88a4.181,4.181,0,0,1-4.436,4.239q-6.189.062-12.379,0a4.25,4.25,0,0,1-4.487-4.527C1013.475,684.37,1013.5,682.306,1013.505,680.243Zm16.238-5.524h-11.084V685.8h11.084Z" transform="translate(-142.969 -193.714)"/><path class="a" d="M1092.661,680.258c0,2.064.024,4.128-.007,6.192a4.3,4.3,0,0,1-4.529,4.509q-6.191.055-12.383,0a4.267,4.267,0,0,1-4.464-4.417q-.093-6.274,0-12.551a4.246,4.246,0,0,1,4.457-4.415q6.275-.068,12.551,0a4.277,4.277,0,0,1,4.373,4.491c0,.112,0,.223,0,.335Q1092.661,677.329,1092.661,680.258Zm-16.311,5.576h11.139V674.719H1076.35Z" transform="translate(-176.476 -193.712)"/><path class="a" d="M1092.66,618.811c0,2.064.025,4.128-.006,6.192a4.283,4.283,0,0,1-4.534,4.495q-6.191.051-12.383,0a4.244,4.244,0,0,1-4.458-4.413q-.093-6.274,0-12.55a4.273,4.273,0,0,1,4.463-4.42q6.191-.072,12.383,0a4.3,4.3,0,0,1,4.529,4.511C1092.684,614.683,1092.66,616.747,1092.66,618.811Zm-5.175,5.6V613.252h-11.094v11.155Z" transform="translate(-176.476 -158.046)"/><path class="a" d="M896.954,414.356c-7.756,0-15.512.014-23.268-.02a4.013,4.013,0,0,1-2.364-.51,2.97,2.97,0,0,1-1.021-2.244,3.327,3.327,0,0,1,1.518-1.957,4.123,4.123,0,0,1,2.109-.293q23.184-.021,46.368-.01c.279,0,.559-.01.837,0,1.8.1,2.95,1.106,2.925,2.571s-1.167,2.447-3,2.451Q909.007,414.374,896.954,414.356Z" transform="translate(-59.867 -42.703)"/><path class="a" d="M938.089,487.106q-11.548,0-23.1,0a10.232,10.232,0,0,1-1.835-.089,2.022,2.022,0,0,1-1.884-2.184,4.505,4.505,0,0,1,1.547-2.451c.45-.39,1.381-.3,2.1-.3q23.18-.021,46.36,0c.716,0,1.648-.09,2.1.3.708.62,1.549,1.65,1.482,2.435s-1.091,1.6-1.868,2.163c-.413.3-1.189.125-1.8.125Q949.637,487.11,938.089,487.106Z" transform="translate(-83.638 -84.92)"/><path class="a" d="M887.837,388.253q6.944,0,13.889,0a11.5,11.5,0,0,1,1.668.083,2.267,2.267,0,0,1,2.061,2.273,2.232,2.232,0,0,1-1.814,2.464,8.492,8.492,0,0,1-1.985.2q-13.889.018-27.779.007c-2.57,0-3.8-.807-3.84-2.487s1.206-2.535,3.744-2.538Q880.809,388.248,887.837,388.253Z" transform="translate(-59.718 -30.477)"/><path class="a" d="M815.97,603.688c1.507,0,3.018-.065,4.52.017,1.684.092,2.593,1.021,2.6,2.464a2.378,2.378,0,0,1-2.569,2.5c-3.012.09-6.029.085-9.041.013a2.524,2.524,0,0,1-2.724-2.561c.043-1.378,1.045-2.284,2.692-2.433.111-.01.223-.013.334-.013h4.187Z" transform="translate(-24.156 -155.485)"/><path class="a" d="M864.969,603.686c1.507,0,3.017-.061,4.519.016a2.476,2.476,0,0,1,2.648,2.438,2.419,2.419,0,0,1-2.557,2.521q-4.6.132-9.205,0a2.377,2.377,0,0,1-2.547-2.516c.02-1.44.93-2.354,2.622-2.444C861.952,603.624,863.462,603.687,864.969,603.686Z" transform="translate(-52.633 -155.485)"/><path class="a" d="M815.908,487.084c-1.507,0-3.015.017-4.522-.005a2.477,2.477,0,1,1-.158-4.951c3.177-.1,6.364-.1,9.54.019a2.281,2.281,0,0,1,2.326,2.544,2.4,2.4,0,0,1-2.5,2.388c-.111.01-.223.015-.334.015h-4.355Z" transform="translate(-24.166 -84.912)"/><path class="a" d="M815.95,517.483c-1.507,0-3.016.042-4.521-.013a2.429,2.429,0,0,1-2.637-2.432,2.365,2.365,0,0,1,2.416-2.5c3.177-.092,6.362-.1,9.538.01a2.285,2.285,0,0,1,2.359,2.513c0,1.437-.975,2.35-2.635,2.41C818.966,517.527,817.457,517.485,815.95,517.483Z" transform="translate(-24.176 -102.564)"/><path class="a" d="M864.966,517.476c-1.507,0-3.014.023-4.52-.006a2.35,2.35,0,0,1-2.6-2.269,2.3,2.3,0,0,1,2.371-2.657c3.175-.117,6.359-.1,9.535,0a2.318,2.318,0,0,1,2.373,2.514c.021,1.414-1,2.312-2.64,2.421-.111.007-.223.01-.334.01h-4.185Z" transform="translate(-52.636 -102.558)"/><path class="a" d="M865,547.883c-1.562,0-3.127.062-4.685-.018a2.313,2.313,0,0,1-2.468-2.394,2.269,2.269,0,0,1,2.356-2.5c3.176-.1,6.358-.092,9.534-.01a2.314,2.314,0,0,1,2.4,2.484c.04,1.411-.974,2.367-2.617,2.438-1.5.065-3.012.014-4.519.014Z" transform="translate(-52.644 -120.22)"/><path class="a" d="M864.989,487.063c-1.507,0-3.015.043-4.521-.011a2.486,2.486,0,1,1-.115-4.967q4.6-.145,9.207-.006a2.471,2.471,0,0,1,2.576,2.527c-.016,1.463-1.052,2.4-2.795,2.455-1.45.042-2.9.008-4.354.008Z" transform="translate(-52.633 -84.888)"/><path class="a" d="M815.978,547.877c-1.562,0-3.128.058-4.687-.017a2.453,2.453,0,0,1-2.529-2.382,2.421,2.421,0,0,1,2.386-2.52c3.177-.1,6.36-.1,9.537-.011a2.289,2.289,0,0,1,2.4,2.468c.022,1.448-.928,2.38-2.591,2.456-1.5.068-3.013.014-4.52.014Z" transform="translate(-24.159 -120.211)"/><path class="a" d="M815.914,578.246c-1.507,0-3.017.059-4.52-.016a2.483,2.483,0,1,1-.019-4.957c3.067-.084,6.141-.091,9.208.007a2.376,2.376,0,0,1,2.511,2.553c-.038,1.431-.971,2.281-2.658,2.422-.111.009-.223.01-.334.01h-4.187Z" transform="translate(-24.158 -137.811)"/><path class="a" d="M864.937,578.24c-1.507,0-3.016.062-4.519-.016a2.481,2.481,0,1,1-.011-4.957c3.011-.091,6.027-.088,9.039-.01a2.495,2.495,0,1,1,.011,4.974c-1.5.068-3.013.015-4.519.015Z" transform="translate(-52.634 -137.805)"/><path class="a" d="M924.462,436.134c-1.507,0-3.018.065-4.52-.018a2.407,2.407,0,0,1-2.482-2.414,2.377,2.377,0,0,1,2.414-2.482c3.121-.1,6.25-.1,9.37.018a2.438,2.438,0,0,1-.094,4.873c-1.561.057-3.125.013-4.687.013Z" transform="translate(-87.239 -55.372)"/><path class="a" d="M971.874,436.138c-1.452,0-2.906.057-4.354-.014-1.675-.082-2.623-1.008-2.6-2.45a2.29,2.29,0,0,1,2.4-2.469c3.067-.095,6.14-.092,9.207-.01a2.36,2.36,0,0,1,2.46,2.447,2.449,2.449,0,0,1-2.593,2.48C974.892,436.193,973.382,436.137,971.874,436.138Z" transform="translate(-114.78 -55.362)"/><path class="a" d="M877.054,436.148c-1.452,0-2.906.052-4.354-.014a2.517,2.517,0,0,1-2.658-2.436,2.421,2.421,0,0,1,2.426-2.482c3.121-.094,6.251-.1,9.371.026a2.254,2.254,0,0,1,2.284,2.556,2.349,2.349,0,0,1-2.38,2.325,3.309,3.309,0,0,1-.334.03q-2.177,0-4.355,0Z" transform="translate(-59.721 -55.371)"/></g></svg>