<svg xmlns="http://www.w3.org/2000/svg" width="162" height="144.364" viewBox="0 0 162 144.364"><defs><style>.a{fill:#676795;}</style></defs><g transform="translate(-704 -311.964)"><path class="a" d="M866,416.071c-.241.8-.46,1.6-.726,2.39a13.605,13.605,0,0,1-12.4,9.23c-2.262.115-4.534.075-6.8.033-1.694-.032-2.71-1.04-2.655-2.485.053-1.4,1.014-2.221,2.69-2.24,2-.022,4.008.025,6.011-.015a8.9,8.9,0,0,0,9.132-9.246c.021-3.732,0-7.463,0-11.286h-152.4c-.036.386-.1.788-.106,1.19-.008,3.428-.028,6.856,0,10.283a8.876,8.876,0,0,0,8.682,9.047c.631.033,1.265.02,1.9.02H832.76c.474,0,.949-.01,1.424,0,1.6.045,2.645.946,2.67,2.294a2.433,2.433,0,0,1-2.578,2.43c-1.474.061-2.952.019-4.429.019h-24.7l3.353,14.226c1.435,0,2.8-.032,4.162.006a5.567,5.567,0,0,1,5.609,5.637c.032,1.159.044,2.323-.023,3.479a5.576,5.576,0,0,1-5.053,5.2c-.21.019-.421.035-.632.035q-27.526,0-55.052.007a5.59,5.59,0,0,1-4.24-1.785c-2.214-2.333-2.247-8.391-.05-10.753a5.367,5.367,0,0,1,4.059-1.823c1.365,0,2.73,0,4.223,0l3.367-14.228h-2.019q-21.91,0-43.821,0c-8.072,0-12.807-3.647-14.843-11.417-.024-.093-.119-.167-.181-.251V346.458c.861-.971,1.772-1.854,3.228-1.268s1.582,1.826,1.52,3.155c-.017.368,0,.738,0,1.107V397.48h8.246v-2.02q0-31.4,0-62.795c0-5.171,2.505-7.7,7.626-7.7H845.458c5.005,0,7.548,2.567,7.549,7.622q0,31.477,0,62.953v1.971h8.169c.029-.5.074-.909.074-1.322q.005-35.194-.006-70.387a8.787,8.787,0,0,0-9.1-9.081q-67.142-.018-134.283,0a8.814,8.814,0,0,0-9.115,9.067q-.037,4.666,0,9.332c.012,1.33-.091,2.561-1.545,3.141-1.477.589-2.359-.319-3.21-1.3v-13.29c.1-.3.229-.586.3-.889a13.532,13.532,0,0,1,13.4-10.807q67.3-.03,134.6,0a13.516,13.516,0,0,1,13.4,10.81,8.63,8.63,0,0,0,.3.886Zm-17.738-18.554v-1.633q0-31.631,0-63.262c0-2.458-.463-2.908-2.972-2.908H724.781c-2.616,0-3.042.419-3.042,2.995q0,31.552,0,63.1c0,.557.046,1.113.073,1.705Zm-81.82,44.263h37.122c-1.056-4.495-2.044-8.8-3.116-13.085a1.538,1.538,0,0,0-1.123-.915q-14.305-.077-28.611-.009a1.437,1.437,0,0,0-1.121.729C768.5,432.883,767.495,437.285,766.442,441.78Zm18.724,4.927q-13.363,0-26.726.017c-.594,0-1.67.18-1.7.395a12.769,12.769,0,0,0-.052,3.88c.051.3,1.335.565,2.053.567q26.252.046,52.5.024c.369,0,.818.124,1.088-.041a2.9,2.9,0,0,0,1.149-1.151,4.12,4.12,0,0,0,.05-1.563c-.006-2.1-.022-2.125-2.112-2.126Q798.292,446.7,785.166,446.706Z" transform="translate(0 0)"/><path class="a" d="M941.557,620.183a8.5,8.5,0,0,1-8.553-8.51,8.542,8.542,0,1,1,17.083-.026A8.511,8.511,0,0,1,941.557,620.183Zm-.056-4.753a3.779,3.779,0,0,0,3.836-3.766,3.791,3.791,0,0,0-7.581-.086A3.774,3.774,0,0,0,941.5,615.43Z" transform="translate(-156.546 -199.019)"/><path class="a" d="M951.394,401.527c.263-2.549.62-4.847.713-7.156.221-5.459,4.3-9.066,9.384-8.657a27.06,27.06,0,0,1,3.459.212,8.283,8.283,0,0,1,6.455,7.319c.249,2.251.512,4.5.645,6.764.066,1.118.386,1.537,1.584,1.539,4.239.007,5.728,1.451,6.111,5.7a6.8,6.8,0,0,1,.148,1.57c-.5,3.248,1.131,4.661,4.063,5.683,5.161,1.8,10.182,4.006,15.233,6.11a4.77,4.77,0,0,1,2.906,6.3,4.7,4.7,0,0,1-3.291,2.933c-1.717.48-3.432.969-5.471,1.545,1.7,1.7,3.237,3.239,4.771,4.778,1.714,1.719,2.009,3.058.932,4.2-1.17,1.236-2.477.984-4.3-.837-1.522-1.524-3.038-3.055-4.763-4.79-.527,1.874-1.006,3.5-1.438,5.136a4.768,4.768,0,0,1-3.6,3.8,4.9,4.9,0,0,1-5.094-1.735,2.814,2.814,0,0,0-1.918-.647q-16.287-.058-32.575-.019a4.843,4.843,0,0,1-3.89-1.366,3.777,3.777,0,0,1-.995-4.228c2.442-5.1,1.894-10.616,2.453-15.97.464-4.453.656-8.933,1.021-13.4a4.958,4.958,0,0,1,5.111-4.773C949.781,401.5,950.509,401.527,951.394,401.527Zm-2.668,4.822c-.137,1.709-.209,3.281-.4,4.841-1,8.375-.326,16.946-2.844,25.187h31.951c-.314-.79-.56-1.421-.813-2.049-1.95-4.827-3.939-9.639-5.84-14.486a5.759,5.759,0,0,1,3.121-7.735c.428-.179.872-.319,1.418-.517l-.411-5.24ZM983.562,438.8l.351-.061c.641-2.318,1.357-4.619,1.9-6.96a5.638,5.638,0,0,1,4.629-4.568c2.354-.548,4.667-1.271,7.42-2.033-7.343-2.976-14.249-5.784-21.172-8.55a1.391,1.391,0,0,0-1.262.166,1.671,1.671,0,0,0-.182,1.4C977.989,425.07,980.781,431.931,983.562,438.8Zm-16.13-37.374c-.253-2.561-.484-5.01-.74-7.457a3.635,3.635,0,0,0-2.943-3.443c-3.33-.578-5.569.117-6.444,2a1.047,1.047,0,0,0-.108.3c-.352,2.842-.7,5.684-1.058,8.6Z" transform="translate(-161.439 -50.394)"/><path class="a" d="M811.443,399.4c3.74,0,7.481-.023,11.221.005,5.1.039,7.9,2.869,7.923,7.959.007,1.528.048,3.057-.014,4.583-.169,4.148-3.007,7.1-7.131,7.14q-12.089.128-24.18,0c-4.18-.046-7.041-3.1-7.125-7.307-.031-1.58-.017-3.161,0-4.742.038-4.6,2.843-7.47,7.456-7.631.105,0,.211,0,.316,0Zm-.031,4.749c-3.9,0-7.792-.028-11.687.012-1.977.021-2.8.864-2.839,2.791-.033,1.579-.041,3.16,0,4.738.051,1.755.895,2.656,2.649,2.663q11.845.048,23.69,0c1.726-.008,2.545-.927,2.6-2.71.046-1.42.021-2.843.01-4.264-.02-2.474-.738-3.211-3.215-3.223C818.888,404.132,815.15,404.146,811.412,404.149Z" transform="translate(-60.238 -59.765)"/><path class="a" d="M811.334,488.689c-3.9,0-7.8.022-11.7-.005-4.574-.032-7.468-2.949-7.512-7.534-.016-1.633-.036-3.267.006-4.9a7.074,7.074,0,0,1,7.224-7.212q12.012-.083,24.024,0a6.883,6.883,0,0,1,7.1,6.461,38.6,38.6,0,0,1,0,6.784,6.87,6.87,0,0,1-6.973,6.4c-.105,0-.211,0-.316,0Zm-.079-4.747c3.948,0,7.9.018,11.846-.008,1.815-.012,2.648-.79,2.714-2.557.063-1.683.065-3.371,0-5.053a2.356,2.356,0,0,0-2.6-2.543q-11.846-.045-23.692,0c-1.736.006-2.587.913-2.639,2.669-.044,1.473-.021,2.948-.009,4.422.019,2.275.776,3.058,3.012,3.067C803.674,483.954,807.464,483.943,811.255,483.942Z" transform="translate(-60.229 -107.346)"/></g></svg>