<svg xmlns="http://www.w3.org/2000/svg" width="184.032" height="138.61" viewBox="0 0 184.032 138.61"><defs><style>.a{fill:#676795;}</style></defs><g transform="translate(-826.473 273.586)"><path class="a" d="M840.16-246.412h-8.3V-140.39h173.373v-2.1c0-4.181-.03-8.363.019-12.544.022-1.852,1-2.9,2.539-2.956a2.443,2.443,0,0,1,2.677,2.562q.075,8.932,0,17.866a2.413,2.413,0,0,1-2.51,2.548c-.63.049-1.266.034-1.9.034q-87.6,0-175.206,0c-3.893,0-4.379-.484-4.379-4.351q0-54.074,0-108.149c0-3.732.569-4.311,4.238-4.312,3.085,0,6.17,0,9.449,0,0-3.228-.013-6.252,0-9.276.014-2.479.825-3.315,3.281-3.342,3.293-.036,6.586-.029,9.88-.048a3.538,3.538,0,0,0,.662-.229c0-1.693-.015-3.5,0-5.3.027-2.7.815-3.484,3.513-3.551,12.626-.314,25.03.88,36.967,5.354a68.206,68.206,0,0,1,22.347,13.723c.51.467,1.03.923,1.57,1.407,2.574-2.108,5.028-4.288,7.655-6.237a70.772,70.772,0,0,1,34.871-13.329c6.084-.689,12.25-.7,18.383-.892,2.925-.093,3.633.759,3.65,3.763.01,1.7,0,3.4,0,5.335,2.593,0,4.983.029,7.372-.006,6.706-.1,6.6-.067,6.506,6.6-.027,1.9,0,3.8,0,5.937.668.033,1.268.086,1.868.088,2.977.011,5.955-.028,8.931.023,1.865.031,2.849.975,2.858,2.806q.053,10.548,0,21.1a2.484,2.484,0,0,1-2.678,2.764c-1.536-.046-2.533-1.1-2.549-2.944-.046-5.322-.019-10.644-.02-15.966v-2.365h-8.41v2.309q0,45.236,0,90.472c0,3.734-.553,4.292-4.282,4.292q-35.44,0-70.88,0-38.566,0-77.131,0c-3.856,0-4.368-.519-4.368-4.4q0-45.141,0-90.282ZM915.686-156.2a2.217,2.217,0,0,0,.12-.455q.014-45.222-.019-90.443a3.051,3.051,0,0,0-.9-1.918,62.8,62.8,0,0,0-15.125-11.041c-11.735-6.117-24.384-8.125-37.436-8.311-.986-.014-1.974,0-3.029,0,0,2.462,0,4.609,0,6.758q-.023,45.221-.077,90.442c0,1.418.489,1.758,1.808,1.957,14.954,2.261,29.8,5.059,44.287,9.494C908.8-158.656,912.225-157.384,915.686-156.2Zm5.46.108c1.78-.644,3.365-1.24,4.964-1.793,16.142-5.585,32.849-8.7,49.667-11.307,1.521-.235,1.959-.7,1.957-2.218q-.065-44.26-.033-88.521v-8.441c-.913,0-1.538-.043-2.154.007-5.734.459-11.518.6-17.188,1.47a65.028,65.028,0,0,0-35.793,17.341,4.3,4.3,0,0,0-1.448,3.447q.057,43.88.028,87.761Zm61.8-102.951v2.525q0,39.8,0,79.607c0,2.913-.017,5.827.042,8.739.049,2.467-.769,3.43-3.207,3.762a332.394,332.394,0,0,0-42.74,8.57c-1.025.28-2.02.674-3.439,1.154h57.806V-259.046ZM902.884-154.628l.041-.285c-.711-.224-1.418-.469-2.136-.669a318.746,318.746,0,0,0-43.834-8.851c-2.2-.292-3.068-1.321-3.008-3.564.015-.57.036-1.139.036-1.709q0-43.6,0-87.194v-2.107h-8.4v104.38Z" transform="translate(0 0)"/><path class="a" d="M1184.555-151.294c0,2.594.027,5.189-.008,7.782-.026,1.792-1.028,2.91-2.53,2.95a2.625,2.625,0,0,1-2.693-2.816q-.089-7.97,0-15.944a2.654,2.654,0,0,1,2.656-2.864,2.659,2.659,0,0,1,2.569,2.919C1184.583-156.609,1184.555-153.951,1184.555-151.294Z" transform="translate(-174.059 -54.96)"/><path class="a" d="M1184.554-92.988c0,2.6.023,5.193-.008,7.789-.022,1.786-1.011,2.95-2.476,3.027a2.7,2.7,0,0,1-2.759-2.967q-.073-7.883,0-15.767a2.59,2.59,0,0,1,2.606-2.887c1.651-.017,2.6,1.038,2.627,3.017C1184.578-98.181,1184.554-95.585,1184.554-92.988Z" transform="translate(-174.058 -83.768)"/><path class="a" d="M909.786-148.6a74.111,74.111,0,0,1,35.626,11.033c1.854,1.14,2.346,2.664,1.391,4.091-.905,1.353-2.313,1.512-4.171.376a59.264,59.264,0,0,0-17.648-7.662c-5.089-1.158-10.3-1.815-15.477-2.541-2.187-.307-3.426-1.093-3.4-2.736C906.14-147.754,907.491-148.7,909.786-148.6Z" transform="translate(-39.289 -61.66)"/><path class="a" d="M909.23-112.7c13.556.758,25.294,4.349,36.046,11.032a4.34,4.34,0,0,1,1.863,2.387,2.444,2.444,0,0,1-3.392,2.691,13.228,13.228,0,0,1-1.987-1.1,68.4,68.4,0,0,0-31.81-9.684c-2.579-.141-3.845-.977-3.833-2.689C906.128-111.875,907.532-112.776,909.23-112.7Z" transform="translate(-39.292 -79.372)"/><path class="a" d="M911.27-220.427a73.192,73.192,0,0,1,33.668,10.655c.324.2.657.384.966.6a2.514,2.514,0,0,1,.895,3.63c-.858,1.437-2.208,1.567-3.638.819-3.136-1.639-6.187-3.463-9.406-4.916a67.58,67.58,0,0,0-24.629-5.692c-2.468-.126-3.889-2.14-2.632-3.865a4.764,4.764,0,0,1,2.515-1.344A7.108,7.108,0,0,1,911.27-220.427Z" transform="translate(-39.249 -26.137)"/><path class="a" d="M911.519-184.43A73.44,73.44,0,0,1,944.946-173.8c.215.131.436.255.646.395,1.6,1.058,2.081,2.492,1.3,3.836-.793,1.367-2.286,1.636-3.971.693-1.542-.864-3.049-1.793-4.61-2.62a68.427,68.427,0,0,0-28.835-7.815c-2.215-.116-3.413-1.077-3.366-2.73.049-1.725,1.4-2.649,3.706-2.523C910.385-184.532,910.951-184.476,911.519-184.43Z" transform="translate(-39.289 -43.914)"/><path class="a" d="M1065.971-148.652c.316,0,.631,0,.947,0,1.829.024,3.065,1.1,3.056,2.648-.009,1.482-1.139,2.4-2.888,2.646-4.931.688-9.9,1.226-14.76,2.258a59.455,59.455,0,0,0-18.106,7.524c-.487.292-.966.6-1.472.858a2.482,2.482,0,0,1-3.487-.831,2.525,2.525,0,0,1,.837-3.629c2.145-1.329,4.333-2.606,6.588-3.735A74.344,74.344,0,0,1,1065.971-148.652Z" transform="translate(-99.824 -61.636)"/><path class="a" d="M1066.618-184.542c2.03-.083,3.3.851,3.371,2.47s-1.1,2.674-3.122,2.773a68.97,68.97,0,0,0-33.316,10.235c-1.349.831-2.676,1.245-3.966-.005-1.271-1.231-.875-3.162.89-4.276a72.479,72.479,0,0,1,17.519-8A75.257,75.257,0,0,1,1066.618-184.542Z" transform="translate(-99.839 -43.928)"/><path class="a" d="M1066.245-112.935c.79.161,1.828.07,2.31.545a4.031,4.031,0,0,1,1.291,2.655c-.085,1.505-1.349,2.043-2.833,2.234-4.753.611-9.553,1.053-14.223,2.074a61.715,61.715,0,0,0-18.975,7.92c-.215.132-.424.276-.644.4-1.693.942-3.171.7-3.979-.646a2.636,2.636,0,0,1,1.262-3.816c3.955-2.1,7.884-4.29,12-6.038A73.535,73.535,0,0,1,1066.245-112.935Z" transform="translate(-99.817 -79.258)"/><path class="a" d="M1065.184-220.407c.632-.046,1.263-.126,1.895-.132,1.843-.017,3.085,1.045,3.095,2.61.009,1.492-1.083,2.542-2.876,2.627a66.567,66.567,0,0,0-23.07,4.988c-3.769,1.6-7.294,3.773-11.017,5.5a3.883,3.883,0,0,1-3.113-.089c-.618-.352-.941-1.725-.877-2.606.047-.639.831-1.391,1.473-1.8a72.565,72.565,0,0,1,29.2-10.593c.878-.122,1.756-.249,2.638-.331s1.77-.108,2.655-.159Z" transform="translate(-100.023 -26.171)"/></g></svg>