<svg xmlns="http://www.w3.org/2000/svg" width="156.579" height="156.734" viewBox="0 0 156.579 156.734"><defs><style>.a{fill:#676795;}</style></defs><g transform="translate(-720.492 -300.843)"><path class="a" d="M784.926,457.577a16.78,16.78,0,0,1-7-2.769,12.973,12.973,0,0,1-3.24-17.114c.179-.3.333-.609.649-1.189-2.259,0-4.313-.016-6.368,0a13.089,13.089,0,0,1-10.326-4.462,14.814,14.814,0,0,1-3.336-8.066q-3.672-24.572-7.359-49.14c-.28-1.873.552-3.229,2.1-3.515,1.508-.278,2.772.788,3.055,2.677q2.758,18.448,5.484,36.9c.65,4.386,1.242,8.781,1.94,13.159.755,4.737,3.706,7.217,8.531,7.219q49.674.012,99.349,0a6.222,6.222,0,0,0,1.371-.083,2.432,2.432,0,0,0,2.027-2.37,2.287,2.287,0,0,0-1.649-2.479,8.356,8.356,0,0,0-2.411-.264q-47.761-.018-95.522-.012c-1.02,0-2.041-.017-3.06-.044-2.15-.057-2.974-.7-3.306-2.8-.918-5.84-1.785-11.687-2.664-17.533q-3-19.956-6-39.914c-1.469-9.777-2.981-19.548-4.382-29.334A8.718,8.718,0,0,0,747,328.911c-5.555-2.158-11.073-4.41-16.609-6.614a7,7,0,0,0-1.593-.52,2.438,2.438,0,0,0-2.842,1.554,2.346,2.346,0,0,0,.99,3.06,10.531,10.531,0,0,0,1.654.778c5.056,2.033,10.1,4.1,15.183,6.064a6.058,6.058,0,0,1,4.074,5.229c1.162,7.968,2.376,15.927,3.58,23.889.3,1.986-.466,3.39-2.054,3.678s-2.807-.7-3.125-2.757q-1.828-11.784-3.552-23.584a2.015,2.015,0,0,0-1.466-1.842q-7.686-3-15.325-6.119c-5.3-2.177-7.06-8.043-3.73-12.259a7.68,7.68,0,0,1,8.661-2.561c6.616,2.516,13.231,5.059,19.708,7.905,4.779,2.1,6.838,6.305,7.424,11.34.241,2.073.622,4.131.955,6.3h18.954v-1.8q0-17.983,0-35.967c0-3.035.791-3.84,3.777-3.84q37.964,0,75.927,0c3.013,0,3.841.814,3.842,3.789q0,14.463-.006,28.927a7.415,7.415,0,0,1-.174,1.814,2.539,2.539,0,0,1-4.992-.371,11.882,11.882,0,0,1-.047-1.528q0-12.78,0-25.559v-1.755H832.7v1.617q0,7.806,0,15.611c0,2.658-.835,3.518-3.439,3.522q-9.643.015-19.288,0c-2.453,0-3.327-.874-3.332-3.306-.012-5.762,0-11.523,0-17.416H783.188v36.378H867.42c.459,0,.92-.018,1.378.006,2.272.119,3.232,1.217,3.01,3.462q-.758,7.687-1.535,15.372-1.468,14.533-2.943,29.066-1.476,14.763-2.916,29.53c-.02.2-.029.4-.061.861,1.638,0,3.246-.055,4.849.01,6.248.25,9.854,6.6,6.716,11.83a7.189,7.189,0,0,1-6.126,3.739c-3.058.112-6.122.05-9.183.063-.489,0-.978,0-1.44,0a36.812,36.812,0,0,1,1.983,5.34,12.84,12.84,0,0,1-10,15.428c-.342.08-.673.2-1.009.3h-3.368c-.383-.116-.762-.247-1.149-.344a12.921,12.921,0,0,1-9.784-15.578,32.7,32.7,0,0,1,1.962-5.009h-41.49c.234.423.372.693.528.953a12.976,12.976,0,0,1-3.458,17.411,16.052,16.052,0,0,1-6.925,2.567ZM819.671,420.8c.183-12.185.364-24.243.546-36.33H785.186c1.107,12.167,2.2,24.227,3.3,36.278h13.647c-.175-6.688-.352-13.26-.518-19.832-.074-2.906-.17-5.813-.168-8.719a2.464,2.464,0,0,1,2.319-2.575,2.53,2.53,0,0,1,2.742,2.127,6.953,6.953,0,0,1,.134,1.364q.337,13.154.666,26.309c.011.443.072.885.114,1.378Zm-34.924-41.935h35.636c.19-10.4.38-20.719.57-31.094H805.587c0,3.413-.05,6.722.013,10.029.08,4.233.271,8.463.375,12.7.054,2.208-1.073,3.426-2.9,3.244-1.473-.147-2.246-1.129-2.3-3.063-.2-6.986-.373-13.972-.56-20.958-.016-.591-.059-1.18-.092-1.809H783.235C782.6,358.286,783.634,368.479,784.747,378.861Zm40.8,5.594c-.221,12.133-.44,24.186-.66,36.29h15.081l2.207-36.29Zm18.826-36.564H826.114c-.182,10.439-.364,20.789-.547,31.26,5.26,0,10.249-.057,15.234.036,1.4.026,1.654-.464,1.719-1.731.3-5.749.716-11.491,1.083-17.237C843.863,356.158,844.111,352.1,844.372,347.89Zm-66.541,31.26c.187-10.567.227-20.9-1.281-31.227h-16.9l7.569,49.772.247-.018v-1.459q0-6.731,0-13.461c0-2.81.805-3.6,3.661-3.605C773.31,379.146,775.493,379.15,777.831,379.15Zm2.115,5.341h-7.167v36.278h10.448Zm76.38-.119v36.4h2.724c2.429-24.3,4.849-48.526,7.282-72.866h-4.9v16.121c0,5.659.013,11.319-.007,16.978-.008,2.364-.992,3.318-3.361,3.366C857.517,384.381,856.965,384.372,856.326,384.372Zm-28.914-78.208H811.966v15.449h15.445Zm28.715,72.893V347.914h-6.619c-.632,10.414-1.26,20.75-1.891,31.144Zm-5.23,41.725V384.491h-3.616c-.725,12.143-1.443,24.174-2.166,36.291Zm-10.311,23.645a7.729,7.729,0,0,0,7.811,7.717,7.828,7.828,0,0,0,7.8-7.777,7.92,7.92,0,0,0-7.935-7.836A7.824,7.824,0,0,0,840.584,444.427ZM793.52,444.3a7.81,7.81,0,1,0-7.7,7.838A7.75,7.75,0,0,0,793.52,444.3Z" transform="translate(0 0)"/><path class="a" d="M1108.707,734.214a2.6,2.6,0,0,1-2.5,2.561,2.51,2.51,0,0,1-2.636-2.539,2.572,2.572,0,0,1,2.615-2.59A2.65,2.65,0,0,1,1108.707,734.214Z" transform="translate(-257.758 -289.868)"/><path class="a" d="M917.131,734.261a2.54,2.54,0,0,1-2.663,2.529,2.593,2.593,0,0,1-2.5-2.565,2.644,2.644,0,0,1,2.684-2.552A2.594,2.594,0,0,1,917.131,734.261Z" transform="translate(-128.838 -289.885)"/></g></svg>