<svg xmlns="http://www.w3.org/2000/svg" width="156.753" height="156.735" viewBox="0 0 156.753 156.735"><defs><style>.a{fill:#676795;}</style></defs><g transform="translate(-773.788 -353.868)"><path class="a" d="M910.81,449.932c5.457,0,10.717,0,15.977,0,3.042,0,3.753.694,3.753,3.672q0,26.7,0,53.4c0,2.872-.745,3.6-3.669,3.6q-39.328,0-78.655,0c-2.879,0-3.6-.739-3.606-3.661,0-3.779,0-7.558,0-11.371-24.506-.9-44.248-10.761-58.266-30.908-10.956-15.747-14.718-33.385-11.378-52.282a70.526,70.526,0,0,1,83.4-57.115c21.316,4.278,37.554,16.125,48.107,35.147C917,409.381,918.053,429.3,910.81,449.932Zm-61.069,55.5h75.614V455.082H900.212v1.8q0,10.032,0,20.063c0,2.478-.842,3.319-3.313,3.322q-9.319.01-18.638,0c-2.478,0-3.316-.839-3.318-3.314q-.01-10.11,0-20.221v-1.665h-25.2Zm-27.91-85.841a7.168,7.168,0,0,1-2.307-.047,4.437,4.437,0,0,1-2.4-1.6,2.974,2.974,0,0,1,.517-2.665c3.248-3.447,6.629-6.772,10.017-10.085a2.337,2.337,0,0,1,3.54-.031c3.428,3.346,6.843,6.711,10.124,10.2a2.989,2.989,0,0,1,.407,2.684c-.325.713-1.443,1.193-2.311,1.492a7.229,7.229,0,0,1-2.266.048v2.448h15.044v-1.623c0-4.265-.008-8.531,0-12.8.006-2.293.872-3.177,3.122-3.189q4.422-.023,8.845,0c2.336.01,3.187.884,3.192,3.281.009,4.266,0,8.531.006,12.8,0,.507.045,1.014.07,1.533h10a115.336,115.336,0,0,0-4.79-31.07,118.486,118.486,0,0,1-56.059,0A115.209,115.209,0,0,0,811.79,422h10.04Zm-3.639-33.477a112.172,112.172,0,0,0,52.825-.006c-3.239-8.368-7.085-16.106-13.852-21.946-8.2-7.077-17-7.054-25.187.062C825.27,370.053,821.437,377.749,818.192,386.117Zm34,41.178H837.027c0,4.9.01,9.687,0,14.472-.006,2.178-.906,3.087-3.052,3.1-2.421.019-4.843,0-7.264,0-4.552,0-4.844-.288-4.844-4.793V427.291H811.78a115.161,115.161,0,0,0,4.822,31.06,117.382,117.382,0,0,1,27.954-3.388c.023-.467.046-.775.051-1.084.052-3.381.617-3.948,3.95-3.948h26.255c1.53-6.076,3.028-20.609,2.355-22.647h-9.686v2.427a7.314,7.314,0,0,1,2.313.048c.861.32,1.971.816,2.28,1.535a3.017,3.017,0,0,1-.459,2.68c-3.284,3.484-6.7,6.846-10.13,10.19a2.285,2.285,0,0,1-3.415.006c-3.465-3.383-6.91-6.789-10.234-10.308a2.806,2.806,0,0,1-.378-2.553,4.14,4.14,0,0,1,2.28-1.546,7.461,7.461,0,0,1,2.355-.05c.044-.346.087-.545.091-.744C852.194,428.446,852.188,427.923,852.188,427.294Zm-57.266,40.2,16.5-8.195a124.153,124.153,0,0,1-4.721-32H779.016C779.049,440.911,786.091,458.49,794.922,467.5ZM910.27,422.054a65.389,65.389,0,0,0-15.913-40.266l-16.564,8.219a124.316,124.316,0,0,1,4.723,32.047Zm-103.555.021a123.665,123.665,0,0,1,4.7-32.053l-16.553-8.255a65.39,65.39,0,0,0-15.9,40.308Zm103.522,5.2H882.8l-2.449,22.654c7.962,0,16.056.013,24.15-.043.386,0,.95-.555,1.123-.977A63.78,63.78,0,0,0,910.237,427.276Zm-91.919,35.918a60.361,60.361,0,0,0,8.6,16.465,30.886,30.886,0,0,0,9.007,8.271,16.988,16.988,0,0,0,8.6,2.424v-30.3A108.079,108.079,0,0,0,818.318,463.194Zm61.763-8.131v20.046h14.961V455.063Zm10.289-77.307c-4.988-6.22-22.238-16.1-27.827-16.159,2.553,3.481,5.478,6.958,7.811,10.8,2.324,3.822,4.055,8.005,6.1,12.142A48.835,48.835,0,0,0,890.37,377.756Zm-63.393-16.231A63.577,63.577,0,0,0,798.73,377.68a48.676,48.676,0,0,0,14.415,6.942A62.256,62.256,0,0,1,826.977,361.525ZM798.847,471.56c5.316,6.395,22.832,16.405,28.265,16.11a59.547,59.547,0,0,1-13.994-23.008A50.144,50.144,0,0,0,798.847,471.56Zm64.928-36.977c-1.376-.749-1.5-2.039-1.49-3.46.036-6.631.016-13.263.016-19.895V409.56h-5.055v1.766c0,6.684-.019,13.368.016,20.052.007,1.348-.245,2.491-1.322,3.108l3.868,4.141ZM825.411,414.7c1.4.773,1.53,2.059,1.522,3.481-.036,6.632-.016,13.264-.016,19.9v1.669h5.055v-1.766c0-6.685.019-13.37-.016-20.054-.007-1.347.234-2.494,1.32-3.108l-3.766-4.044Z"/><path class="a" d="M1074.612,681.169c-3.211,0-6.423.016-9.634-.005-2.069-.013-2.99-.929-3-2.988q-.033-4.581,0-9.163c.014-2.073.923-3,2.985-3q9.635-.025,19.269,0c2.07.005,2.992.926,3.007,2.985q.034,4.581,0,9.163c-.014,2.068-.932,2.994-2.988,3.008C1081.035,681.185,1077.823,681.169,1074.612,681.169Zm7.5-10H1067.15v4.862h14.965Z" transform="translate(-166.809 -180.678)"/><path class="a" d="M1043.155,606.226V616.1h-4.91v-9.879Z" transform="translate(-153.084 -146.08)"/></g></svg>