<svg xmlns="http://www.w3.org/2000/svg" width="71.805" height="88.283" viewBox="0 0 71.805 88.283"><defs><style>.a{fill:#ff2116;}.b{fill:#f5f5f5;}.c{fill:#2c2c2c;}</style></defs><g transform="translate(36.076 -93.732)"><g transform="translate(-36.076 93.732)"><path class="a" d="M-44.431,183.976a9.132,9.132,0,0,0-9.118,9.12v70.042a9.132,9.132,0,0,0,9.118,9.12H9.128a9.132,9.132,0,0,0,9.118-9.12V205.544a7.55,7.55,0,0,0-.589-3.328,9.221,9.221,0,0,0-1.8-2.609l-.008-.011L2.556,186.563l-.022-.022a10.513,10.513,0,0,0-2.816-1.8,10.291,10.291,0,0,0-4.021-.76l.03,0Z" transform="translate(53.548 -183.976)"/><path class="b" d="M-44.284,187.119H-4.1a8.557,8.557,0,0,1,2.78.52,7.62,7.62,0,0,1,1.937,1.224l.006.006,13.255,13a7.314,7.314,0,0,1,1.186,1.711,6.5,6.5,0,0,1,.332,1.982q0,.032,0,.064v57.657a6.076,6.076,0,0,1-6.122,6.124H-44.284a6.076,6.076,0,0,1-6.122-6.124V193.243a6.076,6.076,0,0,1,6.122-6.124Z" transform="translate(53.402 -184.123)"/><path class="a" d="M-34.781,237.371c-2.061-2.061.169-4.894,6.221-7.9l3.808-1.893,1.484-3.246c.816-1.785,2.034-4.7,2.706-6.474l1.223-3.227-.843-2.388c-1.036-2.937-1.406-7.35-.748-8.937.89-2.15,3.807-1.929,4.962.375.9,1.8.81,5.059-.259,9.169l-.876,3.37.772,1.31a45.482,45.482,0,0,0,2.756,3.8l2.051,2.551,2.552-.333c8.107-1.058,10.883.74,10.883,3.318,0,3.253-6.366,3.522-11.711-.232a16.234,16.234,0,0,1-2.029-1.684s-3.349.682-5,1.126c-1.7.459-2.551.746-5.044,1.587,0,0-.875,1.27-1.445,2.194-2.121,3.436-4.6,6.283-6.365,7.319-1.98,1.16-4.055,1.239-5.1.194Zm3.235-1.156c1.159-.716,3.5-3.49,5.127-6.064l.657-1.042-2.993,1.5c-4.622,2.324-6.737,4.514-5.637,5.839.618.744,1.357.683,2.846-.238Zm30.024-8.428a1.739,1.739,0,0,0-.312-3.038c-1-.5-1.8-.605-4.391-.567-1.592.109-4.151.429-4.585.527,0,0,1.406.972,2.03,1.329a26.983,26.983,0,0,0,4.325,1.807c1.454.445,2.3.4,2.933-.058Zm-12.072-5.018a29.622,29.622,0,0,1-2.592-3.344,18.632,18.632,0,0,1-1.452-2.163s-.707,2.274-1.287,3.642l-1.809,4.473-.525,1.015s2.789-.915,4.208-1.285c1.5-.393,4.553-.992,4.553-.992Zm-3.89-15.6c.175-1.468.249-2.934-.223-3.673-1.308-1.43-2.887-.238-2.62,3.163a23.194,23.194,0,0,0,.754,4.3l.691,2.191.486-1.65a43.312,43.312,0,0,0,.911-4.335Z" transform="translate(52.707 -184.808)"/><g transform="translate(21.432 62.108)"><path class="c" d="M-31.067,249.125h3.347a9.1,9.1,0,0,1,2.6.307,3.057,3.057,0,0,1,1.683,1.337,4.393,4.393,0,0,1,.683,2.485,4.519,4.519,0,0,1-.554,2.3,3.255,3.255,0,0,1-1.5,1.386,7.283,7.283,0,0,1-2.871.426H-28.83v5.277h-2.238Zm2.238,1.733v4.713h1.109a2.919,2.919,0,0,0,2.05-.554,2.42,2.42,0,0,0,.574-1.8,2.7,2.7,0,0,0-.376-1.5A1.543,1.543,0,0,0-26.3,251a5.2,5.2,0,0,0-1.416-.139Z" transform="translate(31.067 -249.125)"/><path class="c" d="M-20.547,249.125h3.04a6.871,6.871,0,0,1,3.525.782,4.864,4.864,0,0,1,2,2.327,8.378,8.378,0,0,1,.683,3.426,9.563,9.563,0,0,1-.614,3.535,5.621,5.621,0,0,1-1.861,2.5,5.786,5.786,0,0,1-3.564.951h-3.208Zm2.238,1.792v9.931h.931a3.134,3.134,0,0,0,2.832-1.347,6.552,6.552,0,0,0,.881-3.614q0-4.97-3.713-4.97Z" transform="translate(30.576 -249.125)"/><path class="c" d="M-8.593,249.125h7.5v1.792H-6.355v4.04h4.218v1.792H-6.355v5.891H-8.593Z" transform="translate(30.018 -249.125)"/></g></g></g></svg>