<svg xmlns="http://www.w3.org/2000/svg" xmlns:xlink="http://www.w3.org/1999/xlink" width="72.504" height="99.693" viewBox="0 0 72.504 99.693"><defs><style>.a{fill:#0f9d58;}.b{fill:#f1f1f1;}.c{fill:url(#a);}.d{fill:#87ceac;}.e{fill:rgba(255,255,255,0.2);}.f{fill:rgba(38,50,56,0.2);}.g{fill:rgba(38,50,56,0.1);}.h{fill:url(#b);}</style><linearGradient id="a" x1="0.5" y1="0.086" x2="0.5" y2="1" gradientUnits="objectBoundingBox"><stop offset="0" stop-color="#263238" stop-opacity="0.2"/><stop offset="1" stop-color="#263238" stop-opacity="0.02"/></linearGradient><radialGradient id="b" cx="0.032" cy="0.027" r="1.612" gradientTransform="translate(0 0.007) scale(1 0.727)" gradientUnits="objectBoundingBox"><stop offset="0" stop-color="#fff" stop-opacity="0.102"/><stop offset="1" stop-color="#fff" stop-opacity="0"/></radialGradient></defs><g transform="translate(-0.833 -0.958)"><g transform="translate(0.833 0.958)"><g transform="translate(0 0)"><g transform="translate(0)"><g transform="translate(0)"><path class="a" d="M45.315,0H6.8A6.817,6.817,0,0,0,0,6.8V92.9a6.817,6.817,0,0,0,6.8,6.8H65.706a6.817,6.817,0,0,0,6.8-6.8V27.189L56.644,15.86Z"/><g transform="translate(18.126 48.713)"><path class="b" d="M11.833,31.8V64.655H48.085V31.8Zm15.86,28.322H16.365V54.459H27.694Zm0-9.063H16.365V45.4H27.694Zm0-9.063H16.365V36.334H27.694Zm15.86,18.126H32.225V54.459H43.554Zm0-9.063H32.225V45.4H43.554Zm0-9.063H32.225V36.334H43.554Z" transform="translate(-11.833 -31.802)"/></g><g transform="translate(47.303 25.201)"><path class="c" d="M30.881,16.452l25.2,25.2V18.44Z" transform="translate(-30.881 -16.452)"/></g><g transform="translate(45.315 0)"><g transform="translate(0)"><path class="d" d="M2.958,2.958V23.35a6.8,6.8,0,0,0,6.8,6.8H30.147Z" transform="translate(-2.958 -2.958)"/></g></g><path class="e" d="M6.8,0A6.817,6.817,0,0,0,0,6.8v.566A6.817,6.817,0,0,1,6.8.566H45.315V0Z"/><g transform="translate(0 92.329)"><path class="f" d="M65.706,67.073H6.8a6.817,6.817,0,0,1-6.8-6.8v.566a6.817,6.817,0,0,0,6.8,6.8H65.706a6.817,6.817,0,0,0,6.8-6.8v-.566A6.817,6.817,0,0,1,65.706,67.073Z" transform="translate(0 -60.276)"/></g><g transform="translate(45.315 20.392)"><path class="g" d="M36.381,20.11a6.8,6.8,0,0,1-6.8-6.8v.566a6.8,6.8,0,0,0,6.8,6.8H56.772V20.11Z" transform="translate(-29.583 -13.313)"/></g><path class="h" d="M45.315,0H6.8A6.817,6.817,0,0,0,0,6.8V92.9a6.817,6.817,0,0,0,6.8,6.8H65.706a6.817,6.817,0,0,0,6.8-6.8V27.189Z"/></g></g></g></g></g></svg>