<svg xmlns="http://www.w3.org/2000/svg" xmlns:xlink="http://www.w3.org/1999/xlink" width="84.948" height="84.948" viewBox="0 0 84.948 84.948"><defs><style>.a{fill:url(#a);}.b{fill:#fff;}</style><linearGradient id="a" x1="-0.939" y1="1.621" x2="-0.938" y2="2.359" gradientUnits="objectBoundingBox"><stop offset="0" stop-color="#ff8500"/><stop offset="1" stop-color="#ffb900"/></linearGradient></defs><path class="a" d="M20.493,251.362H66.455a19.451,19.451,0,0,1,19.493,19.493v45.961A19.451,19.451,0,0,1,66.455,336.31H20.493A19.451,19.451,0,0,1,1,316.817V270.855A19.451,19.451,0,0,1,20.493,251.362Z" transform="translate(-1 -251.362)"/><path class="b" d="M170.1,439.273c1.375-.917,2.555-1.72,2.622-1.785.107-.1-.031-.27-1.077-1.319a9.267,9.267,0,0,0-1.337-1.2,60.294,60.294,0,0,0-3.556,5.267.543.543,0,0,0,.611.748A30.556,30.556,0,0,0,170.1,439.273Zm4.706-3.111a51.843,51.843,0,0,0,6.68-5.351c4.6-4.125,15.047-14.075,15.047-14.338,0-.167-5.144-5.314-5.311-5.314-.21,0-8.426,8.571-12.568,13.11-2.775,3.041-4.145,4.611-5.134,5.885a31.284,31.284,0,0,0-2.786,4.081,22.239,22.239,0,0,0,2.746,2.724A9.223,9.223,0,0,0,174.807,436.162Zm27.334-18.732a.724.724,0,0,0,.282-.633,2.816,2.816,0,0,0-.1-.672c-.13-.433,0-.83.463-1.465a60.63,60.63,0,0,1,4.575-4.919c4.767-4.938,7.632-8,8.948-9.567a3.418,3.418,0,0,0,.992-2.247c0-.578-.015-.617-.487-1.519-.183-.35-.123-.687.21-1.177,1.219-1.8,1.276-3.468.159-4.679a3.291,3.291,0,0,0-4.206-.246,63.761,63.761,0,0,0-5,4.336c-5.383,4.971-16.178,15.613-16.178,15.949,0,.156,5.156,5.3,5.312,5.3.071,0,2.277-2.156,4.9-4.791,4.939-4.955,7.245-7.332,10.076-10.389,2.439-2.633,2.459-2.653,2.688-2.676.17-.017.212.019.233.2.034.3-.047.434-.761,1.291-1.367,1.641-3.793,4.214-9.133,9.685-1.782,1.825-3.436,3.58-3.677,3.9a7.037,7.037,0,0,0-1.185,2.339c-.245,1.167.39,2.256,1.32,2.262a.724.724,0,0,0,.56-.28Zm-35.628,24.356a1.159,1.159,0,0,0,0,2.306h66.12l.071-.539.095-.6.066-.572.033-.6H166.513Z" transform="translate(-148.004 -374.99)"/></svg>