<svg xmlns="http://www.w3.org/2000/svg" xmlns:xlink="http://www.w3.org/1999/xlink" width="78.746" height="73.251" viewBox="0 0 78.746 73.251"><defs><style>.a{fill:#185c37;}.b{fill:#21a366;}.c{fill:#107c41;}.d{opacity:0.1;}.e{opacity:0.2;}.f{fill:url(#a);}.g{fill:#fff;}.h{fill:#33c481;}</style><linearGradient id="a" x1="0.174" y1="1.067" x2="0.826" y2="-0.063" gradientUnits="objectBoundingBox"><stop offset="0" stop-color="#18884f"/><stop offset="0.5" stop-color="#117e43"/><stop offset="1" stop-color="#0b6631"/></linearGradient></defs><path class="a" d="M563.632,857.494,532.5,852v40.594a3.357,3.357,0,0,0,3.357,3.357h53.719a3.357,3.357,0,0,0,3.357-3.357h0V877.638Z" transform="translate(-514.187 -822.699)"/><path class="b" d="M563.632,0H535.857A3.357,3.357,0,0,0,532.5,3.357h0V18.313l31.132,18.313,16.482,5.494,12.819-5.494V18.313Z" transform="translate(-514.187 0)"/><path class="c" d="M532.5,532.5h31.132v18.313H532.5Z" transform="translate(-514.187 -514.187)"/><path class="d" d="M554.781,426H532.5v45.782h22.281a3.368,3.368,0,0,0,3.357-3.357V429.357A3.368,3.368,0,0,0,554.781,426Z" transform="translate(-514.187 -411.35)"/><path class="e" d="M552.95,479.25H532.5v45.782h20.45a3.368,3.368,0,0,0,3.357-3.357V482.607A3.368,3.368,0,0,0,552.95,479.25Z" transform="translate(-514.187 -462.768)"/><path class="e" d="M552.95,479.25H532.5v42.12h20.45a3.368,3.368,0,0,0,3.357-3.357V482.607A3.368,3.368,0,0,0,552.95,479.25Z" transform="translate(-514.187 -462.768)"/><path class="e" d="M551.119,479.25H532.5v42.12h18.619a3.368,3.368,0,0,0,3.357-3.357V482.607A3.368,3.368,0,0,0,551.119,479.25Z" transform="translate(-514.187 -462.768)"/><path class="f" d="M3.357,479.25H36.932a3.357,3.357,0,0,1,3.357,3.357v33.575a3.357,3.357,0,0,1-3.357,3.357H3.357A3.357,3.357,0,0,1,0,516.182V482.607A3.357,3.357,0,0,1,3.357,479.25Z" transform="translate(0 -462.768)"/><path class="g" d="M302.3,769.507l7.061-10.942-6.47-10.882h5.2l3.531,6.959c.326.661.549,1.152.67,1.476h.046q.348-.791.733-1.536l3.774-6.895h4.778L314.993,758.5l6.8,11h-5.084l-4.078-7.638a6.4,6.4,0,0,1-.487-1.02h-.06a4.829,4.829,0,0,1-.473.989l-4.2,7.669Z" transform="translate(-291.904 -721.97)"/><path class="h" d="M1463.694,0H1437.75V18.313h29.3V3.357A3.357,3.357,0,0,0,1463.694,0Z" transform="translate(-1388.305 0)"/><path class="c" d="M1437.75,1065h29.3v18.313h-29.3Z" transform="translate(-1388.305 -1028.374)"/></svg>