<svg xmlns="http://www.w3.org/2000/svg" xmlns:xlink="http://www.w3.org/1999/xlink" width="83.628" height="83.628" viewBox="0 0 83.628 83.628"><defs><style>.a{fill:url(#a);}.b{fill:url(#b);}.c{fill:url(#c);}.d{fill:url(#d);}.e{fill:url(#e);}.f{fill:url(#f);}</style><linearGradient id="a" x1="-0.939" y1="1.621" x2="-0.938" y2="2.359" gradientUnits="objectBoundingBox"><stop offset="0" stop-color="#11d51d"/><stop offset="1" stop-color="#82fa6c"/></linearGradient><linearGradient id="b" x1="-7.687" y1="5.289" x2="-7.754" y2="2.971" gradientUnits="objectBoundingBox"><stop offset="0" stop-color="#fff"/><stop offset="1" stop-color="#fff"/></linearGradient><linearGradient id="c" x1="-7.678" y1="10.946" x2="-7.746" y2="5.586" xlink:href="#b"/><linearGradient id="d" x1="-7.704" y1="3.003" x2="-7.771" y2="1.918" xlink:href="#b"/><linearGradient id="e" x1="-7.695" y1="3.824" x2="-7.763" y2="2.289" xlink:href="#b"/><linearGradient id="f" x1="-1.292" y1="41.131" x2="-1.306" y2="18.285" xlink:href="#b"/></defs><g transform="translate(0 -252.362)"><path class="a" d="M19.191,252.362H64.438a19.149,19.149,0,0,1,19.19,19.19V316.8a19.148,19.148,0,0,1-19.19,19.191H19.191A19.149,19.149,0,0,1,0,316.8V271.552A19.149,19.149,0,0,1,19.191,252.362Z" transform="translate(0)"/><path class="b" d="M261.238,646.648h12.246a.523.523,0,0,1,.523.523v21.056a.523.523,0,0,1-.523.523H261.238a.523.523,0,0,1-.523-.523V647.171A.523.523,0,0,1,261.238,646.648Z" transform="translate(-233.461 -353.069)"/><path class="c" d="M113.8,766.648h12.51a.375.375,0,0,1,.391.358v8.841a.375.375,0,0,1-.391.358H113.8a.375.375,0,0,1-.391-.358v-8.841A.375.375,0,0,1,113.8,766.648Z" transform="translate(-101.558 -460.525)"/><path class="d" d="M409.238,406.737h12.246a.522.522,0,0,1,.523.522V453.4a.522.522,0,0,1-.523.522H409.238a.522.522,0,0,1-.523-.522V407.259a.522.522,0,0,1,.523-.522Z" transform="translate(-365.99 -138.237)"/><path class="e" d="M557.185,538.814h12.351a.479.479,0,0,1,.47.488v32.4a.479.479,0,0,1-.47.488H557.185a.479.479,0,0,1-.47-.488V539.3A.479.479,0,0,1,557.185,538.814Z" transform="translate(-498.519 -256.508)"/><path class="f" d="M110.353,881.289h58.2a1.1,1.1,0,0,1,1.195.972v.3a1.1,1.1,0,0,1-1.195.972h-58.2a1.1,1.1,0,0,1-1.195-.972v-.3A1.1,1.1,0,0,1,110.353,881.289Z" transform="translate(-97.747 -563.182)"/></g></svg>