<svg xmlns="http://www.w3.org/2000/svg" xmlns:xlink="http://www.w3.org/1999/xlink" width="106.008" height="98.612" viewBox="0 0 106.008 98.612"><defs><style>.a{fill:#ed6c47;}.b{fill:#ff8f6b;}.c{fill:#d35230;}.d{opacity:0.1;}.e{opacity:0.2;}.f{fill:url(#a);}.g{fill:#fff;}</style><linearGradient id="a" x1="0.174" y1="1.067" x2="0.826" y2="-0.063" gradientUnits="objectBoundingBox"><stop offset="0" stop-color="#ca4c28"/><stop offset="0.5" stop-color="#c5401e"/><stop offset="1" stop-color="#b62f14"/></linearGradient></defs><path class="a" d="M190.652,54.236,183.256,0H182.7A48.9,48.9,0,0,0,133.95,48.754v.552Z" transform="translate(-126.554)"/><path class="b" d="M1027.5,0h-.552V49.306l24.653,9.861,24.653-9.861v-.552A48.9,48.9,0,0,0,1027.5,0Z" transform="translate(-970.248)"/><path class="c" d="M232.562,893v.542A48.9,48.9,0,0,1,183.8,942.306h-1.085a48.9,48.9,0,0,1-48.764-48.764V893Z" transform="translate(-126.554 -843.694)"/><path class="d" d="M185.72,361.711V414.32a4.539,4.539,0,0,1-2.81,4.166,4.369,4.369,0,0,1-1.7.345H145.585c-.69-.789-1.356-1.627-1.972-2.465a48.355,48.355,0,0,1-9.664-29.041V386.24a48.209,48.209,0,0,1,7.938-26.576c.542-.838,1.109-1.676,1.726-2.465h37.6A4.546,4.546,0,0,1,185.72,361.711Z" transform="translate(-126.553 -337.477)"/><path class="e" d="M183.254,406.361v52.609a4.369,4.369,0,0,1-.345,1.7,4.539,4.539,0,0,1-4.166,2.81H147.828q-1.17-1.188-2.243-2.465c-.69-.789-1.356-1.627-1.972-2.465a48.355,48.355,0,0,1-9.664-29.041v-1.085a48.209,48.209,0,0,1,7.938-26.576h36.856A4.546,4.546,0,0,1,183.254,406.361Z" transform="translate(-126.552 -379.662)"/><path class="e" d="M183.255,406.362v47.679a4.546,4.546,0,0,1-4.511,4.511h-35.13a48.355,48.355,0,0,1-9.664-29.041v-1.085a48.209,48.209,0,0,1,7.938-26.576h36.856A4.546,4.546,0,0,1,183.255,406.362Z" transform="translate(-126.553 -379.663)"/><path class="e" d="M180.79,406.362v47.679a4.546,4.546,0,0,1-4.511,4.511H143.613a48.355,48.355,0,0,1-9.664-29.041v-1.085a48.209,48.209,0,0,1,7.938-26.576h34.391A4.546,4.546,0,0,1,180.79,406.362Z" transform="translate(-126.553 -379.663)"/><path class="f" d="M4.519,401.85h45.2a4.519,4.519,0,0,1,4.519,4.519v45.2a4.519,4.519,0,0,1-4.519,4.519H4.519A4.519,4.519,0,0,1,0,451.568v-45.2A4.519,4.519,0,0,1,4.519,401.85Z" transform="translate(0 -379.662)"/><path class="g" d="M295.864,619.661a12.423,12.423,0,0,1,8.229,2.411,8.629,8.629,0,0,1,2.865,6.984,9.719,9.719,0,0,1-1.413,5.219,9.441,9.441,0,0,1-4.011,3.545,13.62,13.62,0,0,1-6.033,1.267h-5.717v10.625h-5.855V619.661ZM289.779,634.5h5.039a6.543,6.543,0,0,0,4.455-1.329,4.93,4.93,0,0,0,1.506-3.888q0-4.968-5.774-4.967h-5.226Z" transform="translate(-268.252 -585.421)"/></svg>