<svg xmlns="http://www.w3.org/2000/svg" xmlns:xlink="http://www.w3.org/1999/xlink" width="89.918" height="83.645" viewBox="0 0 89.918 83.645"><defs><style>.a{fill:#41a5ee;}.b{fill:#2b7cd3;}.c{fill:#185abd;}.d{fill:#103f91;}.e{opacity:0.1;}.f{opacity:0.2;}.g{fill:url(#a);}.h{fill:#fff;}</style><linearGradient id="a" x1="0.174" y1="1.067" x2="0.826" y2="-0.063" gradientUnits="objectBoundingBox"><stop offset="0" stop-color="#2368c4"/><stop offset="0.5" stop-color="#1a5dbe"/><stop offset="1" stop-color="#1146ac"/></linearGradient></defs><path class="a" d="M502.674,0H441.333A3.833,3.833,0,0,0,437.5,3.833h0V20.911l35.549,10.456,33.458-10.456V3.833A3.833,3.833,0,0,0,502.674,0Z" transform="translate(-416.589)"/><path class="b" d="M506.507,437.5H437.5v20.911l35.549,6.273,33.458-6.273Z" transform="translate(-416.589 -416.589)"/><path class="c" d="M437.5,875v20.911l33.458,4.182,35.549-4.182V875Z" transform="translate(-416.589 -833.178)"/><path class="d" d="M441.333,1333.411h61.341a3.833,3.833,0,0,0,3.833-3.833h0V1312.5H437.5v17.078a3.833,3.833,0,0,0,3.833,3.833Z" transform="translate(-416.589 -1249.766)"/><path class="e" d="M462.943,350H437.5v52.278h25.443a3.846,3.846,0,0,0,3.833-3.833V353.833A3.846,3.846,0,0,0,462.943,350Z" transform="translate(-416.589 -333.271)"/><path class="f" d="M460.852,393.75H437.5v52.278h23.352a3.845,3.845,0,0,0,3.833-3.833V397.583A3.846,3.846,0,0,0,460.852,393.75Z" transform="translate(-416.589 -374.93)"/><path class="f" d="M460.852,393.75H437.5v48.1h23.352a3.846,3.846,0,0,0,3.833-3.833v-40.43A3.846,3.846,0,0,0,460.852,393.75Z" transform="translate(-416.589 -374.93)"/><path class="f" d="M458.76,393.75H437.5v48.1h21.26a3.846,3.846,0,0,0,3.833-3.833v-40.43A3.846,3.846,0,0,0,458.76,393.75Z" transform="translate(-416.589 -374.93)"/><path class="g" d="M3.833,393.75H42.172A3.833,3.833,0,0,1,46,397.583v38.339a3.833,3.833,0,0,1-3.833,3.833H3.833A3.833,3.833,0,0,1,0,435.922V397.583A3.833,3.833,0,0,1,3.833,393.75Z" transform="translate(0 -374.93)"/><path class="h" d="M155.828,633.025c.075.592.125,1.106.148,1.547h.088q.05-.627.209-1.512t.286-1.5l4.032-17.394H165.8l4.182,17.133a25.373,25.373,0,0,1,.521,3.233h.069a24.782,24.782,0,0,1,.435-3.137l3.335-17.237h4.745l-5.859,24.926h-5.544l-3.973-16.507c-.115-.475-.247-1.1-.391-1.859s-.234-1.322-.27-1.673h-.069q-.069.608-.27,1.807t-.322,1.773l-3.735,16.455h-5.638l-5.891-24.914h4.83l3.632,17.429C155.675,631.958,155.753,632.435,155.828,633.025Z" transform="translate(-140.099 -584.808)"/></svg>