<svg xmlns="http://www.w3.org/2000/svg" width="22.26" height="24.734" viewBox="0 0 22.26 24.734"><defs><style>.a{fill:#fff;opacity:0.232;}</style></defs><path class="a" d="M11.92,14.13H9.447V16.6H11.92Zm4.947,0H14.394V16.6h2.473Zm4.947,0H19.34V16.6h2.473Zm2.473-8.657H23.05V3H20.577V5.473H10.683V3H8.21V5.473H6.973A2.462,2.462,0,0,0,4.512,7.947L4.5,25.26a2.473,2.473,0,0,0,2.473,2.473H24.287A2.481,2.481,0,0,0,26.76,25.26V7.947A2.481,2.481,0,0,0,24.287,5.473Zm0,19.787H6.973v-13.6H24.287Z" transform="translate(-4.5 -3)"/></svg>