<svg xmlns="http://www.w3.org/2000/svg" xmlns:xlink="http://www.w3.org/1999/xlink" width="1999.477" height="1593.756" viewBox="0 0 1999.477 1593.756"><defs><style>.a{opacity:0.1;}.a,.x{fill:url(#a);}.b{mix-blend-mode:overlay;}.ac,.b{isolation:isolate;}.c{fill:#c5cad4;}.d{fill:#b7bbc4;}.e{fill:#ccd1db;}.f{fill:#9da3ab;}.g{fill:#dce2ed;}.h{fill:#d7dde8;}.i{fill:#b3b9c2;}.j{fill:#dde2ed;}.k{fill:#e4e9f5;}.l{fill:#e3e9f5;}.m{fill:#bcc1cc;}.n{fill:#b88dff;}.o{fill:#ffc9c8;}.p{fill:url(#c);}.q{fill:url(#d);}.r{fill:url(#f);}.s{fill:url(#g);}.t{fill:url(#i);}.u{fill:url(#k);}.v{fill:#ffe04e;}.w{fill:url(#l);}.y{fill:url(#n);}.z{fill:url(#p);}.aa{fill:url(#q);}.ab{fill:url(#r);}.ac{mix-blend-mode:soft-light;}.ad{fill:#fff;}</style><linearGradient id="a" x1="0.5" x2="0.5" y2="1" gradientUnits="objectBoundingBox"><stop offset="0" stop-color="#46b8fb"/><stop offset="1" stop-color="#77fffc"/></linearGradient><linearGradient id="c" y1="0.5" x2="1" y2="0.5" gradientUnits="objectBoundingBox"><stop offset="0" stop-color="#5900d7"/><stop offset="1" stop-color="#454def"/></linearGradient><linearGradient id="d" x1="0.108" y1="-0.029" x2="1.108" y2="-0.029" gradientUnits="objectBoundingBox"><stop offset="0" stop-color="#6ceffc"/><stop offset="1" stop-color="#c7fffe"/></linearGradient><linearGradient id="f" x1="0.5" x2="0.5" y2="1" gradientUnits="objectBoundingBox"><stop offset="0" stop-color="#5900d7"/><stop offset="1"/></linearGradient><linearGradient id="g" y1="0.5" x2="1" y2="0.5" gradientUnits="objectBoundingBox"><stop offset="0" stop-color="#ff6d6d"/><stop offset="1" stop-color="#ffe04e"/></linearGradient><linearGradient id="i" x1="0.5" x2="0.5" y2="1" gradientUnits="objectBoundingBox"><stop offset="0" stop-color="#5900d7"/><stop offset="1" stop-color="#34007d"/></linearGradient><linearGradient id="k" x1="0.5" y1="1" x2="0.5" y2="0" xlink:href="#g"/><linearGradient id="l" x1="0.5" x2="0.5" y2="1" gradientUnits="objectBoundingBox"><stop offset="0" stop-color="#5900d7"/><stop offset="1" stop-color="#9482ad"/></linearGradient><linearGradient id="n" x1="0.5" y1="0" x2="0.5" y2="1" xlink:href="#d"/><linearGradient id="p" x1="0" y1="0.5" x2="1" y2="0.5" xlink:href="#i"/><linearGradient id="q" x1="0.5" x2="0.5" y2="1" gradientUnits="objectBoundingBox"><stop offset="0" stop-color="#d1d3d4"/><stop offset="1" stop-color="#fff"/></linearGradient><linearGradient id="r" x1="0.5" y1="0" x2="0.5" y2="1" xlink:href="#c"/></defs><g transform="translate(4739.535 11654.256)"><g transform="translate(-4875.535 -12048.92)"><path class="a" d="M720.33,807.954A221.523,221.523,0,0,0,546.036,700.321a142.308,142.308,0,0,0-175.6-78.567,191.151,191.151,0,0,0-136.24-56.9A189.949,189.949,0,0,0,136,591.886v606.483H692.04c108.2,0,196.224-88.026,196.224-196.224C888.264,903.548,815.177,821.7,720.33,807.954Z" transform="translate(0 19.427)"/><path class="a" d="M303.934,807.954A221.523,221.523,0,0,1,478.228,700.321a142.308,142.308,0,0,1,175.6-78.567,191.151,191.151,0,0,1,136.24-56.9,189.95,189.95,0,0,1,98.2,27.033v606.483H332.224c-108.2,0-196.224-88.026-196.224-196.224C136,903.548,209.087,821.7,303.934,807.954Z" transform="translate(1234.475 -80.617)"/><g class="b" transform="translate(1478.559 623.783)"><g transform="translate(0 229.574)"><rect class="c" width="16.105" height="36.594" transform="translate(22.562 23.785)"/><rect class="d" width="16.105" height="19.268" transform="translate(22.562 41.111)"/><rect class="c" width="36.874" height="60.379" transform="translate(60.87)"/><rect class="d" width="36.874" height="19.268" transform="translate(60.87 41.111)"/><rect class="e" width="115.666" height="293.162" transform="translate(0 48.926)"/><g transform="translate(23.996 82.183)"><rect class="f" width="10.722" height="14.012"/><rect class="f" width="10.722" height="14.012" transform="translate(0 28.877)"/><rect class="f" width="10.722" height="14.012" transform="translate(0 57.754)"/><rect class="f" width="10.722" height="14.012" transform="translate(0 86.63)"/><rect class="f" width="10.722" height="14.012" transform="translate(0 115.507)"/><rect class="f" width="10.722" height="14.012" transform="translate(0 144.384)"/><rect class="f" width="10.722" height="14.012" transform="translate(0 173.261)"/></g><g transform="translate(55.509 82.183)"><rect class="f" width="10.722" height="14.012"/><rect class="f" width="10.722" height="14.012" transform="translate(0 28.877)"/><rect class="f" width="10.722" height="14.012" transform="translate(0 57.754)"/><rect class="f" width="10.722" height="14.012" transform="translate(0 86.63)"/><rect class="f" width="10.722" height="14.012" transform="translate(0 115.507)"/><rect class="f" width="10.722" height="14.012" transform="translate(0 144.384)"/><rect class="f" width="10.722" height="14.012" transform="translate(0 173.261)"/></g><g transform="translate(87.022 82.183)"><rect class="f" width="10.722" height="14.012"/><rect class="f" width="10.722" height="14.012" transform="translate(0 28.877)"/><rect class="f" width="10.722" height="14.012" transform="translate(0 57.754)"/><rect class="f" width="10.722" height="14.012" transform="translate(0 86.63)"/><rect class="f" width="10.722" height="14.012" transform="translate(0 115.507)"/><rect class="f" width="10.722" height="14.012" transform="translate(0 144.384)"/><rect class="f" width="10.722" height="14.012" transform="translate(0 173.261)"/></g></g><rect class="g" width="65.498" height="250.277" transform="translate(289.043 321.385)"/><rect class="c" width="38.956" height="214.423" transform="translate(206.576 357.239)"/><rect class="g" width="100.875" height="223.388" transform="translate(353.035 348.274)"/><rect class="g" width="66.581" height="275.899" transform="translate(434.937 295.763)"/><g transform="translate(403.489 359.737)"><rect class="c" width="8.73" height="19.836" transform="translate(12.23 12.893)"/><rect class="d" width="8.73" height="10.444" transform="translate(12.23 22.284)"/><rect class="c" width="19.988" height="32.729" transform="translate(32.995)"/><rect class="d" width="19.988" height="10.444" transform="translate(32.995 22.284)"/><rect class="e" width="62.697" height="185.405" transform="translate(0 26.521)"/><g transform="translate(13.007 44.548)"><rect class="f" width="5.812" height="7.595"/><rect class="f" width="5.812" height="7.595" transform="translate(0 15.653)"/><rect class="f" width="5.812" height="7.595" transform="translate(0 31.306)"/><rect class="f" width="5.812" height="7.595" transform="translate(0 46.959)"/><rect class="f" width="5.812" height="7.595" transform="translate(0 62.611)"/><rect class="f" width="5.812" height="7.595" transform="translate(0 78.264)"/><rect class="f" width="5.812" height="7.595" transform="translate(0 93.917)"/></g><g transform="translate(30.089 44.548)"><rect class="f" width="5.812" height="7.595"/><rect class="f" width="5.812" height="7.595" transform="translate(0 15.653)"/><rect class="f" width="5.812" height="7.595" transform="translate(0 31.306)"/><rect class="f" width="5.812" height="7.595" transform="translate(0 46.959)"/><rect class="f" width="5.812" height="7.595" transform="translate(0 62.611)"/><rect class="f" width="5.812" height="7.595" transform="translate(0 78.264)"/><rect class="f" width="5.812" height="7.595" transform="translate(0 93.917)"/></g><g transform="translate(47.171 44.548)"><rect class="f" width="5.812" height="7.595"/><rect class="f" width="5.812" height="7.595" transform="translate(0 15.653)"/><rect class="f" width="5.812" height="7.595" transform="translate(0 31.306)"/><rect class="f" width="5.812" height="7.595" transform="translate(0 46.959)"/><rect class="f" width="5.812" height="7.595" transform="translate(0 62.611)"/><rect class="f" width="5.812" height="7.595" transform="translate(0 78.264)"/><rect class="f" width="5.812" height="7.595" transform="translate(0 93.917)"/></g></g><g transform="translate(117 40.111)"><path class="e" d="M1477.044,695.216H1410.2V633.659l66.843,31.531Z" transform="translate(-1395.375 -633.659)"/><rect class="h" width="96.495" height="484.268" transform="translate(0 47.282)"/><rect class="c" width="66.843" height="6.683" transform="translate(14.826 40.599)"/><rect class="i" width="9.848" height="15.191" transform="translate(24.172 360.384)"/><rect class="i" width="9.848" height="15.191" transform="translate(24.172 334.762)"/><rect class="i" width="9.848" height="15.191" transform="translate(24.172 309.139)"/><rect class="i" width="9.848" height="15.191" transform="translate(24.172 257.895)"/><rect class="i" width="9.848" height="15.191" transform="translate(24.172 206.65)"/><rect class="i" width="9.848" height="15.191" transform="translate(24.172 181.028)"/><rect class="i" width="9.848" height="15.191" transform="translate(24.172 129.783)"/><rect class="i" width="9.848" height="15.191" transform="translate(24.172 78.538)"/><rect class="i" width="9.848" height="15.191" transform="translate(43.323 283.517)"/><rect class="i" width="9.848" height="15.191" transform="translate(43.323 257.895)"/><rect class="i" width="9.848" height="15.191" transform="translate(43.323 232.272)"/><rect class="i" width="9.848" height="15.191" transform="translate(43.323 181.028)"/><rect class="i" width="9.848" height="15.191" transform="translate(43.323 78.538)"/><rect class="i" width="9.848" height="15.191" transform="translate(62.475 360.384)"/><rect class="i" width="9.848" height="15.191" transform="translate(62.475 283.517)"/><rect class="i" width="9.848" height="15.191" transform="translate(62.475 232.272)"/><rect class="i" width="9.848" height="15.191" transform="translate(62.475 181.028)"/><rect class="i" width="9.848" height="15.191" transform="translate(62.475 155.405)"/><rect class="i" width="9.848" height="15.191" transform="translate(62.475 104.161)"/></g><g transform="translate(463.929 301.026)"><path class="e" d="M1710.026,920.706h66.843V859.148l-66.843,31.531Z" transform="translate(-1695.2 -859.148)"/><rect class="h" width="96.495" height="223.354" transform="translate(96.495 270.636) rotate(180)"/><rect class="c" width="66.843" height="6.683" transform="translate(14.826 40.599)"/><g transform="translate(62.475 78.538)"><rect class="i" width="9.848" height="15.191" transform="translate(0 102.489)"/><rect class="i" width="9.848" height="15.191" transform="translate(0 76.867)"/><rect class="i" width="9.848" height="15.191" transform="translate(0 51.245)"/><rect class="i" width="9.848" height="15.191" transform="translate(0 25.622)"/><rect class="i" width="9.848" height="15.191" transform="translate(9.848 15.191) rotate(-180)"/></g><g transform="translate(43.323 78.538)"><rect class="i" width="9.848" height="15.191" transform="translate(0 102.489)"/><rect class="i" width="9.848" height="15.191" transform="translate(0 76.867)"/><rect class="i" width="9.848" height="15.191" transform="translate(0 51.245)"/><rect class="i" width="9.848" height="15.191" transform="translate(0 25.622)"/><rect class="i" width="9.848" height="15.191" transform="translate(9.848 15.191) rotate(-180)"/></g><g transform="translate(24.171 78.538)"><rect class="i" width="9.848" height="15.191" transform="translate(0 102.489)"/><rect class="i" width="9.848" height="15.191" transform="translate(0 76.867)"/><rect class="i" width="9.848" height="15.191" transform="translate(0 51.245)"/><rect class="i" width="9.848" height="15.191" transform="translate(0 25.622)"/><rect class="i" width="9.848" height="15.191" transform="translate(9.848 15.191) rotate(-180)"/></g></g><g transform="translate(313.548 100.057)"><rect class="j" width="31.689" height="61.558" transform="translate(32.403)"/><rect class="c" width="31.689" height="9.747" transform="translate(32.403 51.811)"/><rect class="j" width="66.843" height="61.558" transform="translate(14.826 58.328)"/><rect class="g" width="96.495" height="365.995" transform="translate(0 105.61)"/><rect class="c" width="66.843" height="6.683" transform="translate(14.826 98.927)"/><rect class="i" width="9.848" height="15.191" transform="translate(24.172 367.467)"/><rect class="i" width="9.848" height="15.191" transform="translate(24.172 316.222)"/><rect class="i" width="9.848" height="15.191" transform="translate(24.172 290.6)"/><rect class="i" width="9.848" height="15.191" transform="translate(24.172 264.978)"/><rect class="i" width="9.848" height="15.191" transform="translate(24.172 213.733)"/><rect class="i" width="9.848" height="15.191" transform="translate(24.172 162.488)"/><rect class="i" width="9.848" height="15.191" transform="translate(43.323 341.845)"/><rect class="i" width="9.848" height="15.191" transform="translate(43.323 290.6)"/><rect class="i" width="9.848" height="15.191" transform="translate(43.323 188.111)"/><rect class="i" width="9.848" height="15.191" transform="translate(43.323 162.488)"/><rect class="i" width="9.848" height="15.191" transform="translate(62.475 393.089)"/><rect class="i" width="9.848" height="15.191" transform="translate(62.475 316.222)"/><rect class="i" width="9.848" height="15.191" transform="translate(62.475 264.978)"/><rect class="i" width="9.848" height="15.191" transform="translate(62.475 213.733)"/><rect class="i" width="9.848" height="15.191" transform="translate(62.475 188.111)"/><rect class="i" width="9.848" height="15.191" transform="translate(62.475 136.866)"/></g><g transform="translate(560.424)"><rect class="k" width="13.302" height="105.214" transform="translate(51.555)"/><rect class="c" width="13.302" height="9.747" transform="translate(51.555 95.466)"/><rect class="k" width="24.212" height="61.558" transform="translate(14.826 55.55)"/><rect class="l" width="96.495" height="468.829" transform="translate(0 102.833)"/><rect class="c" width="24.212" height="6.683" transform="translate(14.826 96.149)"/><rect class="m" width="9.848" height="15.191" transform="translate(24.172 390.312)"/><rect class="m" width="9.848" height="15.191" transform="translate(24.172 364.69)"/><rect class="m" width="9.848" height="15.191" transform="translate(24.172 287.823)"/><rect class="m" width="9.848" height="15.191" transform="translate(24.172 262.201)"/><rect class="m" width="9.848" height="15.191" transform="translate(24.172 210.956)"/><rect class="m" width="9.848" height="15.191" transform="translate(24.172 134.089)"/><rect class="m" width="9.848" height="15.191" transform="translate(43.323 339.068)"/><rect class="m" width="9.848" height="15.191" transform="translate(43.323 262.201)"/><rect class="m" width="9.848" height="15.191" transform="translate(43.323 236.578)"/><rect class="m" width="9.848" height="15.191" transform="translate(43.323 185.333)"/><rect class="m" width="9.848" height="15.191" transform="translate(43.323 159.711)"/><rect class="m" width="9.848" height="15.191" transform="translate(62.475 390.312)"/><rect class="m" width="9.848" height="15.191" transform="translate(62.475 339.068)"/><rect class="m" width="9.848" height="15.191" transform="translate(62.475 287.823)"/><rect class="m" width="9.848" height="15.191" transform="translate(62.475 236.578)"/><rect class="m" width="9.848" height="15.191" transform="translate(62.475 159.711)"/></g><g transform="translate(237.625 215.107)"><rect class="c" width="26.086" height="19.836" transform="translate(12.23)"/><rect class="d" width="26.086" height="10.444" transform="translate(12.23 9.391)"/><rect class="e" width="62.697" height="342.928" transform="translate(0 13.628)"/><rect class="f" width="5.812" height="7.595" transform="translate(13.007 31.655)"/><rect class="f" width="5.812" height="7.595" transform="translate(13.007 109.919)"/><rect class="f" width="5.812" height="7.595" transform="translate(13.007 141.225)"/><rect class="f" width="5.812" height="7.595" transform="translate(13.007 172.53)"/><rect class="f" width="5.812" height="7.595" transform="translate(13.007 188.183)"/><rect class="f" width="5.812" height="7.595" transform="translate(30.089 31.655)"/><rect class="f" width="5.812" height="7.595" transform="translate(30.089 78.613)"/><rect class="f" width="5.812" height="7.595" transform="translate(30.089 109.919)"/><rect class="f" width="5.812" height="7.595" transform="translate(30.089 172.53)"/><rect class="f" width="5.812" height="7.595" transform="translate(30.089 203.836)"/><rect class="f" width="5.812" height="7.595" transform="translate(47.171 47.308)"/><rect class="f" width="5.812" height="7.595" transform="translate(47.171 78.613)"/><rect class="f" width="5.812" height="7.595" transform="translate(47.171 109.919)"/><rect class="f" width="5.812" height="7.595" transform="translate(47.171 141.225)"/><rect class="f" width="5.812" height="7.595" transform="translate(47.171 156.877)"/><rect class="f" width="5.812" height="7.595" transform="translate(47.171 172.53)"/><rect class="f" width="5.812" height="7.595" transform="translate(47.171 188.183)"/><rect class="f" width="5.812" height="7.595" transform="translate(47.171 203.836)"/></g></g><g class="b" transform="translate(136 623.783)"><g transform="translate(450.343 229.574)"><rect class="c" width="16.105" height="36.594" transform="translate(93.104 60.379) rotate(-180)"/><rect class="d" width="16.105" height="19.268" transform="translate(93.104 60.379) rotate(-180)"/><rect class="c" width="36.874" height="60.379" transform="translate(54.796 60.379) rotate(-180)"/><rect class="d" width="36.874" height="19.268" transform="translate(54.796 60.379) rotate(-180)"/><rect class="e" width="115.666" height="281.591" transform="translate(115.666 330.517) rotate(-180)"/><g transform="translate(80.949 82.183)"><rect class="f" width="10.722" height="14.012" transform="translate(10.722 14.012) rotate(-180)"/><rect class="f" width="10.722" height="14.012" transform="translate(0 28.877)"/><rect class="f" width="10.722" height="14.012" transform="translate(0 57.753)"/><rect class="f" width="10.722" height="14.012" transform="translate(0 86.63)"/><rect class="f" width="10.722" height="14.012" transform="translate(0 115.507)"/><rect class="f" width="10.722" height="14.012" transform="translate(0 144.384)"/><rect class="f" width="10.722" height="14.012" transform="translate(0 173.261)"/></g><g transform="translate(49.435 82.183)"><rect class="f" width="10.722" height="14.012" transform="translate(10.722 14.012) rotate(-180)"/><rect class="f" width="10.722" height="14.012" transform="translate(0 28.877)"/><rect class="f" width="10.722" height="14.012" transform="translate(0 57.753)"/><rect class="f" width="10.722" height="14.012" transform="translate(0 86.63)"/><rect class="f" width="10.722" height="14.012" transform="translate(0 115.507)"/><rect class="f" width="10.722" height="14.012" transform="translate(0 144.384)"/><rect class="f" width="10.722" height="14.012" transform="translate(0 173.261)"/></g><g transform="translate(17.922 82.183)"><rect class="f" width="10.722" height="14.012" transform="translate(10.722 14.012) rotate(-180)"/><rect class="f" width="10.722" height="14.012" transform="translate(0 28.877)"/><rect class="f" width="10.722" height="14.012" transform="translate(0 57.753)"/><rect class="f" width="10.722" height="14.012" transform="translate(0 86.63)"/><rect class="f" width="10.722" height="14.012" transform="translate(0 115.507)"/><rect class="f" width="10.722" height="14.012" transform="translate(0 144.384)"/><rect class="f" width="10.722" height="14.012" transform="translate(0 173.261)"/></g></g><rect class="g" width="65.498" height="238.706" transform="translate(367.876 560.091) rotate(-180)"/><rect class="c" width="38.956" height="202.852" transform="translate(450.343 560.091) rotate(-180)"/><rect class="g" width="100.875" height="211.817" transform="translate(303.884 560.091) rotate(-180)"/><rect class="g" width="66.581" height="264.328" transform="translate(221.982 560.091) rotate(-180)"/><g transform="translate(190.732 359.737)"><rect class="c" width="8.73" height="19.836" transform="translate(50.468 32.729) rotate(-180)"/><rect class="d" width="8.73" height="10.444" transform="translate(50.468 32.729) rotate(-180)"/><rect class="c" width="19.988" height="32.729" transform="translate(29.703 32.729) rotate(-180)"/><rect class="d" width="19.988" height="10.444" transform="translate(29.703 32.729) rotate(-180)"/><rect class="e" width="62.697" height="173.833" transform="translate(62.697 200.354) rotate(-180)"/><g transform="translate(43.879 44.548)"><rect class="f" width="5.812" height="7.595" transform="translate(5.812 7.595) rotate(-180)"/><rect class="f" width="5.812" height="7.595" transform="translate(0 15.653)"/><rect class="f" width="5.812" height="7.595" transform="translate(0 31.306)"/><rect class="f" width="5.812" height="7.595" transform="translate(0 46.959)"/><rect class="f" width="5.812" height="7.595" transform="translate(0 62.611)"/><rect class="f" width="5.812" height="7.595" transform="translate(0 78.264)"/><rect class="f" width="5.812" height="7.595" transform="translate(0 93.917)"/></g><g transform="translate(26.797 44.548)"><rect class="f" width="5.812" height="7.595" transform="translate(5.812 7.595) rotate(-180)"/><rect class="f" width="5.812" height="7.595" transform="translate(0 15.653)"/><rect class="f" width="5.812" height="7.595" transform="translate(0 31.306)"/><rect class="f" width="5.812" height="7.595" transform="translate(0 46.959)"/><rect class="f" width="5.812" height="7.595" transform="translate(0 62.611)"/><rect class="f" width="5.812" height="7.595" transform="translate(0 78.264)"/><rect class="f" width="5.812" height="7.595" transform="translate(0 93.917)"/></g><g transform="translate(9.715 44.548)"><rect class="f" width="5.812" height="7.595" transform="translate(5.812 7.595) rotate(-180)"/><rect class="f" width="5.812" height="7.595" transform="translate(0 15.653)"/><rect class="f" width="5.812" height="7.595" transform="translate(0 31.306)"/><rect class="f" width="5.812" height="7.595" transform="translate(0 46.959)"/><rect class="f" width="5.812" height="7.595" transform="translate(0 62.611)"/><rect class="f" width="5.812" height="7.595" transform="translate(0 78.264)"/><rect class="f" width="5.812" height="7.595" transform="translate(0 93.917)"/></g></g><g transform="translate(96.495 301.026)"><path class="e" d="M299.049,920.706H232.206V859.148l66.843,31.531Z" transform="translate(-217.38 -859.148)"/><rect class="h" width="96.495" height="211.783" transform="translate(0 47.282)"/><rect class="c" width="66.843" height="6.683" transform="translate(14.826 40.599)"/><g transform="translate(24.172 78.538)"><rect class="i" width="9.848" height="15.191" transform="translate(0 102.489)"/><rect class="i" width="9.848" height="15.191" transform="translate(0 76.867)"/><rect class="i" width="9.848" height="15.191" transform="translate(0 51.245)"/><rect class="i" width="9.848" height="15.191" transform="translate(0 25.622)"/><rect class="i" width="9.848" height="15.191"/></g><g transform="translate(43.323 78.538)"><rect class="i" width="9.848" height="15.191" transform="translate(0 102.489)"/><rect class="i" width="9.848" height="15.191" transform="translate(0 76.867)"/><rect class="i" width="9.848" height="15.191" transform="translate(0 51.245)"/><rect class="i" width="9.848" height="15.191" transform="translate(0 25.622)"/><rect class="i" width="9.848" height="15.191"/></g><g transform="translate(62.475 78.538)"><rect class="i" width="9.848" height="15.191" transform="translate(0 102.489)"/><rect class="i" width="9.848" height="15.191" transform="translate(0 76.867)"/><rect class="i" width="9.848" height="15.191" transform="translate(0 51.245)"/><rect class="i" width="9.848" height="15.191" transform="translate(0 25.622)"/><rect class="i" width="9.848" height="15.191"/></g></g><g transform="translate(246.875 100.057)"><rect class="j" width="31.689" height="61.558" transform="translate(32.403)"/><rect class="c" width="31.689" height="9.747" transform="translate(32.403 51.811)"/><rect class="j" width="66.843" height="61.558" transform="translate(14.826 58.328)"/><rect class="g" width="96.495" height="354.424" transform="translate(96.495 460.034) rotate(-180)"/><rect class="c" width="66.843" height="6.683" transform="translate(14.826 98.927)"/><rect class="i" width="9.848" height="15.191" transform="translate(62.475 367.467)"/><rect class="i" width="9.848" height="15.191" transform="translate(62.475 316.222)"/><rect class="i" width="9.848" height="15.191" transform="translate(62.475 290.6)"/><rect class="i" width="9.848" height="15.191" transform="translate(62.475 264.978)"/><rect class="i" width="9.848" height="15.191" transform="translate(62.475 213.733)"/><rect class="i" width="9.848" height="15.191" transform="translate(62.475 162.488)"/><rect class="i" width="9.848" height="15.191" transform="translate(43.323 341.845)"/><rect class="i" width="9.848" height="15.191" transform="translate(43.323 290.6)"/><rect class="i" width="9.848" height="15.191" transform="translate(43.323 188.111)"/><rect class="i" width="9.848" height="15.191" transform="translate(43.323 162.488)"/><rect class="i" width="9.848" height="15.191" transform="translate(24.172 393.089)"/><rect class="i" width="9.848" height="15.191" transform="translate(24.172 316.222)"/><rect class="i" width="9.848" height="15.191" transform="translate(24.172 264.978)"/><rect class="i" width="9.848" height="15.191" transform="translate(24.172 213.733)"/><rect class="i" width="9.848" height="15.191" transform="translate(24.172 188.111)"/><rect class="i" width="9.848" height="15.191" transform="translate(34.02 152.057) rotate(-180)"/></g><rect class="k" width="13.302" height="105.214" transform="translate(31.638)"/><rect class="c" width="13.302" height="9.747" transform="translate(31.638 95.466)"/><rect class="k" width="24.212" height="61.558" transform="translate(57.457 55.55)"/><rect class="l" width="96.495" height="457.258" transform="translate(96.495 560.091) rotate(-180)"/><rect class="c" width="24.212" height="6.683" transform="translate(57.457 96.149)"/><rect class="m" width="9.848" height="15.191" transform="translate(62.475 390.312)"/><rect class="m" width="9.848" height="15.191" transform="translate(62.475 364.69)"/><rect class="m" width="9.848" height="15.191" transform="translate(62.475 287.823)"/><rect class="m" width="9.848" height="15.191" transform="translate(62.475 262.201)"/><rect class="m" width="9.848" height="15.191" transform="translate(62.475 210.956)"/><rect class="m" width="9.848" height="15.191" transform="translate(72.323 149.279) rotate(-180)"/><rect class="m" width="9.848" height="15.191" transform="translate(43.323 339.068)"/><rect class="m" width="9.848" height="15.191" transform="translate(43.323 262.201)"/><rect class="m" width="9.848" height="15.191" transform="translate(43.323 236.578)"/><rect class="m" width="9.848" height="15.191" transform="translate(43.323 185.333)"/><rect class="m" width="9.848" height="15.191" transform="translate(43.323 159.711)"/><rect class="m" width="9.848" height="15.191" transform="translate(24.172 390.312)"/><rect class="m" width="9.848" height="15.191" transform="translate(24.172 339.068)"/><rect class="m" width="9.848" height="15.191" transform="translate(24.172 287.823)"/><rect class="m" width="9.848" height="15.191" transform="translate(24.172 236.578)"/><rect class="m" width="9.848" height="15.191" transform="translate(24.172 159.711)"/><g transform="translate(356.596 215.107)"><rect class="c" width="26.086" height="19.836" transform="translate(50.468 19.836) rotate(-180)"/><rect class="d" width="26.086" height="10.444" transform="translate(50.468 19.836) rotate(-180)"/><rect class="e" width="62.697" height="331.357" transform="translate(62.697 344.985) rotate(-180)"/><rect class="f" width="5.812" height="7.595" transform="translate(49.69 39.25) rotate(-180)"/><rect class="f" width="5.812" height="7.595" transform="translate(43.879 109.919)"/><rect class="f" width="5.812" height="7.595" transform="translate(43.879 141.225)"/><rect class="f" width="5.812" height="7.595" transform="translate(43.879 172.53)"/><rect class="f" width="5.812" height="7.595" transform="translate(43.879 188.183)"/><rect class="f" width="5.812" height="7.595" transform="translate(32.608 39.25) rotate(-180)"/><rect class="f" width="5.812" height="7.595" transform="translate(26.797 78.613)"/><rect class="f" width="5.812" height="7.595" transform="translate(26.797 109.919)"/><rect class="f" width="5.812" height="7.595" transform="translate(26.797 172.53)"/><rect class="f" width="5.812" height="7.595" transform="translate(32.608 211.431) rotate(-180)"/><rect class="f" width="5.812" height="7.595" transform="translate(9.715 47.308)"/><rect class="f" width="5.812" height="7.595" transform="translate(9.715 78.613)"/><rect class="f" width="5.812" height="7.595" transform="translate(9.715 109.919)"/><rect class="f" width="5.812" height="7.595" transform="translate(9.715 141.225)"/><rect class="f" width="5.812" height="7.595" transform="translate(9.715 156.877)"/><rect class="f" width="5.812" height="7.595" transform="translate(9.715 172.53)"/><rect class="f" width="5.812" height="7.595" transform="translate(9.715 188.183)"/><rect class="f" width="5.812" height="7.595" transform="translate(15.526 211.431) rotate(-180)"/></g></g><circle class="n" cx="15.211" cy="15.211" r="15.211" transform="translate(1391.842 817.7)"/><circle class="o" cx="15.211" cy="15.211" r="15.211" transform="translate(922.52 534.333)"/><circle class="p" cx="4.918" cy="4.918" r="4.918" transform="translate(1662.291 463.307)"/><path class="n" d="M742.072,749.728l-5.467.091-.09-5.468a4.117,4.117,0,0,0-4.185-4.048h0a4.118,4.118,0,0,0-4.049,4.185l.091,5.467-5.469.091a4.117,4.117,0,0,0,.138,8.233l5.467-.091.09,5.468a4.117,4.117,0,0,0,4.185,4.048h0a4.118,4.118,0,0,0,4.049-4.185l-.091-5.467,5.467-.09a4.118,4.118,0,1,0-.137-8.234Z" transform="translate(91.569 46.991)"/><path class="q" d="M1177.72,591.175l-4.427.074-.073-4.427a3.335,3.335,0,0,0-3.389-3.278h0a3.334,3.334,0,0,0-3.278,3.389l.074,4.427-4.427.073a3.334,3.334,0,0,0,.11,6.667l4.428-.074.073,4.427a3.335,3.335,0,0,0,3.389,3.278h0a3.335,3.335,0,0,0,3.278-3.389l-.074-4.427,4.427-.073a3.334,3.334,0,0,0-.111-6.667Z" transform="translate(160.706 22.363)"/><path class="p" d="M632.478,446.224l-2.915.049-.049-2.915a2.194,2.194,0,0,0-2.231-2.158h0a2.193,2.193,0,0,0-2.158,2.231l.049,2.915-2.915.049a2.195,2.195,0,1,0,.073,4.389l2.915-.049.049,2.915a2.195,2.195,0,0,0,2.231,2.158h0a2.2,2.2,0,0,0,2.158-2.231l-.049-2.915,2.915-.049a2.195,2.195,0,0,0-.073-4.389Z" transform="translate(76.055)"/></g><path class="r" d="M2056,1281.913V1111.154c-.927-5.079-1.988-10.081-3.237-14.971-31.19-122.122-183.885-99.241-210.221,12.456-30.879-89.387-152.33-95.2-195.683-11.936,5.378-78.147-96.488-124.3-152.625-69.6-4.948-152.771-226.452-177.336-263.737-28.083-51.794-71.414-73.381-164.49-88.005-250.066-9.139-53.473,7.342-74.791-46.9-75.942-56.284-1.193-39.407,31.928-48.822,84.634-14.781,82.746-36.333,172.264-86.457,241.373-37.284-149.252-258.788-124.688-263.737,28.083-56.137-54.7-158-8.55-152.625,69.6-43.264-83.172-164.763-77.445-195.683,11.936-11.811-50.433-49.051-98.314-104.929-98.314-84.766,0-103.78,64.26-107.341,130.692v144.951c0,9.408-9.408,737.339,0,737.339l1916.763,48.838c8.2,0,1.609-359.927,3.237-367.639C2056.116,1701.988,2055.868,1284.455,2056,1281.913Z" transform="translate(-4808.796 -12132.644)"/><circle class="s" cx="4.722" cy="4.722" r="4.722" transform="translate(-3784.086 -11222.158)"/><path class="s" d="M1047.685,888.323l-2.8.047-.047-2.8a2.107,2.107,0,0,0-2.142-2.072h0a2.108,2.108,0,0,0-2.072,2.142l.047,2.8-2.8.047a2.108,2.108,0,0,0,.07,4.214l2.8-.047.047,2.8a2.108,2.108,0,0,0,2.142,2.073h0a2.108,2.108,0,0,0,2.072-2.143l-.047-2.8,2.8-.047a2.108,2.108,0,0,0-.07-4.214Z" transform="translate(-4708.819 -12169.394)"/><g transform="translate(-3840.399 -11654.256)"><g transform="translate(0 180.483)"><path class="t" d="M961.4,580.309s-43.06,19.874-64.176,87.776-12.421,87.777,9.937,63.762,54.653-43.06,70.8-43.06Z" transform="translate(-885.157 -580.309)"/><path class="t" d="M1047.883,580.309s43.06,19.874,64.175,87.776,12.421,87.777-9.937,63.762-54.653-43.06-70.8-43.06Z" transform="translate(-868.917 -580.309)"/></g><path class="u" d="M1021.294,738.084s14.659,16.451,14.659,47.27-15.122,46.344-17.44,46.344-5.1-3.708-5.1-3.708-5.561,21.782-11.354,21.782-13.439-29.2-15.061-30.588-2.318,2.549-6.72,3.013-9.7-17.38-9.7-38v-.144c.171-30.468,14.658-45.968,14.658-45.968Z" transform="translate(-875.666 -382.295)"/><path class="v" d="M1011.065,740.435s9.294,20.191,9.294,41.5-4.968,26.44-7.211,26.44-4.808-5.769-4.808-5.769-2.4,10.737-6.57,10.737-7.532-13.14-8.333-16.506c0,0-1.281,2.724-4.005,2.724s-6.09-13.248-6.09-26.815,9.776-34.668,9.776-34.668Z" transform="translate(-874.248 -382.295)"/><path class="w" d="M1003.057,720.6h30.568s-.794,11.93-4.241,16.968-17.658,7.158-26.327,7.158-22.88-2.121-26.327-7.158-4.241-16.968-4.241-16.968Z" transform="translate(-875.454 -384.238)"/><path class="x" d="M948.189,529.53c12.024-58.977,46.712-111.656,58.468-111.656s46.111,52.679,58.135,111.656,10.694,146.849-4.216,187.234c-12.8,34.676-19.723,41.767-32.871,41.767h-42.43c-13.149,0-20.07-7.091-32.871-41.767C937.495,676.379,936.165,588.506,948.189,529.53Z" transform="translate(-879.054 -417.874)"/><path class="y" d="M1022.71,477.192l11.759-2.432S1054.9,533.7,1054.9,585.111,1035.73,715.99,1032.279,726.73s9.508-58.588,9.508-138.749S1022.71,477.192,1022.71,477.192Z" transform="translate(-869.874 -411.553)"/><path class="t" d="M1003.84,479.265c-19.864,0-32.472-3.134-39.9-6.039,14.615-32.477,32.319-55.352,40.064-55.352s25.293,22.861,39.808,55.322C1036.4,476.108,1023.774,479.265,1003.84,479.265Z" transform="translate(-876.404 -417.874)"/><circle class="z" cx="34.802" cy="34.802" r="34.802" transform="translate(92.801 83.307)"/><circle class="aa" cx="26.626" cy="26.626" r="26.626" transform="translate(100.977 91.482)"/><path class="ab" d="M1002.026,424.05c-3.062,1.5,13.946,21.806,19.27,48.428a65.242,65.242,0,0,0,12.136-2.569S1009.329,420.464,1002.026,424.05Z" transform="translate(-872.213 -417.209)"/><path class="ab" d="M1074.732,617.19a168.316,168.316,0,0,1,25.532,51.718c8.838,30.442,14.73,54.664,8.51,54.991s-10.8-8.183-10.8-8.183S1091.794,653.89,1074.732,617.19Z" transform="translate(-864.094 -395.728)"/><path class="ab" d="M910.627,643.115s-15.723,39.409-17.349,65.466S901.953,704,901.953,704,904.667,669.586,910.627,643.115Z" transform="translate(-884.274 -392.847)"/></g><g class="ac" transform="translate(-2813.454 -11430.646)"><g transform="translate(-1748.463 265.677)"><g transform="translate(0 318.838)"><g transform="translate(368.308 431.797)"><path class="ad" d="M-345.914,3417.295a16.666,16.666,0,0,1-16.647-16.647A16.667,16.667,0,0,1-345.914,3384a16.667,16.667,0,0,1,16.647,16.648A16.666,16.666,0,0,1-345.914,3417.295Zm0-29.982a13.349,13.349,0,0,0-13.334,13.335,13.35,13.35,0,0,0,13.334,13.334,13.35,13.35,0,0,0,13.335-13.334A13.349,13.349,0,0,0-345.914,3387.313Z" transform="translate(362.561 -3384)"/></g><g transform="translate(329.998)"><path class="ad" d="M434.958,3696.038a10.519,10.519,0,1,1,10.518-10.519A10.531,10.531,0,0,1,434.958,3696.038Zm0-17.725a7.206,7.206,0,1,0,7.206,7.206A7.214,7.214,0,0,0,434.958,3678.313Z" transform="translate(-424.439 -3675)"/></g><g transform="translate(1329.573 422.167)"><path class="ad" d="M3698.633,4183.387a9.194,9.194,0,1,1,9.193-9.193A9.2,9.2,0,0,1,3698.633,4183.387Zm0-15.074a5.881,5.881,0,1,0,5.88,5.881A5.887,5.887,0,0,0,3698.633,4168.313Z" transform="translate(-3689.439 -4165)"/></g><g transform="translate(704.325 64.534)"><path class="ad" d="M4206.531,3829.184a12.092,12.092,0,1,1,12.092-12.092A12.106,12.106,0,0,1,4206.531,3829.184Zm0-20.871a8.779,8.779,0,1,0,8.779,8.779A8.79,8.79,0,0,0,4206.531,3808.313Z" transform="translate(-4194.439 -3805)"/></g><g transform="translate(59.088 121.222)"><path class="ad" d="M-346.3,4422.486v-6.5h-6.454v-2.718h6.454v-6.454h2.75v6.454h6.454v2.718h-6.454v6.5Z" transform="translate(352.75 -4406.812)"/></g><g transform="translate(1669.175 350.92)"><path class="ad" d="M4298.749,4797.971,4309,4787.719l-10.187-10.187,4.285-4.285,10.187,10.187,10.177-10.176,4.34,4.34-10.177,10.176,10.187,10.187-4.284,4.285-10.187-10.187-10.253,10.253Z" transform="translate(-4298.749 -4773.247)"/></g><g transform="translate(0 350.92)"><path class="ad" d="M304.749,4797.971,315,4787.719l-10.187-10.187,4.285-4.285,10.187,10.187,10.176-10.176,4.34,4.34-10.176,10.176,10.187,10.187-4.285,4.285-10.187-10.187-10.253,10.253Z" transform="translate(-304.749 -4773.247)"/></g><g transform="translate(1000.951 544.014)"><path class="ad" d="M1670.9,4644.107a16.647,16.647,0,1,1,16.647-16.647A16.667,16.667,0,0,1,1670.9,4644.107Zm0-29.982a13.334,13.334,0,1,0,13.334,13.335A13.35,13.35,0,0,0,1670.9,4614.125Z" transform="translate(-1654.25 -4610.813)"/></g></g><g transform="translate(63.368)"><g transform="translate(1552.909 139.217)"><path class="ad" d="M4756.709,3010.295a16.647,16.647,0,1,1,16.647-16.647A16.666,16.666,0,0,1,4756.709,3010.295Zm0-29.982a13.335,13.335,0,1,0,13.335,13.335A13.349,13.349,0,0,0,4756.709,2980.313Z" transform="translate(-4740.062 -2977)"/></g><g transform="translate(1110.49 156.271)"><path class="ad" d="M4037.581,2781.037a10.519,10.519,0,1,1,10.519-10.519A10.531,10.531,0,0,1,4037.581,2781.037Zm0-17.724a7.206,7.206,0,1,0,7.206,7.206A7.214,7.214,0,0,0,4037.581,2763.313Z" transform="translate(-4027.062 -2760)"/></g><g transform="translate(93.585 142.59)"><path class="ad" d="M250.153,2635.184a12.092,12.092,0,1,1,12.092-12.092A12.106,12.106,0,0,1,250.153,2635.184Zm0-20.871a8.779,8.779,0,1,0,8.779,8.779A8.789,8.789,0,0,0,250.153,2614.313Z" transform="translate(-238.061 -2611)"/></g><g transform="translate(1577.919 51.412)"><path class="ad" d="M4845.923,2060.56v6.5h6.455v2.718h-6.455v6.454h-2.75v-6.454h-6.455v-2.718h6.455v-6.5Z" transform="translate(-4836.719 -2060.56)"/></g><g transform="translate(0 123.946)"><path class="ad" d="M-315.063,2500.213l-4.179,4.179,4.152,4.152-1.746,1.747-4.152-4.152-4.148,4.147-1.769-1.769,4.148-4.148-4.152-4.152,1.746-1.747,4.152,4.152,4.179-4.179Z" transform="translate(326.909 -2498.444)"/></g><g transform="translate(941.064)"><path class="ad" d="M2739.9,1783.484a16.647,16.647,0,1,1,16.647-16.647A16.666,16.666,0,0,1,2739.9,1783.484Zm0-29.982a13.335,13.335,0,1,0,13.335,13.335A13.35,13.35,0,0,0,2739.9,1753.5Z" transform="translate(-2723.25 -1750.189)"/></g></g></g></g></g></svg>