<svg xmlns="http://www.w3.org/2000/svg" xmlns:xlink="http://www.w3.org/1999/xlink" width="224" height="450" viewBox="0 0 224 450"><defs><style>.a{fill:#fff;stroke:#707070;}.b{clip-path:url(#a);}.c,.f{isolation:isolate;}.d{fill:url(#b);}.e{fill:url(#e);}.f{opacity:0.74;mix-blend-mode:multiply;}</style><clipPath id="a"><rect class="a" width="224" height="450" transform="translate(0 3683)"/></clipPath><linearGradient id="b" y1="0.5" x2="1" y2="0.5" gradientUnits="objectBoundingBox"><stop offset="0" stop-color="#d500f9"/><stop offset="0.99" stop-color="#2979ff"/></linearGradient><linearGradient id="e" y1="0.5" x2="1" y2="0.5" gradientUnits="objectBoundingBox"><stop offset="0" stop-color="#ea80fc"/><stop offset="0.99" stop-color="#40c4ff"/></linearGradient></defs><g class="b" transform="translate(0 -3683)"><g transform="translate(59.615 3446.831)"><g transform="translate(-168.167 331.806)"><g class="c"><g transform="translate(119.605 61.873)"><path class="d" d="M-16.173,482.207l-36.6.306-22.125-102.15,36.6-.307Z" transform="translate(74.894 -380.057)"/></g><g transform="translate(0 0.001)"><path class="d" d="M-131.571,482.145l-36.6.306L-33.223,332.113l36.6-.306Z" transform="translate(168.167 -331.806)"/></g><g transform="translate(0 150.339)"><path class="d" d="M48.937,509.128l-36.6.307-180.508-60.081,36.6-.306Z" transform="translate(168.167 -449.047)"/></g><g transform="translate(36.596)"><path class="e" d="M-4.683,331.806,40.88,542.226l-180.508-60.08ZM-85.523,466.659,2.1,495.829l-22.125-102.15-65.5,72.98" transform="translate(139.628 -331.806)"/></g></g></g><g class="f" transform="translate(-168.167 482.145)"><path class="d" d="M48.937,509.128l-36.6.307-180.508-60.081,36.6-.306Z" transform="translate(168.167 -449.047)"/></g></g></g></svg>