<svg xmlns="http://www.w3.org/2000/svg" xmlns:xlink="http://www.w3.org/1999/xlink" width="366.57" height="366.57" viewBox="0 0 366.57 366.57"><defs><style>.a{fill:#2268fd;}.b{fill:url(#a);}.c,.d{fill:#fff;}.c{font-size:17px;font-family:Muli-Bold, Muli;font-weight:700;}.e{filter:url(#b);}</style><linearGradient id="a" x1="0.5" x2="0.5" y2="1" gradientUnits="objectBoundingBox"><stop offset="0" stop-color="#1f1f1f"/><stop offset="1" stop-color="#141414"/></linearGradient><filter id="b" x="0" y="0" width="366.57" height="366.57" filterUnits="userSpaceOnUse"><feOffset input="SourceAlpha"/><feGaussianBlur stdDeviation="20" result="c"/><feFlood flood-opacity="0.102"/><feComposite operator="in" in2="c"/><feComposite in="SourceGraphic"/></filter></defs><g transform="translate(6192.978 4224.376)"><rect class="a" width="246.737" height="246.737" rx="92" transform="translate(-6155.079 -4136.918) rotate(-8)"/><g class="e" transform="matrix(1, 0, 0, 1, -6192.98, -4224.38)"><rect class="b" width="246.57" height="246.57" rx="71" transform="translate(60 60)"/></g><text class="c" transform="translate(-6015.741 -3994.068)"><tspan x="-55.029" y="0">Winning with</tspan><tspan x="-34.17" y="22">Integrity</tspan></text><g transform="translate(-6862.436 -4464.602)"><path class="d" d="M834.22,446.264a5.475,5.475,0,0,1-2.74-2.893c-1.094-2.2-2.3-4.344-3.431-6.529a.972.972,0,0,0-1.375-.566c-2.583.83-5.19,1.582-7.773,2.412a3.495,3.495,0,0,1-4.452-4.869c2.485-5.95,4.929-11.916,7.433-17.857.326-.773.238-1.283-.455-1.674a10.2,10.2,0,0,0-1.8-.87A7.525,7.525,0,0,1,814,406.058a5.45,5.45,0,0,0-2.2-4.357,7.428,7.428,0,0,1-2.453-8.762,5.254,5.254,0,0,0-.442-4.763,7.434,7.434,0,0,1,.859-9.133,5.214,5.214,0,0,0,1.29-4.6,7.427,7.427,0,0,1,4.044-8.155,5.394,5.394,0,0,0,2.948-3.884,7.473,7.473,0,0,1,6.9-6.157,4.9,4.9,0,0,0,3.731-2.227c2.313-3.423,5.021-4.47,9.081-3.5a5.072,5.072,0,0,0,3.7-.513c1.341-.707,2.721-1.34,4.083-2h2.3c1.363.665,2.749,1.287,4.081,2.008a5.21,5.21,0,0,0,4.071.424,7.212,7.212,0,0,1,6.766,1.362,8.6,8.6,0,0,1,1.767,1.992,5.188,5.188,0,0,0,4.095,2.478,7.407,7.407,0,0,1,6.648,5.855,5.738,5.738,0,0,0,3.178,4.26,7.427,7.427,0,0,1,3.866,8.155,5.057,5.057,0,0,0,1.239,4.434,7.469,7.469,0,0,1,.875,9.292,5.129,5.129,0,0,0-.429,4.588,7.477,7.477,0,0,1-2.492,8.917,5.265,5.265,0,0,0-2.116,4.1c-.188,4.032-2,6.353-5.832,7.588a6.073,6.073,0,0,0-.629.231c-1.686.76-1.851,1.18-1.146,2.885q3.6,8.716,7.2,17.435a3.373,3.373,0,0,1-2.348,4.847,4.791,4.791,0,0,1-2.151-.19c-2.576-.74-5.137-1.534-7.687-2.362a1.056,1.056,0,0,0-1.513.627c-1.1,2.165-2.3,4.273-3.385,6.445a5.509,5.509,0,0,1-2.74,2.893h-1.727a5.012,5.012,0,0,1-2.741-3.1c-2.458-6.063-4.988-12.1-7.5-18.14-.124-.3-.285-.583-.528-1.075-.249.542-.4.847-.533,1.162-2.494,6.014-5.012,12.019-7.457,18.053a5.031,5.031,0,0,1-2.74,3.1Zm27.661-27.8c3.23.263,4.866-.735,5.927-3.265a7.521,7.521,0,0,1,4.742-4.435c2.883-.957,3.843-2.159,4-5.222a7.707,7.707,0,0,1,3.062-5.926,4.711,4.711,0,0,0,1.662-5.869,7.719,7.719,0,0,1,.567-6.735c1.428-2.492,1.241-4.154-.633-6.379a7.432,7.432,0,0,1-1.77-6.244c.452-2.721-.324-4.4-2.754-5.712a7.73,7.73,0,0,1-4.111-5.579,4.7,4.7,0,0,0-4.406-3.988,7.729,7.729,0,0,1-5.926-3.6,4.715,4.715,0,0,0-5.754-2.24A7.662,7.662,0,0,1,849.763,352a4.7,4.7,0,0,0-6.1-.025,7.7,7.7,0,0,1-6.811,1.28,4.693,4.693,0,0,0-5.681,2.209,7.731,7.731,0,0,1-6,3.649,4.671,4.671,0,0,0-4.348,3.934,7.8,7.8,0,0,1-4.247,5.7,4.67,4.67,0,0,0-2.664,5.4,7.733,7.733,0,0,1-1.95,6.74,4.609,4.609,0,0,0-.583,5.827,7.972,7.972,0,0,1,.649,7.256,4.542,4.542,0,0,0,1.488,5.424,8.153,8.153,0,0,1,3.354,6.672,4.509,4.509,0,0,0,3.461,4.52,8,8,0,0,1,5.384,4.911,4.653,4.653,0,0,0,5.015,3.031,7.616,7.616,0,0,1,6.413,2.382c1.947,1.99,3.713,2.318,6.231,1.16a7.556,7.556,0,0,1,6.578-.02c2.589,1.181,4.325.853,6.308-1.174A7.472,7.472,0,0,1,861.881,418.463Zm-37.908-.1c-2.337,5.648-4.622,11.159-6.883,16.68a1.046,1.046,0,0,0,.058.852c.09.134.526.125.769.052,2.66-.792,5.311-1.615,7.968-2.417,2.2-.664,3.6-.075,4.688,1.957,1.232,2.31,2.441,4.632,3.691,6.931a5.541,5.541,0,0,0,.839.95,4.9,4.9,0,0,0,.768-1c1.562-3.7,3.093-7.422,4.63-11.137.789-1.908,1.573-3.818,2.374-5.765-4.179.29-4.94.016-8.071-2.836a4.819,4.819,0,0,0-3.7-1.267,11.276,11.276,0,0,1-1.623.032A7.782,7.782,0,0,1,823.974,418.365Zm26.585,7.05a3.382,3.382,0,0,0,.1.416q3.492,8.448,7,16.888c.107.257.4.6.616.6s.529-.309.663-.557c1.306-2.414,2.579-4.846,3.87-7.268,1.078-2.022,2.509-2.628,4.682-1.969,2.534.767,5.058,1.568,7.6,2.316a4.613,4.613,0,0,0,1.245.018,4.792,4.792,0,0,0-.169-1.167q-2.982-7.26-6-14.5l-.728-1.754a3.084,3.084,0,0,0-.307.248,7.707,7.707,0,0,1-6.933,2.694,4.713,4.713,0,0,0-3.885,1.508,12.3,12.3,0,0,1-1.971,1.655A7.756,7.756,0,0,1,850.559,425.416Z" transform="translate(0)"/><path class="d" d="M886.8,454.851c.083-.336.191-.835.331-1.325.858-3.009,1.688-6.026,2.61-9.015a1.291,1.291,0,0,0-.583-1.655c-2.616-2-5.2-4.047-7.785-6.082a2.807,2.807,0,0,1-1.2-3.26,2.866,2.866,0,0,1,2.889-1.948c3.355-.127,6.71-.266,10.067-.346a1.127,1.127,0,0,0,1.213-.905c1.107-3.13,2.258-6.244,3.4-9.36a2.81,2.81,0,0,1,5.488-.011c1.136,3.086,2.285,6.167,3.374,9.269a1.23,1.23,0,0,0,1.33,1.015c3.356.068,6.712.2,10.066.344,2.09.087,3.435,1.792,2.786,3.62a3.977,3.977,0,0,1-1.258,1.626q-3.881,3.131-7.852,6.151a1.117,1.117,0,0,0-.459,1.436c.949,3.181,1.841,6.38,2.745,9.574a2.861,2.861,0,0,1-.934,3.433c-1.072.757-2.215.7-3.558-.206-2.759-1.854-5.524-3.7-8.261-5.584a1.062,1.062,0,0,0-1.431,0c-2.843,1.956-5.715,3.871-8.587,5.785a2.694,2.694,0,0,1-3.07.1A2.751,2.751,0,0,1,886.8,454.851Zm3.014-.215.176.12q4.245-2.857,8.491-5.714c1.566-1.056,2.448-1.059,4.033.007q3.936,2.647,7.869,5.3c.213.143.446.256.836.478-.994-3.486-1.934-6.763-2.863-10.043-.517-1.825-.237-2.657,1.265-3.834q3.7-2.9,7.4-5.79c.228-.179.433-.387.771-.691-3.661-.141-7.106-.275-10.551-.4a2.87,2.87,0,0,1-3.081-2.209c-.913-2.486-1.812-4.977-2.721-7.464-.278-.761-.569-1.516-.933-2.484-.206.508-.328.787-.433,1.072-1.087,2.966-2.165,5.935-3.257,8.9a2.851,2.851,0,0,1-3,2.184q-4.982.183-9.964.369a5.571,5.571,0,0,0-.618.1c.3.25.484.419.682.575,2.564,2.012,5.123,4.03,7.7,6.028a2.893,2.893,0,0,1,1.082,3.393c-.127.428-.241.86-.363,1.29Q891.073,450.228,889.816,454.636Z" transform="translate(-53.795 -52.641)"/><path class="d" d="M877.2,387.433a28.74,28.74,0,0,1,28.3,24.007c.048.283.068.571.1.857.135,1.071-.268,1.759-1.115,1.9-.9.149-1.439-.388-1.733-1.484a49.014,49.014,0,0,0-2.11-7.231,25.457,25.457,0,0,0-26.307-15,25.715,25.715,0,0,0-22.677,21.251c-.065.378-.1.762-.175,1.136a1.433,1.433,0,1,1-2.812-.476,28.1,28.1,0,0,1,3.7-10.8A28.77,28.77,0,0,1,877.2,387.433Z" transform="translate(-30.454 -29.342)"/><path class="d" d="M877.194,533.975c-14.256-.023-26.638-10.789-28.391-24.686-.16-1.272.248-2,1.19-2.112.894-.11,1.489.515,1.672,1.8A24.121,24.121,0,0,0,857.5,521.9c7.065,7.936,15.937,10.974,26.211,8.292,10.255-2.677,16.526-9.6,18.876-19.988.127-.56.19-1.134.308-1.7.2-.964.859-1.48,1.663-1.328a1.467,1.467,0,0,1,1.146,1.806,28.234,28.234,0,0,1-7.483,15.857A28.736,28.736,0,0,1,877.194,533.975Z" transform="translate(-30.538 -118.426)"/></g></g></svg>