<svg xmlns="http://www.w3.org/2000/svg" xmlns:xlink="http://www.w3.org/1999/xlink" width="366.57" height="366.57" viewBox="0 0 366.57 366.57"><defs><style>.a{fill:#7461d8;}.b{fill:url(#a);}.c,.d{fill:#fff;}.c{font-size:17px;font-family:Muli-Bold, Muli;font-weight:700;}.e{filter:url(#b);}</style><linearGradient id="a" x1="0.5" x2="0.5" y2="1" gradientUnits="objectBoundingBox"><stop offset="0" stop-color="#1f1f1f"/><stop offset="1" stop-color="#141414"/></linearGradient><filter id="b" x="0" y="0" width="366.57" height="366.57" filterUnits="userSpaceOnUse"><feOffset input="SourceAlpha"/><feGaussianBlur stdDeviation="20" result="c"/><feFlood flood-opacity="0.102"/><feComposite operator="in" in2="c"/><feComposite in="SourceGraphic"/></filter></defs><g transform="translate(7107.268 4220.578)"><rect class="a" width="246.737" height="246.737" rx="92" transform="translate(-7070.587 -4133.119) rotate(-8)"/><g class="e" transform="matrix(1, 0, 0, 1, -7107.27, -4220.58)"><rect class="b" width="246.57" height="246.57" rx="71" transform="translate(60 60)"/></g><text class="c" transform="translate(-6923.968 -3974.722)"><tspan x="-35.326" y="0">Stronger</tspan><tspan x="-35.853" y="22">Together</tspan></text><g transform="translate(-7739.158 -4458.846)"><path class="d" d="M809.279,348a16.22,16.22,0,0,1,3.227,1.46,8.165,8.165,0,0,1,2.239,2.62c1.627,2.988,3.141,6.039,4.638,9.1a9.97,9.97,0,0,1-5.546,13.915c-3.128,1.174-6.282,2.28-9.413,3.446a10.054,10.054,0,0,1-8.946-.654,2.95,2.95,0,0,0-.376-.146c.75,6.187,4.334,10.791,8.236,15.266a28.046,28.046,0,0,1,7.443-5.285,28.546,28.546,0,0,1,25.651.018,1.888,1.888,0,0,1,1.159,2.6c-.482,1.009-1.546,1.291-2.769.706a24.878,24.878,0,0,0-22.286-.088,22.836,22.836,0,0,0-6.954,5.069,1.178,1.178,0,0,0-.292.985,27.651,27.651,0,0,1,1.951,11.438c-.025,1.013.011,2.027-.008,3.04a1.852,1.852,0,1,1-3.682,0c-.089-2.7-.01-5.415-.328-8.085a20.5,20.5,0,0,0-5.256-11.153,26.839,26.839,0,0,1-6.25-12.441,42.972,42.972,0,0,1-.649-5.564,3.4,3.4,0,0,0-.68-1.921,6.29,6.29,0,0,0-2.823-2.3,8.848,8.848,0,0,1-2.937-2.388,1.742,1.742,0,0,1,.325-2.661,1.824,1.824,0,0,1,2.594.49,3.309,3.309,0,0,0,4.542,1.05c.251-.116.5-.24.756-.338a1.832,1.832,0,0,1,1.588,3.3c-.342.2-.705.355-1.245.623a42.247,42.247,0,0,0,3.5,4.081,5.476,5.476,0,0,0,5.691,1.116c3.536-1.213,7.069-2.449,10.54-3.836a6.16,6.16,0,0,0,3.239-8.442c-1.5-3.156-3.111-6.262-4.722-9.363a3.472,3.472,0,0,0-4.2-1.807c-7.7,2.073-15.4,4.1-23.067,6.284a11.88,11.88,0,0,0-8.57,8.721,103.156,103.156,0,0,0-3.545,21.3c-.281,4.774-.347,9.561-.516,14.545,1.115-.877,1.987-1.625,2.923-2.281a1.88,1.88,0,0,1,2.833.309c.623.928.326,1.986-.785,2.741a10.462,10.462,0,0,0-4.824,9.2,24.1,24.1,0,0,0,.619,7.216,14.54,14.54,0,0,0,13.9,10.266c4.391.028,8.784.063,13.174-.013a12.711,12.711,0,0,1,8.479,2.973,25.1,25.1,0,0,0,38.566-30.07c-.17-.361-.356-.714-.508-1.082a1.835,1.835,0,1,1,3.325-1.547A28.774,28.774,0,0,1,826.576,442.2a6.567,6.567,0,0,0-.712.153h-4.423a2.856,2.856,0,0,0-.519-.151,28.717,28.717,0,0,1-15.676-6.441,8.291,8.291,0,0,0-5.515-1.93c-4.482.04-8.966.03-13.448.008a18.131,18.131,0,0,1-17.092-11.762,43.093,43.093,0,0,1-1.191-4.6V392.412c.05-.36.129-.719.144-1.081a117.511,117.511,0,0,1,3.766-24.981,15.989,15.989,0,0,1,11.656-11.9c2.706-.792,5.442-1.484,8.164-2.224q7.762-2.112,15.522-4.228Z" transform="translate(0)"/><path class="d" d="M1063.767,361.637l-17.1,21.436c-.364.456-.719.919-1.1,1.363a1.827,1.827,0,0,1-2.29.623,1.858,1.858,0,0,1-1-2.234q1.2-5.763,2.413-11.524c.062-.295.1-.595.162-.989-2.6,0-5.111.01-7.624-.01a3.062,3.062,0,0,1-1.244-.224c-.913-.428-1.177-1.348-.772-2.536q2.339-6.877,4.7-13.748c.436-1.276.8-2.581,1.336-3.816a12.327,12.327,0,0,1,1.333-1.979H1056.4c1.367,1.012,1.514,1.511.9,3.116-.581,1.516-1.172,3.029-1.753,4.545-.436,1.137-.863,2.277-1.343,3.547h1.023c2.056,0,4.114.042,6.169-.017a2.263,2.263,0,0,1,2.377,1.34Zm-5.686,1.256c-2.249,0-4.242.012-6.235,0-1.769-.014-2.554-1.167-1.927-2.834.788-2.093,1.6-4.177,2.4-6.266.258-.673.5-1.352.778-2.1-2.758,0-5.4.018-8.035-.015-.551-.007-.655.311-.785.693q-1.136,3.352-2.276,6.7c-.849,2.489-1.7,4.976-2.586,7.56h1.014c2.18,0,4.359-.022,6.538.009a1.868,1.868,0,0,1,1.945,2.449c-.059.3-.126.6-.188.9q-.6,2.913-1.2,5.827l.164.081Z" transform="translate(-201.415)"/><path class="d" d="M942.218,652.859a22.431,22.431,0,0,1-15.332-6.558,1.849,1.849,0,1,1,2.583-2.6,18.564,18.564,0,0,0,7.678,4.56,18.982,18.982,0,0,0,18.844-4.215c.231-.2.444-.426.686-.613a1.8,1.8,0,0,1,2.495.133,1.761,1.761,0,0,1,.016,2.5,17.766,17.766,0,0,1-1.83,1.677A23.336,23.336,0,0,1,942.218,652.859Z" transform="translate(-119.301 -222.501)"/><path class="d" d="M1066.115,533.192a1.835,1.835,0,1,1,1.841-1.877A1.864,1.864,0,0,1,1066.115,533.192Z" transform="translate(-223.485 -136.92)"/></g></g></svg>