<svg xmlns="http://www.w3.org/2000/svg" xmlns:xlink="http://www.w3.org/1999/xlink" width="366.57" height="366.57" viewBox="0 0 366.57 366.57"><defs><style>.a{fill:#fd8b17;}.b{fill:url(#a);}.c,.d{fill:#fff;}.c{font-size:17px;font-family:Muli-Bold, Muli;font-weight:700;}.e{filter:url(#b);}</style><linearGradient id="a" x1="0.5" x2="0.5" y2="1" gradientUnits="objectBoundingBox"><stop offset="0" stop-color="#1f1f1f"/><stop offset="1" stop-color="#141414"/></linearGradient><filter id="b" x="0" y="0" width="366.57" height="366.57" filterUnits="userSpaceOnUse"><feOffset input="SourceAlpha"/><feGaussianBlur stdDeviation="20" result="c"/><feFlood flood-opacity="0.102"/><feComposite operator="in" in2="c"/><feComposite in="SourceGraphic"/></filter></defs><g transform="translate(6581.53 4360.578)"><rect class="a" width="246.737" height="246.737" rx="92" transform="translate(-6541.3 -4273.119) rotate(-8)"/><g class="e" transform="matrix(1, 0, 0, 1, -6581.53, -4360.58)"><rect class="b" width="246.57" height="246.57" rx="71" transform="translate(60 60)"/></g><text class="c" transform="translate(-6398.5 -4127.082)"><tspan x="-58.047" y="0">Challenge the </tspan><tspan x="-22.423" y="22">Norm</tspan></text><path class="d" d="M1375.721,365.729c-.253,4.258-1.776,6.261-4.764,6.309-3.059.049-4.613-1.918-4.956-6.275-.05-.039-.108-.118-.152-.11-1.783.29-2.859-.628-3.742-2.047a24.9,24.9,0,0,0-2.219-2.968,27.544,27.544,0,0,0-2.8-2.939,6.453,6.453,0,0,1-.964-8.766c.241-.317.508-.614.826-1a6.471,6.471,0,0,1-.032-9.566c-2.817-3.752-2.825-5.943-.2-9.48a20.667,20.667,0,0,1-1.686-3.551,6.318,6.318,0,0,1,6.069-7.855c1.6-.032,3.2-.005,4.944-.005v-1.211q0-17.75,0-35.5a4.8,4.8,0,0,1,5.068-5,4.874,4.874,0,0,1,3.944,2.411,1.337,1.337,0,0,0,.978.547,21.331,21.331,0,0,1,13.939,4.082c3.106,2.255,6.671,2.227,10.19,1.248a31.533,31.533,0,0,0,6.814-2.572c5.766-3.188,10.778-1.795,15.538,2.05.208.168.412.341.606.526a1.6,1.6,0,0,1-.4,2.836,29.151,29.151,0,0,0-12.458,11.248c-2.959,4.768-7.547,7.069-12.989,7.667-2.881.317-5.8.35-8.7.425-4.892.126-8.914,2.277-12.59,5.274a.9.9,0,0,0-.3.582c-.036.692-.014,1.387-.014,2.179h1.164c5.114,0,10.227.01,15.34,0a8.016,8.016,0,0,1,7.72,4.748c1.945,3.879,3.9,7.755,5.8,11.654a4.689,4.689,0,0,1,.437,1.91c.049,2.506-.013,5.015.044,7.52a3.456,3.456,0,0,0,.525,1.745q8.935,13.493,17.929,26.949a7.635,7.635,0,0,1,.578.935,1.581,1.581,0,0,1-1.268,2.3,6.149,6.149,0,0,1-.8.016c-9.158,0-18.315-.016-27.472.022a2.748,2.748,0,0,1-2.516-1.279c-1.09-1.56-2.251-3.072-3.424-4.572a1.449,1.449,0,0,0-.941-.564c-4.277-.033-8.555-.016-12.833-.008A1.02,1.02,0,0,0,1375.721,365.729Zm.671-16.256a6.39,6.39,0,0,1-.565,7.388.827.827,0,0,0-.139.464c-.01,1.662-.006,3.324-.006,5.086h1.165c4.144,0,8.288.041,12.431-.025a2.863,2.863,0,0,1,2.676,1.364c1.039,1.513,2.154,2.979,3.312,4.4a1.912,1.912,0,0,0,1.293.648c7.786.038,15.572.029,23.358.025.243,0,.486-.044.817-.076-.24-.381-.41-.664-.593-.937q-8.251-12.381-16.481-24.776a4.456,4.456,0,0,1-.672-2.217c-.081-2.6-.017-5.213-.045-7.82a3.185,3.185,0,0,0-.316-1.329c-1.843-3.743-3.725-7.466-5.577-11.2a5.007,5.007,0,0,0-4.891-3q-7.369.039-14.737-.006a1.631,1.631,0,0,0-1.5.725c-2.317,3.147-4.676,6.265-7.017,9.395-.174.232-.319.486-.479.73a6.855,6.855,0,0,0,4.978.683,14.71,14.71,0,0,0,7.057-4.179,3,3,0,0,1,2.314-.938c2.238.052,4.478.015,6.717.017,1.461,0,2.206.532,2.224,1.578.018,1.074-.754,1.63-2.274,1.631-1.972,0-3.943-.008-5.915.008a1.665,1.665,0,0,0-.94.186c-1.075.831-2.1,1.723-3.141,2.586,1.632,3.692,1.471,5.014-1.05,8.541a6.7,6.7,0,0,1,2.126,4.853,14.624,14.624,0,0,0,9.93-2.742c.918-.763,1.834-.773,2.477-.028a1.566,1.566,0,0,1-.391,2.435,21.986,21.986,0,0,1-4.131,2.383,21.357,21.357,0,0,1-8.064,1.285,1.706,1.706,0,0,0-1.01.249C1378.345,347.673,1377.412,348.555,1376.391,349.473Zm42.751-64.366c-2.859-2.281-6.634-2.815-9.292-1.409a48.843,48.843,0,0,1-5.3,2.345c-6.293,2.423-12.32,2.712-18.109-1.652-3.081-2.322-6.879-2.677-10.679-2.394v25.492a1.351,1.351,0,0,0,.262-.079c.17-.105.334-.221.5-.332A22.386,22.386,0,0,1,1389.588,303a56.688,56.688,0,0,0,7.395-.39,14.039,14.039,0,0,0,11.114-6.95,27.116,27.116,0,0,1,2.13-3.028A31.223,31.223,0,0,1,1419.142,285.107Zm-46.672,32.329v-.692q0-17.888,0-35.776a3.125,3.125,0,0,0-.022-.6,1.594,1.594,0,0,0-3.159-.01,4.927,4.927,0,0,0-.026.9q0,17.537,0,35.075v1.1Zm-4.709,22.507c-2.1,0-4.206-.01-6.309,0a3.209,3.209,0,1,0-.06,6.408q6.258.037,12.517,0a3.256,3.256,0,0,0,3.37-3.235,3.223,3.223,0,0,0-3.411-3.173C1371.833,339.933,1369.8,339.944,1367.761,339.944Zm-.134-3.21v0c2.135,0,4.271.043,6.405-.011a3.219,3.219,0,0,0,3.008-4.42c-.264-.642-.555-.9-1.351-.619a9.916,9.916,0,0,1-8.519-.387,7.639,7.639,0,0,0-4.452-.982c-.365.022-.734,0-1.1,0-2.127.011-3.581,1.308-3.585,3.2a3.3,3.3,0,0,0,3.59,3.219C1363.624,336.742,1365.626,336.734,1367.627,336.734Zm-1.6,19.258c1.57,0,3.141.015,4.711,0a3.207,3.207,0,1,0-.009-6.41q-4.661-.027-9.322,0a3.211,3.211,0,1,0,.009,6.412C1362.956,356,1364.493,355.992,1366.031,355.992Zm4.006-35.276c-3.219,0-6.248-.08-9.27.033a3.092,3.092,0,0,0-2.733,3.2,3.187,3.187,0,0,0,2.931,3.133c1.264.076,2.537.049,3.8.006a1.213,1.213,0,0,0,.807-.437C1367.038,324.742,1368.467,322.812,1370.036,320.716Zm-.766,38.538c0,2.74-.025,5.4.014,8.063a1.511,1.511,0,0,0,1.565,1.5,1.437,1.437,0,0,0,1.572-1.372c.071-2.791.026-5.586.026-8.349Zm-6.472,0c1.2,1.116,1.562,2.717,3.2,3.309V359.25Z" transform="translate(-7792.051 -4528.557)"/></g></svg>