<svg xmlns="http://www.w3.org/2000/svg" xmlns:xlink="http://www.w3.org/1999/xlink" width="367.332" height="366.57" viewBox="0 0 367.332 366.57"><defs><style>.a{fill:#fa4e92;}.b{fill:url(#a);}.c,.d{fill:#fff;}.c{font-size:17px;font-family:Muli-Bold, Muli;font-weight:700;}.e{filter:url(#b);}</style><linearGradient id="a" x1="0.5" x2="0.5" y2="1" gradientUnits="objectBoundingBox"><stop offset="0" stop-color="#1f1f1f"/><stop offset="1" stop-color="#141414"/></linearGradient><filter id="b" x="0" y="0" width="367.332" height="366.57" filterUnits="userSpaceOnUse"><feOffset input="SourceAlpha"/><feGaussianBlur stdDeviation="20" result="c"/><feFlood flood-opacity="0.102"/><feComposite operator="in" in2="c"/><feComposite in="SourceGraphic"/></filter></defs><g transform="translate(6373.352 4120.938)"><rect class="a" width="246.737" height="246.737" rx="92" transform="translate(-6335.563 -4033.48) rotate(-8)"/><g class="e" transform="matrix(1, 0, 0, 1, -6373.35, -4120.94)"><rect class="b" width="247.331" height="246.57" rx="71" transform="translate(60 60)"/></g><text class="c" transform="translate(-6189.688 -3890.629)"><tspan x="-45.212" y="0">Striving for</tspan><tspan x="-31.288" y="22">Change</tspan></text><g transform="translate(-7005.841 -4361.163)"><path class="d" d="M1044.844,390.887c-.774,1.6-2.061,2.091-3.8,2.081-9.527-.055-19.054-.026-28.581-.027-2.443,0-3.528-1.048-3.484-3.488a65.929,65.929,0,0,1,.323-8.342,17.12,17.12,0,0,1,8.566-12.509c.158-.1.311-.2.526-.339-.141-.193-.25-.367-.382-.52a11.24,11.24,0,0,1-2.242-11.754,11.354,11.354,0,0,1,9.173-7.826,4.632,4.632,0,0,0,.532-.164h3.01a2.324,2.324,0,0,0,.423.165,11.918,11.918,0,0,1,9.3,15.366,33.327,33.327,0,0,1-2.573,4.9c-.118-.146-.1-.115-.078-.1.238.149.479.293.718.443a17.647,17.647,0,0,1,7.522,9.305c.471,1.342.709,2.766,1.054,4.153Zm-5.57-3.637c-.085-1.678-.065-3.307-.266-4.908a12.022,12.022,0,0,0-13.978-10.363c-7.232,1.185-11.26,7.149-10.3,15.272Zm-12.385-21.17a6.125,6.125,0,0,0,6.272-6.216,6.241,6.241,0,0,0-12.481-.049A6.1,6.1,0,0,0,1026.889,366.08Z" transform="translate(-180.536 0)"/><path class="d" d="M768,587.236a45.3,45.3,0,0,1,1.135-4.519,17.489,17.489,0,0,1,7.642-9.219c.209-.128.412-.266.624-.4a12.063,12.063,0,0,1,.812-17.412,11.865,11.865,0,0,1,15.851.385,12.007,12.007,0,0,1,.411,16.971,5.609,5.609,0,0,0,.479.374,17.9,17.9,0,0,1,8.922,15.864c.023,1.63-.047,3.262.018,4.889a3.287,3.287,0,0,1-2.224,3.6h-31.6A4.338,4.338,0,0,1,768,595.7Zm30.236,4.861c0-1.068.032-2.036-.006-3a13.143,13.143,0,0,0-2.713-7.949,12.521,12.521,0,0,0-15.088-3.232c-5.619,2.729-7.36,8.356-6.656,14.182Zm-12.324-21.181a6.1,6.1,0,0,0,6.252-6.221,6.241,6.241,0,0,0-12.482-.035A6.119,6.119,0,0,0,785.913,570.915Z" transform="translate(0 -153.461)"/><path class="d" d="M828.944,348c.761.629,1.567,1.212,2.275,1.9,1.624,1.567,3.213,3.17,4.792,4.783a2.836,2.836,0,0,1-.01,4.387q-2.838,2.881-5.721,5.716a2.822,2.822,0,1,1-3.957-4.008,8.783,8.783,0,0,1,.964-.751l-.172-.35c-1.3.138-2.615.211-3.905.423a30.507,30.507,0,0,0-25.272,26.581c-.121,1.12-.151,2.25-.2,3.377a2.819,2.819,0,1,1-5.634-.07,36.159,36.159,0,0,1,33.761-35.852c.406-.028.81-.072,1.215-.112.024,0,.046-.03.139-.1-.781-.932-1.886-1.674-1.862-3.093A3.122,3.122,0,0,1,827.44,348Z" transform="translate(-18.057 0)"/><path class="d" d="M956.823,597.764c-.76-.629-1.565-1.213-2.272-1.9-1.646-1.59-3.255-3.216-4.859-4.849a2.82,2.82,0,0,1,0-4.247q2.876-2.909,5.785-5.784a2.82,2.82,0,1,1,4.033,3.932,7.439,7.439,0,0,0-.97.981,23.754,23.754,0,0,0,8.814-1.456q17.63-6.612,20.451-25.256a28.909,28.909,0,0,0,.214-3.281,2.838,2.838,0,1,1,5.64.144c-.365,11.866-5.243,21.447-14.708,28.609a34.589,34.589,0,0,1-18.668,6.938c-.556.042-1.111.09-1.828.148.886,1.017,1.972,1.771,1.952,3.185a3.126,3.126,0,0,1-2.083,2.831Z" transform="translate(-135.403 -153.456)"/></g></g></svg>