<svg xmlns="http://www.w3.org/2000/svg" xmlns:xlink="http://www.w3.org/1999/xlink" width="367.332" height="366.571" viewBox="0 0 367.332 366.571"><defs><style>.a{fill:#de06ce;}.b{fill:url(#a);}.c,.d{fill:#fff;}.c{font-size:17px;font-family:Muli-Bold, Muli;font-weight:700;}.e{filter:url(#b);}</style><linearGradient id="a" x1="0.5" x2="0.5" y2="1" gradientUnits="objectBoundingBox"><stop offset="0" stop-color="#1f1f1f"/><stop offset="1" stop-color="#141414"/></linearGradient><filter id="b" x="0" y="0" width="367.332" height="366.571" filterUnits="userSpaceOnUse"><feOffset input="SourceAlpha"/><feGaussianBlur stdDeviation="20" result="c"/><feFlood flood-opacity="0.102"/><feComposite operator="in" in2="c"/><feComposite in="SourceGraphic"/></filter></defs><g transform="translate(3403.81 3892.363)"><rect class="a" width="246.737" height="246.737" rx="92" transform="translate(-3366.021 -3804.905) rotate(-8)"/><g class="e" transform="matrix(1, 0, 0, 1, -3403.81, -3892.36)"><rect class="b" width="247.331" height="246.57" rx="71" transform="translate(60 60)"/></g><text class="c" transform="translate(-3220.144 -3662.054)"><tspan x="-101.286" y="0">Cultivating Relationships</tspan><tspan x="-56.806" y="22">For Tomorrow</tspan></text><path class="d" d="M540.689,670.488a5.446,5.446,0,0,1-3.512,3.009c-2.686.959-5.331,2.037-7.966,3.128a4.163,4.163,0,0,1-4.541-.385,1.014,1.014,0,0,0-.924-.009c-2.149,1.335-4.27,2.716-6.377,4.07,1.387,6.852-1.773,10.632-8.429,10.172-1.359,4.982-3.265,6.458-8.679,6.643a7.347,7.347,0,0,1-3.211,5.743,7.52,7.52,0,0,1-6.548.849c-.692,3.34-2.556,5.527-5.93,6.25-3.433.735-5.805-1.3-8.346-3.265-.565.646-1.094,1.284-1.658,1.889a6.356,6.356,0,0,1-6.671,2.02,6.434,6.434,0,0,1-4.79-5.073,1.307,1.307,0,0,0-.813-.853c-3.836-.438-5.615-1.974-6.568-5.777a3.047,3.047,0,0,0-.119-.321c-4.636-.595-6.476-2.174-7.25-6.21-6.35-1.037-8.739-4.8-6.336-10.217-.411-.3-.833-.648-1.29-.939-2.341-1.49-4.677-2.99-7.054-4.421a2.732,2.732,0,0,0-1.364-.077c-1.051.037-2.209.423-3.131.106-3.3-1.135-6.521-2.517-9.781-3.778a4.77,4.77,0,0,1-2.4-2.554v-1.933c.711-1.692,1.453-3.371,2.128-5.077q5.122-12.95,10.215-25.911c1.148-2.914,2.9-3.7,5.8-2.567,2.921,1.139,5.832,2.3,8.752,3.441a3.905,3.905,0,0,1,2.757,3.959,1.152,1.152,0,0,0,.56.836,16.759,16.759,0,0,0,7.294,1.733c5.051.09,10.158,0,15.069,1.595a1.376,1.376,0,0,0,1.03-.274,9.4,9.4,0,0,0,1.217-1.169,9.458,9.458,0,0,1,8.906-2.856c1.943.33,3.891.624,5.837.937,1.3.21,2.034.99,1.92,2.042-.12,1.116-1.037,1.744-2.415,1.551-2.19-.307-4.372-.674-6.558-1.012a5.279,5.279,0,0,0-4.745,1.546,112.414,112.414,0,0,1-16.933,14.143c-1.069.71-1.059,1.388-.066,2.206a7.067,7.067,0,0,0,6.95,1.12,23.077,23.077,0,0,0,8.287-5.044c2.481-2.134,4.426-2.081,6.747.176,4.929,4.792,10.765,7.084,17.669,6.2a4.5,4.5,0,0,1,3.55.988c4.626,3.488,9.309,6.9,14.031,10.387l7.774-4.993-10.3-26.117c-1.2.433-2.321.753-3.371,1.23a17.317,17.317,0,0,1-11.321,1.052c-.9-.2-1.828-.282-2.738-.448a1.821,1.821,0,0,1-1.719-2.074,1.758,1.758,0,0,1,2.205-1.507q2.513.311,5.008.769a10.431,10.431,0,0,0,5.572-.558c1.656-.6,3.3-1.227,4.925-1.83.019-2.843.6-3.7,3.249-4.76q4.31-1.724,8.635-3.407c2.394-.93,4.284-.1,5.247,2.3q2.264,5.652,4.485,11.321c.52,1.322.206,2.3-.836,2.749-1.064.456-1.991-.064-2.552-1.473-1.53-3.843-3.047-7.692-4.625-11.678l-9.992,3.937,12.439,31.535,9.991-3.937c-1.419-3.612-2.8-7.121-4.176-10.63-.118-.3-.265-.589-.354-.9a1.825,1.825,0,0,1,1.019-2.3,1.764,1.764,0,0,1,2.311.969c.441.945.786,1.935,1.181,2.9q1.812,4.448,3.629,8.892Zm-67.3,21.845c6.494-.172,9.6,6.906,5.136,11.738a28.648,28.648,0,0,0,3.838,2.228,3.365,3.365,0,0,0,4.129-1.854,3.191,3.191,0,0,0-1.046-4.149c-.986-.764-2-1.5-2.946-2.307a1.758,1.758,0,0,1,.11-2.957,1.91,1.91,0,0,1,2.335.291c1.914,1.471,3.809,2.97,5.773,4.373a3.631,3.631,0,0,0,5.233-.761,3.51,3.51,0,0,0-1.013-4.952c-1.5-1.156-3.011-2.291-4.491-3.469a1.812,1.812,0,1,1,2.214-2.849c.525.372,1.02.786,1.532,1.176,1.729,1.316,3.425,2.679,5.2,3.93a3.633,3.633,0,0,0,5.143-.78,3.566,3.566,0,0,0-.95-4.98,50.314,50.314,0,0,1-5.249-4.057,2.37,2.37,0,0,1-.706-1.858,2.034,2.034,0,0,1,1.318-1.316,2.648,2.648,0,0,1,1.838.581c2.5,1.829,4.921,3.767,7.421,5.6a5.115,5.115,0,0,0,2.171.925,3.474,3.474,0,0,0,3.65-2.206,3.782,3.782,0,0,0-1.478-4.47q-6.736-5-13.521-9.935a2.638,2.638,0,0,0-1.648-.445,24.574,24.574,0,0,1-20.082-7.265c-.748-.721-1.186-.757-1.966-.062a25.933,25.933,0,0,1-9.3,5.684c-3.571,1.137-6.99.924-10.107-1.357-3.458-2.531-3.3-6.108.169-8.608s6.753-5.2,10.113-7.821a8.379,8.379,0,0,0,.779-.817,16.227,16.227,0,0,0-1.856-.353c-3.812-.243-7.624-.54-11.441-.647a15.317,15.317,0,0,1-5.873-1.122c-.833-.366-1.682-.693-2.6-1.07l-10.533,26.7,9.744,6.185c1-1.155,1.906-2.286,2.9-3.336A6.6,6.6,0,0,1,458.58,679c.084.342.185.679.278,1.016a6.952,6.952,0,0,1,4.891,1.589,7.238,7.238,0,0,1,2.368,4.545C470.446,686.411,472.635,688.274,473.388,692.333ZM430.6,673.55l12.441-31.538-10-3.938-12.44,31.534Zm17.4,15.095a4.165,4.165,0,0,0,1.576-.765c1.764-1.922,3.483-3.9,5.076-5.96a2.765,2.765,0,0,0-.619-3.788,2.819,2.819,0,0,0-3.845.1c-1.743,1.888-3.4,3.857-5,5.867a2.62,2.62,0,0,0-.115,2.97A3.068,3.068,0,0,0,448.005,688.645Zm14.579-1.9a3.427,3.427,0,0,0-1.95-2.852,2.932,2.932,0,0,0-3.4.784c-1.5,1.681-2.955,3.4-4.39,5.131a2.969,2.969,0,1,0,4.492,3.872c1.463-1.657,2.906-3.334,4.291-5.056A10.074,10.074,0,0,0,462.584,686.742Zm7.4,20.5a5,5,0,0,0,1.641-.891c1.688-1.829,3.314-3.722,4.856-5.676a2.932,2.932,0,0,0-4.42-3.813c-1.714,1.859-3.345,3.8-4.922,5.778a2.644,2.644,0,0,0-.121,3.071A3.123,3.123,0,0,0,469.986,707.239Zm-.1-14.357a3.4,3.4,0,0,0-2.007-2.818,2.81,2.81,0,0,0-3.3.76q-2.291,2.56-4.468,5.22a2.911,2.911,0,0,0,.277,4.293,3,3,0,0,0,4.286-.51c1.434-1.629,2.857-3.27,4.21-4.965A10.512,10.512,0,0,0,469.886,692.882Z" transform="translate(-3698.989 -4410.764)"/></g></svg>